<?xml version="1.0" standalone="no"?>
<!DOCTYPE svg PUBLIC "-//W3C//DTD SVG 20010904//EN"
 "http://www.w3.org/TR/2001/REC-SVG-20010904/DTD/svg10.dtd">
<svg version="1.0" xmlns="http://www.w3.org/2000/svg"
 width="713.000000pt" height="842.000000pt" viewBox="0 0 713.000000 842.000000"
 preserveAspectRatio="xMidYMid meet">

<g transform="translate(0.000000,842.000000) scale(0.100000,-0.100000)"
fill="#000000" stroke="none">
<path d="M3787 5679 c8 -8 16 -8 30 0 16 9 14 10 -11 11 -22 0 -27 -3 -19 -11z"/>
<path d="M3928 5673 c7 -3 16 -2 19 1 4 3 -2 6 -13 5 -11 0 -14 -3 -6 -6z"/>
<path d="M4105 5650 c3 -5 36 -9 73 -9 66 1 66 2 22 10 -64 11 -102 11 -95 -1z"/>
<path d="M4280 5639 c19 -6 69 -14 110 -19 41 -5 102 -16 134 -24 32 -9 63
-13 69 -9 5 3 7 1 4 -4 -7 -11 92 -33 147 -33 15 0 51 -7 79 -15 29 -8 86 -19
127 -25 125 -16 154 -22 168 -33 12 -9 51 -14 180 -22 42 -2 73 -15 37 -15
-47 0 0 -10 91 -20 54 -6 106 -12 114 -13 9 -1 14 5 12 16 -2 9 2 17 8 17 5 0
10 -7 10 -15 0 -8 7 -15 15 -15 8 0 15 -8 15 -18 0 -10 5 -23 12 -30 9 -9 8
-13 -4 -17 -14 -6 -14 -10 -2 -33 7 -14 22 -31 34 -37 20 -11 20 -11 2 -28
-26 -24 -218 -109 -377 -167 -71 -27 -143 -55 -160 -64 -44 -22 -479 -136
-520 -136 -8 0 -36 -7 -61 -16 -26 -9 -86 -20 -133 -26 -47 -5 -106 -12 -131
-15 -25 -3 -49 -9 -54 -13 -5 -5 -19 -5 -32 0 -13 5 -26 5 -28 1 -5 -8 -84
-13 -218 -15 -27 0 -48 -3 -48 -7 0 -4 -15 -3 -32 2 -40 11 -38 11 -38 -1 0
-5 7 -10 15 -10 8 0 15 -4 15 -9 0 -5 -16 -5 -37 -1 -20 5 -49 6 -65 3 -18 -3
-28 -1 -28 6 0 7 -10 5 -27 -6 -21 -14 -25 -15 -18 -3 5 9 -1 7 -15 -5 -13
-11 -20 -14 -16 -7 10 16 -6 15 -30 -3 -24 -18 -38 -19 -31 -1 3 8 -1 17 -9
20 -8 3 -14 -1 -14 -9 0 -21 -30 -26 -86 -16 -39 8 -51 7 -60 -4 -6 -8 -13
-13 -16 -10 -2 2 -18 5 -36 7 -18 1 -32 6 -32 11 0 4 -5 5 -11 1 -6 -3 -15 0
-20 7 -6 10 -11 11 -19 3 -13 -13 -62 -6 -54 7 3 5 1 9 -5 9 -5 0 -12 -6 -15
-12 -3 -9 -9 -7 -20 6 -15 18 -16 18 -16 2 0 -9 -4 -14 -10 -11 -5 3 -10 15
-10 26 0 20 -15 26 -25 9 -7 -11 -55 -9 -55 2 0 4 5 8 11 8 5 0 7 5 3 11 -4 7
-16 1 -33 -15 -15 -15 -30 -24 -33 -20 -4 3 -14 2 -24 -4 -20 -11 -55 13 -47
33 6 16 -13 29 -22 15 -3 -5 -1 -10 5 -10 6 0 8 -4 5 -10 -9 -14 -26 -13 -22
2 2 12 -61 30 -75 22 -5 -3 -8 1 -8 9 0 10 -10 13 -34 10 -27 -2 -38 2 -50 18
l-15 22 -26 -29 c-22 -23 -28 -26 -36 -14 -8 13 -11 13 -23 -2 -9 -12 -16 -14
-24 -6 -7 7 -17 4 -33 -11 -28 -26 -39 -18 -13 10 l19 22 -31 -16 c-34 -18
-47 -38 -38 -62 4 -8 2 -15 -4 -15 -12 0 -24 29 -17 40 3 5 1 11 -4 15 -6 3
-15 -4 -21 -15 -9 -16 -8 -20 5 -20 8 0 15 -4 15 -10 0 -5 -5 -10 -11 -10 -6
0 -19 -10 -30 -22 -10 -13 -18 -17 -19 -10 0 10 -5 10 -22 1 -13 -7 -27 -17
-31 -23 -5 -7 -7 -2 -4 11 5 22 4 22 -21 5 l-25 -17 18 28 c10 16 24 26 32 23
8 -3 23 0 33 7 23 14 27 29 5 21 -8 -4 -15 -1 -15 5 0 6 5 11 10 11 6 0 10 5
10 10 0 21 -19 8 -65 -45 -42 -50 -45 -56 -31 -71 20 -19 20 -20 -3 -20 -11 0
-17 5 -14 13 12 30 -25 9 -73 -42 -29 -30 -58 -55 -65 -55 -11 1 -11 3 1 13 8
7 20 22 27 34 10 17 9 22 -3 27 -18 7 -54 -10 -54 -24 0 -16 18 -11 29 7 5 10
13 14 18 10 4 -5 -17 -32 -47 -61 -30 -29 -65 -66 -76 -82 -13 -17 -25 -25
-30 -20 -5 5 -4 11 4 13 6 3 12 9 12 15 0 6 -7 8 -15 4 -20 -7 -19 3 2 26 9
10 13 21 9 25 -4 5 -12 0 -18 -10 -8 -14 -13 -16 -24 -6 -11 9 -17 9 -29 -1
-8 -7 -15 -17 -15 -22 0 -6 7 -5 15 2 31 26 29 -3 -3 -31 -33 -29 -41 -49 -20
-49 6 0 3 -9 -7 -20 -10 -11 -15 -23 -11 -27 3 -4 22 11 41 32 20 21 38 35 42
31 4 -3 -6 -19 -21 -35 l-28 -30 22 -37 23 -37 28 34 c16 19 29 29 29 24 0 -6
-18 -29 -40 -50 -36 -36 -46 -38 -40 -10 1 5 -8 1 -19 -9 -22 -20 -27 -36 -12
-36 5 0 12 8 14 18 3 12 5 13 6 2 0 -8 -3 -21 -8 -29 -8 -12 -12 -12 -25 2
-22 21 -20 32 7 50 12 8 19 18 15 22 -4 4 -14 2 -23 -5 -21 -18 -19 -7 5 20
34 39 12 36 -29 -4 -22 -21 -44 -35 -50 -32 -7 5 -11 -2 -11 -18 0 -14 -4 -26
-10 -26 -5 0 -10 -5 -10 -11 0 -6 6 -9 14 -6 23 9 14 -53 -12 -73 -12 -10 -22
-23 -22 -28 0 -6 -11 -19 -25 -30 -14 -11 -25 -25 -25 -31 0 -17 -20 -13 -27
4 -5 14 -7 14 -23 0 -9 -8 -20 -12 -24 -8 -3 4 22 33 56 65 34 31 59 61 55 65
-4 4 -28 -14 -53 -41 -25 -26 -48 -45 -51 -42 -3 3 0 12 7 21 20 24 4 18 -26
-10 -20 -19 -23 -25 -10 -25 22 0 20 -16 -5 -34 -20 -13 -20 -16 -6 -30 21
-22 32 -20 50 7 8 12 18 19 22 15 4 -4 -11 -25 -34 -48 -40 -41 -41 -41 -41
-16 0 33 -16 34 -24 1 -4 -14 -11 -25 -16 -25 -6 0 -8 -11 -4 -24 6 -26 -13
-46 -26 -26 -6 9 -11 8 -19 -6 -11 -17 -12 -16 -7 8 5 21 3 26 -8 22 -8 -3
-17 0 -22 7 -4 8 -3 10 4 5 7 -4 12 -2 12 5 0 6 13 25 30 40 29 28 29 38 0 19
-9 -6 -17 -5 -22 3 -5 9 -10 9 -20 -1 -9 -9 -9 -12 5 -12 25 0 21 -12 -18 -50
-28 -27 -34 -39 -30 -64 2 -17 4 -39 4 -48 1 -10 8 -18 16 -18 23 0 18 -18 -6
-22 l-21 -3 20 -26 c18 -22 19 -31 11 -65 -19 -71 -21 -94 -12 -107 16 -19 25
-68 15 -80 -22 -28 -22 -64 1 -88 17 -18 22 -35 21 -76 0 -29 3 -53 8 -53 15
0 8 -29 -9 -38 -15 -9 -15 -13 5 -53 15 -30 18 -46 11 -55 -5 -7 -7 -24 -3
-38 5 -20 2 -26 -11 -26 -14 0 -14 -3 4 -26 15 -20 21 -40 20 -78 -1 -28 4
-76 10 -107 7 -31 11 -60 10 -65 -6 -35 3 -95 15 -100 25 -9 45 17 32 41 -6
11 -15 23 -20 26 -4 4 -3 10 4 14 7 4 11 30 10 64 -3 112 -1 125 14 111 8 -6
12 -18 9 -26 -6 -15 7 -19 23 -6 5 4 8 5 7 3 -2 -2 6 -10 17 -18 26 -18 25
-31 -2 -60 -26 -28 -16 -43 12 -18 12 11 20 13 20 6 0 -6 -7 -14 -15 -17 -22
-9 -19 -35 3 -27 13 5 12 1 -5 -19 -29 -31 -32 -59 -4 -34 17 15 19 15 25 1 9
-24 8 -25 -13 -25 -26 0 -35 -16 -14 -24 15 -6 15 -8 3 -17 -11 -7 -7 -8 13
-3 17 4 27 2 27 -6 0 -6 4 -9 8 -6 5 3 18 -5 29 -18 20 -23 20 -24 2 -37 -14
-10 -16 -16 -7 -26 9 -11 14 -11 26 -1 13 11 14 10 8 -10 -4 -13 -3 -22 3 -22
6 0 8 -7 5 -15 -4 -8 -1 -15 5 -15 6 0 11 -7 11 -16 0 -9 6 -14 13 -11 6 3 20
8 30 12 19 8 24 -10 5 -19 -10 -5 -10 -7 0 -12 6 -3 12 -10 12 -15 0 -6 -4 -8
-9 -5 -5 4 -7 -3 -4 -14 4 -15 9 -17 22 -10 24 12 49 -4 33 -23 -14 -17 -6
-28 16 -20 11 5 13 3 7 -8 -7 -11 -5 -11 10 1 14 11 19 12 22 3 4 -10 10 -10
25 -2 18 10 20 9 15 -5 -8 -19 50 -77 70 -69 7 3 13 0 13 -6 0 -6 17 -11 38
-11 26 0 45 -7 57 -20 13 -15 22 -17 36 -10 25 14 32 12 25 -6 -5 -14 -4 -15
8 -5 11 9 15 9 18 0 2 -7 15 -13 29 -15 13 -1 26 -3 29 -4 3 -1 10 -3 15 -4 6
-1 18 -6 28 -10 12 -6 25 -2 39 10 12 11 18 13 14 6 -4 -6 -2 -12 3 -12 6 0
11 6 11 13 0 9 2 9 8 -1 5 -7 35 -14 70 -16 33 -2 66 -7 71 -11 6 -3 27 -2 47
4 31 8 35 8 30 -6 -4 -11 -2 -14 9 -9 8 3 15 0 15 -7 0 -9 23 -11 83 -10 107
3 130 -2 122 -27 -5 -15 -2 -20 12 -20 10 0 25 4 33 10 9 5 17 5 21 -1 5 -9
68 -19 142 -23 15 0 27 -5 27 -9 0 -5 5 -5 12 -1 6 4 83 9 172 11 89 2 167 5
174 8 6 2 12 1 12 -3 0 -4 20 -7 45 -7 25 0 45 2 45 5 0 3 66 5 146 5 113 0
147 4 154 15 5 7 18 14 29 15 11 1 18 -2 15 -7 -3 -4 0 -8 5 -8 6 0 11 7 11
15 0 10 10 15 28 16 41 1 76 9 82 18 6 10 134 30 200 31 64 0 98 6 112 17 14
11 128 38 142 34 5 -1 12 2 15 7 3 6 24 11 46 13 22 1 46 7 52 12 7 5 25 10
40 12 34 2 179 71 211 98 16 15 22 17 22 6 1 -10 4 -9 15 5 7 10 18 15 23 12
12 -7 292 132 292 145 0 5 7 9 15 9 8 0 15 5 15 10 0 6 4 10 9 10 21 0 120 65
131 86 7 12 22 25 34 28 11 3 46 29 76 58 42 40 60 67 75 111 10 31 22 57 26
57 4 0 10 11 13 25 7 28 26 34 26 9 0 -11 5 -14 16 -10 9 3 19 6 23 6 4 0 13
15 19 34 7 19 26 49 42 67 33 37 36 49 18 67 -9 9 -8 12 5 12 9 0 17 3 17 8 0
4 4 68 9 142 8 118 14 229 26 525 4 96 34 502 40 545 2 19 10 238 16 486 12
490 12 487 -42 506 -27 9 -41 38 -18 38 5 0 8 4 4 9 -8 14 -76 21 -565 56
-118 9 -223 20 -232 26 -10 5 -46 9 -80 9 -35 0 -107 7 -161 14 -64 9 -109 11
-130 5 -17 -5 -33 -5 -36 0 -9 13 -53 20 -191 31 -69 5 -145 12 -170 15 -45 4
-45 4 -10 -6z m1460 -284 c-23 -22 -45 -4 -30 25 11 21 13 21 28 6 14 -14 14
-18 2 -31z m-3010 -510 c0 -8 -4 -15 -10 -15 -5 0 -10 7 -10 15 0 8 5 15 10
15 6 0 10 -7 10 -15z m73 -22 c-7 -2 -21 -2 -30 0 -10 3 -4 5 12 5 17 0 24 -2
18 -5z m-6 -29 c-3 -3 -12 -4 -19 -1 -8 3 -5 6 6 6 11 1 17 -2 13 -5z m-504
-141 c7 3 20 8 29 12 22 9 36 -21 18 -38 -10 -9 -11 -7 -5 11 8 28 -6 28 -31
1 -16 -17 -16 -22 -4 -31 12 -8 11 -9 -3 -4 -10 3 -21 6 -23 6 -2 0 -4 6 -4
13 0 8 -7 14 -15 14 -8 0 -15 -5 -15 -10 0 -6 -3 -7 -7 -4 -3 4 4 19 18 33 20
21 25 23 27 9 2 -9 9 -14 15 -12z m-82 -77 c-9 -10 -9 -16 -1 -21 8 -5 8 -11
-1 -21 -15 -19 -30 -18 -23 1 4 8 3 15 -2 15 -14 0 -54 -43 -54 -57 0 -11 4
-11 16 2 13 13 19 14 25 4 6 -10 11 -10 23 0 32 27 15 -8 -24 -49 -32 -34 -41
-39 -46 -25 -6 14 -8 14 -27 -2 -15 -14 -21 -15 -24 -5 -4 10 -10 9 -30 -4
-14 -9 -22 -11 -18 -4 5 9 1 10 -14 5 -25 -8 -28 7 -5 26 12 10 17 10 23 1 5
-9 12 -7 26 8 10 11 13 20 7 20 -6 0 -12 -6 -15 -12 -2 -7 -8 -10 -12 -6 -4 4
6 23 22 42 28 36 43 45 43 26 0 -5 -4 -10 -10 -10 -5 0 -10 -7 -10 -16 0 -10
6 -14 15 -10 8 3 15 1 15 -3 0 -5 -7 -11 -15 -15 -8 -3 -15 -11 -15 -17 0 -7
8 -5 20 6 12 10 18 25 16 32 -7 16 3 43 15 43 5 0 22 13 37 30 27 30 67 45 43
16z m69 -46 c0 -5 -5 -10 -11 -10 -5 0 -7 5 -4 10 3 6 8 10 11 10 2 0 4 -4 4
-10z m-280 -24 c0 -3 -4 -8 -10 -11 -5 -3 -10 -1 -10 4 0 6 5 11 10 11 6 0 10
-2 10 -4z m240 -16 c0 -5 -5 -10 -11 -10 -5 0 -7 5 -4 10 3 6 8 10 11 10 2 0
4 -4 4 -10z m-34 -45 c-4 -15 -2 -25 4 -25 6 0 8 -4 5 -10 -3 -5 -11 -10 -16
-10 -6 0 -7 5 -4 10 3 6 -1 10 -9 10 -8 0 -18 -9 -21 -20 -3 -11 -10 -20 -15
-20 -5 0 -15 -3 -24 -6 -9 -3 -16 -1 -16 5 0 6 6 11 13 11 16 0 67 52 67 68 0
7 5 12 11 12 7 0 9 -10 5 -25z m-114 -77 c-7 -7 -12 -8 -12 -2 0 14 12 26 19
19 2 -3 -1 -11 -7 -17z m83 2 c-10 -11 -20 -18 -23 -15 -7 6 18 35 31 35 5 0
2 -9 -8 -20z m-105 -18 c0 -12 -48 -52 -61 -52 -6 0 1 13 17 29 30 30 44 37
44 23z m-150 -15 c0 -2 -10 -12 -21 -23 -22 -19 -22 -19 -10 4 10 18 31 31 31
19z m252 -19 c-7 -7 -12 -8 -12 -2 0 14 12 26 19 19 2 -3 -1 -11 -7 -17z m-82
8 c0 -3 -4 -8 -10 -11 -5 -3 -10 -1 -10 4 0 6 5 11 10 11 6 0 10 -2 10 -4z
m20 -16 c0 -5 -10 -15 -22 -21 -23 -12 -23 -12 -4 10 21 23 26 26 26 11z m100
5 c0 -2 -10 -10 -22 -16 -21 -11 -22 -11 -9 4 13 16 31 23 31 12z m-296 -80
c-14 -19 -31 -35 -38 -34 -7 0 -6 2 2 6 6 2 12 10 12 16 0 13 30 47 42 47 5 0
-3 -16 -18 -35z m-54 -55 c0 -5 -4 -10 -10 -10 -5 0 -10 5 -10 10 0 6 5 10 10
10 6 0 10 -4 10 -10z m50 6 c0 -3 -4 -8 -10 -11 -5 -3 -10 -1 -10 4 0 6 5 11
10 11 6 0 10 -2 10 -4z m-65 -66 c-3 -5 -11 -10 -16 -10 -6 0 -7 5 -4 10 3 6
11 10 16 10 6 0 7 -4 4 -10z m-5 -44 c0 -3 -4 -8 -10 -11 -5 -3 -10 -1 -10 4
0 6 5 11 10 11 6 0 10 -2 10 -4z m-97 -22 c-5 -14 -3 -15 17 -4 18 10 21 9 18
-2 -7 -19 -42 -16 -46 5 -2 9 1 17 7 17 6 0 8 -7 4 -16z m-203 -364 c0 -5 -4
-10 -9 -10 -6 0 -13 5 -16 10 -3 6 1 10 9 10 9 0 16 -4 16 -10z m8 -172 c-6
-18 -28 -21 -28 -4 0 9 7 16 16 16 9 0 14 -5 12 -12z m145 -124 c-3 -9 0 -14
8 -12 7 2 18 -7 24 -20 5 -13 20 -25 33 -29 12 -3 22 -11 22 -19 0 -16 -17
-19 -22 -4 -2 6 -20 -2 -42 -16 l-38 -26 7 23 c6 23 5 23 -19 -4 -15 -16 -26
-40 -26 -56 0 -15 -7 -36 -15 -47 -14 -17 -15 -14 -8 36 4 30 8 76 8 102 0 27
4 48 9 48 4 0 17 11 28 25 20 26 41 26 31 -1z m42 6 c3 -5 -1 -10 -10 -10 -9
0 -13 5 -10 10 3 6 8 10 10 10 2 0 7 -4 10 -10z m-89 -325 c-3 -18 -16 -32
-16 -17 0 5 -3 18 -6 26 -4 12 -2 15 9 10 8 -3 14 -12 13 -19z m59 -15 c-3 -5
-11 -10 -16 -10 -6 0 -7 5 -4 10 3 6 11 10 16 10 6 0 7 -4 4 -10z m65 -300 c0
-5 -4 -10 -10 -10 -5 0 -10 5 -10 10 0 6 5 10 10 10 6 0 10 -4 10 -10z"/>
<path d="M2146 4474 c-11 -7 -16 -17 -13 -21 4 -4 15 1 24 10 22 21 14 30 -11
11z"/>
<path d="M5435 5381 c-32 -5 -37 -8 -23 -16 11 -7 -28 -9 -125 -6 -134 3 -217
-8 -217 -30 0 -14 13 -17 130 -33 226 -30 262 -31 293 -6 15 12 27 28 27 35 0
7 6 15 14 17 10 2 11 9 5 26 -9 23 -24 25 -104 13z"/>
<path d="M2464 4839 c-24 -26 -25 -30 -7 -20 13 6 27 20 33 31 15 28 8 25 -26
-11z"/>
<path d="M2340 4839 c0 -5 5 -7 10 -4 6 3 10 8 10 11 0 2 -4 4 -10 4 -5 0 -10
-5 -10 -11z"/>
<path d="M2356 4821 c-4 -7 -5 -15 -2 -18 9 -9 19 4 14 18 -4 11 -6 11 -12 0z"/>
<path d="M2302 4805 c-7 -8 -9 -15 -4 -15 5 0 15 7 22 15 16 19 -1 19 -18 0z"/>
<path d="M2960 4799 c0 -5 5 -7 10 -4 6 3 10 8 10 11 0 2 -4 4 -10 4 -5 0 -10
-5 -10 -11z"/>
<path d="M1829 4780 c-9 -5 -24 -22 -34 -37 -10 -16 -12 -22 -4 -15 23 21 32
13 15 -13 -26 -39 -5 -29 43 21 47 49 52 71 6 29 -31 -30 -48 -25 -20 5 20 22
18 24 -6 10z"/>
<path d="M2095 4780 c-3 -5 -1 -10 4 -10 6 0 11 5 11 10 0 6 -2 10 -4 10 -3 0
-8 -4 -11 -10z"/>
<path d="M1872 4734 c-50 -53 -50 -73 0 -23 44 45 62 69 52 69 -5 0 -28 -21
-52 -46z"/>
<path d="M2175 4767 c-17 -13 -17 -14 4 -20 13 -3 29 2 44 15 l22 19 -30 -18
c-27 -17 -29 -17 -22 0 8 21 6 21 -18 4z"/>
<path d="M2254 4758 l-19 -23 23 19 c21 18 27 26 19 26 -2 0 -12 -10 -23 -22z"/>
<path d="M2026 4754 c-22 -22 -20 -37 3 -25 20 11 36 41 21 41 -5 0 -16 -7
-24 -16z"/>
<path d="M1735 4739 c-11 -17 1 -21 15 -4 8 9 8 15 2 15 -6 0 -14 -5 -17 -11z"/>
<path d="M1922 4738 c-9 -9 -9 -15 0 -26 9 -10 8 -16 -3 -22 -9 -7 -15 -5 -17
5 -6 27 -21 15 -19 -15 2 -34 9 -37 32 -14 8 9 23 13 32 10 16 -7 43 9 43 26
0 5 -9 4 -20 -2 -16 -9 -20 -8 -20 5 0 10 -5 13 -12 9 -8 -5 -9 0 -6 14 7 25
6 26 -10 10z"/>
<path d="M2060 4736 c-8 -6 -26 -24 -40 -40 l-25 -29 28 18 c42 27 32 5 -23
-48 -28 -27 -50 -53 -50 -59 0 -6 12 2 27 18 23 25 27 26 32 11 6 -17 8 -17
25 2 22 24 45 29 25 5 -11 -13 -9 -14 14 -9 17 5 27 3 27 -4 0 -18 17 -12 23
8 3 14 1 18 -9 14 -17 -6 -18 9 -2 25 9 9 9 12 1 12 -7 0 -15 -5 -19 -11 -4
-8 -9 -8 -17 0 -9 9 -16 6 -29 -11 -9 -13 -20 -19 -24 -16 -4 4 14 30 39 57
53 56 59 69 22 45 -14 -9 -25 -12 -25 -6 0 6 6 12 13 15 6 2 10 7 7 10 -3 3
-12 0 -20 -7z"/>
<path d="M2112 4707 c-24 -25 -28 -37 -12 -37 6 0 14 8 17 18 4 9 11 20 17 24
6 4 8 9 5 12 -3 3 -15 -4 -27 -17z"/>
<path d="M2155 4700 c-3 -5 -1 -10 4 -10 6 0 11 5 11 10 0 6 -2 10 -4 10 -3 0
-8 -4 -11 -10z"/>
<path d="M1635 4680 c-3 -5 -1 -10 4 -10 6 0 11 5 11 10 0 6 -2 10 -4 10 -3 0
-8 -4 -11 -10z"/>
<path d="M1831 4649 c-17 -18 -28 -35 -25 -38 3 -3 19 9 36 27 16 18 28 36 25
39 -3 3 -20 -10 -36 -28z"/>
<path d="M1849 4622 c-22 -24 -32 -42 -21 -42 4 0 18 14 30 30 24 32 18 40 -9
12z"/>
<path d="M1881 4606 c-13 -7 -19 -16 -14 -19 6 -4 18 2 28 13 21 23 19 24 -14
6z"/>
<path d="M1928 4609 c-9 -5 -27 -23 -39 -40 -20 -28 -20 -30 -3 -21 23 13 69
60 63 66 -2 3 -12 0 -21 -5z"/>
<path d="M2065 4570 c-10 -11 -13 -20 -8 -20 13 0 38 29 31 35 -3 3 -13 -4
-23 -15z"/>
<path d="M1880 4510 c-8 -5 -12 -12 -9 -15 4 -3 12 1 19 10 14 17 11 19 -10 5z"/>
<path d="M1910 4497 c-8 -7 -22 -21 -30 -32 -13 -17 -11 -16 18 4 17 12 32 27
32 32 0 11 -2 11 -20 -4z"/>
<path d="M1840 4469 c0 -5 5 -7 10 -4 6 3 10 8 10 11 0 2 -4 4 -10 4 -5 0 -10
-5 -10 -11z"/>
<path d="M1897 4434 c-10 -13 -14 -24 -10 -24 9 0 36 40 31 45 -2 2 -11 -8
-21 -21z"/>
<path d="M1840 4420 c0 -5 5 -10 10 -10 6 0 10 5 10 10 0 6 -4 10 -10 10 -5 0
-10 -4 -10 -10z"/>
<path d="M1758 4348 c-10 -10 -18 -23 -18 -30 0 -6 9 -2 21 10 25 27 22 46 -3
20z"/>
<path d="M1655 4330 c-10 -11 -16 -22 -13 -25 3 -3 13 4 23 15 10 11 16 22 13
25 -3 3 -13 -4 -23 -15z"/>
<path d="M1692 4320 c-7 -11 -8 -20 -3 -20 9 0 24 30 18 36 -1 2 -8 -6 -15
-16z"/>
<path d="M1710 4291 c0 -5 -9 -13 -20 -16 -25 -8 -27 -25 -2 -18 20 5 48 43
32 43 -5 0 -10 -4 -10 -9z"/>
<path d="M1729 4268 c-17 -23 -19 -30 -7 -26 8 4 20 2 26 -4 12 -12 42 11 42
31 0 15 27 14 33 -1 4 -8 6 -7 6 3 1 22 -30 34 -41 17 -8 -10 -11 -10 -15 0
-8 20 -20 14 -44 -20z"/>
<path d="M1666 4205 c-30 -25 -31 -40 -4 -30 12 5 44 55 35 55 -1 0 -15 -11
-31 -25z"/>
<path d="M1595 4039 c-4 -6 -5 -13 -2 -16 7 -7 27 6 27 18 0 12 -17 12 -25 -2z"/>
<path d="M4815 2400 c-22 -4 -43 -6 -46 -4 -4 2 -9 -3 -13 -11 -3 -8 0 -15 7
-15 23 0 86 21 92 30 4 6 5 9 3 9 -2 -1 -21 -5 -43 -9z"/>
<path d="M3295 2120 c-4 -6 9 -10 32 -9 30 0 34 2 18 9 -27 12 -43 12 -50 0z"/>
<path d="M3385 2120 c-3 -5 3 -10 15 -10 12 0 18 5 15 10 -3 6 -10 10 -15 10
-5 0 -12 -4 -15 -10z"/>
</g>
</svg>
