<svg version="1.1" id="Layer_1" xmlns="http://www.w3.org/2000/svg" xmlns:xlink="http://www.w3.org/1999/xlink" x="0px" y="0px"
	 width="100%" viewBox="0 0 1246 307" enable-background="new 0 0 1246 307" xml:space="preserve">
<path fill="#FFFEFE" opacity="1.000000" stroke="none" 
	d="
M903.000000,308.000000 
	C602.000000,308.000000 301.500000,308.000000 1.000000,308.000000 
	C1.000000,205.666672 1.000000,103.333336 1.000000,1.000000 
	C416.333344,1.000000 831.666687,1.000000 1247.000000,1.000000 
	C1247.000000,103.333336 1247.000000,205.666672 1247.000000,308.000000 
	C1132.500000,308.000000 1018.000000,308.000000 903.000000,308.000000 
M369.045990,135.875366 
	C369.628510,125.296013 370.455475,114.721634 370.671173,104.134796 
	C370.755402,99.998482 368.423462,95.711990 364.385315,94.850243 
	C360.498871,94.020866 354.876099,93.970390 352.270233,96.205536 
	C348.265808,99.640244 345.109924,104.990974 343.531281,110.124466 
	C340.690948,119.360924 339.286896,129.039062 337.237976,138.744934 
	C326.270996,142.646698 322.417023,146.170685 323.373993,152.949310 
	C324.490906,160.860336 330.882690,162.534531 338.078766,163.280655 
	C337.869110,174.986069 338.541840,186.247299 342.896667,197.373062 
	C346.887848,207.569687 358.199554,215.384552 368.696045,212.627457 
	C373.796326,211.287781 378.917816,204.683609 378.493134,199.252441 
	C378.489746,198.497269 378.486359,197.742081 378.864319,196.444519 
	C378.531097,195.224075 378.506409,193.779724 377.811279,192.821945 
	C374.802917,188.676819 371.598572,184.673920 368.486359,180.076324 
	C368.474854,179.714355 368.463348,179.352402 368.867554,178.293869 
	C368.869019,174.310349 369.177826,170.296982 368.794647,166.350815 
	C368.307831,161.337372 370.147461,159.607925 375.176636,159.637939 
	C378.132660,159.655563 381.341766,158.447662 384.009918,157.002441 
	C389.669128,153.937103 390.748657,147.820801 386.135406,143.323196 
	C383.969513,141.211594 380.464966,140.203781 377.384155,139.379028 
	C374.561646,138.623413 371.492950,138.787186 368.525970,138.006699 
	C368.517212,137.467484 368.508423,136.928253 369.045990,135.875366 
M128.368301,114.245316 
	C122.459648,113.334999 117.891159,116.771149 112.808449,118.784988 
	C106.857361,121.142906 103.178223,125.317833 101.247459,131.079254 
	C99.361954,136.705582 105.491280,143.339081 112.089920,142.431503 
	C112.900818,142.449753 113.711708,142.468018 115.335052,142.816483 
	C119.671333,141.111343 124.059738,139.525909 128.329071,137.667023 
	C132.510101,135.846573 135.005112,136.942200 134.862381,141.467728 
	C134.752899,144.938828 133.405319,148.370865 132.958969,150.302795 
	C130.116440,152.222458 128.471298,153.333466 126.036339,154.663147 
	C124.670578,154.683533 123.304817,154.703918 121.378685,154.247574 
	C119.596451,154.392014 117.631760,154.098236 116.061562,154.751968 
	C105.796875,159.025589 97.371651,164.547256 94.178452,176.696136 
	C92.392593,183.490631 93.181953,189.419235 95.898422,194.667389 
	C101.092186,204.701599 117.986855,209.681961 128.828201,205.368759 
	C130.069626,204.874863 130.955688,203.487717 132.521149,202.419724 
	C132.869568,202.411346 133.217987,202.402954 134.148026,202.949265 
	C135.216522,204.591721 136.275970,206.240158 137.355499,207.875320 
	C139.277679,210.786819 140.960983,214.131836 146.077240,212.437592 
	C146.883347,212.437759 147.689453,212.437927 149.280640,212.788879 
	C155.235794,212.402634 158.024551,207.682571 156.108749,200.146912 
	C156.189362,197.471161 156.269974,194.795425 157.036499,191.831223 
	C157.305664,191.422485 157.794495,191.023102 157.812332,190.603683 
	C158.530930,173.697357 159.471863,156.793747 159.761597,139.879150 
	C159.881943,132.853500 157.534042,126.025612 152.336945,121.040245 
	C148.514694,117.373718 144.786942,112.303604 137.146500,114.823639 
	C134.412262,114.794571 131.678009,114.765503 128.368301,114.245316 
M780.466614,169.278564 
	C778.008789,170.842834 774.762390,171.860840 773.233154,174.068375 
	C767.412903,182.470062 764.408752,192.774979 755.163391,199.538147 
	C753.781433,199.507248 752.399414,199.476334 750.772705,198.726334 
	C742.881348,194.993027 741.392456,188.226822 741.916260,180.383392 
	C742.067810,178.113937 741.639832,175.805771 741.451477,173.012619 
	C741.498535,172.680832 741.545654,172.349045 742.331482,171.738007 
	C742.876404,170.768936 743.623474,169.860199 743.933594,168.821075 
	C745.981934,161.956879 747.429504,154.862946 750.065613,148.238907 
	C752.645630,141.755753 755.859802,135.366425 759.807373,129.632401 
	C763.460571,124.325775 766.800354,125.127800 768.547424,131.168793 
	C769.732666,135.267059 770.016663,139.617889 771.040100,143.772934 
	C772.500488,149.702042 775.855896,152.624680 781.138367,152.430588 
	C782.450806,152.401108 783.763245,152.371628 785.616943,152.788925 
	C788.949707,153.235092 791.654480,152.824265 791.563477,148.133423 
	C791.563477,148.133423 791.771423,147.833450 792.517944,147.873535 
	C796.135559,145.731461 797.845947,142.777573 796.471313,138.017365 
	C796.516113,137.683929 796.560852,137.350479 797.379639,136.704590 
	C797.897644,135.727448 798.773682,134.787430 798.879456,133.767532 
	C800.263062,120.432487 795.933472,109.020439 785.693115,100.594597 
	C781.512695,97.154892 777.016968,91.929100 769.169250,94.792160 
	C766.759766,94.767982 764.350281,94.743805 761.401978,94.243095 
	C758.296753,95.069283 754.758057,95.207458 752.162354,96.842522 
	C741.755005,103.398216 734.099121,112.764313 728.553650,123.532684 
	C723.787476,132.787659 719.664185,142.473404 716.341064,152.334167 
	C714.374329,158.169998 714.512451,164.715179 713.813477,171.875961 
	C713.777405,176.938248 713.741394,182.000549 713.229370,187.663849 
	C712.222290,200.065613 723.631897,216.802170 736.630554,220.806061 
	C740.092957,221.872574 743.864868,221.934525 748.209778,222.401855 
	C749.643494,222.421158 751.077209,222.440445 753.410339,222.817657 
	C755.873413,222.676178 758.566650,223.133713 760.760193,222.290833 
	C770.937256,218.380234 779.852783,212.559097 785.679077,203.051971 
	C788.408936,198.597580 793.198486,194.807709 791.471436,188.017197 
	C791.516663,187.683853 791.561890,187.350510 792.359863,186.720871 
	C794.510376,183.235001 795.609009,179.829758 791.367249,176.219162 
	C791.319702,175.795883 791.272156,175.372604 791.686279,174.508316 
	C790.510864,171.482864 789.505066,168.223587 784.242065,169.794113 
	C783.143799,169.780640 782.045471,169.767166 780.466614,169.278564 
M894.327759,158.242569 
	C895.055481,155.531387 895.657410,152.776138 896.582092,150.133896 
	C896.888306,149.258957 898.048279,148.085846 898.777100,148.113785 
	C899.603516,148.145432 900.890137,149.247269 901.100403,150.099869 
	C902.246643,154.749680 903.483276,159.425537 904.015930,164.168030 
	C905.054504,173.414673 905.439514,182.735016 906.490051,191.979965 
	C907.324768,199.325012 912.419495,203.245605 919.515503,202.686417 
	C925.022461,202.252457 928.846619,197.444305 928.906738,190.694702 
	C928.973511,183.197342 928.287048,175.626190 929.123474,168.222168 
	C929.912903,161.234100 932.060730,154.364227 934.063477,147.575836 
	C934.506958,146.072556 936.849670,145.129593 938.317871,143.928635 
	C939.433838,145.369965 941.379639,146.729538 941.531006,148.265884 
	C942.502625,158.128357 943.223572,168.022186 943.738342,177.920715 
	C944.083740,184.561996 943.608215,191.255783 944.140625,197.874573 
	C944.606628,203.668045 949.157959,207.368011 954.871826,207.610733 
	C962.050232,207.915680 966.946838,203.863464 968.958923,196.250092 
	C972.335083,183.475220 972.171631,170.467270 970.965576,157.534027 
	C970.015503,147.344971 968.411804,137.204117 963.824158,127.725067 
	C956.719971,113.046410 942.619324,110.215729 931.060242,121.584900 
	C928.472290,124.130341 926.290833,127.084541 923.827148,129.763214 
	C922.805237,130.874359 921.533691,131.755997 919.970032,133.087234 
	C918.524963,130.585480 917.465454,128.744934 916.400085,126.907791 
	C910.327820,116.437454 898.203369,113.856537 890.486877,121.843750 
	C888.010681,124.406792 885.883118,124.791321 882.753540,124.455238 
	C875.054688,123.628448 872.144714,125.063751 869.929504,130.956802 
	C869.018005,133.381668 868.663513,136.150925 868.670044,138.761993 
	C868.695557,148.920578 868.469482,159.118668 869.282959,169.225906 
	C870.160828,180.132568 871.952087,190.976624 873.637024,201.802521 
	C874.403687,206.728592 878.675354,209.849548 883.581238,209.841431 
	C889.253357,209.832047 893.781433,204.845444 893.879150,198.095734 
	C894.067383,185.105469 894.078430,172.112640 894.327759,158.242569 
M16.001673,207.491547 
	C24.768860,218.354935 35.965069,224.089310 50.000019,221.909073 
	C63.979763,219.737427 73.932793,211.200287 81.327721,199.498550 
	C85.829010,192.375702 88.122353,184.657333 86.162895,176.241241 
	C84.617317,169.602829 77.104355,167.208405 72.170914,171.837677 
	C69.685722,174.169647 67.772118,177.185852 65.912552,180.092575 
	C62.797932,184.961121 60.044918,190.060974 56.931240,194.930161 
	C54.020950,199.481293 49.499695,200.324356 44.614201,199.258667 
	C39.868557,198.223480 37.339909,194.619858 36.365326,190.226059 
	C35.619305,186.862701 35.444775,183.281296 35.604725,179.824112 
	C36.290668,164.997696 41.013031,151.234985 47.674519,138.167725 
	C49.859325,133.881973 53.101334,129.990677 56.456203,126.490601 
	C59.255169,123.570480 62.445740,124.360138 63.804451,128.314087 
	C64.974815,131.719955 65.719734,135.330673 66.173950,138.911560 
	C67.079147,146.047775 70.679955,151.585983 75.361130,152.394196 
	C81.447205,153.444962 86.127846,150.688324 89.439079,143.047791 
	C92.908379,135.042557 93.063705,126.656708 90.820618,118.177460 
	C87.284431,104.809998 74.023354,94.492714 60.352379,94.544571 
	C49.910225,94.584183 42.786259,100.703606 36.204155,107.678429 
	C27.662243,116.729980 22.299828,127.696800 17.467773,139.034943 
	C10.719390,154.869659 6.474051,171.218719 8.775632,188.421738 
	C9.623569,194.759613 13.285460,200.720978 16.001673,207.491547 
M521.421387,137.749084 
	C518.780212,140.693192 515.386719,143.247894 513.626892,146.648148 
	C505.561005,162.232956 505.268402,178.439133 511.241486,194.777359 
	C517.506104,211.912964 537.594177,217.335266 550.927856,203.677124 
	C552.874146,201.683548 555.024658,199.889374 556.846130,198.218124 
	C560.885437,201.585083 564.639160,204.530945 568.177246,207.716354 
	C571.491150,210.699966 574.786682,209.356201 577.025818,207.009964 
	C578.815796,205.134277 580.041443,201.900482 580.043030,199.268570 
	C580.054993,180.013123 579.165527,160.743881 579.657410,141.507065 
	C579.936157,130.607666 582.277405,119.759888 583.709839,108.891510 
	C584.762634,100.903580 579.560303,96.892761 574.850891,94.995369 
	C570.018860,93.048615 562.928284,95.639252 559.999573,100.521622 
	C558.251709,103.435448 556.833069,106.864761 556.426514,110.203621 
	C555.343567,119.096550 554.903992,128.067200 554.170776,137.003860 
	C554.033813,138.673782 553.721008,140.329285 553.394897,142.669022 
	C543.265198,135.202682 533.304504,131.934448 521.421387,137.749084 
M984.209290,222.315002 
	C985.800964,227.356186 987.140076,232.496872 989.073425,237.403412 
	C990.350098,240.643265 992.968933,242.728333 996.870422,242.438309 
	C1000.673157,242.155640 1003.239197,240.067581 1003.976074,236.541977 
	C1004.882751,232.203583 1005.555359,227.715317 1005.507385,223.300781 
	C1005.424561,215.670013 1004.473938,208.047852 1004.417664,200.418198 
	C1004.403015,198.432098 1005.845093,195.704468 1007.484924,194.566116 
	C1013.860107,190.140564 1020.953979,186.702530 1027.104614,182.010910 
	C1041.766724,170.826691 1044.683594,157.694901 1040.226196,144.279419 
	C1032.188965,120.089737 1002.795471,112.017326 982.717163,127.675072 
	C977.369690,131.845139 973.974365,139.569016 978.069275,147.056412 
	C980.166565,150.891235 981.041748,155.802429 981.135315,160.255203 
	C981.564392,180.691116 980.370605,201.191055 984.209290,222.315002 
M1138.208252,137.537476 
	C1139.536255,136.856049 1140.814087,135.771942 1142.205444,135.598648 
	C1143.821167,135.397385 1146.943359,135.835663 1146.992554,136.270355 
	C1147.535889,141.067184 1148.128906,145.970215 1147.644897,150.736450 
	C1147.253784,154.586304 1143.425049,154.227264 1140.442139,154.363159 
	C1130.829590,154.801056 1122.181030,157.767578 1115.227905,164.602661 
	C1105.791748,173.878708 1104.960938,189.976578 1113.394897,198.291687 
	C1120.786255,205.578751 1131.623047,206.510788 1141.300293,203.554260 
	C1145.867554,202.158920 1148.878174,201.994934 1151.065308,206.628983 
	C1153.149780,211.045319 1156.660522,213.131577 1161.534180,212.250931 
	C1166.732178,211.311707 1168.235107,207.108032 1168.869751,202.724457 
	C1169.390747,199.125916 1169.119873,195.417297 1169.277954,191.760849 
	C1170.017212,174.660599 1171.343628,157.560776 1171.322021,140.462265 
	C1171.309692,130.762100 1167.432129,122.261726 1158.079102,116.966469 
	C1147.494019,110.973656 1124.992798,116.914917 1118.028687,126.480034 
	C1116.218628,128.966034 1115.645508,133.748703 1116.774292,136.567764 
	C1117.809326,139.153030 1121.966187,142.140579 1124.640137,142.041794 
	C1128.973267,141.881683 1133.218628,139.341934 1138.208252,137.537476 
M636.039917,187.403214 
	C632.985840,188.074341 629.958130,189.122391 626.872253,189.337814 
	C620.534302,189.780243 616.860657,186.179138 615.966736,179.213913 
	C615.171448,173.016953 620.371948,173.561127 623.824951,172.500687 
	C632.536865,169.825150 640.510803,166.008743 646.815796,159.217499 
	C655.381287,149.991486 655.222107,136.256317 646.427612,127.404724 
	C636.442017,117.354317 617.684631,116.772881 606.761780,126.248573 
	C594.104248,137.229126 589.513611,151.818359 588.623474,167.890747 
	C588.090210,177.519806 590.067566,186.869156 595.258728,194.958084 
	C605.031250,210.185608 615.296875,211.455627 631.387512,209.126923 
	C637.614868,208.225693 643.896667,205.719498 649.448608,202.663605 
	C655.556519,199.301712 655.467285,192.619217 649.299011,189.312149 
	C645.817261,187.445435 641.092957,187.896378 636.039917,187.403214 
M1205.633057,172.537354 
	C1207.253540,173.572998 1208.874146,174.608627 1211.768921,176.458603 
	C1208.714844,177.827652 1206.843750,178.939667 1204.820190,179.522461 
	C1198.641724,181.301971 1192.250244,182.458557 1186.241089,184.671219 
	C1181.785278,186.311951 1178.556641,189.409134 1178.826538,195.204605 
	C1179.095215,200.975922 1181.064819,205.463745 1186.422119,207.466843 
	C1198.485229,211.977203 1210.779663,211.341446 1222.008423,205.478424 
	C1234.892090,198.751404 1236.048706,184.258789 1232.640991,170.265457 
	C1231.370605,165.048676 1227.810181,161.279678 1222.801636,159.084778 
	C1219.315796,157.557190 1215.730835,156.237045 1212.325684,154.550278 
	C1209.510010,153.155380 1206.893066,151.359375 1204.187988,149.741089 
	C1204.260132,149.052811 1204.332397,148.364517 1204.404541,147.676239 
	C1206.868774,146.762222 1209.271240,145.394226 1211.812866,145.047699 
	C1215.078491,144.602463 1218.456909,145.034943 1221.785278,144.988480 
	C1232.967041,144.832321 1237.803833,135.593445 1232.540039,125.494171 
	C1227.834473,116.466057 1212.794922,115.512589 1204.256470,118.213417 
	C1195.335693,121.035156 1189.243164,127.467140 1184.977661,135.846344 
	C1179.635132,146.341690 1180.959473,158.544357 1189.694580,165.272614 
	C1194.009888,168.596405 1199.761108,170.055710 1205.633057,172.537354 
M422.119446,212.430283 
	C426.244446,210.529388 431.285370,209.565063 434.343964,206.573776 
	C452.548004,188.770493 458.027100,167.209061 450.930450,142.804382 
	C448.762177,135.347763 443.444244,129.617203 435.814789,127.397713 
	C422.828400,123.619835 411.606537,128.146942 404.956879,140.014877 
	C401.772461,145.698288 399.620209,152.061462 397.700745,158.331161 
	C393.659760,171.530472 393.500854,184.909592 399.224121,197.615631 
	C403.333740,206.739243 410.247406,212.971848 422.119446,212.430283 
M820.888916,129.357132 
	C817.553162,132.471710 813.301697,135.050385 811.092773,138.824478 
	C807.641418,144.721024 805.058167,151.267776 803.029297,157.824402 
	C799.115295,170.473175 798.957581,183.305817 803.597107,195.884415 
	C809.288208,211.314041 827.712463,220.171616 842.019775,204.526535 
	C858.262817,186.764709 863.338562,165.588409 856.000793,142.646866 
	C851.131531,127.423141 835.489502,122.209282 820.888916,129.357132 
M195.727951,156.578140 
	C197.637909,154.343307 199.202850,151.621124 201.529068,149.974258 
	C206.505600,146.451080 211.839066,143.421906 217.095963,140.307938 
	C221.768036,137.540421 222.702789,133.221619 221.284760,128.645462 
	C219.913559,124.220398 215.866867,121.973213 211.508438,122.375298 
	C205.812775,122.900757 200.086273,124.124550 194.635651,125.868637 
	C191.590546,126.842987 189.327957,127.479416 186.269302,125.803459 
	C179.769806,122.242142 173.571487,124.604637 170.966293,131.636841 
	C169.611267,135.294464 168.661835,139.294861 168.528870,143.174683 
	C168.198441,152.816757 167.969040,162.508560 168.580048,172.124420 
	C169.271866,183.011948 169.995804,194.071777 176.149704,203.717300 
	C179.438507,208.872131 185.522110,211.258926 190.794464,209.558685 
	C194.774460,208.275192 199.077911,202.345764 198.554214,197.337860 
	C197.714249,189.305954 195.727097,181.390549 194.959610,173.355728 
	C194.454987,168.072937 195.242203,162.666763 195.727951,156.578140 
M1105.939209,137.042908 
	C1108.842407,127.295982 1105.051147,121.797325 1094.963501,122.369965 
	C1089.797607,122.663216 1084.750977,124.804802 1079.611450,125.933723 
	C1077.446289,126.409325 1074.848877,127.252190 1073.016113,126.515205 
	C1063.253540,122.589638 1059.727783,123.755188 1055.525879,133.308472 
	C1054.747437,135.078369 1054.223877,137.098221 1054.161499,139.021469 
	C1053.881348,147.674408 1053.086182,156.397751 1053.841431,164.975586 
	C1054.839844,176.318054 1056.306885,187.751526 1059.086792,198.763580 
	C1061.360718,207.770477 1067.844238,211.118286 1075.484619,209.712463 
	C1080.649048,208.762222 1084.460693,202.456024 1083.793335,194.033264 
	C1083.248291,187.155151 1081.911377,180.266693 1080.193726,173.570541 
	C1077.091187,161.475403 1080.301880,153.256317 1090.938965,147.053574 
	C1095.916382,144.151123 1100.624512,140.787048 1105.939209,137.042908 
M260.583221,201.811447 
	C262.683563,192.159973 259.584961,183.102997 257.518555,173.893478 
	C254.688919,161.282394 256.550781,153.472183 268.293335,146.971634 
	C272.346375,144.727890 276.409515,142.467117 280.257538,139.898743 
	C283.761902,137.559799 285.654022,133.699280 283.918701,129.959396 
	C282.543732,126.996109 279.574280,123.752228 276.617645,122.806686 
	C273.078491,121.674873 268.661499,122.268166 264.873138,123.164482 
	C258.509735,124.670036 253.100693,128.114670 245.570724,125.011299 
	C238.274429,122.004227 231.578140,128.844681 231.342712,138.381104 
	C231.018173,151.527817 230.562775,164.752945 231.639618,177.822876 
	C232.317963,186.055939 234.560776,194.610672 238.127884,202.049561 
	C243.480591,213.212128 253.651520,212.976501 260.583221,201.811447 
M304.198975,136.482697 
	C295.977631,137.166748 292.926208,140.108246 290.690002,148.371719 
	C287.137543,161.499329 288.248108,174.843887 288.907898,188.082932 
	C289.152191,192.984863 291.407715,198.050186 293.738617,202.523834 
	C297.400635,209.552277 305.660309,209.508591 309.429047,202.453781 
	C310.960571,199.586868 311.129547,195.831207 311.334656,192.444565 
	C312.198639,178.178040 312.995392,163.903580 313.500824,149.620834 
	C313.746368,142.681076 310.724396,138.571075 304.198975,136.482697 
M295.512299,107.014702 
	C292.097198,113.219025 296.036804,122.703476 301.288574,124.563011 
	C307.388916,126.723000 314.705719,121.725883 318.162476,113.221268 
	C320.468018,107.548943 317.169739,99.486038 311.011627,97.723526 
	C305.119385,96.037102 299.477631,96.209450 295.512299,107.014702 
z"/>
<path fill="#DC2283" opacity="1.000000" stroke="none" 
	d="
M894.245361,158.681717 
	C894.078430,172.112640 894.067383,185.105469 893.879150,198.095734 
	C893.781433,204.845444 889.253357,209.832047 883.581238,209.841431 
	C878.675354,209.849548 874.403687,206.728592 873.637024,201.802521 
	C871.952087,190.976624 870.160828,180.132568 869.282959,169.225906 
	C868.469482,159.118668 868.695557,148.920578 868.670044,138.761993 
	C868.663513,136.150925 869.018005,133.381668 869.929504,130.956802 
	C872.144714,125.063751 875.054688,123.628448 882.753540,124.455238 
	C885.883118,124.791321 888.010681,124.406792 890.486877,121.843750 
	C898.203369,113.856537 910.327820,116.437454 916.400085,126.907791 
	C917.465454,128.744934 918.524963,130.585480 919.970032,133.087234 
	C921.533691,131.755997 922.805237,130.874359 923.827148,129.763214 
	C926.290833,127.084541 928.472290,124.130341 931.060242,121.584900 
	C942.619324,110.215729 956.719971,113.046410 963.824158,127.725067 
	C968.411804,137.204117 970.015503,147.344971 970.965576,157.534027 
	C972.171631,170.467270 972.335083,183.475220 968.958923,196.250092 
	C966.946838,203.863464 962.050232,207.915680 954.871826,207.610733 
	C949.157959,207.368011 944.606628,203.668045 944.140625,197.874573 
	C943.608215,191.255783 944.083740,184.561996 943.738342,177.920715 
	C943.223572,168.022186 942.502625,158.128357 941.531006,148.265884 
	C941.379639,146.729538 939.433838,145.369965 938.317871,143.928635 
	C936.849670,145.129593 934.506958,146.072556 934.063477,147.575836 
	C932.060730,154.364227 929.912903,161.234100 929.123474,168.222168 
	C928.287048,175.626190 928.973511,183.197342 928.906738,190.694702 
	C928.846619,197.444305 925.022461,202.252457 919.515503,202.686417 
	C912.419495,203.245605 907.324768,199.325012 906.490051,191.979965 
	C905.439514,182.735016 905.054504,173.414673 904.015930,164.168030 
	C903.483276,159.425537 902.246643,154.749680 901.100403,150.099869 
	C900.890137,149.247269 899.603516,148.145432 898.777100,148.113785 
	C898.048279,148.085846 896.888306,149.258957 896.582092,150.133896 
	C895.657410,152.776138 895.055481,155.531387 894.245361,158.681717 
z"/>
<path fill="#DC2383" opacity="1.000000" stroke="none" 
	d="
M15.832769,207.172821 
	C13.285460,200.720978 9.623569,194.759613 8.775632,188.421738 
	C6.474051,171.218719 10.719390,154.869659 17.467773,139.034943 
	C22.299828,127.696800 27.662243,116.729980 36.204155,107.678429 
	C42.786259,100.703606 49.910225,94.584183 60.352379,94.544571 
	C74.023354,94.492714 87.284431,104.809998 90.820618,118.177460 
	C93.063705,126.656708 92.908379,135.042557 89.439079,143.047791 
	C86.127846,150.688324 81.447205,153.444962 75.361130,152.394196 
	C70.679955,151.585983 67.079147,146.047775 66.173950,138.911560 
	C65.719734,135.330673 64.974815,131.719955 63.804451,128.314087 
	C62.445740,124.360138 59.255169,123.570480 56.456203,126.490601 
	C53.101334,129.990677 49.859325,133.881973 47.674519,138.167725 
	C41.013031,151.234985 36.290668,164.997696 35.604725,179.824112 
	C35.444775,183.281296 35.619305,186.862701 36.365326,190.226059 
	C37.339909,194.619858 39.868557,198.223480 44.614201,199.258667 
	C49.499695,200.324356 54.020950,199.481293 56.931240,194.930161 
	C60.044918,190.060974 62.797932,184.961121 65.912552,180.092575 
	C67.772118,177.185852 69.685722,174.169647 72.170914,171.837677 
	C77.104355,167.208405 84.617317,169.602829 86.162895,176.241241 
	C88.122353,184.657333 85.829010,192.375702 81.327721,199.498550 
	C73.932793,211.200287 63.979763,219.737427 50.000019,221.909073 
	C35.965069,224.089310 24.768860,218.354935 15.832769,207.172821 
z"/>
<path fill="#DC2182" opacity="1.000000" stroke="none" 
	d="
M713.705322,187.062836 
	C713.741394,182.000549 713.777405,176.938248 714.057861,171.182526 
	C715.817688,164.592316 717.286316,158.682999 718.857788,152.801178 
	C722.762451,138.186920 729.267273,124.806435 738.231689,112.639297 
	C744.347778,104.338097 752.516785,98.680878 761.940796,94.719635 
	C764.350281,94.743805 766.759766,94.767982 769.822021,95.032700 
	C771.852356,95.824249 773.185608,96.569031 774.614441,96.895882 
	C787.035034,99.737274 797.288330,115.328651 796.299072,127.201797 
	C796.029053,130.442520 796.483582,133.743637 796.605591,137.017029 
	C796.560852,137.350479 796.516113,137.683929 796.217773,138.474670 
	C794.566589,141.899124 793.169006,144.866287 791.771423,147.833450 
	C791.771423,147.833450 791.563477,148.133423 791.211426,148.446442 
	C788.931458,149.953674 787.003601,151.147903 785.075684,152.342148 
	C783.763245,152.371628 782.450806,152.401108 780.627869,152.185822 
	C776.524902,149.401520 773.452209,146.597137 773.118408,141.722458 
	C772.916870,138.778854 772.624084,135.700195 771.571350,132.993668 
	C770.385071,129.943344 768.951965,126.096809 766.445618,124.669563 
	C763.029785,122.724373 760.132202,126.124641 757.737244,128.700394 
	C757.174744,129.305389 756.551331,129.930756 756.224426,130.666122 
	C751.951233,140.279114 747.446167,149.804398 743.629700,159.597382 
	C742.139526,163.421188 742.224915,167.859055 741.592773,172.017258 
	C741.545654,172.349045 741.498535,172.680832 741.195435,173.511902 
	C738.254089,179.993454 739.239319,185.934006 741.224426,191.826477 
	C743.056824,197.265900 746.434326,199.834869 751.017456,199.445419 
	C752.399414,199.476334 753.781433,199.507248 755.835083,199.664185 
	C759.940002,196.458923 763.974243,193.549408 766.673279,189.702957 
	C771.370605,183.008759 773.676941,174.630768 780.947205,169.753693 
	C782.045471,169.767166 783.143799,169.780640 784.804810,170.051147 
	C787.319885,171.855240 789.272217,173.402283 791.224609,174.949341 
	C791.272156,175.372604 791.319702,175.795883 791.316650,176.948181 
	C791.379761,180.790527 791.493469,183.903854 791.607178,187.017181 
	C791.561890,187.350510 791.516663,187.683853 791.216675,188.475128 
	C790.337524,190.097336 789.622253,191.222641 789.103027,192.432083 
	C784.966858,202.066116 779.231323,210.446671 769.641174,215.298996 
	C764.133362,218.085754 758.234009,220.098541 752.510925,222.459732 
	C751.077209,222.440445 749.643494,222.421158 747.622314,222.167664 
	C745.008057,221.249603 743.007446,220.471298 740.949829,219.897720 
	C730.536865,216.995010 722.705994,211.065292 718.655334,200.799072 
	C716.869812,196.273788 715.347229,191.644760 713.705322,187.062836 
z"/>
<path fill="#DC2383" opacity="1.000000" stroke="none" 
	d="
M521.745361,137.575500 
	C533.304504,131.934448 543.265198,135.202682 553.394897,142.669022 
	C553.721008,140.329285 554.033813,138.673782 554.170776,137.003860 
	C554.903992,128.067200 555.343567,119.096550 556.426514,110.203621 
	C556.833069,106.864761 558.251709,103.435448 559.999573,100.521622 
	C562.928284,95.639252 570.018860,93.048615 574.850891,94.995369 
	C579.560303,96.892761 584.762634,100.903580 583.709839,108.891510 
	C582.277405,119.759888 579.936157,130.607666 579.657410,141.507065 
	C579.165527,160.743881 580.054993,180.013123 580.043030,199.268570 
	C580.041443,201.900482 578.815796,205.134277 577.025818,207.009964 
	C574.786682,209.356201 571.491150,210.699966 568.177246,207.716354 
	C564.639160,204.530945 560.885437,201.585083 556.846130,198.218124 
	C555.024658,199.889374 552.874146,201.683548 550.927856,203.677124 
	C537.594177,217.335266 517.506104,211.912964 511.241486,194.777359 
	C505.268402,178.439133 505.561005,162.232956 513.626892,146.648148 
	C515.386719,143.247894 518.780212,140.693192 521.745361,137.575500 
M540.610107,157.241989 
	C540.004211,157.472031 539.265503,157.552643 538.812683,157.954941 
	C533.561890,162.619415 530.990356,179.671310 534.587952,185.667465 
	C536.850769,189.438919 540.882751,189.939697 543.483826,186.243134 
	C545.428528,183.479431 546.783142,180.127930 547.689209,176.842010 
	C549.554077,170.078522 546.288757,160.693985 540.610107,157.241989 
z"/>
<path fill="#DC2383" opacity="1.000000" stroke="none" 
	d="
M984.176819,221.888489 
	C980.370605,201.191055 981.564392,180.691116 981.135315,160.255203 
	C981.041748,155.802429 980.166565,150.891235 978.069275,147.056412 
	C973.974365,139.569016 977.369690,131.845139 982.717163,127.675072 
	C1002.795471,112.017326 1032.188965,120.089737 1040.226196,144.279419 
	C1044.683594,157.694901 1041.766724,170.826691 1027.104614,182.010910 
	C1020.953979,186.702530 1013.860107,190.140564 1007.484924,194.566116 
	C1005.845093,195.704468 1004.403015,198.432098 1004.417664,200.418198 
	C1004.473938,208.047852 1005.424561,215.670013 1005.507385,223.300781 
	C1005.555359,227.715317 1004.882751,232.203583 1003.976074,236.541977 
	C1003.239197,240.067581 1000.673157,242.155640 996.870422,242.438309 
	C992.968933,242.728333 990.350098,240.643265 989.073425,237.403412 
	C987.140076,232.496872 985.800964,227.356186 984.176819,221.888489 
M1016.380371,153.077713 
	C1016.734314,146.972656 1012.549438,141.894470 1007.138062,142.268768 
	C1006.000000,142.347488 1004.069092,143.901779 1004.030151,144.839462 
	C1003.769226,151.128372 1003.821167,157.437042 1003.986389,163.733673 
	C1004.055908,166.382538 1005.518494,167.129456 1008.033142,165.885101 
	C1013.053162,163.400986 1015.995361,159.579910 1016.380371,153.077713 
z"/>
<path fill="#DC2383" opacity="1.000000" stroke="none" 
	d="
M1137.854614,137.672180 
	C1133.218628,139.341934 1128.973267,141.881683 1124.640137,142.041794 
	C1121.966187,142.140579 1117.809326,139.153030 1116.774292,136.567764 
	C1115.645508,133.748703 1116.218628,128.966034 1118.028687,126.480034 
	C1124.992798,116.914917 1147.494019,110.973656 1158.079102,116.966469 
	C1167.432129,122.261726 1171.309692,130.762100 1171.322021,140.462265 
	C1171.343628,157.560776 1170.017212,174.660599 1169.277954,191.760849 
	C1169.119873,195.417297 1169.390747,199.125916 1168.869751,202.724457 
	C1168.235107,207.108032 1166.732178,211.311707 1161.534180,212.250931 
	C1156.660522,213.131577 1153.149780,211.045319 1151.065308,206.628983 
	C1148.878174,201.994934 1145.867554,202.158920 1141.300293,203.554260 
	C1131.623047,206.510788 1120.786255,205.578751 1113.394897,198.291687 
	C1104.960938,189.976578 1105.791748,173.878708 1115.227905,164.602661 
	C1122.181030,157.767578 1130.829590,154.801056 1140.442139,154.363159 
	C1143.425049,154.227264 1147.253784,154.586304 1147.644897,150.736450 
	C1148.128906,145.970215 1147.535889,141.067184 1146.992554,136.270355 
	C1146.943359,135.835663 1143.821167,135.397385 1142.205444,135.598648 
	C1140.814087,135.771942 1139.536255,136.856049 1137.854614,137.672180 
M1140.409912,177.042084 
	C1139.748291,177.051422 1139.083008,177.019623 1138.425537,177.076691 
	C1133.897217,177.469925 1129.512329,181.126999 1130.384521,184.058243 
	C1131.792603,188.790527 1135.626343,187.612122 1139.033813,187.116486 
	C1140.323364,186.928925 1141.947266,186.912827 1142.774170,186.134125 
	C1144.296387,184.700790 1146.645020,182.365250 1146.269531,181.127914 
	C1145.750854,179.418777 1143.028931,178.378311 1140.409912,177.042084 
z"/>
<path fill="#DD2484" opacity="1.000000" stroke="none" 
	d="
M636.484131,187.353271 
	C641.092957,187.896378 645.817261,187.445435 649.299011,189.312149 
	C655.467285,192.619217 655.556519,199.301712 649.448608,202.663605 
	C643.896667,205.719498 637.614868,208.225693 631.387512,209.126923 
	C615.296875,211.455627 605.031250,210.185608 595.258728,194.958084 
	C590.067566,186.869156 588.090210,177.519806 588.623474,167.890747 
	C589.513611,151.818359 594.104248,137.229126 606.761780,126.248573 
	C617.684631,116.772881 636.442017,117.354317 646.427612,127.404724 
	C655.222107,136.256317 655.381287,149.991486 646.815796,159.217499 
	C640.510803,166.008743 632.536865,169.825150 623.824951,172.500687 
	C620.371948,173.561127 615.171448,173.016953 615.966736,179.213913 
	C616.860657,186.179138 620.534302,189.780243 626.872253,189.337814 
	C629.958130,189.122391 632.985840,188.074341 636.484131,187.353271 
M616.336670,156.912338 
	C617.893372,156.863480 620.051758,157.455276 620.903259,156.655563 
	C624.721497,153.069550 628.330139,149.222412 631.679504,145.191238 
	C633.333618,143.200378 635.023193,139.989731 631.635193,138.515564 
	C629.451660,137.565460 625.641174,137.788956 623.777527,139.151718 
	C618.240356,143.200699 616.598938,149.507751 616.336670,156.912338 
z"/>
<path fill="#DC2182" opacity="1.000000" stroke="none" 
	d="
M121.939056,154.724335 
	C123.304817,154.703918 124.670578,154.683533 126.843361,154.731369 
	C130.692947,154.792908 134.646301,156.004654 135.581741,151.842300 
	C136.510574,147.709427 136.656158,143.291290 136.422272,139.038010 
	C136.202301,135.037796 132.899689,133.049377 129.301437,134.682800 
	C124.237823,136.981430 119.436241,139.857254 114.522606,142.486267 
	C113.711708,142.468018 112.900818,142.449753 111.584198,142.196808 
	C104.097054,137.819824 101.476379,133.979156 104.299347,129.234894 
	C106.498367,125.539223 110.596924,122.569565 114.474884,120.383362 
	C118.939934,117.866188 124.090767,116.565460 128.943771,114.736435 
	C131.678009,114.765503 134.412262,114.794571 137.799103,115.074936 
	C152.162781,118.666275 157.218369,128.984390 157.820007,141.492142 
	C158.326675,152.025406 156.822296,162.645920 156.421890,173.235886 
	C156.184219,179.522400 156.360458,185.824554 156.350586,192.119675 
	C156.269974,194.795425 156.189362,197.471161 155.899155,200.830933 
	C154.955139,206.251648 152.279984,209.710159 148.495560,212.438110 
	C147.689453,212.437927 146.883347,212.437759 145.571045,212.208344 
	C142.520126,209.321457 140.073303,206.558060 137.378326,204.062683 
	C136.417023,203.172577 134.854492,202.931763 133.566406,202.394577 
	C133.217987,202.402954 132.869568,202.411346 131.959747,202.292831 
	C129.817963,202.561325 128.194260,202.833633 126.664268,203.372192 
	C117.355370,206.648987 103.836708,202.857529 98.911003,195.110672 
	C92.372826,184.827820 95.555801,167.154755 109.440178,160.239563 
	C113.512039,158.211548 117.767662,156.552490 121.939056,154.724335 
M121.908607,187.547668 
	C123.069382,187.493073 124.241104,187.521439 125.389091,187.369949 
	C131.330078,186.585892 134.561859,183.750504 133.591309,180.234665 
	C132.771255,177.263992 127.601974,175.486374 123.159554,177.461472 
	C120.843979,178.490967 118.945580,180.958542 117.564285,183.209503 
	C117.251106,183.719864 119.865570,186.026764 121.908607,187.547668 
z"/>
<path fill="#DD2484" opacity="1.000000" stroke="none" 
	d="
M1205.247803,172.447998 
	C1199.761108,170.055710 1194.009888,168.596405 1189.694580,165.272614 
	C1180.959473,158.544357 1179.635132,146.341690 1184.977661,135.846344 
	C1189.243164,127.467140 1195.335693,121.035156 1204.256470,118.213417 
	C1212.794922,115.512589 1227.834473,116.466057 1232.540039,125.494171 
	C1237.803833,135.593445 1232.967041,144.832321 1221.785278,144.988480 
	C1218.456909,145.034943 1215.078491,144.602463 1211.812866,145.047699 
	C1209.271240,145.394226 1206.868774,146.762222 1204.404541,147.676239 
	C1204.332397,148.364517 1204.260132,149.052811 1204.187988,149.741089 
	C1206.893066,151.359375 1209.510010,153.155380 1212.325684,154.550278 
	C1215.730835,156.237045 1219.315796,157.557190 1222.801636,159.084778 
	C1227.810181,161.279678 1231.370605,165.048676 1232.640991,170.265457 
	C1236.048706,184.258789 1234.892090,198.751404 1222.008423,205.478424 
	C1210.779663,211.341446 1198.485229,211.977203 1186.422119,207.466843 
	C1181.064819,205.463745 1179.095215,200.975922 1178.826538,195.204605 
	C1178.556641,189.409134 1181.785278,186.311951 1186.241089,184.671219 
	C1192.250244,182.458557 1198.641724,181.301971 1204.820190,179.522461 
	C1206.843750,178.939667 1208.714844,177.827652 1211.768921,176.458603 
	C1208.874146,174.608627 1207.253540,173.572998 1205.247803,172.447998 
z"/>
<path fill="#DD2484" opacity="1.000000" stroke="none" 
	d="
M421.694397,212.437927 
	C410.247406,212.971848 403.333740,206.739243 399.224121,197.615631 
	C393.500854,184.909592 393.659760,171.530472 397.700745,158.331161 
	C399.620209,152.061462 401.772461,145.698288 404.956879,140.014877 
	C411.606537,128.146942 422.828400,123.619835 435.814789,127.397713 
	C443.444244,129.617203 448.762177,135.347763 450.930450,142.804382 
	C458.027100,167.209061 452.548004,188.770493 434.343964,206.573776 
	C431.285370,209.565063 426.244446,210.529388 421.694397,212.437927 
M418.753143,176.391907 
	C419.243378,179.290314 419.255585,182.384689 420.343445,185.038086 
	C421.740997,188.446899 424.839722,188.765823 427.574158,186.358139 
	C435.081482,179.747711 438.789368,160.781494 434.364319,151.625397 
	C431.863678,146.451065 429.781616,146.020370 426.222229,150.364456 
	C420.266235,157.633347 418.323547,166.208206 418.753143,176.391907 
z"/>
<path fill="#DD2484" opacity="1.000000" stroke="none" 
	d="
M821.221375,129.173248 
	C835.489502,122.209282 851.131531,127.423141 856.000793,142.646866 
	C863.338562,165.588409 858.262817,186.764709 842.019775,204.526535 
	C827.712463,220.171616 809.288208,211.314041 803.597107,195.884415 
	C798.957581,183.305817 799.115295,170.473175 803.029297,157.824402 
	C805.058167,151.267776 807.641418,144.721024 811.092773,138.824478 
	C813.301697,135.050385 817.553162,132.471710 821.221375,129.173248 
M841.272766,164.405334 
	C840.815369,160.315506 841.020264,156.004547 839.745728,152.187531 
	C837.821899,146.425751 834.708679,146.082672 830.933350,150.868835 
	C823.367004,160.461105 822.896179,171.654495 824.525085,183.072937 
	C824.770813,184.795517 826.969360,187.361023 828.452698,187.497849 
	C830.252808,187.663895 832.800049,186.104477 834.067017,184.524292 
	C838.509888,178.983276 841.089355,172.576843 841.272766,164.405334 
z"/>
<path fill="#DB1B7F" opacity="1.000000" stroke="none" 
	d="
M378.482971,196.986908 
	C378.486359,197.742081 378.489746,198.497269 378.129272,199.754578 
	C376.899170,201.419586 375.796509,202.475006 375.210266,203.765091 
	C373.323090,207.917755 365.773285,212.129944 361.433044,210.971817 
	C354.789642,209.199127 349.987610,205.135254 346.681915,199.011459 
	C341.687317,189.758881 340.690674,179.617035 339.966644,169.496429 
	C339.393616,161.486359 339.920074,160.977951 332.413147,159.378479 
	C326.879547,158.199463 326.887024,154.824539 326.775574,150.612305 
	C326.654633,146.041092 329.249664,143.771500 333.059692,143.077896 
	C338.349548,142.114883 340.689972,138.774750 341.624847,134.052353 
	C342.802917,128.101532 343.404510,122.016983 344.899170,116.154411 
	C346.177948,111.138466 347.960266,106.151443 350.273041,101.528427 
	C352.309052,97.458611 356.302948,94.710442 360.913116,96.212906 
	C365.526672,97.716454 368.312988,99.161354 368.151489,106.476189 
	C367.931519,116.439720 368.353149,126.417419 368.499695,136.389038 
	C368.508423,136.928253 368.517212,137.467484 368.423340,138.654388 
	C372.039886,140.493561 375.686615,142.130615 379.498779,142.750946 
	C383.291992,143.368210 385.120819,144.932251 385.212158,148.770737 
	C385.344177,154.317902 383.939178,155.927979 378.430542,156.154266 
	C366.640320,156.638626 363.529633,160.619308 365.892426,172.576675 
	C366.331055,174.796509 367.577972,176.856613 368.451843,178.990433 
	C368.463348,179.352402 368.474854,179.714355 368.313965,180.767502 
	C367.167267,189.579315 374.303314,192.298660 378.482971,196.986908 
z"/>
<path fill="#DC2383" opacity="1.000000" stroke="none" 
	d="
M195.589447,156.946991 
	C195.242203,162.666763 194.454987,168.072937 194.959610,173.355728 
	C195.727097,181.390549 197.714249,189.305954 198.554214,197.337860 
	C199.077911,202.345764 194.774460,208.275192 190.794464,209.558685 
	C185.522110,211.258926 179.438507,208.872131 176.149704,203.717300 
	C169.995804,194.071777 169.271866,183.011948 168.580048,172.124420 
	C167.969040,162.508560 168.198441,152.816757 168.528870,143.174683 
	C168.661835,139.294861 169.611267,135.294464 170.966293,131.636841 
	C173.571487,124.604637 179.769806,122.242142 186.269302,125.803459 
	C189.327957,127.479416 191.590546,126.842987 194.635651,125.868637 
	C200.086273,124.124550 205.812775,122.900757 211.508438,122.375298 
	C215.866867,121.973213 219.913559,124.220398 221.284760,128.645462 
	C222.702789,133.221619 221.768036,137.540421 217.095963,140.307938 
	C211.839066,143.421906 206.505600,146.451080 201.529068,149.974258 
	C199.202850,151.621124 197.637909,154.343307 195.589447,156.946991 
z"/>
<path fill="#DC2383" opacity="1.000000" stroke="none" 
	d="
M1105.697021,137.337555 
	C1100.624512,140.787048 1095.916382,144.151123 1090.938965,147.053574 
	C1080.301880,153.256317 1077.091187,161.475403 1080.193726,173.570541 
	C1081.911377,180.266693 1083.248291,187.155151 1083.793335,194.033264 
	C1084.460693,202.456024 1080.649048,208.762222 1075.484619,209.712463 
	C1067.844238,211.118286 1061.360718,207.770477 1059.086792,198.763580 
	C1056.306885,187.751526 1054.839844,176.318054 1053.841431,164.975586 
	C1053.086182,156.397751 1053.881348,147.674408 1054.161499,139.021469 
	C1054.223877,137.098221 1054.747437,135.078369 1055.525879,133.308472 
	C1059.727783,123.755188 1063.253540,122.589638 1073.016113,126.515205 
	C1074.848877,127.252190 1077.446289,126.409325 1079.611450,125.933723 
	C1084.750977,124.804802 1089.797607,122.663216 1094.963501,122.369965 
	C1105.051147,121.797325 1108.842407,127.295982 1105.697021,137.337555 
z"/>
<path fill="#DD2483" opacity="1.000000" stroke="none" 
	d="
M260.393951,202.144867 
	C253.651520,212.976501 243.480591,213.212128 238.127884,202.049561 
	C234.560776,194.610672 232.317963,186.055939 231.639618,177.822876 
	C230.562775,164.752945 231.018173,151.527817 231.342712,138.381104 
	C231.578140,128.844681 238.274429,122.004227 245.570724,125.011299 
	C253.100693,128.114670 258.509735,124.670036 264.873138,123.164482 
	C268.661499,122.268166 273.078491,121.674873 276.617645,122.806686 
	C279.574280,123.752228 282.543732,126.996109 283.918701,129.959396 
	C285.654022,133.699280 283.761902,137.559799 280.257538,139.898743 
	C276.409515,142.467117 272.346375,144.727890 268.293335,146.971634 
	C256.550781,153.472183 254.688919,161.282394 257.518555,173.893478 
	C259.584961,183.102997 262.683563,192.159973 260.393951,202.144867 
z"/>
<path fill="#DD2584" opacity="1.000000" stroke="none" 
	d="
M304.580505,136.538513 
	C310.724396,138.571075 313.746368,142.681076 313.500824,149.620834 
	C312.995392,163.903580 312.198639,178.178040 311.334656,192.444565 
	C311.129547,195.831207 310.960571,199.586868 309.429047,202.453781 
	C305.660309,209.508591 297.400635,209.552277 293.738617,202.523834 
	C291.407715,198.050186 289.152191,192.984863 288.907898,188.082932 
	C288.248108,174.843887 287.137543,161.499329 290.690002,148.371719 
	C292.926208,140.108246 295.977631,137.166748 304.580505,136.538513 
z"/>
<path fill="#E971AF" opacity="1.000000" stroke="none" 
	d="
M368.772827,136.132202 
	C368.353149,126.417419 367.931519,116.439720 368.151489,106.476189 
	C368.312988,99.161354 365.526672,97.716454 360.913116,96.212906 
	C356.302948,94.710442 352.309052,97.458611 350.273041,101.528427 
	C347.960266,106.151443 346.177948,111.138466 344.899170,116.154411 
	C343.404510,122.016983 342.802917,128.101532 341.624847,134.052353 
	C340.689972,138.774750 338.349548,142.114883 333.059692,143.077896 
	C329.249664,143.771500 326.654633,146.041092 326.775574,150.612305 
	C326.887024,154.824539 326.879547,158.199463 332.413147,159.378479 
	C339.920074,160.977951 339.393616,161.486359 339.966644,169.496429 
	C340.690674,179.617035 341.687317,189.758881 346.681915,199.011459 
	C349.987610,205.135254 354.789642,209.199127 361.433044,210.971817 
	C365.773285,212.129944 373.323090,207.917755 375.210266,203.765091 
	C375.796509,202.475006 376.899170,201.419586 378.124023,200.132172 
	C378.917816,204.683609 373.796326,211.287781 368.696045,212.627457 
	C358.199554,215.384552 346.887848,207.569687 342.896667,197.373062 
	C338.541840,186.247299 337.869110,174.986069 338.078766,163.280655 
	C330.882690,162.534531 324.490906,160.860336 323.373993,152.949310 
	C322.417023,146.170685 326.270996,142.646698 337.237976,138.744934 
	C339.286896,129.039062 340.690948,119.360924 343.531281,110.124466 
	C345.109924,104.990974 348.265808,99.640244 352.270233,96.205536 
	C354.876099,93.970390 360.498871,94.020866 364.385315,94.850243 
	C368.423462,95.711990 370.755402,99.998482 370.671173,104.134796 
	C370.455475,114.721634 369.628510,125.296013 368.772827,136.132202 
z"/>
<path fill="#DE2B87" opacity="1.000000" stroke="none" 
	d="
M295.652588,106.646622 
	C299.477631,96.209450 305.119385,96.037102 311.011627,97.723526 
	C317.169739,99.486038 320.468018,107.548943 318.162476,113.221268 
	C314.705719,121.725883 307.388916,126.723000 301.288574,124.563011 
	C296.036804,122.703476 292.097198,113.219025 295.652588,106.646622 
z"/>
<path fill="#F4B9D7" opacity="1.000000" stroke="none" 
	d="
M121.658875,154.485962 
	C117.767662,156.552490 113.512039,158.211548 109.440178,160.239563 
	C95.555801,167.154755 92.372826,184.827820 98.911003,195.110672 
	C103.836708,202.857529 117.355370,206.648987 126.664268,203.372192 
	C128.194260,202.833633 129.817963,202.561325 131.702423,202.340332 
	C130.955688,203.487717 130.069626,204.874863 128.828201,205.368759 
	C117.986855,209.681961 101.092186,204.701599 95.898422,194.667389 
	C93.181953,189.419235 92.392593,183.490631 94.178452,176.696136 
	C97.371651,164.547256 105.796875,159.025589 116.061562,154.751968 
	C117.631760,154.098236 119.596451,154.392014 121.658875,154.485962 
z"/>
<path fill="#F4B9D7" opacity="1.000000" stroke="none" 
	d="
M761.671387,94.481369 
	C752.516785,98.680878 744.347778,104.338097 738.231689,112.639297 
	C729.267273,124.806435 722.762451,138.186920 718.857788,152.801178 
	C717.286316,158.682999 715.817688,164.592316 714.003174,170.715240 
	C714.512451,164.715179 714.374329,158.169998 716.341064,152.334167 
	C719.664185,142.473404 723.787476,132.787659 728.553650,123.532684 
	C734.099121,112.764313 741.755005,103.398216 752.162354,96.842522 
	C754.758057,95.207458 758.296753,95.069283 761.671387,94.481369 
z"/>
<path fill="#E971AF" opacity="1.000000" stroke="none" 
	d="
M368.659698,178.642151 
	C367.577972,176.856613 366.331055,174.796509 365.892426,172.576675 
	C363.529633,160.619308 366.640320,156.638626 378.430542,156.154266 
	C383.939178,155.927979 385.344177,154.317902 385.212158,148.770737 
	C385.120819,144.932251 383.291992,143.368210 379.498779,142.750946 
	C375.686615,142.130615 372.039886,140.493561 368.426697,138.923981 
	C371.492950,138.787186 374.561646,138.623413 377.384155,139.379028 
	C380.464966,140.203781 383.969513,141.211594 386.135406,143.323196 
	C390.748657,147.820801 389.669128,153.937103 384.009918,157.002441 
	C381.341766,158.447662 378.132660,159.655563 375.176636,159.637939 
	C370.147461,159.607925 368.307831,161.337372 368.794647,166.350815 
	C369.177826,170.296982 368.869019,174.310349 368.659698,178.642151 
z"/>
<path fill="#F4B9D7" opacity="1.000000" stroke="none" 
	d="
M741.962097,171.877625 
	C742.224915,167.859055 742.139526,163.421188 743.629700,159.597382 
	C747.446167,149.804398 751.951233,140.279114 756.224426,130.666122 
	C756.551331,129.930756 757.174744,129.305389 757.737244,128.700394 
	C760.132202,126.124641 763.029785,122.724373 766.445618,124.669563 
	C768.951965,126.096809 770.385071,129.943344 771.571350,132.993668 
	C772.624084,135.700195 772.916870,138.778854 773.118408,141.722458 
	C773.452209,146.597137 776.524902,149.401520 780.301758,152.212280 
	C775.855896,152.624680 772.500488,149.702042 771.040100,143.772934 
	C770.016663,139.617889 769.732666,135.267059 768.547424,131.168793 
	C766.800354,125.127800 763.460571,124.325775 759.807373,129.632401 
	C755.859802,135.366425 752.645630,141.755753 750.065613,148.238907 
	C747.429504,154.862946 745.981934,161.956879 743.933594,168.821075 
	C743.623474,169.860199 742.876404,170.768936 741.962097,171.877625 
z"/>
<path fill="#F4B9D7" opacity="1.000000" stroke="none" 
	d="
M156.693542,191.975449 
	C156.360458,185.824554 156.184219,179.522400 156.421890,173.235886 
	C156.822296,162.645920 158.326675,152.025406 157.820007,141.492142 
	C157.218369,128.984390 152.162781,118.666275 138.252472,115.029076 
	C144.786942,112.303604 148.514694,117.373718 152.336945,121.040245 
	C157.534042,126.025612 159.881943,132.853500 159.761597,139.879150 
	C159.471863,156.793747 158.530930,173.697357 157.812332,190.603683 
	C157.794495,191.023102 157.305664,191.422485 156.693542,191.975449 
z"/>
<path fill="#F4B9D7" opacity="1.000000" stroke="none" 
	d="
M796.992554,136.860809 
	C796.483582,133.743637 796.029053,130.442520 796.299072,127.201797 
	C797.288330,115.328651 787.035034,99.737274 774.614441,96.895882 
	C773.185608,96.569031 771.852356,95.824249 770.270142,94.976585 
	C777.016968,91.929100 781.512695,97.154892 785.693115,100.594597 
	C795.933472,109.020439 800.263062,120.432487 798.879456,133.767532 
	C798.773682,134.787430 797.897644,135.727448 796.992554,136.860809 
z"/>
<path fill="#F4B9D7" opacity="1.000000" stroke="none" 
	d="
M752.960632,222.638702 
	C758.234009,220.098541 764.133362,218.085754 769.641174,215.298996 
	C779.231323,210.446671 784.966858,202.066116 789.103027,192.432083 
	C789.622253,191.222641 790.337524,190.097336 791.230347,188.727448 
	C793.198486,194.807709 788.408936,198.597580 785.679077,203.051971 
	C779.852783,212.559097 770.937256,218.380234 760.760193,222.290833 
	C758.566650,223.133713 755.873413,222.676178 752.960632,222.638702 
z"/>
<path fill="#F4B9D7" opacity="1.000000" stroke="none" 
	d="
M713.467346,187.363342 
	C715.347229,191.644760 716.869812,196.273788 718.655334,200.799072 
	C722.705994,211.065292 730.536865,216.995010 740.949829,219.897720 
	C743.007446,220.471298 745.008057,221.249603 747.264771,222.195587 
	C743.864868,221.934525 740.092957,221.872574 736.630554,220.806061 
	C723.631897,216.802170 712.222290,200.065613 713.467346,187.363342 
z"/>
<path fill="#F4B9D7" opacity="1.000000" stroke="none" 
	d="
M128.656036,114.490875 
	C124.090767,116.565460 118.939934,117.866188 114.474884,120.383362 
	C110.596924,122.569565 106.498367,125.539223 104.299347,129.234894 
	C101.476379,133.979156 104.097054,137.819824 111.280945,142.224213 
	C105.491280,143.339081 99.361954,136.705582 101.247459,131.079254 
	C103.178223,125.317833 106.857361,121.142906 112.808449,118.784988 
	C117.891159,116.771149 122.459648,113.334999 128.656036,114.490875 
z"/>
<path fill="#F4B9D7" opacity="1.000000" stroke="none" 
	d="
M114.928833,142.651367 
	C119.436241,139.857254 124.237823,136.981430 129.301437,134.682800 
	C132.899689,133.049377 136.202301,135.037796 136.422272,139.038010 
	C136.656158,143.291290 136.510574,147.709427 135.581741,151.842300 
	C134.646301,156.004654 130.692947,154.792908 127.238281,154.622040 
	C128.471298,153.333466 130.116440,152.222458 132.958969,150.302795 
	C133.405319,148.370865 134.752899,144.938828 134.862381,141.467728 
	C135.005112,136.942200 132.510101,135.846573 128.329071,137.667023 
	C124.059738,139.525909 119.671333,141.111343 114.928833,142.651367 
z"/>
<path fill="#F4B9D7" opacity="1.000000" stroke="none" 
	d="
M780.706909,169.516129 
	C773.676941,174.630768 771.370605,183.008759 766.673279,189.702957 
	C763.974243,193.549408 759.940002,196.458923 756.247314,199.613708 
	C764.408752,192.774979 767.412903,182.470062 773.233154,174.068375 
	C774.762390,171.860840 778.008789,170.842834 780.706909,169.516129 
z"/>
<path fill="#F4B9D7" opacity="1.000000" stroke="none" 
	d="
M750.895081,199.085876 
	C746.434326,199.834869 743.056824,197.265900 741.224426,191.826477 
	C739.239319,185.934006 738.254089,179.993454 741.208496,173.763275 
	C741.639832,175.805771 742.067810,178.113937 741.916260,180.383392 
	C741.392456,188.226822 742.881348,194.993027 750.895081,199.085876 
z"/>
<path fill="#E971AF" opacity="1.000000" stroke="none" 
	d="
M378.673645,196.715714 
	C374.303314,192.298660 367.167267,189.579315 368.303528,181.038986 
	C371.598572,184.673920 374.802917,188.676819 377.811279,192.821945 
	C378.506409,193.779724 378.531097,195.224075 378.673645,196.715714 
z"/>
<path fill="#F4B9D7" opacity="1.000000" stroke="none" 
	d="
M133.857208,202.671921 
	C134.854492,202.931763 136.417023,203.172577 137.378326,204.062683 
	C140.073303,206.558060 142.520126,209.321457 145.269562,212.236267 
	C140.960983,214.131836 139.277679,210.786819 137.355499,207.875320 
	C136.275970,206.240158 135.216522,204.591721 133.857208,202.671921 
z"/>
<path fill="#F4B9D7" opacity="1.000000" stroke="none" 
	d="
M148.888092,212.613495 
	C152.279984,209.710159 154.955139,206.251648 155.956085,201.277161 
	C158.024551,207.682571 155.235794,212.402634 148.888092,212.613495 
z"/>
<path fill="#F4B9D7" opacity="1.000000" stroke="none" 
	d="
M791.983521,186.869019 
	C791.493469,183.903854 791.379761,180.790527 791.433350,177.246613 
	C795.609009,179.829758 794.510376,183.235001 791.983521,186.869019 
z"/>
<path fill="#F4B9D7" opacity="1.000000" stroke="none" 
	d="
M792.144653,147.853485 
	C793.169006,144.866287 794.566589,141.899124 796.231323,138.727020 
	C797.845947,142.777573 796.135559,145.731461 792.144653,147.853485 
z"/>
<path fill="#F4B9D7" opacity="1.000000" stroke="none" 
	d="
M791.455444,174.728821 
	C789.272217,173.402283 787.319885,171.855240 785.214661,170.005768 
	C789.505066,168.223587 790.510864,171.482864 791.455444,174.728821 
z"/>
<path fill="#F4B9D7" opacity="1.000000" stroke="none" 
	d="
M785.346313,152.565536 
	C787.003601,151.147903 788.931458,149.953674 791.171753,148.624557 
	C791.654480,152.824265 788.949707,153.235092 785.346313,152.565536 
z"/>
<path fill="#FBE7F2" opacity="1.000000" stroke="none" 
	d="
M540.971252,157.263672 
	C546.288757,160.693985 549.554077,170.078522 547.689209,176.842010 
	C546.783142,180.127930 545.428528,183.479431 543.483826,186.243134 
	C540.882751,189.939697 536.850769,189.438919 534.587952,185.667465 
	C530.990356,179.671310 533.561890,162.619415 538.812683,157.954941 
	C539.265503,157.552643 540.004211,157.472031 540.971252,157.263672 
z"/>
<path fill="#FBE7F2" opacity="1.000000" stroke="none" 
	d="
M1016.313110,153.476532 
	C1015.995361,159.579910 1013.053162,163.400986 1008.033142,165.885101 
	C1005.518494,167.129456 1004.055908,166.382538 1003.986389,163.733673 
	C1003.821167,157.437042 1003.769226,151.128372 1004.030151,144.839462 
	C1004.069092,143.901779 1006.000000,142.347488 1007.138062,142.268768 
	C1012.549438,141.894470 1016.734314,146.972656 1016.313110,153.476532 
z"/>
<path fill="#FADCEC" opacity="1.000000" stroke="none" 
	d="
M1140.830322,177.046768 
	C1143.028931,178.378311 1145.750854,179.418777 1146.269531,181.127914 
	C1146.645020,182.365250 1144.296387,184.700790 1142.774170,186.134125 
	C1141.947266,186.912827 1140.323364,186.928925 1139.033813,187.116486 
	C1135.626343,187.612122 1131.792603,188.790527 1130.384521,184.058243 
	C1129.512329,181.126999 1133.897217,177.469925 1138.425537,177.076691 
	C1139.083008,177.019623 1139.748291,177.051422 1140.830322,177.046768 
z"/>
<path fill="#FADCEC" opacity="1.000000" stroke="none" 
	d="
M616.256653,156.519196 
	C616.598938,149.507751 618.240356,143.200699 623.777527,139.151718 
	C625.641174,137.788956 629.451660,137.565460 631.635193,138.515564 
	C635.023193,139.989731 633.333618,143.200378 631.679504,145.191238 
	C628.330139,149.222412 624.721497,153.069550 620.903259,156.655563 
	C620.051758,157.455276 617.893372,156.863480 616.256653,156.519196 
z"/>
<path fill="#FADCEC" opacity="1.000000" stroke="none" 
	d="
M121.520523,187.527191 
	C119.865570,186.026764 117.251106,183.719864 117.564285,183.209503 
	C118.945580,180.958542 120.843979,178.490967 123.159554,177.461472 
	C127.601974,175.486374 132.771255,177.263992 133.591309,180.234665 
	C134.561859,183.750504 131.330078,186.585892 125.389091,187.369949 
	C124.241104,187.521439 123.069382,187.493073 121.520523,187.527191 
z"/>
<path fill="#FCEDF5" opacity="1.000000" stroke="none" 
	d="
M418.745605,175.913147 
	C418.323547,166.208206 420.266235,157.633347 426.222229,150.364456 
	C429.781616,146.020370 431.863678,146.451065 434.364319,151.625397 
	C438.789368,160.781494 435.081482,179.747711 427.574158,186.358139 
	C424.839722,188.765823 421.740997,188.446899 420.343445,185.038086 
	C419.255585,182.384689 419.243378,179.290314 418.745605,175.913147 
z"/>
<path fill="#FCEDF5" opacity="1.000000" stroke="none" 
	d="
M841.270203,164.878784 
	C841.089355,172.576843 838.509888,178.983276 834.067017,184.524292 
	C832.800049,186.104477 830.252808,187.663895 828.452698,187.497849 
	C826.969360,187.361023 824.770813,184.795517 824.525085,183.072937 
	C822.896179,171.654495 823.367004,160.461105 830.933350,150.868835 
	C834.708679,146.082672 837.821899,146.425751 839.745728,152.187531 
	C841.020264,156.004547 840.815369,160.315506 841.270203,164.878784 
z"/>
</svg>