<?xml version="1.0" standalone="no"?>
<!DOCTYPE svg PUBLIC "-//W3C//DTD SVG 20010904//EN"
 "http://www.w3.org/TR/2001/REC-SVG-20010904/DTD/svg10.dtd">
<svg version="1.0" xmlns="http://www.w3.org/2000/svg"
 width="713.000000pt" height="842.000000pt" viewBox="0 0 713.000000 842.000000"
 preserveAspectRatio="xMidYMid meet">

<g transform="translate(0.000000,842.000000) scale(0.100000,-0.100000)"
fill="#000000" stroke="none">
<path d="M2576 6643 c-3 -42 -6 -210 -6 -375 l0 -298 -24 0 c-16 0 -26 -7 -30
-22 -10 -38 -7 -4396 3 -4402 5 -4 12 11 16 32 5 29 21 54 71 104 l65 65 2
1629 2 1629 323 3 c210 1 322 -1 322 -8 0 -6 -114 -11 -317 -12 l-318 -3 1
-32 c0 -18 1 -743 2 -1610 l3 -1578 21 25 c11 14 26 24 34 22 15 -3 19 128 22
608 1 162 2 305 2 317 0 20 3 21 26 13 14 -6 30 -8 34 -5 5 3 14 -4 21 -16 8
-16 9 -72 5 -198 -4 -97 -4 -301 0 -454 6 -242 9 -280 23 -285 9 -3 25 -17 36
-31 11 -15 39 -47 63 -73 47 -50 47 -50 16 -150 -8 -25 -20 -48 -27 -51 -7 -2
-47 0 -90 5 l-78 9 -42 -34 c-23 -19 -70 -61 -104 -93 -35 -33 -78 -70 -98
-84 l-34 -25 -1 -117 0 -118 1010 0 1010 0 0 2470 c0 1968 -3 2471 -12 2474
-7 2 -34 11 -61 19 -26 8 -50 10 -53 6 -3 -5 -15 -9 -27 -9 -25 0 -182 154
-172 169 5 10 133 -57 167 -86 10 -9 27 -13 41 -10 14 4 35 -1 55 -13 18 -11
35 -20 39 -20 4 0 -2 648 -7 688 0 1 -434 2 -964 2 l-963 0 -7 -77z m1539 45
c2 -7 6 -38 9 -70 4 -51 3 -58 -21 -75 -53 -38 -84 -66 -78 -71 3 -3 25 9 49
26 50 36 56 38 56 17 0 -8 -10 -20 -22 -26 -31 -16 -93 -77 -86 -84 3 -3 18 4
34 17 37 29 75 51 80 45 10 -9 -8 -34 -36 -51 -17 -9 -35 -27 -41 -39 -14 -26
-51 -60 -97 -89 -18 -11 -31 -23 -28 -25 9 -9 79 41 168 119 28 24 58 28 58 8
0 -5 -35 -36 -77 -71 -43 -34 -79 -66 -81 -70 -8 -21 20 -5 76 41 69 57 91 63
91 23 -1 -16 2 -40 6 -55 7 -25 5 -28 -18 -28 -14 0 -30 8 -36 17 -5 10 -13
15 -17 11 -3 -4 13 -28 38 -53 39 -39 46 -54 57 -113 7 -37 12 -78 10 -92 l-4
-25 -125 0 -125 0 -17 80 c-10 44 -23 112 -29 150 -18 115 17 104 -355 107
l-326 3 -19 24 c-24 30 -24 62 0 92 19 23 24 24 135 21 98 -2 116 -1 116 12 0
51 50 102 117 121 56 16 140 -37 160 -100 9 -28 13 -30 68 -33 l57 -3 -6 48
c-4 26 -12 72 -18 101 -6 28 -9 54 -6 57 7 7 206 42 246 44 18 0 35 -5 37 -11z
m-1301 -158 c-1 -23 -37 -233 -49 -287 -4 -18 -12 -23 -36 -23 -28 0 -30 2
-25 28 3 15 10 56 16 92 6 36 14 75 17 88 4 18 1 22 -21 22 -21 0 -26 5 -26
24 0 18 8 27 32 35 17 6 38 20 46 32 19 27 47 21 46 -11z m190 14 c25 -24 29
-58 16 -136 -20 -124 -36 -160 -87 -186 -34 -19 -62 -14 -90 14 -23 23 -25 31
-19 77 23 189 54 244 138 246 15 1 34 -6 42 -15z m641 -1094 c-4 -19 -2 -37 6
-46 7 -8 13 -28 13 -44 1 -27 -2 -29 -44 -32 -52 -5 -57 -3 -42 15 9 11 6 19
-13 35 -30 27 -37 27 -33 5 2 -15 -6 -19 -42 -21 -32 -2 -50 -9 -61 -24 -15
-20 -18 -20 -33 -6 -30 30 -13 68 30 68 13 0 26 5 29 10 3 6 0 10 -7 10 -10 0
-9 3 2 11 11 8 12 12 3 16 -20 7 -15 23 6 23 10 0 21 -9 24 -21 5 -18 8 -19
27 -9 16 9 25 9 33 1 17 -17 29 -13 22 9 -5 16 -2 20 17 20 13 0 29 -5 36 -12
9 -9 12 -8 12 5 0 9 5 17 11 17 7 0 8 -11 4 -30z m-76 -166 c17 -4 31 -13 31
-20 0 -16 -16 -19 -25 -4 -7 12 -65 13 -81 2 -35 -23 -46 -120 -19 -159 19
-27 66 -38 97 -23 22 11 22 10 4 -4 -32 -26 -83 -20 -117 13 -53 54 -33 164
35 191 27 11 36 11 75 4z m-785 -10 c29 -11 16 -20 -24 -16 l-40 4 0 -42 c0
-41 1 -42 30 -38 27 4 30 2 30 -21 0 -19 -3 -22 -12 -13 -7 7 -20 12 -30 12
-14 0 -18 -8 -18 -38 0 -21 5 -43 12 -50 9 -9 4 -12 -22 -12 -26 0 -31 3 -22
12 15 15 17 188 1 188 -5 0 -7 5 -4 10 7 11 74 14 99 4z m394 -60 c33 -9 27
-21 -8 -16 -28 4 -30 2 -30 -27 0 -27 3 -32 22 -29 11 2 23 -3 26 -10 3 -9 -3
-11 -22 -6 -24 6 -26 4 -26 -26 0 -31 2 -32 30 -26 17 3 30 1 30 -4 0 -6 -21
-10 -47 -10 l-48 0 0 72 c0 84 12 98 73 82z m133 -4 c23 -13 26 -58 4 -66 -21
-8 -19 -15 11 -47 34 -37 22 -48 -14 -14 -35 34 -46 34 -40 2 4 -20 1 -25 -16
-25 -20 0 -21 5 -19 77 1 43 2 79 3 81 1 6 54 1 71 -8z m544 1 c3 -6 -7 -9
-22 -8 -24 2 -28 -2 -28 -23 0 -17 6 -26 20 -28 47 -9 63 -62 25 -82 -28 -15
-72 -9 -78 10 -4 13 -3 13 11 2 21 -18 61 -11 65 10 2 11 -11 26 -37 43 -23
14 -41 30 -41 37 0 33 68 65 85 39z m152 -7 c2 -7 -6 -10 -22 -7 -25 5 -25 5
-25 -66 0 -61 -2 -71 -18 -71 -16 0 -17 8 -14 70 4 66 3 70 -17 70 -11 0 -21
5 -21 10 0 15 112 8 117 -6z m113 6 c0 -6 -11 -8 -25 -4 -23 6 -25 3 -25 -25
0 -24 4 -31 20 -31 11 0 20 -6 20 -14 0 -10 -7 -12 -21 -9 -19 5 -21 3 -17
-25 2 -18 1 -33 -4 -33 -4 -1 -13 -2 -19 -3 -7 -1 -11 27 -12 77 l-2 77 43 0
c23 0 42 -5 42 -10z m73 -50 c-4 -40 -2 -65 7 -75 10 -12 9 -16 -4 -21 -25
-10 -27 -3 -29 80 -2 65 0 76 15 76 14 0 15 -9 11 -60z m127 -4 c0 -35 3 -71
6 -80 5 -12 0 -16 -17 -16 -23 0 -24 3 -24 80 0 70 2 80 18 80 14 0 17 -10 17
-64z m-1414 -21 l32 -75 -25 0 c-13 0 -22 4 -19 9 12 19 -7 41 -34 41 -27 0
-46 -22 -34 -41 3 -5 -7 -9 -22 -9 l-27 0 21 23 c12 13 22 26 22 29 0 15 40
98 47 98 4 0 22 -34 39 -75z m150 35 c0 -19 4 -43 9 -54 14 -32 -7 -51 -61
-54 -39 -3 -47 -1 -36 9 6 7 12 36 12 64 0 28 -6 57 -12 64 -11 10 -3 12 37 9
50 -3 50 -3 51 -38z m644 29 c0 -5 8 -29 19 -52 34 -75 35 -87 11 -87 -13 0
-20 5 -17 13 8 22 -13 47 -39 47 -19 0 -26 -6 -30 -30 -5 -22 -12 -30 -27 -30
-18 0 -19 2 -5 18 16 19 48 85 48 99 0 11 21 33 32 33 4 0 8 -5 8 -11z m-295
-59 c-3 -5 -15 -10 -26 -10 -10 0 -19 5 -19 10 0 6 12 10 26 10 14 0 23 -4 19
-10z m855 -60 c0 -5 -7 -10 -16 -10 -8 0 -12 5 -9 10 3 6 10 10 16 10 5 0 9
-4 9 -10z m120 0 c0 -5 -10 -10 -22 -10 -19 0 -20 2 -8 10 19 13 30 13 30 0z
m-899 -73 c-1 -12 -15 -9 -19 4 -3 6 1 10 8 8 6 -3 11 -8 11 -12z m150 0 c-1
-12 -15 -9 -19 4 -3 6 1 10 8 8 6 -3 11 -8 11 -12z m740 -1405 c1 -768 2
-1561 3 -1762 l1 -365 -135 0 -135 -1 128 3 127 4 0 1748 0 1749 -22 6 c-13 3
-156 6 -318 6 -162 0 -290 4 -283 8 6 4 151 6 322 4 l311 -3 1 -1397z m-1551
1217 c0 -53 -3 -69 -14 -69 -11 0 -15 18 -18 70 -3 65 4 85 25 73 4 -2 7 -35
7 -74z m224 27 c1 -28 -2 -46 -8 -46 -7 0 -10 19 -7 51 4 61 11 59 15 -5z
m228 -8 c2 -21 0 -38 -4 -38 -4 0 -7 24 -7 53 1 54 5 49 11 -15z m408 12 c0
-27 -4 -50 -10 -50 -5 0 -10 23 -10 50 0 28 5 50 10 50 6 0 10 -22 10 -50z
m-805 -30 c0 -38 -3 -70 -7 -70 -3 0 -12 16 -18 35 -9 26 -9 44 0 70 6 19 15
35 18 35 4 0 7 -31 7 -70z m59 54 c16 -43 0 -124 -26 -124 -7 0 -6 5 2 15 8
10 11 35 8 70 -4 53 3 72 16 39z m887 -6 c-10 -27 -4 -49 17 -65 9 -7 11 -13
5 -13 -34 0 -56 63 -31 88 17 17 19 15 9 -10z m-352 -42 c-2 -20 -2 -20 -6 2
-2 12 -9 22 -14 22 -5 0 -9 5 -9 11 0 8 5 8 15 -1 8 -7 14 -22 14 -34z m-229
9 c0 -8 -4 -17 -10 -20 -6 -4 -10 5 -10 20 0 15 4 24 10 20 6 -3 10 -12 10
-20z m152 -5 c3 -18 0 -30 -7 -30 -8 0 -13 44 -6 58 4 8 9 -2 13 -28z m33 -10
c-3 -57 -15 -63 -15 -7 0 26 4 47 9 47 4 0 7 -18 6 -40z m77 10 c3 -16 1 -30
-4 -30 -4 0 -8 14 -8 30 0 17 2 30 4 30 2 0 6 -13 8 -30z m68 -13 c0 -4 -9 -3
-20 3 -11 6 -20 17 -20 25 0 12 4 12 20 -2 11 -10 20 -21 20 -26z m175 33 c3
-5 1 -10 -4 -10 -6 0 -11 5 -11 10 0 6 2 10 4 10 3 0 8 -4 11 -10z m251 -25
c0 -19 -4 -35 -8 -35 -4 0 -8 16 -8 35 0 19 4 35 8 35 4 0 8 -16 8 -35z m-856
-15 c6 0 9 -4 5 -10 -11 -18 -35 2 -34 29 0 25 0 25 9 4 5 -13 14 -23 20 -23z
m52 16 c4 -17 1 -23 -9 -19 -14 6 -18 43 -4 43 5 0 11 -11 13 -24z m536 -16
c12 0 13 -3 5 -11 -17 -17 -33 -1 -32 29 2 24 2 24 6 5 2 -13 12 -23 21 -23z
m196 -10 c10 -13 9 -13 -6 -1 -10 7 -18 21 -17 30 0 13 1 14 6 1 3 -8 11 -22
17 -30z m-274 -2 c0 -6 -7 -5 -15 2 -8 7 -15 17 -15 22 0 6 7 5 15 -2 8 -7 15
-17 15 -22z m-295 12 c3 -5 1 -10 -4 -10 -6 0 -11 5 -11 10 0 6 2 10 4 10 3 0
8 -4 11 -10z m-310 -130 c0 -27 -4 -49 -9 -47 -12 4 -13 97 -1 97 6 0 10 -22
10 -50z m227 -12 c2 -21 0 -38 -4 -38 -4 0 -7 24 -7 53 1 54 5 49 11 -15z
m537 10 c-2 -48 -2 -49 -8 -18 -6 33 -3 70 5 70 2 0 3 -24 3 -52z m318 -25
c-2 -16 -4 -3 -4 27 0 30 2 43 4 28 2 -16 2 -40 0 -55z m-175 32 c-2 -14 1
-32 8 -40 11 -13 10 -14 -3 -9 -20 7 -29 31 -22 55 9 28 23 23 17 -6z m-712
-21 c0 -27 -18 -23 -22 6 -4 24 -2 27 9 19 7 -7 13 -17 13 -25z m186 -6 c1
-18 -2 -40 -7 -48 -5 -10 -8 3 -9 39 0 58 11 64 16 9z m40 27 c10 -26 -1 -35
-13 -10 -6 14 -7 25 -2 25 5 0 12 -7 15 -15z m36 -15 c3 -17 1 -33 -4 -36 -4
-3 -8 11 -8 30 0 44 6 47 12 6z m-364 -28 c16 -13 15 -13 -3 -10 -14 2 -21 12
-22 33 -1 18 1 22 4 10 2 -11 12 -26 21 -33z m54 18 c4 -27 3 -29 -10 -16 -8
8 -12 22 -9 30 9 23 14 20 19 -14z m197 -2 c-1 -31 -1 -31 -8 -8 -5 14 -6 28
-4 33 9 15 13 6 12 -25z m169 -21 c15 -4 15 -5 1 -6 -24 -2 -43 25 -33 46 6
15 8 14 12 -9 2 -15 11 -29 20 -31z m142 10 c0 -6 -9 -2 -20 8 -11 10 -20 23
-20 28 0 6 9 2 20 -8 11 -10 20 -23 20 -28z m400 13 c0 -10 -4 -22 -10 -25 -6
-4 -10 7 -10 25 0 18 4 29 10 25 6 -3 10 -15 10 -25z m118 -6 c-4 -3 -12 5
-18 18 -12 22 -12 22 6 6 10 -10 15 -20 12 -24z m19 -11 c-3 -10 -5 -2 -5 17
0 19 2 27 5 18 2 -10 2 -26 0 -35z m-618 -1 c14 -13 14 -13 -4 -10 -13 2 -21
12 -22 28 -1 14 0 18 3 10 4 -8 14 -21 23 -28z m225 26 c-4 -6 2 -18 12 -25
19 -14 19 -15 -1 -11 -21 3 -35 48 -15 48 6 0 8 -5 4 -12z m209 -14 c4 -23 3
-24 -10 -11 -9 8 -12 20 -9 26 10 16 13 14 19 -15z m-276 -23 c-10 -4 -27 17
-27 33 0 5 8 1 19 -10 10 -10 14 -21 8 -23z m397 -1 c-6 -5 -24 21 -24 34 0 6
6 1 14 -10 8 -10 12 -21 10 -24z m-814 9 c0 -5 -4 -9 -10 -9 -5 0 -10 7 -10
16 0 8 5 12 10 9 6 -3 10 -10 10 -16z m-539 -314 c0 -33 2 -69 4 -80 17 -103
29 -209 27 -254 -1 -29 2 -59 8 -66 7 -9 12 -111 13 -297 l2 -283 -26 -3 c-48
-6 -51 7 -52 291 -2 248 -1 266 17 286 22 24 9 28 -20 6 -10 -8 -22 -15 -26
-15 -5 0 -8 34 -8 75 0 41 -3 75 -8 75 -4 0 -13 9 -20 20 -10 17 -10 34 2 94
9 40 18 80 20 87 3 8 10 39 16 69 8 45 14 56 30 56 18 0 20 -7 21 -61z m195
25 c2 -52 16 -206 21 -227 4 -17 1 -23 -13 -23 -10 0 -28 -10 -41 -21 -18 -18
-25 -20 -38 -9 -8 7 -15 23 -15 35 0 19 26 155 47 253 7 31 38 25 39 -8z m200
-6 c1 -16 4 -77 8 -136 7 -101 7 -108 -11 -108 -10 0 -24 -9 -31 -20 -16 -26
-30 -25 -43 3 -8 18 -4 52 15 148 15 68 29 130 31 137 9 23 30 7 31 -24z m205
-51 c1 -49 1 -91 0 -95 0 -4 3 -27 8 -52 7 -39 6 -46 -7 -46 -9 0 -25 -9 -37
-20 l-22 -20 -18 20 c-16 18 -17 25 -6 68 7 26 19 83 27 127 20 103 21 105 39
105 12 0 15 -16 16 -87z m193 78 c3 -5 8 -46 11 -92 3 -46 8 -94 11 -106 6
-32 -6 -73 -21 -73 -7 0 -20 -10 -29 -22 l-15 -23 -20 22 c-18 22 -18 26 -5
80 15 57 29 125 40 191 5 31 17 41 28 23z m622 0 c-12 -18 14 -275 29 -291 8
-9 18 -45 22 -81 4 -35 9 -56 11 -46 2 9 7 17 12 17 11 0 16 -78 19 -307 2
-221 -5 -313 -25 -313 -15 0 -18 -27 -16 -192 0 -54 -3 -98 -8 -98 -4 0 -21 7
-36 15 -16 8 -37 15 -46 15 -16 0 -18 12 -18 110 0 85 3 112 14 116 11 4 12
14 4 47 -11 47 -14 523 -3 556 4 12 2 21 -4 21 -6 0 -11 21 -11 51 0 35 -6 58
-19 75 -15 19 -18 32 -11 52 4 15 13 54 20 87 25 121 42 175 57 175 8 0 12 -4
9 -9z m-409 -54 c1 -28 5 -89 8 -134 5 -64 4 -83 -6 -83 -7 0 -23 -10 -37 -22
-23 -23 -24 -23 -38 -3 -17 22 -16 27 17 175 27 123 26 120 41 120 9 0 14 -17
15 -53z m208 -22 c2 -38 7 -98 11 -132 5 -52 4 -63 -8 -63 -8 0 -23 -9 -33
-20 -43 -47 -62 -9 -46 91 35 202 69 257 76 124z m-1148 -187 c-3 -7 -5 -2 -5
12 0 14 2 19 5 13 2 -7 2 -19 0 -25z m133 -169 c0 -7 7 -17 15 -23 14 -10 16
-51 18 -278 2 -147 -1 -264 -5 -262 -4 3 -8 -4 -8 -14 0 -17 -18 -32 -36 -32
-2 0 -4 140 -4 310 0 200 4 310 10 310 6 0 10 -5 10 -11z m255 -5 l25 -16 0
-288 c0 -266 -1 -289 -17 -294 -16 -5 -18 -19 -15 -125 3 -132 4 -131 -65
-123 l-33 4 0 109 c0 97 2 109 18 109 16 0 17 21 14 320 l-3 320 26 0 c14 0
37 -7 50 -16z m206 -3 c24 -19 24 -23 27 -225 2 -113 7 -206 12 -206 4 0 8
-27 7 -60 0 -32 -4 -57 -9 -54 -4 3 -8 -2 -8 -10 0 -9 -10 -26 -21 -37 -19
-19 -21 -32 -20 -138 1 -127 -6 -155 -34 -128 -9 10 -27 17 -41 17 -24 0 -24
0 -24 111 0 97 2 111 18 115 16 5 17 26 14 306 -2 166 -1 307 2 315 8 19 50
16 77 -6z m169 -48 c0 -12 4 -24 9 -27 15 -9 33 -107 22 -120 -5 -6 -6 -33 -1
-61 4 -27 6 -88 4 -135 -2 -47 -4 -98 -4 -114 0 -16 -11 -44 -27 -65 l-28 -36
-7 55 c-8 73 -10 545 -1 553 9 10 32 -25 33 -50z m17 -5 c-3 -8 -6 -5 -6 6 -1
11 2 17 5 13 3 -3 4 -12 1 -19z m150 -15 c-3 -10 -5 -4 -5 12 0 17 2 24 5 18
2 -7 2 -21 0 -30z m200 -45 c-3 -8 -6 -5 -6 6 -1 11 2 17 5 13 3 -3 4 -12 1
-19z m-1249 -100 c-1 -86 -3 -100 -7 -58 -6 56 -3 170 5 170 2 0 3 -51 2 -112z
m1249 50 c-3 -8 -6 -5 -6 6 -1 11 2 17 5 13 3 -3 4 -12 1 -19z m83 -304 c0
-32 -4 -44 -15 -44 -9 0 -12 6 -9 15 4 8 2 15 -4 15 -7 0 -7 12 0 35 14 45 28
35 28 -21z m-523 -16 c-3 -8 -6 -5 -6 6 -1 11 2 17 5 13 3 -3 4 -12 1 -19z m0
-60 c-3 -7 -5 -2 -5 12 0 14 2 19 5 13 2 -7 2 -19 0 -25z m523 -28 c0 -11 -4
-20 -9 -20 -14 0 -23 18 -16 30 10 17 25 11 25 -10z m-1300 -27 c14 -6 33 -14
43 -17 15 -5 17 -19 17 -115 l0 -109 -45 -4 c-42 -3 -45 -2 -46 22 -6 116 -6
241 -1 238 4 -2 18 -9 32 -15z m258 -130 c-3 -101 -4 -108 -24 -111 -21 -3
-23 1 -27 65 -1 17 -6 35 -10 39 -11 11 -8 46 3 39 6 -4 10 8 10 28 0 39 6 47
32 47 17 0 18 -8 16 -107z m610 -6 c3 -107 3 -107 -21 -107 -21 0 -23 5 -23
38 1 20 5 40 10 43 4 4 0 18 -9 33 -11 17 -13 26 -5 26 6 0 10 10 9 23 -3 29
11 59 25 54 7 -2 12 -42 14 -110z m-810 -159 c11 -18 26 -50 33 -71 7 -20 17
-36 22 -34 5 1 19 27 30 57 25 71 32 78 62 72 l25 -4 0 -124 0 -124 -30 0
c-29 0 -30 1 -31 53 l0 52 -16 -32 c-21 -43 -67 -47 -77 -8 -10 41 -26 28 -26
-21 0 -44 -1 -45 -27 -42 l-28 3 -3 105 c-2 58 0 115 3 128 8 33 40 28 63 -10z
m360 0 c-2 -19 -9 -23 -38 -23 -28 -1 -36 -5 -38 -22 -3 -18 3 -22 30 -25 28
-2 33 -7 33 -28 0 -20 -5 -24 -30 -25 -25 0 -31 -4 -33 -27 -3 -25 0 -27 40
-30 36 -2 44 -7 46 -25 3 -22 1 -23 -77 -23 l-81 0 0 125 0 125 76 0 c72 0 75
-1 72 -22z m200 0 c-2 -17 -11 -24 -30 -26 l-28 -3 0 -100 0 -99 -30 0 -30 0
0 100 c0 99 0 100 -24 100 -28 0 -40 14 -32 35 4 12 25 15 91 15 84 0 86 -1
83 -22z m140 -50 c12 -40 28 -97 36 -125 l15 -53 -30 0 c-22 0 -32 6 -36 20
-4 14 -14 20 -34 20 -18 0 -32 -7 -39 -20 -6 -12 -21 -20 -36 -20 -24 0 -25 2
-18 33 3 17 15 57 25 87 10 30 19 60 19 67 0 6 4 23 10 37 7 20 17 26 38 26
27 0 30 -5 50 -72z m132 -27 l0 -100 43 -3 c35 -2 43 -7 45 -25 3 -22 0 -23
-67 -23 -61 0 -71 3 -72 18 0 9 -3 42 -5 72 -3 30 -2 79 1 108 6 47 9 52 31
52 24 0 24 -1 24 -99z m180 -1 l0 -100 40 0 c36 0 40 -2 40 -25 0 -24 -2 -25
-70 -25 l-70 0 0 125 0 125 30 0 30 0 0 -100z m170 -25 l0 -125 -30 0 -30 0 0
118 c0 65 3 122 7 125 3 4 17 7 30 7 23 0 23 -1 23 -125z m210 109 c5 -5 11
-21 14 -36 3 -21 0 -29 -15 -33 -23 -7 -39 1 -39 20 0 7 -10 17 -22 21 -30 9
-48 -19 -48 -77 0 -65 7 -79 41 -79 23 0 29 5 29 21 0 16 5 20 27 17 37 -4 40
-29 9 -64 -20 -25 -31 -29 -70 -28 -74 1 -86 20 -86 126 0 76 3 91 21 109 18
18 30 21 75 17 30 -3 59 -9 64 -14z m-982 -934 l2 -621 -47 3 -48 3 -1 612 0
613 40 13 c23 8 43 10 46 6 3 -5 7 -288 8 -629z m1012 633 c0 -5 1 -181 2
-393 0 -303 4 -391 14 -414 17 -35 17 -39 4 -31 -15 9 -6 -101 10 -120 12 -14
12 -19 3 -22 -15 -5 -17 -33 -3 -33 6 0 10 -12 10 -26 0 -14 -4 -23 -10 -19
-13 8 -13 5 1 -35 9 -26 9 -34 -2 -41 -10 -6 -11 -9 -1 -9 8 0 12 -16 12 -44
0 -50 -10 -56 -92 -56 l-48 0 0 98 c-1 141 1 610 3 886 l2 239 40 13 c50 15
55 16 55 7z m-806 -619 c5 -387 4 -620 -2 -626 -5 -5 -29 -8 -53 -6 l-44 3 0
613 c0 675 -4 631 61 632 l31 0 7 -616z m-423 564 c6 -55 -5 -194 -14 -180 -9
13 -16 200 -8 208 11 11 19 1 22 -28z m617 -53 c-2 -55 -6 -75 -16 -75 -10 0
-12 10 -7 37 3 21 0 50 -6 66 -10 23 -10 31 2 38 26 16 29 9 27 -66z m1 -147
c1 -10 -3 -18 -9 -18 -5 0 -10 17 -9 38 0 30 2 33 9 17 5 -11 9 -28 9 -37z m1
-67 c0 -6 -4 -13 -10 -16 -5 -3 -10 1 -10 9 0 9 5 16 10 16 6 0 10 -4 10 -9z
m-13 -113 c-3 -8 -6 -5 -6 6 -1 11 2 17 5 13 3 -3 4 -12 1 -19z m16 -496 l2
-313 -24 3 c-19 2 -25 10 -28 37 -2 19 -8 38 -13 41 -18 11 -24 60 -24 200 0
88 5 143 13 158 6 12 8 22 4 21 -19 -3 -25 2 -14 14 6 8 12 39 13 70 2 39 6
57 15 57 7 0 13 7 13 15 0 8 5 15 11 15 6 0 9 6 6 14 -3 8 -3 17 1 20 18 18
24 -66 25 -352z m-619 306 c3 -13 6 -132 6 -265 0 -219 -6 -277 -24 -225 -3 9
-10 24 -14 32 -24 38 -34 102 -34 203 0 77 3 112 12 117 8 5 9 13 4 21 -17 27
-14 59 6 81 12 13 18 29 14 40 -3 12 0 18 9 18 8 0 17 -10 21 -22z m939 -645
c-7 -2 -21 -2 -30 0 -10 3 -4 5 12 5 17 0 24 -2 18 -5z"/>
<path d="M4019 6533 c-13 -17 -13 -17 6 -3 11 8 22 16 24 17 2 2 0 3 -6 3 -6
0 -17 -8 -24 -17z"/>
<path d="M2917 6468 c-19 -54 -41 -184 -32 -198 29 -46 75 72 75 192 0 62 -21
64 -43 6z"/>
<path d="M3270 5175 c0 -20 4 -26 18 -23 9 2 17 12 17 23 0 11 -8 21 -17 23
-14 3 -18 -3 -18 -23z"/>
<path d="M2846 5154 c-9 -23 -8 -24 14 -24 11 0 20 2 20 4 0 12 -13 36 -20 36
-4 0 -11 -7 -14 -16z"/>
<path d="M3000 5175 c0 -15 6 -25 14 -25 19 0 28 14 20 34 -10 25 -34 19 -34
-9z"/>
<path d="M3002 5103 c4 -36 33 -39 33 -3 0 16 -6 26 -18 28 -15 3 -18 -2 -15
-25z"/>
<path d="M3667 5163 c-13 -12 -7 -33 8 -33 8 0 15 9 15 20 0 20 -11 26 -23 13z"/>
<path d="M4301 3504 c0 -11 3 -14 6 -6 3 7 2 16 -1 19 -3 4 -6 -2 -5 -13z"/>
<path d="M4302 3400 c0 -14 2 -19 5 -12 2 6 2 18 0 25 -3 6 -5 1 -5 -13z"/>
<path d="M4281 3394 c0 -11 3 -14 6 -6 3 7 2 16 -1 19 -3 4 -6 -2 -5 -13z"/>
<path d="M3651 3834 c0 -11 3 -14 6 -6 3 7 2 16 -1 19 -3 4 -6 -2 -5 -13z"/>
<path d="M3495 2952 c-7 -32 -1 -52 16 -52 11 0 12 50 0 69 -7 10 -11 5 -16
-17z"/>
</g>
</svg>
