<svg version="1.1" id="Layer_1" xmlns="http://www.w3.org/2000/svg" xmlns:xlink="http://www.w3.org/1999/xlink" x="0px" y="0px"
	 width="100%" viewBox="0 0 1246 307" enable-background="new 0 0 1246 307" xml:space="preserve">
<path fill="#FFFEFF" opacity="1.000000" stroke="none" 
	d="
M1040.000000,308.000000 
	C693.333313,308.000000 347.166656,308.000000 1.000000,308.000000 
	C1.000000,205.666672 1.000000,103.333336 1.000000,1.000000 
	C416.333344,1.000000 831.666687,1.000000 1247.000000,1.000000 
	C1247.000000,103.333336 1247.000000,205.666672 1247.000000,308.000000 
	C1178.166626,308.000000 1109.333374,308.000000 1040.000000,308.000000 
M417.561981,158.096848 
	C416.983917,154.000580 415.231049,150.721405 410.918091,149.701492 
	C406.627930,148.686951 403.503845,150.829956 401.055084,154.092285 
	C399.769318,155.805237 398.681396,157.670425 397.552795,159.496948 
	C394.428467,164.553207 391.826324,170.031021 388.099945,174.592361 
	C382.992340,180.844391 373.771301,179.420731 370.654938,171.965637 
	C369.112610,168.276062 368.145599,163.771378 368.704285,159.892731 
	C370.043091,150.598175 371.792450,141.251663 374.614807,132.317429 
	C376.831299,125.301109 380.462097,118.597794 384.363647,112.313591 
	C385.918854,109.808640 389.891937,108.804817 392.764343,107.117638 
	C394.316376,110.066513 396.237640,112.887138 397.318756,115.999588 
	C398.447144,119.248276 398.672089,122.800110 399.463745,126.179169 
	C400.407104,130.205444 403.297394,132.427017 407.158417,133.028442 
	C411.140106,133.648666 414.594116,132.526199 417.194366,129.003204 
	C423.661530,120.241142 424.247467,110.552658 421.451416,100.587318 
	C418.285767,89.304886 407.143585,78.118568 393.715729,77.907166 
	C382.874939,77.736496 375.142151,83.209984 368.994507,90.685013 
	C351.716675,111.693512 342.011566,135.742477 342.522186,163.343063 
	C342.987610,188.501373 365.734344,206.321854 389.647430,197.614609 
	C403.647736,192.516800 418.803680,175.594788 417.561981,158.096848 
M665.956177,181.094910 
	C669.362854,179.739120 670.899231,182.041168 672.125183,184.468109 
	C674.425537,189.021744 677.863464,191.312241 683.009338,190.245621 
	C686.862732,189.446899 689.519104,185.090744 689.706299,179.651886 
	C689.883667,174.497559 690.028076,169.342087 690.208191,164.187866 
	C690.724426,149.418152 691.798401,134.640259 691.566895,119.882607 
	C691.430176,111.165878 687.516724,103.672455 679.089844,99.222343 
	C668.788208,93.782196 647.986389,99.227432 641.050903,107.823151 
	C638.069885,111.517700 637.736450,116.437492 640.289124,119.800072 
	C643.072815,123.466873 648.543823,124.851509 652.892395,122.794083 
	C656.473938,121.099541 659.843323,118.910767 663.516052,117.476982 
	C665.035583,116.883751 668.637085,117.504082 668.682922,117.885757 
	C669.200684,122.197433 669.786316,126.668381 669.066467,130.876389 
	C668.789856,132.493561 665.310791,134.498352 663.149292,134.684845 
	C656.242554,135.280792 649.831665,136.950043 643.711670,140.245468 
	C631.551697,146.793243 626.846191,165.229919 634.890991,175.475082 
	C640.918823,183.151733 654.670593,185.815903 665.956177,181.094910 
M515.030823,146.037476 
	C516.387695,143.792007 517.449280,141.283234 519.165833,139.358566 
	C522.270508,135.877609 525.633911,136.511826 526.931396,140.862198 
	C528.053711,144.625458 528.921936,148.578262 529.103760,152.484467 
	C529.474976,160.457153 529.092041,168.464249 529.438416,176.438995 
	C529.677490,181.942642 533.687927,186.966187 537.685303,187.781860 
	C542.977234,188.861679 548.570251,186.810364 550.293945,182.138870 
	C552.451477,176.291550 554.384094,170.190002 555.159912,164.040009 
	C556.742615,151.494827 554.460815,139.228394 550.495483,127.293549 
	C546.512085,115.304352 537.914307,109.394966 526.812866,111.744438 
	C521.419617,112.885849 516.335449,115.487228 510.864136,117.519478 
	C510.521881,117.124046 509.878632,116.373978 509.228149,115.630226 
	C502.982147,108.488632 494.548950,109.615746 490.752930,118.349266 
	C489.468689,121.303970 488.677643,124.684929 488.575104,127.900238 
	C488.304688,136.378860 488.004364,144.917526 488.704193,153.350281 
	C489.535004,163.361954 490.091705,173.570496 495.529572,182.614838 
	C497.833862,186.447372 500.962036,188.798447 505.318817,187.737305 
	C507.897308,187.109268 511.490692,185.445175 512.197266,183.405182 
	C513.722107,179.002502 514.847229,173.840210 514.019470,169.381638 
	C512.583252,161.645462 512.241028,154.270966 515.030823,146.037476 
M754.253540,99.250069 
	C746.078796,91.884827 736.460510,90.067467 726.468445,93.803864 
	C711.614136,99.358444 705.287781,112.256386 701.687866,126.447845 
	C698.855286,137.614395 698.262390,148.981125 701.268066,160.489548 
	C704.518188,172.933838 710.149353,183.856567 723.169861,186.945190 
	C736.064270,190.003906 748.962708,187.844025 759.515503,178.471329 
	C763.182861,175.214066 763.360168,170.616684 761.014343,167.122055 
	C759.254944,164.501038 755.419128,162.005142 752.371216,161.830032 
	C748.307251,161.596542 744.005066,163.372910 739.995117,164.814407 
	C733.322937,167.212921 730.058716,166.227249 727.539490,159.419876 
	C723.429688,148.314651 724.493042,137.026154 728.943359,126.416344 
	C732.931274,116.909050 736.328857,116.940880 742.101196,125.317146 
	C742.289551,125.590553 742.437134,125.891716 742.619751,126.169426 
	C745.205811,130.102142 748.892456,131.678223 753.375488,130.471283 
	C757.757385,129.291595 760.588989,126.029533 761.256226,121.673889 
	C762.513550,113.465363 761.343201,105.745544 754.253540,99.250069 
M578.692505,165.095490 
	C579.748718,168.569839 580.670837,172.091873 581.886414,175.509567 
	C585.441467,185.505234 594.095093,191.469635 603.456604,190.370514 
	C609.376953,189.675430 613.097412,185.754379 615.138672,180.685135 
	C617.030518,175.987030 614.886047,172.017578 610.893250,168.984055 
	C609.774109,168.133759 608.890686,166.844208 608.189941,165.593231 
	C604.109924,158.309662 605.799561,150.344406 605.808167,142.619339 
	C605.809265,141.653641 607.760071,140.223145 609.059326,139.820129 
	C612.043335,138.894501 615.552673,139.125381 618.154907,137.657089 
	C620.742249,136.197189 624.098450,133.278915 624.164001,130.918076 
	C624.238281,128.246063 621.494690,124.908623 619.089783,122.948044 
	C617.293518,121.483673 614.094543,121.358337 611.512024,121.327652 
	C607.430298,121.279175 605.609863,120.433197 606.133362,115.573563 
	C607.038330,107.172379 607.105347,98.670074 607.284851,90.205124 
	C607.420288,83.815620 604.948975,79.526291 600.957520,78.366196 
	C594.750183,76.562080 590.241150,78.413101 586.529175,84.195549 
	C580.521423,93.554192 579.565002,104.468712 577.787109,114.947830 
	C576.995361,119.614655 575.053101,121.571419 571.374634,123.013672 
	C564.917297,125.545425 562.781921,128.363281 563.297241,133.803375 
	C563.717346,138.237808 567.448303,141.766144 573.356323,142.462372 
	C576.517151,142.834869 577.037048,144.273849 577.144409,146.991959 
	C577.372742,152.775162 577.930786,158.545319 578.692505,165.095490 
M823.669800,176.714264 
	C822.205383,174.248306 820.715881,171.796860 819.283081,169.312698 
	C817.587646,166.373077 815.012207,163.562775 814.478394,160.414886 
	C813.541077,154.887787 813.606018,149.134918 813.855713,143.503433 
	C813.914612,142.175720 816.172913,140.399658 817.780090,139.805481 
	C820.698547,138.726608 824.267090,139.035187 826.853516,137.537323 
	C829.276245,136.134216 832.112915,133.250137 832.310425,130.818192 
	C832.507874,128.387711 830.202515,124.968513 827.992798,123.350243 
	C825.812256,121.753304 822.387329,121.404961 819.490967,121.344574 
	C815.430481,121.259903 814.009583,119.971268 814.316040,115.720848 
	C814.961121,106.773438 815.266235,97.786911 815.289978,88.815323 
	C815.302246,84.177956 813.918335,79.721634 808.632812,78.321251 
	C802.386292,76.666283 797.629456,78.196671 795.139954,83.841370 
	C792.036011,90.879356 789.854004,98.350624 787.627258,105.741241 
	C785.450439,112.966110 787.346924,122.196991 776.228271,124.502693 
	C774.085510,124.947037 771.766296,130.306808 771.748413,133.411850 
	C771.734009,135.907150 774.681458,138.929214 777.049683,140.774048 
	C779.096985,142.368881 782.178589,142.636032 785.420166,143.690918 
	C785.420166,148.396133 784.997925,153.245453 785.509766,157.994080 
	C786.512878,167.300186 788.942444,176.277802 794.979004,183.722153 
	C799.663086,189.498505 805.979675,191.663345 813.271606,190.090378 
	C818.736877,188.911438 823.082703,183.377853 823.669800,176.714264 
M857.386230,111.878128 
	C854.481567,114.990799 850.851929,117.700363 848.843994,121.311646 
	C845.909729,126.589027 843.827087,132.411316 841.937134,138.183304 
	C837.843750,150.684280 838.119873,163.254105 842.702087,175.592987 
	C847.989014,189.829620 865.192200,195.078384 876.022522,185.906998 
	C892.728760,171.759796 900.098572,144.693939 892.839600,124.145874 
	C887.600342,109.314781 871.331055,103.414978 857.386230,111.878128 
M430.224762,178.314911 
	C439.915497,193.027206 453.336975,195.402222 465.397980,182.718216 
	C480.302032,167.044296 485.119934,147.801346 479.590942,126.529358 
	C476.812988,115.841614 469.774658,109.525772 458.811584,107.788437 
	C450.799500,106.518745 439.888245,112.002945 435.520355,120.179512 
	C432.511963,125.811066 429.937164,131.805405 428.132812,137.922058 
	C424.195282,151.270325 423.927979,164.659790 430.224762,178.314911 
z"/>
<path fill="#DC2383" opacity="1.000000" stroke="none" 
	d="
M417.619446,158.513794 
	C418.803680,175.594788 403.647736,192.516800 389.647430,197.614609 
	C365.734344,206.321854 342.987610,188.501373 342.522186,163.343063 
	C342.011566,135.742477 351.716675,111.693512 368.994507,90.685013 
	C375.142151,83.209984 382.874939,77.736496 393.715729,77.907166 
	C407.143585,78.118568 418.285767,89.304886 421.451416,100.587318 
	C424.247467,110.552658 423.661530,120.241142 417.194366,129.003204 
	C414.594116,132.526199 411.140106,133.648666 407.158417,133.028442 
	C403.297394,132.427017 400.407104,130.205444 399.463745,126.179169 
	C398.672089,122.800110 398.447144,119.248276 397.318756,115.999588 
	C396.237640,112.887138 394.316376,110.066513 392.764343,107.117638 
	C389.891937,108.804817 385.918854,109.808640 384.363647,112.313591 
	C380.462097,118.597794 376.831299,125.301109 374.614807,132.317429 
	C371.792450,141.251663 370.043091,150.598175 368.704285,159.892731 
	C368.145599,163.771378 369.112610,168.276062 370.654938,171.965637 
	C373.771301,179.420731 382.992340,180.844391 388.099945,174.592361 
	C391.826324,170.031021 394.428467,164.553207 397.552795,159.496948 
	C398.681396,157.670425 399.769318,155.805237 401.055084,154.092285 
	C403.503845,150.829956 406.627930,148.686951 410.918091,149.701492 
	C415.231049,150.721405 416.983917,154.000580 417.619446,158.513794 
z"/>
<path fill="#DD2484" opacity="1.000000" stroke="none" 
	d="
M665.562988,181.217987 
	C654.670593,185.815903 640.918823,183.151733 634.890991,175.475082 
	C626.846191,165.229919 631.551697,146.793243 643.711670,140.245468 
	C649.831665,136.950043 656.242554,135.280792 663.149292,134.684845 
	C665.310791,134.498352 668.789856,132.493561 669.066467,130.876389 
	C669.786316,126.668381 669.200684,122.197433 668.682922,117.885757 
	C668.637085,117.504082 665.035583,116.883751 663.516052,117.476982 
	C659.843323,118.910767 656.473938,121.099541 652.892395,122.794083 
	C648.543823,124.851509 643.072815,123.466873 640.289124,119.800072 
	C637.736450,116.437492 638.069885,111.517700 641.050903,107.823151 
	C647.986389,99.227432 668.788208,93.782196 679.089844,99.222343 
	C687.516724,103.672455 691.430176,111.165878 691.566895,119.882607 
	C691.798401,134.640259 690.724426,149.418152 690.208191,164.187866 
	C690.028076,169.342087 689.883667,174.497559 689.706299,179.651886 
	C689.519104,185.090744 686.862732,189.446899 683.009338,190.245621 
	C677.863464,191.312241 674.425537,189.021744 672.125183,184.468109 
	C670.899231,182.041168 669.362854,179.739120 665.562988,181.217987 
M666.821533,157.764160 
	C663.772949,157.538330 660.607239,156.688522 657.703369,157.233688 
	C653.401978,158.041183 651.086487,163.993362 654.092773,165.208420 
	C657.179138,166.455811 661.373474,165.904724 664.812500,165.051071 
	C667.800720,164.309357 669.079163,161.562729 666.821533,157.764160 
z"/>
<path fill="#DC2383" opacity="1.000000" stroke="none" 
	d="
M514.920410,146.430939 
	C512.241028,154.270966 512.583252,161.645462 514.019470,169.381638 
	C514.847229,173.840210 513.722107,179.002502 512.197266,183.405182 
	C511.490692,185.445175 507.897308,187.109268 505.318817,187.737305 
	C500.962036,188.798447 497.833862,186.447372 495.529572,182.614838 
	C490.091705,173.570496 489.535004,163.361954 488.704193,153.350281 
	C488.004364,144.917526 488.304688,136.378860 488.575104,127.900238 
	C488.677643,124.684929 489.468689,121.303970 490.752930,118.349266 
	C494.548950,109.615746 502.982147,108.488632 509.228149,115.630226 
	C509.878632,116.373978 510.521881,117.124046 510.864136,117.519478 
	C516.335449,115.487228 521.419617,112.885849 526.812866,111.744438 
	C537.914307,109.394966 546.512085,115.304352 550.495483,127.293549 
	C554.460815,139.228394 556.742615,151.494827 555.159912,164.040009 
	C554.384094,170.190002 552.451477,176.291550 550.293945,182.138870 
	C548.570251,186.810364 542.977234,188.861679 537.685303,187.781860 
	C533.687927,186.966187 529.677490,181.942642 529.438416,176.438995 
	C529.092041,168.464249 529.474976,160.457153 529.103760,152.484467 
	C528.921936,148.578262 528.053711,144.625458 526.931396,140.862198 
	C525.633911,136.511826 522.270508,135.877609 519.165833,139.358566 
	C517.449280,141.283234 516.387695,143.792007 514.920410,146.430939 
z"/>
<path fill="#DD2484" opacity="1.000000" stroke="none" 
	d="
M754.504761,99.501610 
	C761.343201,105.745544 762.513550,113.465363 761.256226,121.673889 
	C760.588989,126.029533 757.757385,129.291595 753.375488,130.471283 
	C748.892456,131.678223 745.205811,130.102142 742.619751,126.169426 
	C742.437134,125.891716 742.289551,125.590553 742.101196,125.317146 
	C736.328857,116.940880 732.931274,116.909050 728.943359,126.416344 
	C724.493042,137.026154 723.429688,148.314651 727.539490,159.419876 
	C730.058716,166.227249 733.322937,167.212921 739.995117,164.814407 
	C744.005066,163.372910 748.307251,161.596542 752.371216,161.830032 
	C755.419128,162.005142 759.254944,164.501038 761.014343,167.122055 
	C763.360168,170.616684 763.182861,175.214066 759.515503,178.471329 
	C748.962708,187.844025 736.064270,190.003906 723.169861,186.945190 
	C710.149353,183.856567 704.518188,172.933838 701.268066,160.489548 
	C698.262390,148.981125 698.855286,137.614395 701.687866,126.447845 
	C705.287781,112.256386 711.614136,99.358444 726.468445,93.803864 
	C736.460510,90.067467 746.078796,91.884827 754.504761,99.501610 
z"/>
<path fill="#DC2383" opacity="1.000000" stroke="none" 
	d="
M578.523132,164.708160 
	C577.930786,158.545319 577.372742,152.775162 577.144409,146.991959 
	C577.037048,144.273849 576.517151,142.834869 573.356323,142.462372 
	C567.448303,141.766144 563.717346,138.237808 563.297241,133.803375 
	C562.781921,128.363281 564.917297,125.545425 571.374634,123.013672 
	C575.053101,121.571419 576.995361,119.614655 577.787109,114.947830 
	C579.565002,104.468712 580.521423,93.554192 586.529175,84.195549 
	C590.241150,78.413101 594.750183,76.562080 600.957520,78.366196 
	C604.948975,79.526291 607.420288,83.815620 607.284851,90.205124 
	C607.105347,98.670074 607.038330,107.172379 606.133362,115.573563 
	C605.609863,120.433197 607.430298,121.279175 611.512024,121.327652 
	C614.094543,121.358337 617.293518,121.483673 619.089783,122.948044 
	C621.494690,124.908623 624.238281,128.246063 624.164001,130.918076 
	C624.098450,133.278915 620.742249,136.197189 618.154907,137.657089 
	C615.552673,139.125381 612.043335,138.894501 609.059326,139.820129 
	C607.760071,140.223145 605.809265,141.653641 605.808167,142.619339 
	C605.799561,150.344406 604.109924,158.309662 608.189941,165.593231 
	C608.890686,166.844208 609.774109,168.133759 610.893250,168.984055 
	C614.886047,172.017578 617.030518,175.987030 615.138672,180.685135 
	C613.097412,185.754379 609.376953,189.675430 603.456604,190.370514 
	C594.095093,191.469635 585.441467,185.505234 581.886414,175.509567 
	C580.670837,172.091873 579.748718,168.569839 578.523132,164.708160 
z"/>
<path fill="#DC2383" opacity="1.000000" stroke="none" 
	d="
M823.669189,177.111496 
	C823.082703,183.377853 818.736877,188.911438 813.271606,190.090378 
	C805.979675,191.663345 799.663086,189.498505 794.979004,183.722153 
	C788.942444,176.277802 786.512878,167.300186 785.509766,157.994080 
	C784.997925,153.245453 785.420166,148.396133 785.420166,143.690918 
	C782.178589,142.636032 779.096985,142.368881 777.049683,140.774048 
	C774.681458,138.929214 771.734009,135.907150 771.748413,133.411850 
	C771.766296,130.306808 774.085510,124.947037 776.228271,124.502693 
	C787.346924,122.196991 785.450439,112.966110 787.627258,105.741241 
	C789.854004,98.350624 792.036011,90.879356 795.139954,83.841370 
	C797.629456,78.196671 802.386292,76.666283 808.632812,78.321251 
	C813.918335,79.721634 815.302246,84.177956 815.289978,88.815323 
	C815.266235,97.786911 814.961121,106.773438 814.316040,115.720848 
	C814.009583,119.971268 815.430481,121.259903 819.490967,121.344574 
	C822.387329,121.404961 825.812256,121.753304 827.992798,123.350243 
	C830.202515,124.968513 832.507874,128.387711 832.310425,130.818192 
	C832.112915,133.250137 829.276245,136.134216 826.853516,137.537323 
	C824.267090,139.035187 820.698547,138.726608 817.780090,139.805481 
	C816.172913,140.399658 813.914612,142.175720 813.855713,143.503433 
	C813.606018,149.134918 813.541077,154.887787 814.478394,160.414886 
	C815.012207,163.562775 817.587646,166.373077 819.283081,169.312698 
	C820.715881,171.796860 822.205383,174.248306 823.669189,177.111496 
z"/>
<path fill="#DD2484" opacity="1.000000" stroke="none" 
	d="
M857.710083,111.701134 
	C871.331055,103.414978 887.600342,109.314781 892.839600,124.145874 
	C900.098572,144.693939 892.728760,171.759796 876.022522,185.906998 
	C865.192200,195.078384 847.989014,189.829620 842.702087,175.592987 
	C838.119873,163.254105 837.843750,150.684280 841.937134,138.183304 
	C843.827087,132.411316 845.909729,126.589027 848.843994,121.311646 
	C850.851929,117.700363 854.481567,114.990799 857.710083,111.701134 
M863.980408,165.437042 
	C866.151306,167.952545 868.416565,167.252945 870.492065,165.431885 
	C878.028625,158.819199 881.319763,140.479431 876.646118,131.544876 
	C874.744324,127.909088 872.390198,127.385506 869.716370,130.190109 
	C862.308960,137.959915 859.494324,153.845673 863.980408,165.437042 
z"/>
<path fill="#DD2484" opacity="1.000000" stroke="none" 
	d="
M430.035767,177.997284 
	C423.927979,164.659790 424.195282,151.270325 428.132812,137.922058 
	C429.937164,131.805405 432.511963,125.811066 435.520355,120.179512 
	C439.888245,112.002945 450.799500,106.518745 458.811584,107.788437 
	C469.774658,109.525772 476.812988,115.841614 479.590942,126.529358 
	C485.119934,147.801346 480.302032,167.044296 465.397980,182.718216 
	C453.336975,195.402222 439.915497,193.027206 430.035767,177.997284 
M458.094940,163.671494 
	C465.062988,153.962433 467.053101,143.404541 462.880127,132.103973 
	C461.076782,127.220505 458.319855,127.108231 454.969513,131.242477 
	C447.560760,140.384842 446.927216,151.096893 448.463501,162.009796 
	C449.267700,167.722260 453.302979,168.469009 458.094940,163.671494 
z"/>
<path fill="#FAE1EE" opacity="1.000000" stroke="none" 
	d="
M667.088379,158.051575 
	C669.079163,161.562729 667.800720,164.309357 664.812500,165.051071 
	C661.373474,165.904724 657.179138,166.455811 654.092773,165.208420 
	C651.086487,163.993362 653.401978,158.041183 657.703369,157.233688 
	C660.607239,156.688522 663.772949,157.538330 667.088379,158.051575 
z"/>
<path fill="#FCEBF4" opacity="1.000000" stroke="none" 
	d="
M863.763123,165.098846 
	C859.494324,153.845673 862.308960,137.959915 869.716370,130.190109 
	C872.390198,127.385506 874.744324,127.909088 876.646118,131.544876 
	C881.319763,140.479431 878.028625,158.819199 870.492065,165.431885 
	C868.416565,167.252945 866.151306,167.952545 863.763123,165.098846 
z"/>
<path fill="#FCEBF4" opacity="1.000000" stroke="none" 
	d="
M457.886566,163.977097 
	C453.302979,168.469009 449.267700,167.722260 448.463501,162.009796 
	C446.927216,151.096893 447.560760,140.384842 454.969513,131.242477 
	C458.319855,127.108231 461.076782,127.220505 462.880127,132.103973 
	C467.053101,143.404541 465.062988,153.962433 457.886566,163.977097 
z"/>
</svg>