<?xml version="1.0" standalone="no"?>
<!DOCTYPE svg PUBLIC "-//W3C//DTD SVG 20010904//EN"
 "http://www.w3.org/TR/2001/REC-SVG-20010904/DTD/svg10.dtd">
<svg version="1.0" xmlns="http://www.w3.org/2000/svg"
 width="713.000000pt" height="842.000000pt" viewBox="0 0 713.000000 842.000000"
 preserveAspectRatio="xMidYMid meet">

<g transform="translate(0.000000,842.000000) scale(0.100000,-0.100000)"
fill="#000000" stroke="none">
<path d="M2455 6373 c-27 -8 -63 -18 -80 -23 -16 -5 -64 -18 -106 -28 -42 -11
-86 -25 -98 -31 l-21 -12 0 -2264 c0 -1267 4 -2265 9 -2267 4 -1 44 -34 87
-73 43 -38 99 -88 124 -110 25 -23 63 -56 85 -75 l40 -34 5 1533 5 1532 105
45 c58 24 114 47 125 50 11 4 67 26 125 50 135 55 454 183 500 200 19 7 98 38
175 69 77 32 168 68 202 81 83 31 175 78 226 115 68 49 167 151 173 178 15 66
48 167 57 176 16 17 -2 -154 -23 -215 -10 -30 -42 -129 -71 -220 -28 -91 -58
-175 -65 -187 -8 -13 -37 -110 -64 -217 -27 -107 -54 -205 -59 -218 -6 -12
-24 -75 -41 -138 -17 -63 -40 -143 -50 -178 -11 -34 -20 -71 -20 -82 0 -10 -4
-21 -9 -24 -4 -3 -14 -33 -20 -67 -7 -34 -17 -69 -22 -78 -8 -15 -22 -64 -51
-176 -5 -22 -14 -49 -18 -60 -5 -11 -14 -45 -21 -75 -6 -30 -16 -60 -20 -66
-5 -6 -7 -19 -3 -28 4 -9 1 -16 -6 -16 -8 0 -11 -9 -8 -25 3 -14 1 -25 -3 -25
-5 0 -9 -9 -9 -19 0 -11 -5 -23 -10 -26 -6 -4 -8 -15 -5 -26 4 -11 2 -19 -4
-19 -14 0 -14 -37 -1 -45 6 -3 10 -12 9 -18 0 -9 -2 -9 -6 1 -9 22 -21 13 -26
-20 -3 -18 -10 -49 -15 -68 -5 -19 -24 -87 -41 -151 -17 -64 -52 -187 -77
-275 -25 -87 -47 -181 -48 -209 -1 -27 -8 -77 -15 -110 -27 -135 -31 -162 -42
-278 -6 -69 -16 -125 -23 -129 -6 -4 -27 -8 -47 -8 -52 0 -140 62 -232 163
-99 109 -169 158 -234 163 l-48 3 44 -9 c64 -14 128 -60 223 -159 151 -159
229 -197 314 -153 38 19 65 45 93 87 8 11 -3 1 -23 -22 -21 -24 -42 -43 -48
-43 -15 0 -1 81 17 94 7 6 29 49 48 96 49 120 51 130 34 130 -13 0 -12 11 6
66 20 61 23 65 47 60 14 -2 31 -2 37 2 6 4 53 162 106 352 52 190 98 353 102
363 6 14 3 16 -11 11 -12 -4 -8 3 11 20 18 15 24 25 16 26 -8 0 -25 -9 -37
-21 -12 -12 -28 -19 -35 -17 -7 2 9 19 37 38 62 42 58 39 51 47 -4 3 -24 -7
-45 -24 -66 -53 -77 -49 -108 39 -19 54 0 38 22 -17 9 -25 19 -45 23 -44 17 1
116 77 117 89 0 8 4 23 9 33 4 10 5 21 1 24 -3 4 1 15 11 25 26 28 -3 21 -39
-10 -47 -40 -66 -45 -78 -21 -19 35 -40 100 -30 94 5 -3 14 -22 20 -43 7 -20
16 -41 20 -46 9 -9 130 69 130 84 0 15 -7 12 -56 -25 -25 -19 -49 -35 -54 -35
-11 0 -52 99 -46 113 3 9 5 9 5 0 1 -6 10 -33 21 -59 l21 -47 22 20 c12 11 39
30 60 42 20 13 37 29 37 37 0 9 -5 12 -12 8 -7 -4 -2 5 11 19 21 24 22 27 7
27 -16 0 -15 3 5 20 19 15 21 22 11 28 -10 7 -10 11 3 22 9 7 14 19 11 26 -3
7 -1 16 5 20 6 3 8 12 5 19 -3 8 2 19 10 26 8 7 12 20 9 30 -4 11 -2 19 4 19
6 0 11 11 11 24 0 14 5 28 10 31 6 4 8 11 4 16 -3 5 0 17 7 25 6 8 9 17 6 21
-4 3 -2 12 4 19 6 8 9 20 6 29 -4 8 -2 17 2 19 5 3 12 20 16 38 4 18 9 38 11
43 4 13 33 114 40 140 3 11 7 27 9 35 1 8 5 22 8 30 15 42 71 235 112 390 26
96 58 210 71 253 26 86 30 117 13 117 -14 0 -9 27 29 170 22 81 32 105 45 104
10 -1 20 11 27 35 6 20 22 57 36 82 13 26 24 57 24 70 0 13 9 48 20 77 32 84
22 161 -27 205 -19 16 -19 20 -5 85 10 43 16 124 16 227 l1 160 -80 6 c-88 7
-165 14 -325 29 -58 5 -190 17 -295 26 -104 8 -199 17 -210 18 -11 2 -65 7
-120 11 -55 3 -194 15 -310 26 -290 27 -538 49 -550 48 -5 0 -32 -7 -60 -16z
m881 -158 c4 -8 3 -23 -2 -32 -4 -10 -6 -22 -4 -28 4 -16 1 -77 -6 -107 -8
-39 -24 -35 -24 6 0 18 -3 47 -6 64 l-6 31 -27 -20 c-28 -21 -61 -17 -61 6 0
14 32 29 70 34 6 0 10 15 10 31 0 25 4 30 25 30 14 0 28 -7 31 -15z m-1013
-39 c3 -8 15 -12 29 -9 20 4 23 0 24 -24 4 -123 6 -137 13 -118 5 11 7 23 5
27 -11 19 -6 91 7 99 28 17 34 2 35 -89 0 -77 -2 -92 -15 -92 -14 -1 -14 -2
-1 -10 12 -6 17 -29 18 -89 3 -80 3 -80 -25 -87 -15 -4 -28 -3 -30 3 -4 12
-51 5 -59 -8 -3 -5 -16 -9 -30 -9 -18 0 -24 -5 -24 -22 0 -17 3 -20 9 -9 5 8
18 12 30 8 14 -3 21 0 21 9 0 16 9 18 29 5 8 -5 14 -26 14 -50 0 -23 4 -44 8
-47 5 -3 9 17 9 45 0 51 13 72 33 52 16 -16 20 -243 5 -252 -6 -4 -40 -7 -76
-8 -36 0 -81 -4 -99 -7 -35 -7 -33 -10 -37 61 -1 11 2 25 7 32 4 6 3 14 -3 18
-6 3 -7 13 -2 23 4 9 6 28 5 42 -9 81 -8 101 8 116 9 8 20 14 25 13 5 -1 23 0
39 1 20 2 11 5 -25 9 l-55 6 0 40 c-1 22 1 44 4 49 6 13 7 66 1 66 -3 0 -3 27
-2 61 4 65 19 82 49 58 15 -13 16 -10 11 27 -6 44 5 74 26 74 8 0 16 -6 19
-14z m1487 -51 c0 -18 4 -23 15 -19 12 5 15 -2 15 -30 0 -23 5 -39 15 -42 19
-8 20 -44 1 -44 -8 0 -22 10 -30 22 -13 18 -16 19 -16 6 0 -26 -21 -33 -27 -9
-6 24 -43 29 -43 6 0 -8 -7 -15 -15 -15 -11 0 -15 11 -15 40 0 22 -4 40 -10
40 -5 0 -10 -11 -10 -24 0 -45 -7 -51 -58 -47 -26 2 -53 8 -60 14 -10 8 -16 7
-22 -3 -7 -11 -11 -11 -23 -1 -12 9 -16 9 -20 -1 -3 -9 -9 -7 -21 7 -14 18
-15 18 -16 3 0 -10 -4 -18 -9 -18 -21 0 -29 77 -11 111 16 29 88 27 99 -3 8
-20 10 -21 16 -5 10 25 60 22 79 -5 9 -12 16 -17 16 -11 0 7 10 18 22 24 18
10 24 8 35 -7 7 -10 13 -12 13 -6 0 7 9 12 19 12 10 0 21 7 25 15 9 25 36 18
36 -10z m-824 -182 c29 -21 54 -42 54 -46 0 -12 21 -30 55 -47 l30 -15 -42 -3
c-41 -3 -42 -4 -36 -33 5 -28 5 -29 -35 -29 -51 0 -80 -14 -111 -52 -32 -40
-37 -75 -33 -266 l3 -163 25 -11 c17 -8 31 -9 42 -2 9 5 33 8 53 6 32 -3 38
-7 43 -34 3 -17 6 -48 6 -69 0 -34 -5 -41 -46 -69 -88 -62 -145 -57 -200 15
-24 31 -29 50 -32 107 -4 60 -1 74 18 100 22 30 22 33 10 114 -7 46 -17 84
-22 84 -12 0 -10 308 2 352 6 20 26 50 46 67 50 45 99 43 170 -6z m819 -290
c0 -66 3 -120 6 -118 3 2 14 22 23 44 18 39 40 51 79 43 23 -5 22 -10 -18 -72
-19 -30 -35 -59 -35 -65 0 -6 16 -37 35 -69 44 -74 45 -88 3 -84 -29 3 -37 11
-65 63 l-32 60 -1 -64 c0 -53 -2 -62 -16 -57 -9 3 -22 6 -30 6 -12 0 -14 37
-14 221 l0 220 33 -3 32 -3 0 -122z m-283 90 c10 -9 18 -24 18 -34 0 -17 -25
-49 -38 -49 -33 1 -51 59 -27 84 20 20 24 20 47 -1z m-488 -99 c29 -28 20
-117 -21 -231 -27 -75 -40 -99 -46 -87 -5 8 -7 81 -5 161 4 128 7 147 23 159
24 18 30 18 49 -2z m498 -136 l2 -133 5 102 c5 82 10 105 26 123 30 33 62 42
102 29 50 -16 63 -55 63 -184 l0 -106 -27 3 -28 3 -5 99 c-4 79 -8 101 -22
110 -32 20 -43 -8 -46 -114 l-4 -100 -28 0 c-16 0 -31 6 -34 13 -5 10 -7 10
-12 0 -3 -7 -16 -13 -29 -13 -24 0 -24 0 -27 143 -2 78 -2 145 0 150 2 4 16 7
33 7 l29 0 2 -132z m-322 93 c0 -11 -4 -23 -10 -26 -6 -4 -10 5 -10 19 0 14 5
26 10 26 6 0 10 -9 10 -19z m-13 -203 c-2 -24 -4 -5 -4 42 0 47 2 66 4 43 2
-24 2 -62 0 -85z m-777 41 c0 -20 -15 -26 -25 -9 -9 15 3 43 15 35 5 -3 10
-15 10 -26z m-163 -13 c-4 -9 -11 -16 -17 -16 -11 0 -14 33 -3 43 11 11 26
-10 20 -27z m51 12 c-2 -13 -7 -23 -13 -23 -5 0 -11 10 -13 23 -2 15 2 22 13
22 11 0 15 -7 13 -22z m52 2 c0 -21 -15 -27 -25 -10 -7 12 2 30 16 30 5 0 9
-9 9 -20z m1868 -61 c-6 -16 -13 -28 -15 -25 -8 8 6 56 17 56 5 0 5 -13 -2
-31z m-1031 -96 c-3 -10 -5 -2 -5 17 0 19 2 27 5 18 2 -10 2 -26 0 -35z m361
30 c12 -23 -3 -63 -23 -63 -12 0 -15 6 -10 20 11 33 -12 22 -24 -11 -6 -18
-11 -33 -11 -34 0 -8 69 11 82 22 10 9 24 13 32 10 16 -6 26 12 26 50 0 18 5
24 18 21 12 -3 17 -13 16 -39 l-1 -35 46 2 c26 2 48 -2 52 -8 6 -9 11 -9 21
-1 16 14 105 8 136 -9 19 -10 23 -18 18 -42 -8 -39 -26 -58 -48 -53 -10 3 -21
1 -24 -4 -3 -6 -15 -7 -27 -3 -40 13 -287 10 -287 -3 0 -18 -20 -27 -33 -14
-6 6 -19 11 -29 11 -50 0 -51 127 -1 182 21 23 60 23 71 1z m-1170 -145 l3
-117 -53 6 c-63 7 -76 16 -57 39 7 9 12 28 11 41 -2 13 2 31 8 39 10 11 9 14
-7 14 -11 0 -22 3 -26 6 -9 9 4 34 17 34 7 0 12 10 12 23 -1 14 5 22 16 22 9
0 20 4 24 8 5 4 17 7 29 5 19 -3 20 -11 23 -120z m1822 -22 c0 -7 -7 -21 -15
-33 -8 -12 -12 -29 -8 -39 5 -13 3 -16 -10 -11 -17 7 -24 -7 -8 -17 11 -7 2
-55 -15 -80 -7 -10 -10 -25 -7 -32 3 -8 0 -14 -7 -14 -6 0 -8 -4 -5 -10 3 -5
-1 -10 -9 -10 -18 0 -23 55 -6 65 5 3 7 12 4 20 -3 7 0 24 7 37 7 13 14 33 15
45 4 31 15 66 25 79 11 14 39 14 39 0z m-1921 -286 c1 -44 51 -70 65 -35 4 11
-2 15 -20 15 -27 0 -40 20 -30 46 6 15 10 14 31 -6 14 -13 25 -18 25 -12 0 7
6 12 14 12 9 0 17 -16 21 -41 10 -57 -10 -77 -72 -73 -25 2 -52 9 -59 15 -17
14 -18 79 -2 114 11 24 13 25 19 8 4 -10 8 -29 8 -43z m114 -271 c31 -7 47
-16 47 -26 0 -12 -7 -14 -32 -8 -18 4 -72 12 -120 19 -88 12 -104 18 -94 34 6
9 123 -2 199 -19z m5 -71 c14 -14 16 -84 2 -93 -6 -3 -5 -15 2 -31 10 -22 9
-28 -5 -39 -15 -10 -15 -14 -3 -18 11 -5 14 -27 15 -101 0 -61 -4 -96 -11 -96
-7 0 -6 -5 1 -14 7 -8 11 -34 9 -58 -3 -39 -5 -43 -28 -42 -37 2 -37 2 -43 23
-2 11 -15 21 -28 23 -31 4 -39 38 -10 38 28 0 28 36 1 45 -11 3 -20 11 -20 16
0 5 -9 9 -20 9 -28 0 -25 -25 6 -38 28 -13 24 -32 -7 -32 -11 0 -19 -7 -19
-16 0 -13 -3 -14 -15 -4 -15 13 -15 31 3 162 4 32 4 64 -1 73 -4 8 -5 20 -1
26 4 7 6 38 5 70 -2 57 -1 59 24 59 19 0 25 -5 26 -22 0 -13 3 -17 6 -10 2 6
18 12 34 12 25 0 29 4 29 28 0 42 22 56 48 30z m1627 -38 c9 -15 -17 -80 -32
-80 -16 0 -16 4 -2 53 10 37 22 46 34 27z m-45 -170 c0 -5 -4 -10 -10 -10 -5
0 -10 5 -10 10 0 6 5 10 10 10 6 0 10 -4 10 -10z m-18 -52 c-15 -15 -24 -6
-16 16 5 12 10 14 17 7 8 -8 8 -14 -1 -23z m-48 -173 c3 -9 0 -15 -9 -15 -8 0
-15 7 -15 15 0 8 4 15 9 15 5 0 11 -7 15 -15z m-20 -62 c-3 -12 -12 -19 -19
-17 -10 4 -10 11 -1 29 13 28 28 19 20 -12z m-1614 -18 c128 -38 171 -58 157
-71 -6 -7 -83 10 -122 26 -24 10 -75 24 -92 25 -19 1 -36 22 -28 35 4 6 12 9
18 6 7 -3 37 -12 67 -21z m1604 -21 c10 -4 16 -18 16 -41 0 -35 -1 -35 -32
-29 -18 4 -39 13 -47 21 -12 12 -12 16 0 31 13 15 14 15 19 -7 3 -13 15 -26
25 -28 17 -3 18 -1 6 13 -12 14 -12 16 3 10 22 -8 21 12 -1 25 -20 12 -13 14
11 5z m-1567 -126 c5 -7 10 -80 11 -161 1 -122 -1 -149 -14 -154 -12 -4 -12
-8 -2 -21 10 -12 21 -116 19 -192 0 -8 -1 -53 -2 -100 -1 -47 -3 -88 -6 -92
-2 -5 -18 -1 -35 8 -27 14 -29 19 -24 52 15 102 15 102 -4 92 -13 -7 -21 -5
-31 6 -13 15 -14 42 -6 124 3 25 0 48 -5 51 -6 4 -7 12 -2 20 5 8 10 70 10
139 2 154 0 142 23 135 22 -7 34 16 25 51 -4 14 -1 31 6 39 15 18 25 19 37 3z
m1516 -59 c-6 -6 -9 -18 -6 -25 3 -8 0 -14 -6 -14 -7 0 -9 -9 -5 -25 5 -22 4
-24 -12 -18 -15 5 -17 4 -8 -8 9 -11 7 -21 -8 -44 l-20 -30 7 40 c4 22 11 45
16 51 5 6 11 28 15 50 8 49 13 59 27 45 8 -8 8 -14 0 -22z m-58 -178 c3 -5 0
-13 -6 -16 -5 -4 -8 -13 -5 -21 3 -8 -1 -14 -9 -14 -7 0 -15 -8 -18 -17 -4
-17 -4 -17 -12 0 -15 36 30 99 50 68z m-115 -239 c18 -55 25 -57 69 -21 23 18
43 30 46 27 8 -8 -70 -68 -88 -68 -12 0 -57 83 -57 105 0 18 20 -10 30 -43z
m34 -84 c25 23 66 45 72 39 5 -5 -81 -67 -93 -67 -10 0 -53 85 -52 103 0 6 12
-12 26 -41 l25 -54 22 20z m-76 -48 c6 -16 7 -30 2 -30 -6 0 -30 52 -30 67 0
14 20 -12 28 -37z m-1341 -186 c145 -77 163 -88 163 -101 0 -15 -21 -17 -35
-4 -6 5 -56 32 -112 62 -57 29 -103 59 -103 66 0 20 12 16 87 -23z m73 -248
c0 -19 -7 -42 -16 -50 -14 -15 -14 -17 0 -22 17 -7 22 -54 6 -54 -5 0 -10 -11
-10 -24 0 -14 5 -28 10 -31 6 -3 10 -17 10 -31 0 -21 -4 -24 -20 -19 -16 5
-20 2 -20 -14 0 -11 9 -25 19 -30 16 -9 19 -23 20 -97 1 -49 -3 -92 -10 -100
-7 -9 -6 -19 6 -37 18 -27 8 -41 -22 -31 -15 5 -14 2 5 -14 12 -11 22 -30 22
-41 0 -19 -3 -20 -22 -10 l-23 12 23 -25 c25 -27 29 -58 8 -58 -8 0 -26 14
-40 31 -22 25 -26 41 -26 89 0 37 5 64 14 72 12 12 12 18 0 39 -21 38 -18 95
8 119 12 11 17 20 11 20 -23 0 -45 92 -24 104 5 4 5 19 -2 36 -9 23 -9 35 0
50 11 16 9 20 -7 25 -28 9 -28 60 -1 52 17 -4 18 -2 11 19 -10 25 0 37 23 28
8 -3 17 2 20 10 11 28 27 17 27 -18z m1061 -533 c-10 -17 -10 -16 -11 3 0 23
13 41 18 25 2 -6 -1 -18 -7 -28z m-1146 -263 c3 -11 12 -20 18 -20 16 0 67
-65 67 -84 0 -20 -14 -20 -31 0 -7 9 -21 13 -32 10 -11 -3 -25 1 -32 7 -14 15
-29 83 -20 97 10 16 23 12 30 -10z m30 -132 c11 -43 10 -81 -1 -85 -13 -4 -24
28 -24 75 0 37 17 43 25 10z"/>
<path d="M2267 5980 c-3 -11 -2 -22 2 -24 4 -3 8 6 9 20 2 29 -4 31 -11 4z"/>
<path d="M2379 5958 c-6 -13 -4 -120 2 -124 5 -3 9 24 9 60 0 55 -4 78 -11 64z"/>
<path d="M2268 5880 c-2 -22 0 -40 4 -40 5 0 8 18 8 40 0 22 -2 40 -4 40 -2 0
-6 -18 -8 -40z"/>
<path d="M2273 5675 c0 -27 2 -38 4 -22 2 15 2 37 0 50 -2 12 -4 0 -4 -28z"/>
<path d="M2378 5598 c-2 -21 -1 -38 3 -38 11 0 16 34 9 55 -6 16 -8 12 -12
-17z"/>
<path d="M3596 6083 c-12 -12 -6 -33 9 -33 8 0 15 6 15 14 0 17 -14 28 -24 19z"/>
<path d="M3760 6070 c0 -5 5 -10 10 -10 6 0 10 5 10 10 0 6 -4 10 -10 10 -5 0
-10 -4 -10 -10z"/>
<path d="M3490 5191 c0 -12 5 -21 10 -21 6 0 10 6 10 14 0 8 -4 18 -10 21 -5
3 -10 -3 -10 -14z"/>
<path d="M2325 5140 c3 -5 8 -10 11 -10 2 0 4 5 4 10 0 6 -5 10 -11 10 -5 0
-7 -4 -4 -10z"/>
<path d="M2331 4404 c0 -11 3 -14 6 -6 3 7 2 16 -1 19 -3 4 -6 -2 -5 -13z"/>
<path d="M2356 4384 c-4 -16 -12 -32 -18 -35 -13 -8 -3 -39 12 -39 5 0 10 10
10 23 0 13 5 28 11 34 7 7 8 17 1 28 -8 15 -10 14 -16 -11z"/>
<path d="M2284 4382 c-10 -15 -8 -18 6 -19 13 -1 16 4 13 18 -6 23 -6 23 -19
1z"/>
<path d="M2290 4301 c0 -16 -6 -31 -12 -34 -10 -3 -9 -8 2 -20 13 -15 15 -11
18 33 2 28 1 50 -2 50 -4 0 -6 -13 -6 -29z"/>
<path d="M2325 4280 c3 -5 12 -7 20 -3 21 7 19 13 -6 13 -11 0 -18 -4 -14 -10z"/>
<path d="M2341 4235 c-23 -13 -23 -13 -2 -20 17 -5 19 -12 14 -37 -6 -29 -5
-29 16 -17 25 16 28 44 5 53 -9 4 -14 13 -10 21 3 8 4 15 3 14 -1 -1 -13 -7
-26 -14z"/>
<path d="M2260 3605 c0 -8 5 -15 10 -15 6 0 10 -7 10 -16 0 -8 4 -13 9 -10 5
4 4 17 -2 31 -13 28 -27 33 -27 10z"/>
<path d="M2281 3494 c0 -11 3 -14 6 -6 3 7 2 16 -1 19 -3 4 -6 -2 -5 -13z"/>
<path d="M2280 3416 c0 -31 6 -34 13 -6 3 11 1 23 -4 26 -5 3 -9 -6 -9 -20z"/>
<path d="M2275 3370 c3 -5 8 -10 11 -10 2 0 4 5 4 10 0 6 -5 10 -11 10 -5 0
-7 -4 -4 -10z"/>
<path d="M2301 3194 c0 -11 3 -14 6 -6 3 7 2 16 -1 19 -3 4 -6 -2 -5 -13z"/>
<path d="M2322 2415 c0 -16 2 -22 5 -12 2 9 2 23 0 30 -3 6 -5 -1 -5 -18z"/>
<path d="M5176 6357 c-25 -14 -49 -39 -64 -67 -21 -40 -23 -54 -19 -129 3 -47
1 -95 -3 -107 -5 -12 -5 -46 0 -75 5 -30 14 -80 19 -111 5 -31 12 -61 15 -66
3 -6 1 -120 -4 -253 -5 -134 -10 -277 -11 -317 -1 -40 -5 -75 -10 -78 -5 -3
-9 -281 -9 -622 l0 -616 28 -30 27 -31 -27 24 -28 24 0 -23 c0 -13 12 -38 28
-54 l27 -31 -27 24 -28 24 0 -23 c0 -13 12 -38 28 -54 l27 -31 -27 24 -28 24
0 -26 c0 -14 8 -32 18 -39 10 -7 22 -20 27 -28 4 -8 -3 -4 -18 9 l-26 23 1
-52 c0 -44 4 -56 26 -76 15 -13 22 -24 16 -24 -6 0 -17 7 -24 15 -7 8 -16 12
-21 10 -13 -8 1 -38 30 -62 14 -12 21 -22 15 -23 -6 0 -17 7 -24 15 -7 8 -16
13 -20 10 -16 -10 5 -42 70 -102 l66 -63 72 71 c40 39 72 77 72 86 0 14 -3 14
-20 -2 -11 -10 -20 -14 -20 -8 0 5 9 18 20 28 11 10 20 27 20 38 0 19 -1 20
-20 2 -11 -10 -20 -14 -20 -8 0 5 9 18 20 28 11 10 20 27 20 38 0 19 -1 20
-20 2 -11 -10 -20 -14 -20 -8 0 5 9 18 20 28 20 18 27 45 12 45 -4 0 -13 -5
-20 -12 -7 -7 -12 -8 -12 -2 0 6 9 19 20 29 11 10 20 27 20 38 0 19 -1 20 -20
2 -11 -10 -20 -14 -20 -8 0 5 9 18 20 28 20 18 27 45 12 45 -4 0 -13 -5 -20
-12 -7 -7 -12 -8 -12 -2 0 6 9 19 20 29 33 30 23 62 -10 33 -8 -7 -5 -1 8 13
34 39 27 78 -8 47 -8 -7 -5 -1 8 13 34 39 27 78 -8 47 -8 -7 -5 -1 8 13 34 39
27 78 -8 47 -8 -7 -5 -1 8 13 34 39 27 78 -8 46 -8 -6 -5 0 8 14 34 39 27 78
-8 46 -8 -6 -5 0 8 14 34 39 27 78 -8 47 -8 -7 -5 -2 6 12 15 18 22 39 22 73
0 29 -4 45 -10 41 -7 -4 -7 0 0 12 15 28 16 1040 2 1049 -18 11 -23 -2 -25
-70 -1 -36 -5 -69 -9 -73 -4 -3 -6 9 -6 28 1 19 -2 123 -6 230 -7 197 -1 310
17 310 6 0 7 -5 4 -11 -4 -5 -4 -22 0 -36 10 -43 28 -11 30 54 1 32 7 68 13
79 8 14 11 76 9 182 -3 178 -7 192 -77 240 -42 28 -84 28 -134 -1z m-11 -506
c-4 -31 -11 -48 -17 -45 -6 4 -7 23 -4 47 13 78 32 76 21 -2z m85 -270 c0 -5
-7 -14 -15 -21 -13 -11 -13 -15 -3 -22 10 -6 10 -10 -2 -18 -12 -8 -13 -13 -2
-30 16 -27 15 -30 -8 -30 -11 0 -20 -4 -20 -10 0 -5 9 -10 19 -10 24 0 33 -62
13 -91 -8 -11 -9 -19 -3 -19 19 0 12 -20 -6 -21 -17 -1 -17 -2 0 -6 20 -5 23
-23 5 -24 -10 0 -10 -2 0 -6 25 -10 11 -24 -20 -21 l-33 3 -1 70 c-1 39 2 75
8 82 5 7 5 13 0 17 -6 3 -9 36 -8 73 1 62 3 68 24 71 12 2 22 8 22 13 0 5 7 9
15 9 8 0 15 -4 15 -9z m90 -396 c0 -13 -4 -27 -10 -30 -6 -4 -10 8 -10 30 0
22 4 34 10 30 6 -3 10 -17 10 -30z m-70 -520 c0 -46 -22 -77 -41 -58 -15 15
-13 104 2 114 22 13 39 -11 39 -56z m-10 -125 c0 -5 -9 -10 -20 -10 -11 0 -20
5 -20 10 0 6 9 10 20 10 11 0 20 -4 20 -10z m0 -50 c0 -18 -3 -19 -20 -10 -11
6 -20 15 -20 20 0 6 9 10 20 10 13 0 20 -7 20 -20z m-15 -30 c3 -5 8 -19 10
-31 3 -15 0 -19 -11 -15 -9 3 -18 6 -20 6 -2 0 -4 11 -4 25 0 25 14 33 25 15z
m15 -71 c0 -5 -5 -7 -12 -3 -8 5 -9 2 -5 -10 5 -11 3 -16 -5 -14 -20 7 -18 38
3 38 10 0 19 -5 19 -11z m13 -65 c-4 -11 -7 -11 -19 1 -19 19 -18 24 5 18 12
-3 17 -11 14 -19z m-30 -21 c-7 -2 -19 -2 -25 0 -7 3 -2 5 12 5 14 0 19 -2 13
-5z m14 -93 c-1 -11 -7 -22 -14 -24 -17 -7 -17 -26 1 -26 25 0 14 -48 -12 -53
-17 -3 -21 -1 -17 12 2 9 5 37 6 64 2 38 6 47 20 47 12 0 17 -7 16 -20z m-122
-100 c3 -5 1 -10 -4 -10 -6 0 -11 5 -11 10 0 6 2 10 4 10 3 0 8 -4 11 -10z
m175 -85 c0 -22 -25 -35 -64 -35 -86 0 -107 23 -66 71 l19 24 1 -32 c0 -32 2
-33 38 -32 30 2 32 3 10 6 -35 5 -37 23 -3 23 34 0 32 20 -2 21 l-28 1 25 8
c20 6 29 2 47 -19 13 -14 23 -31 23 -36z m-180 30 c7 -9 8 -15 2 -15 -5 0 -12
7 -16 15 -3 8 -4 15 -2 15 2 0 9 -7 16 -15z m130 -180 c-7 -8 -9 -15 -4 -15 4
0 3 -5 -3 -11 -16 -16 -44 -4 -37 15 5 13 21 21 48 25 5 0 3 -6 -4 -14z m-2
-62 c2 -7 -5 -13 -15 -13 -17 -1 -17 -1 1 -15 10 -7 18 -24 17 -37 -3 -70 -9
-136 -16 -155 -6 -18 -3 -23 11 -24 11 0 4 -5 -14 -10 -28 -8 -32 -12 -22 -24
16 -19 -8 -21 -33 -2 -25 18 -3 85 31 94 20 5 22 7 9 14 -11 7 -15 22 -12 62
1 28 4 54 5 57 1 3 1 10 0 15 -10 44 -7 56 13 53 11 -2 22 -9 25 -15z m-128
-168 c7 -8 8 -15 2 -15 -5 0 -15 7 -22 15 -7 8 -8 15 -2 15 5 0 15 -7 22 -15z"/>
<path d="M5206 5381 c-4 -7 -5 -15 -2 -18 9 -9 19 4 14 18 -4 11 -6 11 -12 0z"/>
<path d="M4451 4903 c-12 -49 -31 -119 -41 -158 -50 -192 -171 -644 -180 -670
-12 -40 -78 -284 -96 -359 -8 -33 -35 -130 -59 -215 -24 -86 -59 -217 -79
-291 -19 -74 -46 -178 -61 -230 -41 -149 -95 -348 -115 -425 -10 -38 -35 -131
-55 -205 -20 -74 -45 -166 -55 -205 -10 -38 -30 -113 -44 -165 -14 -52 -36
-137 -50 -188 -14 -53 -20 -92 -14 -92 5 0 107 25 226 56 120 31 233 60 252
64 19 4 107 26 194 49 87 22 160 41 161 41 1 0 5 244 9 543 3 298 8 605 11
682 3 77 7 390 10 695 3 305 8 691 11 858 4 166 5 302 2 302 -2 0 -14 -39 -27
-87z m-195 -2178 c19 -15 18 -16 -9 -40 -21 -18 -39 -25 -71 -25 -55 0 -137
-41 -175 -88 -27 -35 -62 -102 -93 -179 -7 -18 -16 -33 -20 -33 -5 0 -8 -6 -8
-14 0 -8 -7 -17 -16 -20 -14 -5 -16 3 -13 67 10 181 164 347 323 347 40 0 69
-5 82 -15z m-5 -225 c1 -30 7 -64 14 -76 11 -17 10 -22 -5 -32 -18 -11 -30 -7
-30 10 0 5 5 6 10 3 6 -3 10 -2 10 4 0 5 -5 13 -11 17 -6 4 -9 19 -5 36 3 16
2 27 -2 24 -14 -8 -30 8 -33 33 -3 17 1 25 14 27 11 1 21 5 25 8 9 10 11 3 13
-54z m-71 12 c0 -16 9 -37 20 -47 23 -20 27 -67 7 -83 -17 -14 -46 -9 -58 9
-7 12 -9 11 -9 -2 0 -17 -44 -42 -54 -32 -10 10 -7 73 3 73 6 0 12 -15 14 -32
l4 -33 1 36 c2 36 27 61 41 41 3 -4 14 0 24 10 16 17 16 18 -3 18 -16 0 -20 7
-20 35 0 24 5 35 15 35 10 0 15 -10 15 -28z m-40 14 c0 -11 -19 -15 -25 -6 -3
5 1 10 9 10 9 0 16 -2 16 -4z m-42 -38 c3 -23 0 -26 -18 -23 -11 2 -23 -1 -26
-8 -2 -7 -18 -12 -35 -13 -28 -1 -30 1 -27 30 2 21 8 31 20 31 9 0 19 3 22 6
3 3 18 5 33 4 23 0 29 -5 31 -27z m-50 -103 c-2 -26 -8 -45 -15 -45 -6 0 -18
-3 -27 -6 -13 -5 -16 2 -16 41 0 28 4 44 10 40 6 -3 8 -17 6 -30 -6 -32 10
-41 24 -15 8 15 8 25 1 34 -6 7 -8 16 -4 19 16 17 23 4 21 -38z m176 -37 c5
-10 7 -10 12 0 12 26 24 10 24 -33 0 -25 -3 -44 -7 -44 -5 1 -11 0 -15 -1 -23
-7 -34 -3 -40 15 -5 16 -6 14 -7 -9 -1 -16 -4 -26 -7 -23 -4 3 -15 2 -24 -3
-21 -11 -30 4 -30 49 0 34 9 44 27 30 10 -9 13 -8 13 5 0 21 17 21 23 -1 4
-14 5 -12 6 5 1 24 16 30 25 10z m-129 -55 c-12 -64 -23 -72 -22 -15 2 36 6
52 16 52 10 0 12 -9 6 -37z m-67 -34 c-2 -32 -8 -45 -20 -47 -15 -3 -18 4 -18
40 0 45 17 75 33 59 4 -4 7 -28 5 -52z"/>
<path d="M4190 2420 c0 -11 5 -20 10 -20 6 0 10 9 10 20 0 11 -4 20 -10 20 -5
0 -10 -9 -10 -20z"/>
<path d="M4042 2480 c0 -14 2 -19 5 -12 2 6 2 18 0 25 -3 6 -5 1 -5 -13z"/>
<path d="M4000 2475 c0 -8 5 -15 10 -15 6 0 10 7 10 15 0 8 -4 15 -10 15 -5 0
-10 -7 -10 -15z"/>
<path d="M4000 2260 c0 -16 5 -30 10 -30 6 0 10 14 10 30 0 17 -4 30 -10 30
-5 0 -10 -13 -10 -30z"/>
<path d="M3500 4409 c0 -5 5 -7 10 -4 6 3 10 8 10 11 0 2 -4 4 -10 4 -5 0 -10
-5 -10 -11z"/>
<path d="M3091 4394 c0 -11 3 -14 6 -6 3 7 2 16 -1 19 -3 4 -6 -2 -5 -13z"/>
<path d="M2827 4380 c3 -11 7 -20 9 -20 2 0 4 9 4 20 0 11 -4 20 -9 20 -5 0
-7 -9 -4 -20z"/>
<path d="M2930 4384 c0 -8 5 -12 10 -9 6 4 8 11 5 16 -9 14 -15 11 -15 -7z"/>
<path d="M3161 4364 c0 -11 3 -14 6 -6 3 7 2 16 -1 19 -3 4 -6 -2 -5 -13z"/>
<path d="M3239 4303 c-2 -4 -3 -61 -1 -125 3 -126 10 -139 49 -95 31 34 35 57
17 85 -15 23 -15 26 5 45 l21 21 0 -57 c0 -51 3 -59 24 -69 27 -12 56 -5 56
12 0 7 -8 9 -19 5 -10 -3 -23 1 -30 9 -17 20 -4 56 20 56 10 0 19 5 19 10 0 6
-9 10 -20 10 -30 0 -26 38 5 50 26 10 34 30 13 30 -7 0 -26 -7 -41 -15 -25
-13 -30 -12 -47 5 -11 11 -24 20 -29 20 -5 0 -16 3 -24 6 -8 3 -17 2 -18 -3z
m48 -70 c-16 -16 -17 -15 -17 17 0 32 1 33 17 17 16 -16 16 -18 0 -34z m-5
-115 c-10 -22 -11 -21 -11 12 -1 26 2 31 11 22 8 -8 8 -17 0 -34z"/>
<path d="M2820 4276 c0 -9 5 -16 10 -16 6 0 10 4 10 9 0 6 -4 13 -10 16 -5 3
-10 -1 -10 -9z"/>
<path d="M2984 4271 c-10 -11 -27 -21 -37 -21 -10 0 -31 -7 -47 -15 -28 -15
-29 -16 -24 -86 2 -39 7 -75 10 -80 7 -12 71 -12 79 0 3 5 -9 11 -27 13 -27 2
-34 8 -36 29 -2 21 2 28 22 33 33 8 34 26 1 26 -42 0 -27 43 18 52 14 2 23
-10 38 -57 13 -36 19 -73 16 -92 -6 -36 7 -44 23 -14 15 29 12 53 -10 102 -24
54 -25 73 -4 94 12 11 14 19 6 27 -7 7 -16 4 -28 -11z"/>
<path d="M3068 4273 c-41 -46 -43 -148 -6 -211 19 -31 19 -34 3 -59 -25 -37
-32 -141 -12 -179 9 -17 22 -36 31 -43 12 -10 17 -8 27 11 7 13 15 36 19 53 8
39 37 45 50 11 12 -32 49 -35 75 -6 22 24 35 26 35 5 0 -8 5 -15 10 -15 6 0
11 24 11 53 2 96 17 120 18 30 0 -46 5 -83 11 -83 18 0 60 75 60 107 0 43 -34
75 -75 70 -29 -3 -30 -5 -33 -58 -3 -48 -6 -56 -32 -71 l-30 -17 0 74 c0 43
-4 75 -10 75 -6 0 -10 -33 -10 -77 0 -89 -12 -84 -31 14 -19 93 -25 87 -60
-62 -25 -106 -25 -105 -44 -60 -21 49 -15 116 13 155 19 26 21 70 2 70 -29 0
-40 131 -15 180 28 53 36 35 32 -70 -3 -71 -1 -100 7 -97 6 2 12 18 14 35 2
18 6 32 9 32 4 0 18 -14 33 -32 16 -19 31 -28 38 -24 15 9 17 186 2 186 -5 0
-10 -24 -11 -52 0 -29 -4 -61 -8 -71 -6 -17 -8 -17 -26 3 -16 17 -17 24 -7 40
13 22 16 76 5 83 -5 2 -24 7 -44 11 -27 5 -39 2 -51 -11z m82 -38 c0 -14 -4
-25 -10 -25 -11 0 -14 33 -3 43 11 11 13 8 13 -18z m226 -270 c8 -20 -4 -65
-16 -65 -6 0 -10 18 -10 40 0 40 15 54 26 25z m-219 -47 c-3 -8 -6 -5 -6 6 -1
11 2 17 5 13 3 -3 4 -12 1 -19z"/>
<path d="M2807 4188 c-4 -29 -9 -70 -13 -90 -5 -30 -3 -38 8 -38 10 0 18 22
27 80 7 44 9 85 6 90 -13 22 -22 8 -28 -42z"/>
<path d="M3610 3999 c-9 -54 -9 -84 -3 -90 13 -13 19 10 28 104 10 96 -10 86
-25 -14z"/>
<path d="M3446 4033 c-2 -10 -8 -34 -11 -53 -4 -19 -11 -39 -15 -45 -4 -5 -10
-29 -13 -53 -6 -51 10 -53 27 -2 14 44 31 48 44 12 14 -40 48 -36 79 8 28 42
30 89 3 118 -38 41 -49 29 -52 -55 l-3 -78 -19 83 c-19 81 -30 99 -40 65z
m110 -48 c8 -20 -4 -65 -16 -65 -6 0 -10 18 -10 40 0 40 15 54 26 25z m-91
-24 c3 -5 1 -12 -5 -16 -5 -3 -10 1 -10 9 0 18 6 21 15 7z"/>
<path d="M2945 3949 c-8 -67 -14 -67 -40 4 -31 83 -45 54 -45 -95 0 -59 4 -98
10 -98 6 0 10 30 10 69 0 80 12 98 28 43 12 -40 37 -80 45 -72 10 11 19 210 9
210 -5 0 -13 -27 -17 -61z"/>
<path d="M2701 3947 c-12 -24 -21 -63 -21 -87 0 -50 35 -130 56 -130 18 0 18
14 0 29 -8 6 -19 32 -25 56 -14 55 2 130 30 148 24 15 24 27 0 27 -13 0 -26
-15 -40 -43z"/>
<path d="M2771 3926 c-19 -22 -25 -84 -11 -101 18 -22 57 -18 74 7 23 33 20
74 -6 92 -28 20 -42 20 -57 2z m52 -38 c6 -18 -14 -59 -27 -55 -5 2 -14 11
-20 21 -9 13 -7 20 8 32 24 17 33 18 39 2z"/>
<path d="M3600 3880 c0 -5 5 -10 10 -10 6 0 10 5 10 10 0 6 -4 10 -10 10 -5 0
-10 -4 -10 -10z"/>
<path d="M3510 3601 c-14 -28 -12 -64 5 -87 15 -19 15 -19 30 0 25 32 17 106
-11 106 -7 0 -18 -9 -24 -19z m35 -41 c0 -18 -6 -35 -12 -37 -9 -3 -13 8 -13
37 0 29 4 40 13 38 6 -3 12 -20 12 -38z"/>
<path d="M3406 3600 c-3 -8 -10 -35 -16 -60 -10 -36 -14 -41 -21 -27 -7 11 -6
24 2 38 9 17 8 24 -4 37 -28 27 -47 8 -47 -48 0 -48 19 -74 21 -27 l0 22 11
-22 c13 -26 33 -30 42 -8 7 18 32 20 40 3 3 -7 3 7 0 32 -4 25 -10 52 -14 60
-8 13 -9 13 -14 0z m-46 -35 c0 -8 -4 -15 -10 -15 -5 0 -10 7 -10 15 0 8 5 15
10 15 6 0 10 -7 10 -15z"/>
<path d="M3450 3553 c0 -41 3 -54 11 -46 6 6 11 28 11 50 0 21 5 41 11 45 7 5
3 8 -10 8 -21 0 -23 -5 -23 -57z"/>
<path d="M3266 3568 c-15 -57 0 -103 30 -91 16 6 19 53 4 53 -6 0 -10 -6 -8
-14 2 -8 -1 -15 -7 -16 -14 -1 -19 50 -5 64 8 8 13 7 21 -4 8 -12 9 -11 7 5
-5 29 -34 31 -42 3z"/>
<path d="M3170 3526 c0 -59 9 -73 37 -57 17 10 17 10 1 11 -14 0 -18 9 -18 44
0 25 -4 48 -10 51 -6 4 -10 -15 -10 -49z"/>
<path d="M3230 3530 c0 -27 5 -50 10 -50 6 0 10 23 10 50 0 28 -4 50 -10 50
-5 0 -10 -22 -10 -50z"/>
<path d="M3105 3547 c-12 -45 -2 -82 22 -85 25 -4 37 25 31 74 -4 39 -44 47
-53 11z m43 -29 c2 -13 -4 -30 -12 -37 -13 -11 -16 -9 -22 13 -8 32 2 59 19
54 6 -3 13 -16 15 -30z"/>
<path d="M3030 3506 c0 -48 3 -56 19 -56 27 0 39 20 37 65 -2 36 -5 40 -29 43
-27 3 -27 2 -27 -52z m31 21 c-13 -13 -26 -3 -16 12 3 6 11 8 17 5 6 -4 6 -10
-1 -17z m7 -44 c-4 -22 -22 -20 -26 1 -2 10 3 16 13 16 10 0 15 -7 13 -17z"/>
<path d="M5080 3469 c0 -6 33 -45 73 -86 l73 -75 70 72 c92 95 96 124 4 36
l-71 -69 -67 66 c-68 67 -82 77 -82 56z"/>
<path d="M3457 3423 c-2 -5 0 -21 4 -38 7 -29 7 -29 8 8 1 35 -3 46 -12 30z"/>
<path d="M5086 3423 c-13 -13 -4 -28 66 -99 l72 -73 73 72 c40 39 73 78 73 86
0 8 -31 -16 -70 -53 l-70 -68 -37 31 c-21 17 -51 49 -69 71 -17 21 -34 37 -38
33z"/>
<path d="M3271 3373 c1 -27 3 -40 6 -30 5 20 19 22 26 5 3 -7 6 -3 6 10 1 13
-5 22 -14 22 -18 0 -20 26 -2 33 7 3 5 6 -5 6 -15 1 -18 -7 -17 -46z"/>
<path d="M3360 3378 c0 -16 -8 -29 -22 -36 -22 -9 -21 -10 7 -7 27 2 30 5 27
31 -5 37 -12 45 -12 12z"/>
<path d="M2980 3386 c0 -2 7 -7 16 -10 8 -3 12 -2 9 4 -6 10 -25 14 -25 6z"/>
<path d="M3162 3377 c-8 -10 -6 -13 9 -13 20 0 25 11 10 20 -5 3 -13 0 -19 -7z"/>
<path d="M3391 3374 c0 -11 3 -14 6 -6 3 7 2 16 -1 19 -3 4 -6 -2 -5 -13z"/>
<path d="M3115 3370 c-3 -5 -2 -10 2 -10 5 0 9 -9 10 -19 1 -13 -6 -21 -20
-24 -18 -4 -17 -5 6 -6 24 -1 27 3 27 28 0 31 -14 49 -25 31z"/>
<path d="M3335 3370 c-3 -5 -1 -10 4 -10 6 0 11 5 11 10 0 6 -2 10 -4 10 -3 0
-8 -4 -11 -10z"/>
<path d="M5080 3350 c0 -6 33 -43 74 -83 l74 -73 71 71 c39 39 71 77 71 85 0
7 -32 -17 -71 -55 l-70 -68 -67 66 c-67 66 -82 77 -82 57z"/>
<path d="M2997 3320 c5 -20 7 -20 24 -4 11 10 16 20 13 23 -4 3 -9 0 -11 -7
-4 -9 -8 -10 -18 -2 -11 9 -12 7 -8 -10z"/>
<path d="M2900 3320 c0 -5 5 -10 10 -10 6 0 10 5 10 10 0 6 -4 10 -10 10 -5 0
-10 -4 -10 -10z"/>
<path d="M5085 3302 c-11 -11 -3 -23 68 -94 l74 -73 71 70 c40 39 72 77 72 85
0 8 -28 -14 -63 -48 -34 -34 -70 -62 -78 -62 -9 0 -43 29 -77 64 -34 35 -64
61 -67 58z"/>
<path d="M3242 3220 c0 -19 2 -27 5 -17 2 9 2 25 0 35 -3 9 -5 1 -5 -18z"/>
<path d="M3311 3234 c0 -11 3 -14 6 -6 3 7 2 16 -1 19 -3 4 -6 -2 -5 -13z"/>
<path d="M5085 3242 c-11 -12 -3 -24 52 -76 32 -30 54 -58 50 -63 -5 -4 -29
14 -53 40 -25 26 -47 47 -50 47 -14 0 0 -35 23 -56 14 -13 23 -28 19 -32 -4
-4 -14 2 -22 12 -19 27 -29 13 -16 -23 6 -18 11 -188 12 -447 1 -401 2 -419
20 -439 15 -16 20 -35 20 -76 0 -63 25 -260 41 -321 6 -24 15 -68 20 -98 11
-62 23 -80 41 -62 9 9 9 18 0 37 -16 35 -15 62 3 72 10 6 20 45 30 118 8 61
17 122 20 138 4 25 2 27 -27 27 -25 0 -29 3 -20 12 7 7 12 40 12 80 0 74 -5
68 61 72 9 1 24 8 34 16 17 14 17 41 14 445 -2 252 0 438 5 449 9 19 9 19 -14
3 -40 -28 -44 -19 -10 19 45 52 27 56 -24 5 -24 -24 -50 -41 -57 -39 -9 3 8
25 45 60 32 30 57 61 54 68 -2 8 -27 -10 -63 -48 -32 -34 -66 -62 -75 -62 -9
0 -44 29 -78 64 -34 35 -64 61 -67 58z m174 -1254 c0 -18 -4 -51 -8 -73 -8
-36 -9 -33 -10 33 -1 42 3 72 9 72 6 0 10 -15 9 -32z"/>
<path d="M3112 3215 c0 -16 2 -22 5 -12 2 9 2 23 0 30 -3 6 -5 -1 -5 -18z"/>
<path d="M3186 3227 c3 -10 9 -15 12 -12 3 3 0 11 -7 18 -10 9 -11 8 -5 -6z"/>
<path d="M3147 3223 c-3 -5 -1 -17 4 -28 7 -17 8 -17 8 8 1 27 -4 34 -12 20z"/>
<path d="M3041 3188 c2 -28 2 -29 6 -8 3 14 10 28 17 32 7 5 5 8 -6 8 -14 0
-18 -8 -17 -32z"/>
<path d="M2981 3194 c0 -11 3 -14 6 -6 3 7 2 16 -1 19 -3 4 -6 -2 -5 -13z"/>
<path d="M3310 3200 c0 -5 5 -10 11 -10 5 0 7 5 4 10 -3 6 -8 10 -11 10 -2 0
-4 -4 -4 -10z"/>
<path d="M2937 3193 c-9 -9 -9 -41 1 -46 4 -3 8 8 9 24 2 30 1 33 -10 22z"/>
<path d="M2806 3171 c-4 -7 -5 -15 -2 -18 9 -9 19 4 14 18 -4 11 -6 11 -12 0z"/>
<path d="M3347 3127 c-3 -8 1 -14 8 -14 7 0 11 6 8 14 -3 7 -6 13 -8 13 -2 0
-5 -6 -8 -13z"/>
<path d="M3202 3080 c0 -19 2 -27 5 -17 2 9 2 25 0 35 -3 9 -5 1 -5 -18z"/>
<path d="M3246 3083 c7 -39 14 -42 14 -5 0 18 -4 32 -9 32 -5 0 -7 -12 -5 -27z"/>
<path d="M3272 3085 c0 -16 2 -22 5 -12 2 9 2 23 0 30 -3 6 -5 -1 -5 -18z"/>
<path d="M2878 3084 c-5 -4 -8 -19 -8 -33 0 -18 3 -22 11 -14 6 6 9 21 7 33
-1 12 -6 18 -10 14z"/>
<path d="M2831 3051 c-1 -24 2 -32 9 -25 7 7 7 19 1 35 -9 23 -10 22 -10 -10z"/>
<path d="M3042 3050 c0 -19 2 -27 5 -17 2 9 2 25 0 35 -3 9 -5 1 -5 -18z"/>
<path d="M3231 3054 c0 -11 3 -14 6 -6 3 7 2 16 -1 19 -3 4 -6 -2 -5 -13z"/>
<path d="M2992 3040 c0 -14 2 -19 5 -12 2 6 2 18 0 25 -3 6 -5 1 -5 -13z"/>
<path d="M2950 3036 c0 -8 5 -18 10 -21 6 -3 10 1 10 9 0 8 -4 18 -10 21 -5 3
-10 -1 -10 -9z"/>
<path d="M2906 3024 c-3 -9 -6 -18 -6 -20 0 -8 29 -4 35 6 4 6 -1 7 -12 3 -16
-6 -16 -5 -4 10 7 9 9 17 3 17 -5 0 -13 -7 -16 -16z"/>
<path d="M2770 3020 c0 -5 5 -10 10 -10 6 0 10 5 10 10 0 6 -4 10 -10 10 -5 0
-10 -4 -10 -10z"/>
<path d="M2850 3004 c0 -8 5 -12 10 -9 6 4 8 11 5 16 -9 14 -15 11 -15 -7z"/>
<path d="M3370 2959 c0 -17 -4 -28 -10 -24 -5 3 -10 1 -10 -4 0 -6 7 -11 15
-11 10 0 15 11 15 35 0 19 -2 35 -5 35 -3 0 -5 -14 -5 -31z"/>
<path d="M3250 2945 c0 -46 15 -46 16 0 0 19 -3 35 -8 35 -4 0 -8 -16 -8 -35z"/>
<path d="M3070 2960 c0 -5 7 -7 15 -4 8 4 15 8 15 10 0 2 -7 4 -15 4 -8 0 -15
-4 -15 -10z"/>
<path d="M3202 2930 c0 -19 2 -27 5 -17 2 9 2 25 0 35 -3 9 -5 1 -5 -18z"/>
<path d="M3121 2934 c0 -11 3 -14 6 -6 3 7 2 16 -1 19 -3 4 -6 -2 -5 -13z"/>
<path d="M3070 2924 c0 -8 5 -12 10 -9 6 4 8 11 5 16 -9 14 -15 11 -15 -7z"/>
<path d="M2928 2913 c10 -4 10 -8 1 -19 -9 -11 -9 -14 1 -14 9 0 9 -4 -1 -17
-12 -14 -12 -16 1 -11 8 2 16 19 18 36 3 26 0 32 -15 31 -11 0 -13 -3 -5 -6z"/>
<path d="M3001 2904 c0 -11 3 -14 6 -6 3 7 2 16 -1 19 -3 4 -6 -2 -5 -13z"/>
<path d="M3160 2900 c0 -5 5 -10 11 -10 5 0 7 5 4 10 -3 6 -8 10 -11 10 -2 0
-4 -4 -4 -10z"/>
<path d="M2820 2891 c0 -5 7 -12 16 -15 14 -5 15 -4 4 9 -14 17 -20 19 -20 6z"/>
<path d="M2872 2870 c0 -19 2 -27 5 -17 2 9 2 25 0 35 -3 9 -5 1 -5 -18z"/>
<path d="M2972 2880 c0 -14 2 -19 5 -12 2 6 2 18 0 25 -3 6 -5 1 -5 -13z"/>
<path d="M2766 2881 c-4 -5 -2 -12 3 -15 5 -4 12 -2 15 3 4 5 2 12 -3 15 -5 4
-12 2 -15 -3z"/>
<path d="M3288 2413 c12 -2 32 -2 45 0 12 2 2 4 -23 4 -25 0 -35 -2 -22 -4z"/>
<path d="M3221 2389 c-13 -11 -22 -21 -20 -23 2 -3 17 7 32 20 15 13 24 24 20
24 -4 -1 -19 -10 -32 -21z"/>
<path d="M3149 2318 c-53 -65 -76 -98 -44 -63 74 82 87 97 83 101 -3 2 -20
-15 -39 -38z"/>
<path d="M2695 2291 c-38 -23 -101 -89 -93 -96 3 -4 16 8 28 26 13 17 43 44
68 60 25 16 42 29 36 29 -5 0 -22 -9 -39 -19z"/>
<path d="M3463 2230 c0 -25 2 -35 4 -22 2 12 2 32 0 45 -2 12 -4 2 -4 -23z"/>
<path d="M3063 2208 c-15 -20 -25 -38 -20 -38 3 0 12 11 21 25 17 26 16 35 -1
13z"/>
<path d="M2579 2153 c-5 -14 -8 -30 -6 -36 1 -5 8 7 14 27 13 42 7 49 -8 9z"/>
<path d="M3451 2164 c0 -11 3 -14 6 -6 3 7 2 16 -1 19 -3 4 -6 -2 -5 -13z"/>
<path d="M2563 2050 c0 -30 2 -43 4 -27 2 15 2 39 0 55 -2 15 -4 2 -4 -28z"/>
<path d="M2929 2017 c-36 -45 -84 -97 -108 -114 -23 -18 -38 -33 -33 -33 24 0
168 152 206 218 16 27 -2 7 -65 -71z"/>
<path d="M2570 1973 c0 -26 42 -79 81 -98 15 -8 50 -14 76 -13 39 1 41 2 13 5
-80 8 -131 40 -156 98 -11 25 -13 26 -14 8z"/>
<path d="M3231 1843 c7 -12 15 -20 18 -17 3 2 -3 12 -13 22 -17 16 -18 16 -5
-5z"/>
<path d="M3110 1801 c-60 -31 -60 -31 -60 -17 0 9 -9 12 -27 9 -50 -8 -58 -12
-45 -25 7 -7 12 -20 12 -30 0 -28 18 -21 22 9 2 14 9 28 17 31 9 3 11 -1 7
-16 -4 -11 -2 -23 4 -27 5 -3 10 -2 10 4 0 6 7 8 15 5 10 -4 15 0 16 12 0 18
1 17 9 -1 7 -19 8 -19 15 -2 4 10 11 14 14 9 3 -5 21 -7 39 -5 26 4 32 10 32
29 0 31 -27 32 -40 2 l-9 -23 0 23 c-1 23 -7 26 -31 13z"/>
<path d="M2870 1751 c-15 -29 -12 -49 9 -61 27 -14 66 32 50 61 -13 25 -45 24
-59 0z"/>
<path d="M2821 1715 c-1 -31 14 -55 33 -55 5 0 2 6 -6 13 -9 6 -19 26 -21 42
l-4 30 -2 -30z"/>
</g>
</svg>
