<?xml version="1.0" encoding="UTF-8"?>
<!DOCTYPE svg PUBLIC "-//W3C//DTD SVG 1.1//EN" "http://www.w3.org/Graphics/SVG/1.1/DTD/svg11.dtd">
<!-- Creator: CorelDRAW -->
<svg xmlns="http://www.w3.org/2000/svg" xml:space="preserve" width="198mm" height="48mm" style="shape-rendering:geometricPrecision; text-rendering:geometricPrecision; image-rendering:optimizeQuality; fill-rule:evenodd; clip-rule:evenodd"
viewBox="0 0 198 48"
 xmlns:xlink="http://www.w3.org/1999/xlink"
 version="1.1">
 <defs>
  <style type="text/css">
   <![CDATA[
    .fil0 {fill:#0A808F}
    .fil7 {fill:#1E8ACA}
    .fil6 {fill:#2A323D}
    .fil5 {fill:#32A5DA}
    .fil8 {fill:#93948F}
    .fil11 {fill:#BDBEC2}
    .fil14 {fill:#C6A967}
    .fil15 {fill:#CCAF6E}
    .fil13 {fill:#D9B968}
    .fil1 {fill:#DB1A7E}
    .fil2 {fill:#E7CA76}
    .fil4 {fill:#EAB145}
    .fil9 {fill:#F2757B}
    .fil12 {fill:#FAD4BA}
    .fil10 {fill:#FEC751}
    .fil3 {fill:#FEC951}
   ]]>
  </style>
 </defs>
 <g id="Capa_x0020_1">
  <metadata id="CorelCorpID_0Corel-Layer"/>
  <g id="_346142760">
   <path id="_346137192" class="fil0" d="M30.6289 31.2498c0,-1.875 -0.0326,-3.75 0.0163,-5.6249 0.0163,-0.7826 -0.1957,-1.4185 -0.6522,-2.038 -1.1902,-1.6467 -1.0598,-3.1304 0.5054,-4.451 2.3478,-1.9728 5.0543,-2.5924 7.9891,-1.663 3.0815,0.9783 5.1847,2.9837 5.7391,6.2445 0.4728,2.6902 -0.3261,5.1358 -2.4619,6.8804 -1.5489,1.2554 -3.3097,2.25 -5.0217,3.2771 -0.7337,0.4239 -1.0109,0.8804 -0.9619,1.7282 0.1304,2.1358 0.1957,4.288 0.2283,6.4238 0.0163,0.6033 -0.0978,1.2554 -0.3098,1.8261 -0.2446,0.7174 -0.8152,1.125 -1.6141,1.1739 -0.7663,0.0489 -1.3369,-0.3098 -1.5489,-0.9456 -0.5054,-1.4511 -1.0761,-2.9184 -1.288,-4.4184 -0.375,-2.788 -0.5054,-5.6249 -0.7337,-8.4293 0.0325,0.0162 0.0814,0.0162 0.114,0.0162zm5.1358 -3.3097c0.587,-0.2609 1.0761,-0.375 1.4348,-0.6359 0.9293,-0.6848 1.4022,-2.6413 0.9946,-3.7174 -0.2935,-0.7826 -1.125,-1.3206 -1.9239,-1.1902 -0.1793,0.0326 -0.4891,0.2609 -0.4891,0.3913 -0.0164,1.6305 -0.0164,3.2772 -0.0164,5.1522z"/>
   <path id="_346137264" class="fil0" d="M63.1394 29.4726c0,-1.3043 -0.0326,-2.6087 0.0163,-3.913 0.0326,-0.75 -0.212,-1.3696 -0.6359,-1.9565 -1.1902,-1.6467 -1.0598,-3.0163 0.3913,-4.4021 2.3478,-2.2337 6.2445,-2.7391 9.4238,-1.2228 3.0652,1.4674 4.8097,4.5489 4.451,7.9075 -0.2935,2.7391 -1.9402,4.5815 -4.1576,6.0162 -1.2065,0.7826 -2.4619,1.4837 -3.7174,2.1848 -0.4891,0.2772 -0.6685,0.6196 -0.6359,1.1739 0.1141,2.2174 0.1957,4.451 0.2446,6.6684 0.0163,0.6196 -0.0815,1.2554 -0.2609,1.8424 -0.2446,0.75 -0.7989,1.1902 -1.6304,1.2717 -0.7989,0.0652 -1.3859,-0.3261 -1.6141,-0.9946 -0.5054,-1.5 -1.0924,-3.0326 -1.2717,-4.5978 -0.3913,-3.3097 -0.538,-6.6521 -0.7826,-9.9782 0.0817,0.0165 0.1306,0.0165 0.1795,0.0001zm5.2011 -1.7119c0.913,0.0163 1.5978,-0.3424 1.875,-1.0435 0.3261,-0.7989 0.538,-1.6956 0.587,-2.5598 0.0489,-1.0109 -0.7174,-1.6793 -1.7282,-1.7935 -0.538,-0.0489 -0.8152,0.0978 -0.7989,0.7011 0.0163,1.2228 -0.0163,2.4456 0,3.6521 -0.0164,0.3588 0.0325,0.6849 0.0651,1.0436z"/>
   <path id="_346138056" class="fil0" d="M60.6775 24.3368c-0.2446,2.3315 -0.5054,4.6467 -0.7174,6.9619 -0.1304,1.3532 -0.163,2.7065 -0.2283,4.0597 -0.0652,1.5489 -0.7011,2.4293 -1.875,2.5435 -0.913,0.0815 -1.4674,-0.4076 -1.9402,-1.0924 -0.6848,-1.0272 -0.6848,-1.0109 -1.9402,-0.6522 -1.7119,0.5054 -3.4239,0.4891 -5.1032,-0.163 -1.7772,-0.6848 -2.8206,-2.4782 -2.7228,-4.4021 0.212,-3.913 2.9674,-5.5923 6.0325,-6.2119 0.587,-0.1141 1.1902,-0.2772 1.7772,-0.2283 1.0109,0.0815 1.3532,-0.375 1.4022,-1.2717 0.0326,-0.6848 0.0978,-1.3532 0.0652,-2.038 -0.0326,-0.9293 -0.5706,-1.288 -1.4348,-0.9293 -0.8478,0.3587 -1.6467,0.8315 -2.4782,1.2391 -0.9456,0.4565 -1.8913,0.5217 -2.7554,-0.1793 -1.0435,-0.8478 -1.1087,-2.25 -0.163,-3.3097 1.7935,-1.9891 6.2445,-3.0326 8.6901,-2.038 1.7445,0.7174 2.6576,2.1195 2.9837,3.8804 0.2446,1.2716 0.2772,2.5433 0.4076,3.8313zm-8.3803 8.3152c0.7989,-0.2283 1.4348,-0.3098 1.9565,-0.6033 0.2935,-0.163 0.6033,-0.7174 0.5543,-1.0272 -0.0489,-0.3098 -0.5543,-0.7663 -0.8478,-0.7663 -0.6685,-0.0163 -1.4185,0.0815 -2.0054,0.375 -0.3587,0.1793 -0.7174,0.8315 -0.6685,1.2228 0.0163,0.3098 0.6685,0.5544 1.0109,0.799z"/>
   <path id="_346137888" class="fil1" d="M149.682 24.2879c-0.2446,2.3478 -0.5217,4.7119 -0.7337,7.0923 -0.1304,1.3532 -0.163,2.7065 -0.2283,4.0597 -0.0815,1.5489 -0.75,2.3967 -1.9565,2.4619 -0.9946,0.0652 -1.6141,-0.5217 -1.9728,-1.3043 -0.375,-0.8315 -0.8478,-0.8315 -1.5978,-0.5543 -1.7445,0.6359 -3.5217,0.6196 -5.2663,-0.0326 -1.875,-0.6848 -2.9184,-2.5108 -2.8043,-4.5 0.2283,-3.913 3.0815,-5.576 6.0978,-6.1467 0.7663,-0.1467 1.5652,-0.163 2.3315,-0.2935 0.2283,-0.0326 0.5543,-0.2935 0.5706,-0.4728 0.1304,-0.913 0.2446,-1.8261 0.2446,-2.7391 0,-0.9293 -0.5543,-1.288 -1.4185,-0.9456 -0.8315,0.3424 -1.5652,0.8804 -2.413,1.1739 -0.6522,0.2283 -1.4674,0.4239 -2.1032,0.2446 -1.7119,-0.4891 -2.1685,-2.5924 -0.7663,-3.7663 2.4456,-2.0543 5.2663,-2.9348 8.413,-1.9891 1.8587,0.5706 2.8043,2.0869 3.1467,3.9293 0.2934,1.2229 0.326,2.4783 0.4565,3.7826zm-8.3967 8.3641c0.7989,-0.2283 1.4348,-0.3098 1.9565,-0.6033 0.2935,-0.163 0.6033,-0.7174 0.5543,-1.0272 -0.0489,-0.3098 -0.538,-0.7663 -0.8478,-0.7663 -0.6685,-0.0163 -1.4185,0.0815 -2.0054,0.375 -0.3587,0.1793 -0.7174,0.8315 -0.6685,1.2228 0.0327,0.3098 0.6848,0.5544 1.0109,0.799z"/>
   <path id="_346138224" class="fil0" d="M79.1175 28.9346c0.212,-3.8152 0.9619,-6.9782 3.4728,-9.489 2.5761,-2.5598 6.4891,-2.8043 9.3423,-0.587 1.8098,1.4185 2.2663,4.4837 0.9619,6.4402 -1.3696,2.0217 -3.375,3.0652 -5.6412,3.75 -0.3587,0.1141 -0.7337,0.212 -1.0924,0.2935 -1.1413,0.2446 -1.2391,0.3913 -0.9456,1.5489 0.5054,1.9565 1.5326,2.5108 3.5217,2.0217 1.2228,-0.2935 2.4619,-0.7337 3.75,-0.1793 0.6685,0.2935 1.1413,0.7174 1.2391,1.4837 0.1141,0.8152 -0.1793,1.4674 -0.913,1.8424 -2.8695,1.4348 -5.8695,2.2011 -8.9999,1.0272 -2.2011,-0.8315 -3.4076,-2.6413 -4.0434,-4.8097 -0.3914,-1.223 -0.5055,-2.4948 -0.6523,-3.3426zm6.2935 -2.7554c1.6141,-0.8315 3.0326,-1.8261 3.6684,-3.6195 0.2609,-0.75 -0.1304,-1.2391 -0.9456,-1.1739 -0.4076,0.0163 -0.8804,0.1793 -1.1576,0.4402 -1.2228,1.1739 -1.5489,2.7065 -1.5652,4.3532z"/>
   <path id="_346137576" class="fil0" d="M105.074 28.9183c0.2283,-3.913 1.0272,-7.1412 3.6684,-9.6521 2.5271,-2.413 6.6847,-2.5435 9.2934,-0.2772 2.2663,1.9891 2.038,5.6576 -0.4728,7.8097 -1.6141,1.3859 -3.5217,2.1032 -5.5597,2.5598 -0.9946,0.2283 -1.0761,0.3098 -0.8967,1.3043 0.375,2.0706 1.5163,2.7391 3.5869,2.25 1.2228,-0.2935 2.4619,-0.7337 3.75,-0.163 0.6685,0.2935 1.1413,0.7337 1.2228,1.4837 0.0815,0.7826 -0.163,1.4185 -0.8641,1.7772 -2.8858,1.5 -5.9021,2.2337 -9.0814,1.0435 -2.2011,-0.8315 -3.3913,-2.6576 -4.0271,-4.8097 -0.3588,-1.2066 -0.473,-2.4947 -0.6197,-3.3262zm6.1793 -2.5434c1.5815,-0.8967 2.788,-1.8424 3.5706,-3.2608 0.2609,-0.4728 0.538,-1.0435 0.0163,-1.4837 -0.538,-0.4565 -1.1739,-0.3587 -1.7282,0.0326 -0.212,0.1467 -0.4402,0.3424 -0.587,0.5543 -0.8152,1.1576 -1.1902,2.4619 -1.2717,4.1576z"/>
   <path id="_346137600" class="fil1" d="M182.665 28.902c0.2283,-3.8478 0.9946,-7.0271 3.5543,-9.5379 2.5271,-2.4782 6.5054,-2.6902 9.2771,-0.4728 1.8098,1.4511 2.2337,4.4673 0.913,6.4402 -1.3532,2.0054 -3.3424,3.0326 -5.576,3.701 -0.4402,0.1304 -0.8804,0.2609 -1.3369,0.3261 -0.7011,0.0978 -0.9456,0.4239 -0.8315,1.1576 0.3261,2.1358 1.5163,2.9021 3.6358,2.3967 1.2228,-0.2935 2.4619,-0.7337 3.75,-0.163 0.6685,0.2935 1.125,0.7337 1.2228,1.5 0.0815,0.7826 -0.163,1.4022 -0.8804,1.7772 -2.8858,1.5 -5.9184,2.2337 -9.0814,1.0435 -2.1848,-0.8315 -3.3913,-2.6576 -4.0271,-4.826 -0.3588,-1.2231 -0.4729,-2.4948 -0.6197,-3.3426zm6.1793 -2.5598c1.6467,-0.8967 2.9021,-1.875 3.6195,-3.3913 0.163,-0.3587 0.1793,-1.125 -0.0163,-1.2391 -0.4076,-0.2283 -0.9946,-0.2609 -1.5,-0.1793 -0.2935,0.0489 -0.6033,0.375 -0.7989,0.6522 -0.8478,1.1576 -1.2228,2.4782 -1.3043,4.1575z"/>
   <path id="_346138392" class="fil1" d="M176.388 16.1358c-0.0815,1.5652 -0.1304,3.1467 -0.2772,4.7119 -0.0815,0.8478 0.2283,1.0924 1.0272,1.0761 0.6196,0 1.2391,0.1141 1.8424,0.2609 0.9293,0.2283 1.4022,0.7989 1.4511,1.6304 0.0652,0.9946 -0.2283,1.5 -1.2391,1.8261 -0.7826,0.2609 -1.6304,0.375 -2.4619,0.4728 -0.4891,0.0652 -0.75,0.212 -0.7989,0.7174 -0.1467,1.7445 -0.1793,3.4891 0.4402,5.1521 0.1957,0.5054 0.538,1.0598 0.9783,1.3369 1.1902,0.75 1.3532,2.0054 0.5706,3.2608 -1.0598,1.7282 -3.3261,2.1522 -5.1521,0.9946 -1.6793,-1.0598 -2.4782,-2.7391 -2.8858,-4.5652 -0.3587,-1.6304 -0.4891,-3.3261 -0.587,-4.9891 -0.0489,-0.7826 -0.1957,-1.1413 -1.0435,-1.2554 -1.6304,-0.2283 -2.2989,-1.1087 -2.1522,-2.5761 0.0978,-0.9619 0.7337,-1.5978 1.5652,-1.7609 1.5163,-0.2935 1.7445,-1.2717 1.9402,-2.5761 0.3098,-1.9239 0.8641,-3.7989 1.4022,-5.6739 0.163,-0.5706 0.5706,-1.1087 0.9456,-1.5978 0.6685,-0.8641 1.7609,-1.125 2.8695,-0.7989 1.0598,0.3098 1.4185,1.125 1.5,2.0869 0.0652,0.75 0.0163,1.5163 0.0163,2.2826 0.0326,-0.0161 0.0326,-0.0161 0.0489,-0.0161z"/>
   <path id="_346138272" class="fil0" d="M103.476 14.3261c-0.375,2.7391 -0.7826,5.4782 -1.0924,8.2173 -0.2935,2.6087 -0.5217,5.2336 -0.6685,7.8423 -0.0652,1.1087 0.3261,2.1685 1.0272,3.0978 0.8315,1.0924 0.8315,1.9402 0.0815,2.9674 -0.6033,0.8315 -1.5978,1.1087 -2.788,0.75 -1.7445,-0.538 -2.6739,-1.8261 -3.2119,-3.4891 -0.7663,-2.3967 -0.6848,-4.875 -0.6522,-7.3369 0.0326,-3.375 0.375,-6.7336 1.2554,-9.9945 0.4076,-1.5 1.0272,-2.9674 1.7772,-4.3369 0.7174,-1.3206 1.7772,-1.5652 2.9511,-1.0272 0.8315,0.375 1.0924,1.0924 1.2065,1.8913 0.0652,0.4565 0.0163,0.913 0.0163,1.3859 0.0163,0.0326 0.0489,0.0326 0.0978,0.0326z"/>
   <path id="_346138728" class="fil1" d="M151.476 25.8694c0.1141,-1.663 0.163,-3.375 0.375,-5.0706 0.2772,-2.2337 2.038,-3.4076 4.1739,-2.0543 0.2609,0.163 0.7826,0.0652 1.125,-0.0652 1.3532,-0.4891 2.6413,-1.1413 4.1413,-1.0272 1.4348,0.1141 2.2663,0.8804 2.3804,2.1848 0.0489,0.6685 -0.1304,1.2717 -0.7011,1.6467 -0.8315,0.5543 -1.7282,1.0272 -2.5598,1.5815 -0.7663,0.5054 -1.5652,1.0109 -2.1848,1.663 -1.2717,1.3369 -0.9946,3.0163 -0.7826,4.6304 0.2283,1.8261 0.5543,3.6521 0.6685,5.4782 0.0815,1.1087 -0.3098,2.1848 -1.3696,2.7717 -1.4185,0.7826 -3.0326,0.1467 -3.7337,-1.6141 -0.5054,-1.2717 -0.8967,-2.625 -1.0761,-3.9782 -0.277,-2.0217 -0.3259,-4.0597 -0.4564,-6.1467z"/>
   <path id="_346138584" class="fil1" d="M126.318 29.7335c-0.7989,-0.1304 -1.6141,-0.1793 -2.3967,-0.4076 -0.9456,-0.2772 -1.288,-0.913 -1.1902,-1.8587 0.0815,-0.8804 0.7011,-1.2228 1.4348,-1.288 2.2337,-0.212 4.4837,-0.375 6.7173,-0.5217 0.7337,-0.0489 1.2228,0.3913 1.4185,1.1087 0.1957,0.7337 -0.1141,1.288 -0.7337,1.6467 -1.6142,0.9619 -3.4077,1.1739 -5.25,1.3206z"/>
  </g>
  <g id="_346141272">
   <path id="_346136712" class="fil2" d="M13.8865 19.2666c-0.1856,0.3068 -0.2259,1.2639 -0.167,1.6851l1.6039 0.0007 0.2082 -2.0982c-0.2129,0.166 -0.0883,0.0029 -0.1537,0.2424 -0.0781,0.2855 0.0516,1.0857 -0.2277,1.6763l-1.2076 -0.0238c-0.1208,-0.2851 -0.0852,-0.2216 -0.0698,-0.7121 0.0099,-0.3097 0.0694,-0.4819 0.0137,-0.7704z"/>
   <path id="_346141080" class="fil2" d="M6.5124 20.1614l-0.0225 0.5843c-0.4158,0.1074 -0.8747,0.0596 -1.3031,0.0555 -0.0783,-0.3902 -0.2323,-1.6568 -0.5337,-1.9382l0.3816 2.0889 1.6402 0.0011c-0.0148,-0.3489 0.0109,-0.5204 -0.1625,-0.7916z"/>
  </g>
  <g id="_346141224">
   <path id="_346142520" class="fil3" d="M4.6531 18.863c0.3014,0.2814 0.4554,1.548 0.5337,1.9382 0.4284,0.0041 0.8873,0.0519 1.3031,-0.0555l0.0225 -0.5843c0.0926,-0.4927 -1.196,-6.6456 -1.3951,-7.7051 -0.4746,-2.5259 -1.0143,-5.1297 -1.4556,-7.6964l-1.6118 0.2694 2.6032 13.8337z"/>
   <path id="_346142616" class="fil3" d="M13.8865 19.2666c0.0557,0.2885 -0.0038,0.4607 -0.0137,0.7704 -0.0154,0.4905 -0.051,0.427 0.0698,0.7121l1.2076 0.0238c0.2793,-0.5906 0.1496,-1.3908 0.2277,-1.6763 0.0654,-0.2395 -0.0592,-0.0764 0.1537,-0.2424l0.9152 -10.3682 -1.6616 -0.1665c-0.0312,1.6766 -0.3175,3.7559 -0.4707,5.4721 -0.0913,1.0224 -0.5504,4.7196 -0.428,5.475z"/>
  </g>
  <g id="_340641552">
   <path id="_346142496" class="fil4" d="M4.8131 6.5224c-0.0262,0.6753 0.4569,2.6833 0.607,3.4997 0.2112,1.1493 0.4241,2.2371 0.6392,3.3797 0.421,2.2359 0.8064,4.6268 1.2865,6.7916 0.1616,0.1463 0.138,0.2294 0.2955,0.6082 0.2246,0.0251 0.3958,0.0235 0.6203,0.0251 1.1376,0.0082 0.5437,-0.1417 0.5685,-1.6084l-2.4277 -12.8828c-0.2007,-0.1912 -0.2733,-0.6096 -0.31,-0.8946 -0.0419,-0.3256 -0.0978,-0.6935 -0.1823,-0.9591l-1.2777 0.1574 0.1807 1.8832z"/>
   <path id="_346142592" class="fil4" d="M11.4469 19.3561l-0.0079 1.4712 1.3394 -0.0411c0.0881,-0.2267 -0.0134,-0.2129 0.2059,-0.5124 0.1483,-1.1545 1.0878,-11.6111 1.0151,-12.0323l-1.6198 -0.1231c-0.1305,1.5009 -1.0247,10.5601 -0.9327,11.2377z"/>
  </g>
  <path class="fil5" d="M5.9446 46.104c4.7414,0.0389 10.9673,0.1902 15.5576,0.0508l1.1504 -18.4226c0.0529,-0.6773 0.1925,-2.0018 0.1153,-2.6285l-18.134 0.016 1.3107 20.9843z"/>
  <path class="fil6" d="M4.6339 25.1197l18.134 -0.016c0.0772,0.6267 -0.0624,1.9512 -0.1153,2.6285l-1.1504 18.4226c-4.5903,0.1394 -10.8162,-0.0119 -15.5576,-0.0508l-1.3107 -20.9843zm19.4011 -0.8241c-0.2782,0.1253 -15.4098,0.1256 -18.1393,0.0688l-2.4889 -0.1043c-0.1877,-0.2314 -0.009,-2.4558 -0.0086,-2.4566 0.0999,-0.0978 0.0295,-0.0644 0.2176,-0.1l2.5953 -0.0061c2.08,0.0019 17.2281,-0.0488 17.5892,-0.0043 0.2936,0.0361 0.2817,0.0503 0.3006,0.3859 0.0135,0.2389 0.0022,0.5501 0.0033,0.7969 0.0019,0.4463 0.0725,1.0435 -0.0692,1.4197zm-1.8507 -3.3484l-3.7377 0.0095 0.8528 -3.1984c0.511,0.1713 0.9472,0.4182 1.537,0.5874l1.9114 0.3145c0.0524,0.3263 -0.4198,1.9198 -0.5635,2.287zm1.0573 -3.061l-3.936 -0.9946c-0.0605,-0.4417 2.1427,-6.6344 2.4572,-7.5616 1.2347,-0.051 1.9651,0.3296 3.0653,0.7537 -0.0767,0.7286 -1.4195,7.5462 -1.5865,7.8025zm-10.2573 2.3876l-0.0808 0.6824 -1.6152 0.0063c-0.0469,-0.3372 0.0149,-1.3825 0.1586,-1.6064 -0.092,-0.6776 0.8022,-9.7368 0.9327,-11.2377l1.6198 0.1231c0.0727,0.4212 -0.8668,10.8778 -1.0151,12.0323zm2.5473 -1.4196l-0.2082 2.0982 -1.6039 -0.0007c-0.0589,-0.4212 -0.0186,-1.3783 0.167,-1.6851 -0.1224,-0.7554 0.3367,-4.4526 0.428,-5.475 0.1532,-1.7162 0.4395,-3.7955 0.4707,-5.4721l1.6616 0.1665 -0.9152 10.3682zm-2.8287 -11.4715c0.0333,-0.2364 1.8774,-3.5634 2.1298,-3.9537l1.4712 4.2404 -3.601 -0.2867zm-6.1905 12.7787c0.1734,0.2712 0.1477,0.4427 0.1625,0.7916l-1.6402 -0.0011 -0.3816 -2.0889 -2.6032 -13.8337 1.6118 -0.2694c0.4413,2.5667 0.981,5.1705 1.4556,7.6964 0.1991,1.0595 1.4877,7.2124 1.3951,7.7051zm-0.11 -13.8259l2.4277 12.8828 0.3262 1.7331 -1.6618 -0.0052 -0.1487 -0.7528c-0.4801,-2.1648 -0.8655,-4.5557 -1.2865,-6.7916 -0.2151,-1.1426 -0.428,-2.2304 -0.6392,-3.3797 -0.1501,-0.8164 -0.6332,-2.8244 -0.607,-3.4997 -0.1732,-0.2413 -0.4304,-1.6406 -0.3649,-1.9605l1.5745 -0.2869 0.3797 2.0605zm18.1834 -3.1669l0.7853 0.1859c0.142,0.5612 -0.5892,5.2909 -0.6612,5.7866l-2.3584 -0.5621 2.2343 -5.4104zm-22.7031 1.0938c-0.67,-3.0526 -0.6334,-2.7301 1.4291,-3.13 0.6489,-0.1258 1.7457,-0.5341 2.091,0.0747 0.1197,0.2111 0.4211,1.9318 0.4424,2.2682 -0.5778,0.2471 -3.6109,0.7703 -3.9625,0.7871zm2.3409 16.6766c-1.7184,-0.0341 -1.646,0.3128 -1.6437,1.9369 0.0018,1.2396 -0.248,2.0493 0.8732,2.2352l0.3732 0.0891c0.1727,0.3362 0.6322,9.5702 0.7202,10.8454l0.7699 10.8283 16.682 0.0104c0.3765,-0.1117 0.3472,-2.145 0.3758,-2.5572 0.4436,-6.3925 0.7603,-12.7885 1.2331,-19.1972 1.5172,-0.0611 1.2612,-0.7571 1.2621,-2.4117 0.001,-1.8013 -0.0137,-1.4569 -1.8477,-1.8055 0.0796,-0.3704 0.4776,-2.0152 0.6147,-2.2937 0.2101,-0.4266 0.3396,-0.1858 0.4994,-0.993 0.0868,-0.4387 0.1615,-0.8188 0.2482,-1.2547 0.1226,-0.6174 1.2115,-5.8716 1.2082,-6.1938 -0.006,-0.5925 -0.2405,-0.0973 -0.0779,-1.2657 0.1243,-0.8924 0.2302,-1.7734 0.3511,-2.667 0.1176,-0.8696 0.2637,-1.7805 0.3513,-2.6505 0.0745,-0.7396 -0.2164,-0.4899 -0.258,-1.2107 -0.1649,-1.4032 -0.3178,-1.9451 -1.1191,-0.6213 -0.1018,0.1681 -0.2067,0.3814 -0.3445,0.5214 -0.2005,0.2036 -0.3275,0.1561 -0.4964,0.3719 -0.164,0.2095 -1.9984,4.8011 -2.3494,5.6164 -0.3768,0.8754 -0.2634,-0.2631 -0.9322,1.7499 -0.2083,0.6271 -2.1872,6.2832 -2.2041,6.6279 -0.018,0.3704 0.1039,0.3883 0.0446,0.7476l-0.9928 3.5363 -1.4391 -0.0026c0.2498,-3.5006 0.6216,-6.9932 0.9202,-10.4668 0.259,-3.0133 0.3864,-1.9286 -0.5702,-4.711 -0.2456,-0.7143 -0.4797,-1.4136 -0.7224,-2.12 -0.9241,-2.6886 -0.7814,-2.0952 -3.1668,2.2772 -1.3488,2.4725 -0.871,1.4048 -1.1827,4.5837 -0.17,1.7325 -0.3049,3.4799 -0.4556,5.2051 -0.0756,0.8671 -0.1495,1.7303 -0.2288,2.6027 -0.0393,0.4325 -0.0788,0.8853 -0.1213,1.3344 -0.0554,0.5849 -0.0044,0.8874 -0.2083,1.3007l-0.3941 -0.0279c-0.2933,-0.6376 -0.9186,-4.663 -1.107,-5.6737 -0.2791,-1.497 -2.5184,-13.6862 -2.7329,-14.2268 -0.3657,-0.9213 -1.2592,-0.9722 -2.3709,-0.7462 -0.867,0.1763 -2.1228,0.2507 -2.6321,0.756 -0.7313,0.7256 -0.3793,1.6169 -0.1802,2.6433l2.6995 14.2513c0.1757,0.9371 0.4727,2.1005 0.5515,3.0259z"/>
  <path class="fil7" d="M24.035 24.2956c0.1417,-0.3762 0.0711,-0.9734 0.0692,-1.4197 -0.0011,-0.2468 0.0102,-0.558 -0.0033,-0.7969 -0.0189,-0.3356 -0.007,-0.3498 -0.3006,-0.3859 -0.3611,-0.0445 -15.5092,0.0062 -17.5892,0.0043l-2.5953 0.0061c-0.1881,0.0356 -0.1177,0.0022 -0.2176,0.1 -0.0004,0.0008 -0.1791,2.2252 0.0086,2.4566l2.4889 0.1043c2.7295,0.0568 17.8611,0.0565 18.1393,-0.0688z"/>
  <path class="fil8" d="M23.2416 17.8862c0.167,-0.2563 1.5098,-7.0739 1.5865,-7.8025 -1.1002,-0.4241 -1.8306,-0.8047 -3.0653,-0.7537 -0.3145,0.9272 -2.5177,7.1199 -2.4572,7.5616l3.936 0.9946z"/>
  <path class="fil9" d="M1.8827 4.2624c0.3516,-0.0168 3.3847,-0.54 3.9625,-0.7871 -0.0213,-0.3364 -0.3227,-2.0571 -0.4424,-2.2682 -0.3453,-0.6088 -1.4421,-0.2005 -2.091,-0.0747 -2.0625,0.3999 -2.0991,0.0774 -1.4291,3.13z"/>
  <path class="fil10" d="M22.1843 20.9472c0.1437,-0.3672 0.6159,-1.9607 0.5635,-2.287l-1.9114 -0.3145c-0.5898,-0.1692 -1.026,-0.4161 -1.537,-0.5874l-0.8528 3.1984 3.7377 -0.0095z"/>
  <path class="fil11" d="M22.3515 8.579l2.3584 0.5621c0.072,-0.4957 0.8032,-5.2254 0.6612,-5.7866l-0.7853 -0.1859 -2.2343 5.4104z"/>
  <path class="fil12" d="M12.7029 7.3827l3.601 0.2867 -1.4712 -4.2404c-0.2524,0.3903 -2.0965,3.7173 -2.1298,3.9537z"/>
  <path class="fil13" d="M4.8131 6.5224l-0.1807 -1.8832 1.2777 -0.1574c0.0845,0.2656 0.1404,0.6335 0.1823,0.9591 0.0367,0.285 0.1093,0.7034 0.31,0.8946l-0.3797 -2.0605 -1.5745 0.2869c-0.0655,0.3199 0.1917,1.7192 0.3649,1.9605z"/>
  <path class="fil14" d="M12.9843 20.2738c-0.2193,0.2995 -0.1178,0.2857 -0.2059,0.5124l-1.3394 0.0411 0.0079 -1.4712c-0.1437,0.2239 -0.2055,1.2692 -0.1586,1.6064l1.6152 -0.0063 0.0808 -0.6824z"/>
  <path class="fil15" d="M7.3458 20.1934l0.1487 0.7528 1.6618 0.0052 -0.3262 -1.7331c-0.0248,1.4667 0.5691,1.6166 -0.5685,1.6084 -0.2245,-0.0016 -0.3957,0 -0.6203,-0.0251 -0.1575,-0.3788 -0.1339,-0.4619 -0.2955,-0.6082z"/>
 </g>
</svg>
