<?xml version="1.0" encoding="utf-8"?>
<!-- Generator: Adobe Illustrator 23.0.5, SVG Export Plug-In . SVG Version: 6.00 Build 0)  -->
<svg version="1.1" id="Layer_1" xmlns="http://www.w3.org/2000/svg" xmlns:xlink="http://www.w3.org/1999/xlink" x="0px" y="0px"
	 viewBox="0 0 1324.2 325.3" style="enable-background:new 0 0 1324.2 325.3;" xml:space="preserve">
<style type="text/css">
	.st0{fill:#FFFFFF;stroke:#FFFFFF;stroke-miterlimit:10;}
</style>
<title>logo_papelearte</title>
<path class="st0" d="M210.9,34.4c0.3-1.6,0.2-3.3-0.4-4.9c-1.3-2.7-1.4-5.5-1.4-8.4c0-1.5,0.3-3.2-1.2-3.9s-3.2,0.3-4.1,1.3
	c-3,3.3-6.6,6.4-8.5,10.4c-6.4,13.5-11.2,27.6-18.3,40.9c-6.6,12.3-9.4,26.2-13.9,39.4c-3.3,9.6-3.5,19.8-6.3,29.5
	c-2,7-2.5,7.5-9.5,7.1c-2.1-0.1-2.5-0.8-2.3-2.7c0.8-7.1,1.5-14.2,2.2-21.4c1.3-14,2.9-28,3.8-42.1c0.4-6.7,2.1-13.6,0.2-20.1
	c-3.2-11-7-21.8-10.7-32.6c-0.5-1.5-0.9-3.7-3.4-3.7c-2.3,0-3,1.8-3.8,3.3c-4.6,8.6-8.8,17.3-14,25.5c-2.2,3.6-3.6,7.5-4.1,11.7
	c-2.4,16.5-2.3,33.2-4.3,49.7c-1.2,9.9-1.2,20-3.2,29.8c-0.2,0.9,0.5,2.3-1.2,2.5c-1.9,0.3-1.8-1.1-2-2.3c-0.4-2.1-0.8-4.2-1.2-6.2
	c-2.5-13.1-5.3-26.2-7.6-39.4c-2.1-12.2-4.9-24.2-6.8-36.4c-2.2-13.8-5.3-27.4-7.9-41.1c-0.8-4.4-3.9-9.2-7.3-9.4
	c-8.5-0.5-16.9,0.8-24.8,4c-1.9,0.7-3.3,2.3-3.5,5.1c-1.1,12.7,1.8,25,4.5,37.1c3.8,17,6.4,34.3,10.1,51.3
	c2.7,12.1,4.5,24.5,6.7,37.1l-2.1,0.2c-6.4,0.4-7.1,1.5-8.3,7.7c-0.7,3.7,0.2,7.3-0.2,11c-0.3,2.7-0.4,7.5,4.3,8.3
	c4,0.7,4.6,3.8,4.8,6.8c1.2,21.3,2.2,42.7,3.5,64c1.3,22.5,2.9,44.9,4.2,67.3c0.2,3.4,1.7,4.5,4.8,4.5c34.2,0,68.4,0,102.5,0
	c2.4,0,3.4-0.6,3.5-3.3c0.3-6.5,2.4-12.7,2.3-19.3c-0.1-6.4,0.6-12.9,1.1-19.3c0.8-9.5,1.6-18.9,1.8-28.4c0-7.3,0.5-14.7,1.5-21.9
	c1.1-6.8,0.8-13.7,1.4-20.5c0.8-8.6-0.1-17.3,1.6-25.9c0.5-2.6,1.4-3.5,3.6-4c3.6-0.8,5.1-3,4.6-6.8c-0.4-2.9-0.4-5.8-0.1-8.6
	c1.1-11-1.7-11.4-10.6-11.8c-0.2,0-0.4-0.3-0.5-0.5c1.3-7,4.6-13.3,6.3-20c3.8-15.6,7.2-31.4,9.7-47.3c0.6-3.8-0.8-7.3-0.1-11.2
	C208.1,55.9,209.3,45.1,210.9,34.4z M161,141.2c0.9-2.5,1.7-5.1,2.2-7.8c0.4-2.7,2.5-4.9,1.9-8.2v0c6.3,3.1,13,5.1,19.9,5.8
	c1.7,0.2,2.4,0.2,1.8,2.6c-2.7,11.7-2.5,11.7-14.2,11.7c-2.9,0-5.8-0.2-8.6,0.1C160.4,145.8,160,144.1,161,141.2z M145.5,72.7
	c-1.7,22.3-3.6,44.6-5.5,66.9c-0.3,3.9-0.9,7.5-6.1,5.6v0c-5.1,1.3-5.3-1.2-4.7-5.1c2.1-17.3,3.9-34.5,5.2-51.9
	c0.5-7.2,2.2-14.4,1.8-21.7c-0.1-2,0.7-2.3,2.4-2c2.5,0.4,5.9-0.5,7.4,0.9C147.7,66.9,145.7,70.1,145.5,72.7z M136.1,32.3
	L136.1,32.3c4.3,8.4,5.9,17.6,9.4,26.4c-7.9,1-15.3-1.4-23.6-0.6L136.1,32.3z M113.8,140.3c1.5-20.4,4.2-40.6,5.1-61.1
	c0.2-4.5,1.2-9,1.5-13.5c0.2-2.6,1.5-2.8,3.5-2.7c6.1,0.4,6.1,0.4,6,10c-1.8,10.4-2.1,23.4-3.3,36.4c-1,10.4-2,20.8-2.6,31.2
	c-0.2,3.9-1.7,4.8-5.4,4.8C114.5,145.4,113.4,144.7,113.8,140.3z M78.2,40.6c3.5,13.2,5.8,26.5,8.4,39.9c3,15.8,5.8,31.6,8.8,47.4
	c0.7,3.9,1.8,7.8,2.7,11.8c1.3,5.6,1.3,5.6-4.5,5.6c-5.5,0-5.7,0-6.5-7.9c-1.6-15.7-6-30.8-8.6-46.4c-2.2-12.8-5.1-25.6-7.1-38.4
	c-0.5-3.5-1.6-7-2.4-10.5c-1.1-4.7,3.1-2.6,4.6-3.5C74.5,38.2,77.2,36.7,78.2,40.6z M51.3,33.8c0.3-3.7-2.4-6.8-1.9-10.6
	c0.2-1.9,0.8-3.2,2.5-3.8c6-2.4,12.6-2.5,18.8-3.8c0,0,0.1,0,0.1,0c1.9-0.2,3.6,1.1,3.8,3c0.8,3.7,1.8,7.3,2.5,10.3
	c0,2,0.1,2.8-1.8,3.4c-6.6,2.3-13.6,2-20.2,4.3C53,37.4,51,36.8,51.3,33.8z M63.6,98.5C61.3,86,58.5,73.6,56.5,61
	c-0.8-5.2-2.3-10.2-2.6-15.5c-0.2-3.9,2.9-2.9,4.6-3.3c1.4-0.4,3.2-1.1,4.2,2.1c6.3,20.8,8.7,42.3,12.7,63.5
	c2,10.6,4.4,21.1,6.8,31.6c1.2,5.4,1,5.9-5.1,5.9c-3.4,0.9-4.9-0.7-5.6-4.8C69.1,126.5,66.3,112.5,63.6,98.5z M188.1,177
	c-1.5,13.9-1.6,27.9-2.3,41.8c-0.8,14.8-2.4,29.6-3.2,44.5c-0.8,14.4-2.8,28.7-2.4,43.1c0.1,3.8-1.5,4.3-4.8,4.3
	c-30.4-0.2-60.8-0.2-91.1,0c-4.3,0-6.3-1-6.5-5.6c-0.5-11.1-1.5-22.1-2.2-33.1c-1.1-18-2.2-36-3.3-54c-0.9-14.1-1-28.2-2.6-42.2
	c-0.4-3.3,2.2-2.6,4-2.6c17.8-0.1,35.5-0.1,53.3-0.1h2.3h0c18.4,0,36.8,0.1,55.1-0.1C187.5,172.9,188.4,173.6,188.1,177z
	 M192.7,151.1c3.1,0,4.4,0.7,4.1,4c-0.3,3.2-0.3,6.4,0,9.6c0.2,2.9-1.1,3.8-3.7,3.8c-2.1,0-4.3,0.1-6.4,0.1
	c-40.3,0-80.5,0-120.8,0.1c-3.8,0-5.5-0.8-5-5c0.5-3.9-1.2-9,0.7-11.5c2.1-2.7,7.4-0.9,11.2-0.9c18.6-0.1,37.3,0,56,0h0
	C150.2,151.2,171.5,151.2,192.7,151.1z M198.8,87.1c-1.9,9.2-3.3,18.6-4.9,27.9c-0.6,3.1-1.2,6.2-2,9.2c0,0.2-0.1,0.3-0.1,0.5
	c-0.4,0.8-1.4,1.2-2.2,0.8c-6.9-1.9-13.9-3.8-20.9-5.3c-2.9-0.7-2.6-1.8-1.9-4.1c3.5-10.5,6.9-21,10.3-31.6
	c1.3-3.8,2.6-7.6,3.8-11.5c0.9-2.8,3-1.8,5.6-1.9c1-0.1,1.9,0,2.9,0.2C203.8,76.3,201.7,73,198.8,87.1z M205.1,36L205.1,36
	c-1.3,10-2.6,20-3.9,30.1c-0.3,2.4-1.5,2.5-3.5,2c-3.2-0.9-6.3-2-9.7-2c-2.3,0-2.2-1.3-1.5-3.1c3.2-7.5,6.3-15.1,9.5-22.6
	c0.8-1.9,1.6-3.8,2.2-5.8c0.7-2.2,1.5-4.4,4.5-3.6S205.2,33.9,205.1,36z"/>
<g>
	<path class="st0" d="M267.8,199.8c0-11.5-0.2-23,0.1-34.5c0.1-4.8-1.2-8.7-4-12.5c-7.3-10.1-6.5-19.2,3.1-27.3
		c14.4-12.1,31-15.9,49-10.2c18.9,6,31.8,18.3,35.2,38.3c2.9,16.5-2,31.5-15.1,42.2c-9.5,7.7-20.3,13.8-30.8,20.1
		c-4.5,2.6-6.2,5.4-5.9,10.6c0.8,13.1,1.2,26.3,1.4,39.4c0.1,3.7-0.6,7.7-1.9,11.2c-1.5,4.4-5,6.9-9.9,7.2c-4.7,0.3-8.2-1.9-9.5-5.8
		c-3.1-8.9-6.6-17.9-7.9-27.1c-2.3-17.1-3.1-34.5-4.5-51.7C267.3,199.8,267.6,199.8,267.8,199.8z M299.3,179.5
		c3.6-1.6,6.6-2.3,8.8-3.9c5.7-4.2,8.6-16.2,6.1-22.8c-1.8-4.8-6.9-8.1-11.8-7.3c-1.1,0.2-3,1.6-3,2.4
		C299.3,157.9,299.3,168,299.3,179.5z"/>
	<path class="st0" d="M467.2,188.9c0-8-0.2-16,0.1-24c0.2-4.6-1.3-8.4-3.9-12c-7.3-10.1-6.5-18.5,2.4-27
		c14.4-13.7,38.3-16.8,57.8-7.5c18.8,9,29.5,27.9,27.3,48.5c-1.8,16.8-11.9,28.1-25.5,36.9c-7.4,4.8-15.1,9.1-22.8,13.4
		c-3,1.7-4.1,3.8-3.9,7.2c0.7,13.6,1.2,27.3,1.5,40.9c0.1,3.8-0.5,7.7-1.6,11.3c-1.5,4.6-4.9,7.3-10,7.8c-4.9,0.4-8.5-2-9.9-6.1
		c-3.1-9.2-6.7-18.6-7.8-28.2c-2.4-20.3-3.3-40.8-4.8-61.2C466.6,189,466.9,189,467.2,188.9z M499.1,178.4c5.6,0.1,9.8-2.1,11.5-6.4
		c2-4.9,3.3-10.4,3.6-15.7c0.3-6.2-4.4-10.3-10.6-11c-3.3-0.3-5,0.6-4.9,4.3c0.1,7.5-0.1,15,0,22.4
		C498.6,174.2,498.9,176.2,499.1,178.4z"/>
	<path class="st0" d="M452.1,157.4c-1.5,14.3-3.1,28.5-4.4,42.7c-0.8,8.3-1,16.6-1.4,24.9c-0.4,9.5-4.3,14.9-11.5,15.6
		c-5.6,0.5-9-2.5-11.9-6.7c-4.2-6.3-4.2-6.2-11.9-4c-10.5,3.1-21,3-31.3-1c-10.9-4.2-17.3-15.2-16.7-27c1.3-24,18.2-34.3,37-38.1
		c3.6-0.7,7.3-1.7,10.9-1.4c6.2,0.5,8.3-2.3,8.6-7.8c0.2-4.2,0.6-8.3,0.4-12.5c-0.2-5.7-3.5-7.9-8.8-5.7c-5.2,2.2-10.1,5.1-15.2,7.6
		c-5.8,2.8-11.6,3.2-16.9-1.1c-6.4-5.2-6.8-13.8-1-20.3c11-12.2,38.3-18.6,53.3-12.5c10.7,4.4,16.3,13,18.3,23.8
		C451.1,141.7,451.3,149.5,452.1,157.4z M400.7,208.4c4.9-1.4,8.8-1.9,12-3.7c1.8-1,3.7-4.4,3.4-6.3c-0.3-1.9-3.4-4.7-5.2-4.7
		c-4.1-0.1-8.7,0.5-12.3,2.3c-2.2,1.1-4.4,5.1-4.1,7.5C394.6,205.4,398.6,206.9,400.7,208.4z"/>
	<path class="st0" d="M998,157.1c-1.5,14.4-3.2,28.9-4.5,43.5c-0.8,8.3-1,16.6-1.4,24.9c-0.5,9.5-4.6,14.7-12,15.1
		c-6.1,0.4-9.9-3.2-12.1-8c-2.3-5.1-5.2-5.1-9.8-3.4c-10.7,3.9-21.6,3.8-32.3-0.2c-11.5-4.2-17.9-15.4-17.2-27.6
		c1.4-24,18.9-34.2,37.4-37.7c4.7-0.9,9.6-1,14.3-1.8c1.4-0.2,3.4-1.8,3.5-2.9c0.8-5.6,1.5-11.2,1.5-16.8c0-5.7-3.4-7.9-8.7-5.8
		c-5.1,2.1-9.6,5.4-14.8,7.2c-4,1.4-9,2.6-12.9,1.5c-10.5-3-13.3-15.9-4.7-23.1c15-12.6,32.3-18,51.6-12.2
		c11.4,3.5,17.2,12.8,19.3,24.1C997,141.4,997.2,149.1,998,157.1z M946.5,208.4c4.9-1.4,8.8-1.9,12-3.7c1.8-1,3.7-4.4,3.4-6.3
		c-0.3-1.9-3.3-4.7-5.2-4.7c-4.1-0.1-8.7,0.5-12.3,2.3c-2.2,1.1-4.4,5.1-4.1,7.5C940.5,205.4,944.5,206.9,946.5,208.4z"/>
	<path class="st0" d="M565.2,185.6c1.3-23.4,5.9-42.8,21.3-58.2c15.8-15.7,39.8-17.2,57.3-3.6c11.1,8.7,13.9,27.5,5.9,39.5
		c-8.4,12.4-20.7,18.8-34.6,23c-2.2,0.7-4.5,1.3-6.7,1.8c-7,1.5-7.6,2.4-5.8,9.5c3.1,12,9.4,15.4,21.6,12.4c7.5-1.8,15.1-4.5,23-1.1
		c4.1,1.8,7,4.4,7.6,9.1c0.7,5-1.1,9-5.6,11.3c-17.6,8.8-36,13.5-55.2,6.3c-13.5-5.1-20.9-16.2-24.8-29.5
		C566.8,198.6,566.1,190.8,565.2,185.6z M603.8,168.7c9.9-5.1,18.6-11.2,22.5-22.2c1.6-4.6-0.8-7.6-5.8-7.2
		c-2.5,0.1-5.4,1.1-7.1,2.7C605.9,149.2,603.9,158.6,603.8,168.7z"/>
	<path class="st0" d="M724.4,185.5c1.4-24,6.3-43.8,22.5-59.2c15.5-14.8,41-15.6,57-1.7c13.9,12.2,12.5,34.7-2.9,47.9
		c-9.9,8.5-21.6,12.9-34.1,15.7c-6.1,1.4-6.6,1.9-5.5,8c2.3,12.7,9.3,16.8,22,13.8c7.5-1.8,15.1-4.5,23-1c4.1,1.8,7,4.5,7.5,9.1
		c0.5,4.8-1,8.7-5.3,10.9c-17.7,9.2-36.2,13.7-55.7,6.4c-13.5-5.1-20.8-16.3-24.7-29.5C726,198.5,725.3,190.6,724.4,185.5z
		 M762.3,169.9c9.7-5.5,17.1-11.3,21.9-20c1.6-2.9,3.3-6.4,0.1-9.1c-3.3-2.8-7.2-2.2-10.6,0.2c-1.3,0.9-2.7,2.1-3.6,3.4
		C765.1,151.5,762.8,159.5,762.3,169.9z"/>
	<path class="st0" d="M1200.3,185.4c1.4-23.6,6.1-43.1,21.8-58.5c15.5-15.2,39.9-16.5,56.9-2.9c11.1,8.9,13.7,27.4,5.6,39.5
		c-8.3,12.3-20.5,18.6-34.2,22.7c-2.7,0.8-5.4,1.6-8.2,2c-4.3,0.6-5.8,2.6-5.1,7.1c2,13.1,9.3,17.8,22.3,14.7c7.5-1.8,15.1-4.5,23-1
		c4.1,1.8,6.9,4.5,7.5,9.2c0.5,4.8-1,8.6-5.4,10.9c-17.7,9.2-36.3,13.7-55.7,6.4c-13.4-5.1-20.8-16.3-24.7-29.6
		C1201.9,198.4,1201.2,190.6,1200.3,185.4z M1238.2,169.7c10.1-5.5,17.8-11.5,22.2-20.8c1-2.2,1.1-6.9-0.1-7.6
		c-2.5-1.4-6.1-1.6-9.2-1.1c-1.8,0.3-3.7,2.3-4.9,4C1241,151.3,1238.7,159.4,1238.2,169.7z"/>
	<path class="st0" d="M1161.8,107.1c-0.5,9.6-0.8,19.3-1.7,28.9c-0.5,5.2,1.4,6.7,6.3,6.6c3.8,0,7.6,0.7,11.3,1.6
		c5.7,1.4,8.6,4.9,8.9,10c0.4,6.1-1.4,9.2-7.6,11.2c-4.8,1.6-10,2.3-15.1,2.9c-3,0.4-4.6,1.3-4.9,4.4c-0.9,10.7-1.1,21.4,2.7,31.6
		c1.2,3.1,3.3,6.5,6,8.2c7.3,4.6,8.3,12.3,3.5,20c-6.5,10.6-20.4,13.2-31.6,6.1c-10.3-6.5-15.2-16.8-17.7-28
		c-2.2-10-3-20.4-3.6-30.6c-0.3-4.8-1.2-7-6.4-7.7c-10-1.4-14.1-6.8-13.2-15.8c0.6-5.9,4.5-9.8,9.6-10.8c9.3-1.8,10.7-7.8,11.9-15.8
		c1.9-11.8,5.3-23.3,8.6-34.8c1-3.5,3.5-6.8,5.8-9.8c4.1-5.3,10.8-6.9,17.6-4.9c6.5,1.9,8.7,6.9,9.2,12.8c0.4,4.6,0.1,9.3,0.1,14
		C1161.7,107.1,1161.7,107.1,1161.8,107.1z"/>
	<path class="st0" d="M714.6,96c-2.3,16.8-4.8,33.6-6.7,50.4c-1.8,16-3.2,32.1-4.1,48.1c-0.4,6.8,2,13.3,6.3,19
		c5.1,6.7,5.1,11.9,0.5,18.2c-3.7,5.1-9.8,6.8-17.1,4.6c-10.7-3.3-16.4-11.2-19.7-21.4c-4.7-14.7-4.2-29.9-4-45
		c0.2-20.7,2.3-41.3,7.7-61.3c2.5-9.2,6.3-18.2,10.9-26.6c4.4-8.1,10.9-9.6,18.1-6.3c5.1,2.3,6.7,6.7,7.4,11.6
		c0.4,2.8,0.1,5.6,0.1,8.5C714.1,96,714.3,96,714.6,96z"/>
	<path class="st0" d="M1009,166.8c0.7-10.2,1-20.7,2.3-31.1c1.7-13.7,12.5-20.9,25.6-12.6c1.6,1,4.8,0.4,6.9-0.4
		c8.3-3,16.2-7,25.4-6.3c8.8,0.7,13.9,5.4,14.6,13.4c0.3,4.1-0.8,7.8-4.3,10.1c-5.1,3.4-10.6,6.3-15.7,9.7
		c-4.7,3.1-9.6,6.2-13.4,10.2c-7.8,8.2-6.1,18.5-4.8,28.4c1.4,11.2,3.4,22.4,4.1,33.6c0.5,6.8-1.9,13.4-8.4,17
		c-8.7,4.8-18.6,0.9-22.9-9.9c-3.1-7.8-5.5-16.1-6.6-24.4C1010.1,192.1,1009.8,179.6,1009,166.8z"/>
	<path class="st0" d="M854.7,190.5c-4.9-0.8-9.9-1.1-14.7-2.5c-5.8-1.7-7.9-5.6-7.3-11.4c0.5-5.4,4.3-7.5,8.8-7.9
		c13.7-1.3,27.5-2.3,41.2-3.2c4.5-0.3,7.5,2.4,8.7,6.8c1.2,4.5-0.7,7.9-4.5,10.1C877,188.3,866,189.6,854.7,190.5z"/>
</g>
</svg>
