<svg version="1.1" id="Layer_1" xmlns="http://www.w3.org/2000/svg" xmlns:xlink="http://www.w3.org/1999/xlink" x="0px" y="0px"
	 width="100%" viewBox="0 0 1246 307" enable-background="new 0 0 1246 307" xml:space="preserve">
<path fill="#FFFEFF" opacity="1.000000" stroke="none" 
	d="
M1180.000000,308.000000 
	C786.666687,308.000000 393.833344,308.000000 1.000000,308.000000 
	C1.000000,205.666672 1.000000,103.333336 1.000000,1.000000 
	C416.333344,1.000000 831.666687,1.000000 1247.000000,1.000000 
	C1247.000000,103.333336 1247.000000,205.666672 1247.000000,308.000000 
	C1224.833374,308.000000 1202.666626,308.000000 1180.000000,308.000000 
M407.731110,130.353622 
	C407.055786,126.200058 407.213348,121.670105 405.540100,117.967499 
	C401.446747,108.909569 389.219177,102.456604 378.429291,107.767159 
	C373.469727,110.208160 368.589447,112.810219 363.445374,115.456451 
	C363.276764,114.939903 363.130035,114.350922 362.897217,113.798218 
	C359.640717,106.066940 350.577179,102.692238 344.535645,109.225533 
	C337.294342,117.056274 334.696350,126.409203 336.766235,137.894913 
	C336.752136,143.610672 336.738007,149.326431 336.230469,155.686996 
	C336.162354,156.346512 336.103668,157.007172 336.024658,157.665390 
	C334.810333,167.783813 338.482025,177.201767 340.774200,186.693039 
	C342.779358,194.995987 346.147095,203.138687 354.187805,208.027740 
	C358.533661,210.670181 362.656860,210.672821 365.503601,207.762817 
	C369.562286,203.613876 369.942413,200.024490 367.088013,195.287857 
	C365.462280,192.590179 364.124084,189.719269 362.902008,187.393768 
	C369.554047,184.388870 375.650146,182.269089 381.091553,179.044556 
	C392.279694,172.414520 399.651886,162.169479 405.253876,150.711609 
	C407.452728,146.214218 409.479370,141.303513 407.154663,135.185455 
	C407.179565,133.779694 407.204498,132.373932 407.731110,130.353622 
M517.904358,188.561417 
	C525.695007,199.509552 540.002686,199.097565 547.920776,189.663666 
	C551.012512,185.980103 553.252991,187.771164 555.509644,190.476974 
	C558.432861,193.982010 562.141174,196.071365 566.474854,193.988571 
	C571.105225,191.763184 569.364868,187.257492 569.266724,183.324890 
	C568.965454,171.252640 568.460083,159.158539 568.886902,147.103134 
	C569.262756,136.487457 570.823547,125.915802 571.783691,115.317696 
	C572.161560,111.146812 570.183228,108.107246 566.357788,106.732895 
	C560.461365,104.614494 554.158142,106.934021 552.563477,112.974182 
	C550.643250,120.247284 550.399536,127.963341 549.435852,135.488388 
	C549.155151,137.680328 548.894287,139.874817 548.559082,142.598602 
	C545.849854,141.198120 543.980713,140.177597 542.066101,139.250946 
	C529.531738,133.184387 520.118408,139.408279 516.519165,147.627090 
	C510.591003,161.163818 510.424622,174.698242 517.904358,188.561417 
M614.590149,188.956467 
	C614.881836,189.360062 615.175537,189.762146 615.464905,190.167435 
	C619.599915,195.960175 623.897156,197.928299 628.334290,196.060638 
	C632.880981,194.146881 634.634949,189.150223 633.161133,182.294693 
	C633.091370,181.970200 632.969482,181.657272 632.885742,181.335358 
	C630.747620,173.120178 629.086548,164.889877 629.762146,156.273346 
	C630.124573,151.651382 629.784607,146.945236 629.423767,142.303345 
	C629.011902,137.005051 625.307373,132.695679 621.276123,132.295334 
	C616.791138,131.849930 613.848389,134.674469 612.075500,140.662109 
	C609.398193,149.704376 606.847412,158.806595 603.580933,167.638519 
	C602.577820,170.350861 599.409241,172.262375 597.232300,174.540604 
	C595.958862,171.516388 593.701172,168.523163 593.604736,165.461914 
	C593.359558,157.671600 594.183899,149.853439 594.380859,142.041412 
	C594.525452,136.303482 592.203918,133.139633 587.736328,132.365143 
	C583.908752,131.701599 580.374634,134.291336 578.445740,139.070343 
	C572.855713,152.920532 572.443970,166.664520 578.351318,180.644333 
	C583.619202,193.110825 597.151794,196.071609 606.362122,186.290344 
	C607.914368,184.641891 608.894470,182.454620 610.138916,180.516327 
	C610.660950,180.998886 611.182983,181.481461 611.704956,181.964020 
	C612.566284,184.073959 613.427551,186.183899 614.590149,188.956467 
M689.392578,188.822189 
	C689.783264,185.901840 691.467529,182.132355 690.245483,180.270706 
	C688.625916,177.803650 684.879333,176.004929 681.776428,175.461014 
	C679.107361,174.993134 676.069702,176.732956 673.176331,177.417831 
	C666.510742,178.995636 662.365051,176.827255 662.016418,170.029388 
	C661.639282,162.673630 662.448730,155.157593 663.687073,147.872345 
	C664.121094,145.318939 667.363281,143.242859 669.323120,140.948807 
	C671.108582,142.677261 672.766296,144.568970 674.712341,146.092270 
	C677.075134,147.941864 680.129150,151.240341 682.077881,150.744354 
	C685.053345,149.987076 687.885376,146.894577 689.807068,144.120667 
	C694.487488,137.364655 687.130432,124.376183 679.244019,121.327042 
	C666.170105,116.272255 653.445740,121.360817 646.530518,134.109222 
	C640.115662,145.935349 638.973633,158.553650 640.706909,171.377853 
	C642.136902,181.958038 646.661499,191.457031 657.772400,195.114410 
	C668.953369,198.794861 679.357483,195.784698 689.392578,188.822189 
M749.313477,150.724640 
	C750.761108,145.096313 747.276733,141.840332 739.121033,140.943771 
	C735.322021,140.526138 734.360352,139.213974 734.561890,135.685196 
	C734.960327,128.708054 735.184265,121.710579 735.147095,114.723282 
	C735.128418,111.199821 734.532104,107.293427 730.119812,106.629868 
	C725.921143,105.998421 720.849792,105.000694 718.854431,110.294380 
	C715.778992,118.453362 712.885620,126.751144 710.909424,135.222046 
	C710.040588,138.946411 708.925537,141.237854 705.423035,142.474014 
	C701.375977,143.902374 699.269104,146.640274 699.413452,151.164627 
	C699.550842,155.472534 701.989014,157.386185 705.747986,158.300125 
	C709.427612,159.194717 710.176636,161.622513 710.623291,165.243011 
	C711.508972,172.422501 712.908875,179.623291 714.999817,186.542206 
	C716.638000,191.963104 720.912598,195.650375 726.321594,197.760071 
	C730.717468,199.474640 737.385437,197.355789 740.066162,193.343750 
	C743.756165,187.821060 743.180664,185.498535 738.447998,180.339783 
	C736.474731,178.188934 735.187805,175.014130 734.589539,172.099503 
	C733.898010,168.730255 734.412109,165.128769 734.213562,161.638901 
	C734.008301,158.032349 735.040894,156.039398 739.163818,156.052475 
	C743.028137,156.064743 746.838013,155.257141 749.313477,150.724640 
M836.972717,123.579010 
	C826.972107,122.399063 819.164551,126.100945 813.200500,134.105957 
	C807.971313,141.124603 806.537109,152.440155 811.815552,157.755478 
	C815.679993,161.646881 821.581238,163.507141 826.550537,166.315399 
	C827.848755,167.049088 829.057068,167.942047 830.306641,168.761887 
	C829.076050,169.668884 827.969238,171.005280 826.591614,171.402390 
	C822.456909,172.594193 818.152954,173.206711 814.032593,174.438492 
	C808.157471,176.194855 805.459106,179.964340 806.082703,184.860077 
	C806.766235,190.226151 810.831177,194.227676 816.445801,194.457977 
	C821.925720,194.682755 827.447327,194.726166 832.911194,194.319412 
	C842.457336,193.608780 850.086548,185.815521 851.219299,176.127045 
	C852.447815,165.619415 847.273987,156.937851 837.861084,153.636765 
	C835.525818,152.817810 833.125183,152.073914 830.968994,150.901367 
	C829.851318,150.293564 829.202454,148.823578 828.341858,147.743057 
	C829.602112,146.925400 830.801270,145.548050 832.134888,145.402405 
	C835.259399,145.061264 838.455811,145.453812 841.609497,145.288910 
	C847.289551,144.991898 850.398315,141.605591 850.432861,135.949738 
	C850.473022,129.375824 847.715759,126.685104 836.972717,123.579010 
M466.699768,145.926849 
	C462.321655,153.490112 462.110840,161.846024 462.433746,170.188248 
	C462.605194,174.618179 462.842072,179.333008 464.439972,183.368652 
	C470.208862,197.938400 484.871033,201.299896 495.256683,189.859772 
	C506.594696,177.370636 510.002716,162.402420 506.994751,146.314529 
	C504.904388,135.134430 497.426697,129.574844 487.679993,129.537460 
	C477.805908,129.499588 471.244202,134.466522 466.699768,145.926849 
M801.455017,154.703079 
	C800.548523,150.528702 799.853149,146.294373 798.688599,142.193268 
	C796.686584,135.143265 791.979614,130.861145 784.644653,129.793945 
	C776.206848,128.566269 768.700745,130.773117 764.193115,138.181000 
	C755.533508,152.412201 752.354858,167.743149 758.094971,183.956329 
	C762.905701,197.544357 778.218811,200.897552 788.150330,190.502731 
	C797.403931,180.817566 801.546387,168.971970 801.455017,154.703079 
M444.692291,126.436836 
	C441.702118,127.364075 438.753052,128.474045 435.708405,129.159348 
	C433.373688,129.684860 430.703247,130.406219 428.554260,129.774490 
	C419.790375,127.198235 413.897552,130.137894 413.839935,139.119568 
	C413.744202,154.032501 414.853973,168.958206 415.680969,183.866058 
	C415.793640,185.896729 417.051208,187.934586 418.040680,189.832535 
	C420.928802,195.372421 424.960052,197.577805 429.597168,196.347137 
	C433.666199,195.267242 436.667267,191.065552 436.454620,185.352585 
	C436.158356,177.392532 435.336792,169.448013 434.603455,161.509460 
	C433.971985,154.673782 437.132874,150.095474 442.811859,146.833252 
	C446.263367,144.850586 450.057953,143.218536 452.952820,140.603577 
	C454.766357,138.965363 456.496002,135.422058 455.918335,133.405167 
	C455.187042,130.851822 452.248840,128.757004 449.904449,126.921730 
	C448.919647,126.150780 447.017792,126.551254 444.692291,126.436836 
z"/>
<path fill="#DC2283" opacity="1.000000" stroke="none" 
	d="
M336.723907,155.042191 
	C336.738007,149.326431 336.752136,143.610672 337.038116,137.179199 
	C339.160156,129.298233 340.764008,122.056908 342.945038,114.993813 
	C344.455688,110.101776 348.199310,108.252045 353.447815,108.681618 
	C358.199219,109.070503 359.895966,112.071892 361.241913,115.864937 
	C361.646576,117.005386 362.449280,118.004593 363.029694,118.999992 
	C367.835052,116.010994 371.933441,112.714333 376.589661,110.720222 
	C386.450439,106.497185 396.676544,107.725693 401.662811,116.360077 
	C404.235596,120.815231 405.418518,126.073036 407.229431,130.968170 
	C407.204498,132.373932 407.179565,133.779694 406.905945,135.861511 
	C405.021027,148.445068 399.753479,158.669388 391.652039,167.343567 
	C384.921265,174.550110 377.093292,180.567917 367.357086,182.976761 
	C360.972595,184.556335 359.410583,186.920776 362.730408,192.832733 
	C363.540131,194.274719 364.765869,195.490097 365.523499,196.953049 
	C368.230225,202.179657 365.010559,207.197525 359.218292,207.144058 
	C354.591614,207.101349 351.975708,204.185303 349.701660,200.838959 
	C342.779907,190.653381 340.715973,178.891449 338.904999,167.048950 
	C338.290344,163.029510 337.457214,159.043488 336.723907,155.042191 
M369.382843,160.880859 
	C376.787811,155.178040 382.214569,147.828781 385.361481,139.184158 
	C386.494324,136.072052 386.422852,130.401627 384.478577,128.749557 
	C380.905151,125.713142 377.531281,129.781570 375.099213,132.628036 
	C368.028992,140.902863 365.207703,151.166107 362.293549,161.334076 
	C362.018707,162.293182 362.506317,163.470810 362.775848,165.641937 
	C365.259125,163.897263 367.058502,162.633072 369.382843,160.880859 
z"/>
<path fill="#DD2785" opacity="1.000000" stroke="none" 
	d="
M517.685303,188.278885 
	C510.424622,174.698242 510.591003,161.163818 516.519165,147.627090 
	C520.118408,139.408279 529.531738,133.184387 542.066101,139.250946 
	C543.980713,140.177597 545.849854,141.198120 548.559082,142.598602 
	C548.894287,139.874817 549.155151,137.680328 549.435852,135.488388 
	C550.399536,127.963341 550.643250,120.247284 552.563477,112.974182 
	C554.158142,106.934021 560.461365,104.614494 566.357788,106.732895 
	C570.183228,108.107246 572.161560,111.146812 571.783691,115.317696 
	C570.823547,125.915802 569.262756,136.487457 568.886902,147.103134 
	C568.460083,159.158539 568.965454,171.252640 569.266724,183.324890 
	C569.364868,187.257492 571.105225,191.763184 566.474854,193.988571 
	C562.141174,196.071365 558.432861,193.982010 555.509644,190.476974 
	C553.252991,187.771164 551.012512,185.980103 547.920776,189.663666 
	C540.002686,199.097565 525.695007,199.509552 517.685303,188.278885 
M544.108276,163.840607 
	C543.469238,161.986664 543.064453,160.000351 542.115479,158.321625 
	C541.387024,157.033020 540.009583,155.333191 538.853271,155.279816 
	C537.657288,155.224594 535.955688,156.680038 535.210938,157.917465 
	C531.839539,163.519165 531.929871,169.650604 533.472900,175.730408 
	C533.800964,177.023026 535.632080,178.740158 536.840271,178.797546 
	C538.320862,178.867889 540.792175,177.731232 541.226868,176.533005 
	C542.601624,172.743378 543.226318,168.681625 544.108276,163.840607 
z"/>
<path fill="#DD2886" opacity="1.000000" stroke="none" 
	d="
M614.439514,188.625153 
	C613.427551,186.183899 612.566284,184.073959 611.704956,181.964020 
	C611.182983,181.481461 610.660950,180.998886 610.138916,180.516327 
	C608.894470,182.454620 607.914368,184.641891 606.362122,186.290344 
	C597.151794,196.071609 583.619202,193.110825 578.351318,180.644333 
	C572.443970,166.664520 572.855713,152.920532 578.445740,139.070343 
	C580.374634,134.291336 583.908752,131.701599 587.736328,132.365143 
	C592.203918,133.139633 594.525452,136.303482 594.380859,142.041412 
	C594.183899,149.853439 593.359558,157.671600 593.604736,165.461914 
	C593.701172,168.523163 595.958862,171.516388 597.232300,174.540604 
	C599.409241,172.262375 602.577820,170.350861 603.580933,167.638519 
	C606.847412,158.806595 609.398193,149.704376 612.075500,140.662109 
	C613.848389,134.674469 616.791138,131.849930 621.276123,132.295334 
	C625.307373,132.695679 629.011902,137.005051 629.423767,142.303345 
	C629.784607,146.945236 630.124573,151.651382 629.762146,156.273346 
	C629.086548,164.889877 630.747620,173.120178 632.885742,181.335358 
	C632.969482,181.657272 633.091370,181.970200 633.161133,182.294693 
	C634.634949,189.150223 632.880981,194.146881 628.334290,196.060638 
	C623.897156,197.928299 619.599915,195.960175 615.464905,190.167435 
	C615.175537,189.762146 614.881836,189.360062 614.439514,188.625153 
z"/>
<path fill="#DD2885" opacity="1.000000" stroke="none" 
	d="
M689.146118,189.082352 
	C679.357483,195.784698 668.953369,198.794861 657.772400,195.114410 
	C646.661499,191.457031 642.136902,181.958038 640.706909,171.377853 
	C638.973633,158.553650 640.115662,145.935349 646.530518,134.109222 
	C653.445740,121.360817 666.170105,116.272255 679.244019,121.327042 
	C687.130432,124.376183 694.487488,137.364655 689.807068,144.120667 
	C687.885376,146.894577 685.053345,149.987076 682.077881,150.744354 
	C680.129150,151.240341 677.075134,147.941864 674.712341,146.092270 
	C672.766296,144.568970 671.108582,142.677261 669.323120,140.948822 
	C667.363281,143.242859 664.121094,145.318939 663.687073,147.872345 
	C662.448730,155.157593 661.639282,162.673630 662.016418,170.029388 
	C662.365051,176.827255 666.510742,178.995636 673.176331,177.417831 
	C676.069702,176.732956 679.107361,174.993134 681.776428,175.461014 
	C684.879333,176.004929 688.625916,177.803650 690.245483,180.270706 
	C691.467529,182.132355 689.783264,185.901840 689.146118,189.082352 
z"/>
<path fill="#DD2785" opacity="1.000000" stroke="none" 
	d="
M749.180725,151.068604 
	C746.838013,155.257141 743.028137,156.064743 739.163818,156.052475 
	C735.040894,156.039398 734.008301,158.032349 734.213562,161.638901 
	C734.412109,165.128769 733.898010,168.730255 734.589539,172.099503 
	C735.187805,175.014130 736.474731,178.188934 738.447998,180.339783 
	C743.180664,185.498535 743.756165,187.821060 740.066162,193.343750 
	C737.385437,197.355789 730.717468,199.474640 726.321594,197.760071 
	C720.912598,195.650375 716.638000,191.963104 714.999817,186.542206 
	C712.908875,179.623291 711.508972,172.422501 710.623291,165.243011 
	C710.176636,161.622513 709.427612,159.194717 705.747986,158.300125 
	C701.989014,157.386185 699.550842,155.472534 699.413452,151.164627 
	C699.269104,146.640274 701.375977,143.902374 705.423035,142.474014 
	C708.925537,141.237854 710.040588,138.946411 710.909424,135.222046 
	C712.885620,126.751144 715.778992,118.453362 718.854431,110.294380 
	C720.849792,105.000694 725.921143,105.998421 730.119812,106.629868 
	C734.532104,107.293427 735.128418,111.199821 735.147095,114.723282 
	C735.184265,121.710579 734.960327,128.708054 734.561890,135.685196 
	C734.360352,139.213974 735.322021,140.526138 739.121033,140.943771 
	C747.276733,141.840332 750.761108,145.096313 749.180725,151.068604 
z"/>
<path fill="#DD2785" opacity="1.000000" stroke="none" 
	d="
M837.395264,123.609276 
	C847.715759,126.685104 850.473022,129.375824 850.432861,135.949738 
	C850.398315,141.605591 847.289551,144.991898 841.609497,145.288910 
	C838.455811,145.453812 835.259399,145.061264 832.134888,145.402405 
	C830.801270,145.548050 829.602112,146.925400 828.341858,147.743073 
	C829.202454,148.823578 829.851318,150.293564 830.968994,150.901367 
	C833.125183,152.073914 835.525818,152.817810 837.861084,153.636765 
	C847.273987,156.937851 852.447815,165.619415 851.219299,176.127045 
	C850.086548,185.815521 842.457336,193.608780 832.911194,194.319412 
	C827.447327,194.726166 821.925720,194.682755 816.445801,194.457977 
	C810.831177,194.227676 806.766235,190.226151 806.082703,184.860077 
	C805.459106,179.964340 808.157471,176.194855 814.032593,174.438492 
	C818.152954,173.206711 822.456909,172.594193 826.591614,171.402390 
	C827.969238,171.005280 829.076050,169.668884 830.306641,168.761871 
	C829.057068,167.942047 827.848755,167.049088 826.550537,166.315399 
	C821.581238,163.507141 815.679993,161.646881 811.815552,157.755478 
	C806.537109,152.440155 807.971313,141.124603 813.200500,134.105957 
	C819.164551,126.100945 826.972107,122.399063 837.395264,123.609276 
z"/>
<path fill="#DD2886" opacity="1.000000" stroke="none" 
	d="
M466.832001,145.572647 
	C471.244202,134.466522 477.805908,129.499588 487.679993,129.537460 
	C497.426697,129.574844 504.904388,135.134430 506.994751,146.314529 
	C510.002716,162.402420 506.594696,177.370636 495.256683,189.859772 
	C484.871033,201.299896 470.208862,197.938400 464.439972,183.368652 
	C462.842072,179.333008 462.605194,174.618179 462.433746,170.188248 
	C462.110840,161.846024 462.321655,153.490112 466.832001,145.572647 
M481.058655,161.627808 
	C481.284424,166.302658 480.944733,171.097229 481.901764,175.617233 
	C482.783356,179.780792 484.689636,179.928497 487.702240,176.934326 
	C493.474274,171.197586 496.112122,156.368454 492.515778,149.386581 
	C491.162781,146.759933 488.718018,145.914825 487.095917,148.527924 
	C484.722015,152.352127 483.192841,156.700699 481.058655,161.627808 
z"/>
<path fill="#DD2885" opacity="1.000000" stroke="none" 
	d="
M801.469055,155.162125 
	C801.546387,168.971970 797.403931,180.817566 788.150330,190.502731 
	C778.218811,200.897552 762.905701,197.544357 758.094971,183.956329 
	C752.354858,167.743149 755.533508,152.412201 764.193115,138.181000 
	C768.700745,130.773117 776.206848,128.566269 784.644653,129.793945 
	C791.979614,130.861145 796.686584,135.143265 798.688599,142.193268 
	C799.853149,146.294373 800.548523,150.528702 801.469055,155.162125 
M778.692688,150.250427 
	C774.078735,158.003769 772.740234,166.335480 774.726807,175.087097 
	C775.689270,179.327209 778.096680,180.014816 781.032715,177.306610 
	C786.571228,172.197876 789.705688,158.308228 786.908569,151.268860 
	C784.886353,146.179703 783.418762,145.874527 778.692688,150.250427 
z"/>
<path fill="#DD2785" opacity="1.000000" stroke="none" 
	d="
M445.112549,126.428009 
	C447.017792,126.551254 448.919647,126.150780 449.904449,126.921730 
	C452.248840,128.757004 455.187042,130.851822 455.918335,133.405167 
	C456.496002,135.422058 454.766357,138.965363 452.952820,140.603577 
	C450.057953,143.218536 446.263367,144.850586 442.811859,146.833252 
	C437.132874,150.095474 433.971985,154.673782 434.603455,161.509460 
	C435.336792,169.448013 436.158356,177.392532 436.454620,185.352585 
	C436.667267,191.065552 433.666199,195.267242 429.597168,196.347137 
	C424.960052,197.577805 420.928802,195.372421 418.040680,189.832535 
	C417.051208,187.934586 415.793640,185.896729 415.680969,183.866058 
	C414.853973,168.958206 413.744202,154.032501 413.839935,139.119568 
	C413.897552,130.137894 419.790375,127.198235 428.554260,129.774490 
	C430.703247,130.406219 433.373688,129.684860 435.708405,129.159348 
	C438.753052,128.474045 441.702118,127.364075 445.112549,126.428009 
z"/>
<path fill="#F2ABD0" opacity="1.000000" stroke="none" 
	d="
M336.477173,155.364594 
	C337.457214,159.043488 338.290344,163.029510 338.904999,167.048950 
	C340.715973,178.891449 342.779907,190.653381 349.701660,200.838959 
	C351.975708,204.185303 354.591614,207.101349 359.218292,207.144058 
	C365.010559,207.197525 368.230225,202.179657 365.523499,196.953049 
	C364.765869,195.490097 363.540131,194.274719 362.730408,192.832733 
	C359.410583,186.920776 360.972595,184.556335 367.357086,182.976761 
	C377.093292,180.567917 384.921265,174.550110 391.652039,167.343567 
	C399.753479,158.669388 405.021027,148.445068 406.939453,136.282227 
	C409.479370,141.303513 407.452728,146.214218 405.253876,150.711609 
	C399.651886,162.169479 392.279694,172.414520 381.091553,179.044556 
	C375.650146,182.269089 369.554047,184.388870 362.902008,187.393768 
	C364.124084,189.719269 365.462280,192.590179 367.088013,195.287857 
	C369.942413,200.024490 369.562286,203.613876 365.503601,207.762817 
	C362.656860,210.672821 358.533661,210.670181 354.187805,208.027740 
	C346.147095,203.138687 342.779358,194.995987 340.774200,186.693039 
	C338.482025,177.201767 334.810333,167.783813 336.024658,157.665390 
	C336.103668,157.007172 336.162354,156.346512 336.477173,155.364594 
z"/>
<path fill="#F2ABD0" opacity="1.000000" stroke="none" 
	d="
M407.480286,130.660889 
	C405.418518,126.073036 404.235596,120.815231 401.662811,116.360077 
	C396.676544,107.725693 386.450439,106.497185 376.589661,110.720222 
	C371.933441,112.714333 367.835052,116.010994 363.029694,118.999992 
	C362.449280,118.004593 361.646576,117.005386 361.241913,115.864937 
	C359.895966,112.071892 358.199219,109.070503 353.447815,108.681618 
	C348.199310,108.252045 344.455688,110.101776 342.945038,114.993813 
	C340.764008,122.056908 339.160156,129.298233 337.003601,136.710480 
	C334.696350,126.409203 337.294342,117.056274 344.535645,109.225533 
	C350.577179,102.692238 359.640717,106.066940 362.897217,113.798218 
	C363.130035,114.350922 363.276764,114.939903 363.445374,115.456451 
	C368.589447,112.810219 373.469727,110.208160 378.429291,107.767159 
	C389.219177,102.456604 401.446747,108.909569 405.540100,117.967499 
	C407.213348,121.670105 407.055786,126.200058 407.480286,130.660889 
z"/>
<path fill="#FBE8F2" opacity="1.000000" stroke="none" 
	d="
M369.120361,161.124878 
	C367.058502,162.633072 365.259125,163.897263 362.775848,165.641937 
	C362.506317,163.470810 362.018707,162.293182 362.293549,161.334076 
	C365.207703,151.166107 368.028992,140.902863 375.099213,132.628036 
	C377.531281,129.781570 380.905151,125.713142 384.478577,128.749557 
	C386.422852,130.401627 386.494324,136.072052 385.361481,139.184158 
	C382.214569,147.828781 376.787811,155.178040 369.120361,161.124878 
z"/>
<path fill="#FBE7F1" opacity="1.000000" stroke="none" 
	d="
M544.124695,164.282867 
	C543.226318,168.681625 542.601624,172.743378 541.226868,176.533005 
	C540.792175,177.731232 538.320862,178.867889 536.840271,178.797546 
	C535.632080,178.740158 533.800964,177.023026 533.472900,175.730408 
	C531.929871,169.650604 531.839539,163.519165 535.210938,157.917465 
	C535.955688,156.680038 537.657288,155.224594 538.853271,155.279816 
	C540.009583,155.333191 541.387024,157.033020 542.115479,158.321625 
	C543.064453,160.000351 543.469238,161.986664 544.124695,164.282867 
z"/>
<path fill="#FBE4F0" opacity="1.000000" stroke="none" 
	d="
M481.181152,161.226807 
	C483.192841,156.700699 484.722015,152.352127 487.095917,148.527924 
	C488.718018,145.914825 491.162781,146.759933 492.515778,149.386581 
	C496.112122,156.368454 493.474274,171.197586 487.702240,176.934326 
	C484.689636,179.928497 482.783356,179.780792 481.901764,175.617233 
	C480.944733,171.097229 481.284424,166.302658 481.181152,161.226807 
z"/>
<path fill="#FBE5F0" opacity="1.000000" stroke="none" 
	d="
M778.920166,149.952667 
	C783.418762,145.874527 784.886353,146.179703 786.908569,151.268860 
	C789.705688,158.308228 786.571228,172.197876 781.032715,177.306610 
	C778.096680,180.014816 775.689270,179.327209 774.726807,175.087097 
	C772.740234,166.335480 774.078735,158.003769 778.920166,149.952667 
z"/>
</svg>