<?xml version="1.0" standalone="no"?>
<!DOCTYPE svg PUBLIC "-//W3C//DTD SVG 20010904//EN"
 "http://www.w3.org/TR/2001/REC-SVG-20010904/DTD/svg10.dtd">
<svg version="1.0" xmlns="http://www.w3.org/2000/svg"
 width="243.000000pt" height="842.000000pt" viewBox="0 0 243.000000 842.000000"
 preserveAspectRatio="xMidYMid meet">

<g transform="translate(0.000000,842.000000) scale(0.100000,-0.100000)"
fill="#000000" stroke="none">
<path d="M828 7653 c7 -3 16 -2 19 1 4 3 -2 6 -13 5 -11 0 -14 -3 -6 -6z"/>
<path d="M938 7653 c12 -2 30 -2 40 0 9 3 -1 5 -23 4 -22 0 -30 -2 -17 -4z"/>
<path d="M1007 7488 c1 -95 4 -341 6 -546 3 -205 7 -376 10 -379 3 -3 6 98 7
224 1 211 6 414 14 673 2 58 8 126 13 153 l10 47 -31 0 -32 0 3 -172z"/>
<path d="M1406 7614 c-3 -25 -3 -51 1 -57 4 -7 -15 -8 -58 -5 -68 5 -89 2 -89
-13 0 -5 31 -9 68 -9 l68 0 -1 -67 c0 -56 -3 -69 -18 -75 -19 -8 -14 -28 7
-28 8 0 11 -16 10 -50 -1 -31 3 -50 10 -50 6 0 5 -4 -3 -9 -7 -5 -10 -14 -7
-20 5 -8 -13 -11 -59 -11 -49 0 -66 -3 -63 -12 3 -8 28 -14 64 -16 l59 -3 -2
-65 c-1 -51 -6 -69 -20 -79 -17 -13 -17 -14 2 -22 17 -7 20 -17 20 -76 l0 -67
-62 0 c-36 0 -63 -4 -63 -10 0 -6 28 -10 65 -10 55 0 63 -2 58 -16 -3 -9 0
-20 8 -25 10 -6 10 -9 2 -9 -25 0 -13 -19 15 -23 l27 -4 -28 -2 c-16 0 -27 -6
-26 -13 4 -34 -2 -58 -16 -58 -8 0 -15 -4 -15 -10 0 -5 8 -10 18 -10 15 0 18
-8 16 -50 -2 -45 0 -50 19 -51 l22 0 -22 -9 c-13 -5 -23 -14 -23 -20 0 -6 -25
-10 -60 -10 -47 0 -60 -3 -60 -15 0 -12 14 -15 65 -15 51 0 63 -3 59 -14 -3
-8 2 -16 13 -19 17 -4 17 -5 0 -6 -15 -1 -17 -9 -16 -43 2 -24 7 -46 13 -50 6
-4 1 -8 -11 -8 -29 0 -40 -20 -15 -27 12 -3 18 -11 16 -18 -3 -7 3 -15 13 -18
13 -3 14 -5 2 -6 -11 -1 -15 -13 -15 -45 -1 -41 2 -45 25 -49 14 -2 -13 -5
-61 -6 -101 -1 -119 -19 -25 -23 34 -2 62 -7 62 -13 0 -5 4 -16 8 -22 5 -8 4
-13 -2 -13 -18 0 -12 -18 7 -23 16 -4 16 -5 0 -6 -19 -1 -25 -21 -7 -21 8 0 8
-4 0 -14 -10 -11 -8 -17 6 -25 15 -9 13 -10 -14 -11 -18 0 -33 -4 -33 -10 0
-5 15 -10 33 -10 22 0 28 -3 18 -9 -8 -5 -15 -21 -17 -34 -2 -20 3 -27 19 -30
22 -4 22 -4 0 -6 -27 -1 -31 -21 -5 -21 16 -1 16 -1 -1 -11 -12 -7 -15 -14 -8
-22 7 -9 -7 -12 -57 -12 -43 0 -67 -4 -69 -12 -4 -10 18 -13 84 -14 48 -1 76
-4 61 -6 -34 -5 -37 -20 -5 -26 l22 -4 -22 -2 c-26 -1 -29 -11 -11 -29 9 -9 9
-12 0 -12 -24 0 -11 -19 16 -23 l27 -4 -27 -2 c-27 -1 -40 -20 -15 -22 6 -1 2
-4 -11 -7 -33 -10 -28 -26 10 -33 22 -4 26 -7 11 -8 -13 0 -23 -5 -23 -11 0
-5 10 -10 23 -11 21 0 21 -1 -3 -11 -23 -9 -24 -11 -6 -17 17 -7 18 -8 3 -14
-24 -9 -21 -25 6 -30 l22 -4 -22 -2 c-32 -2 -29 -19 5 -24 15 -2 -10 -5 -55
-6 l-81 -1 11 24 c11 23 13 24 29 9 22 -20 33 -11 19 15 -24 45 -113 53 -126
11 -5 -16 1 -29 26 -51 32 -29 52 -35 136 -37 15 -1 21 -6 17 -15 -4 -11 4
-16 28 -19 l33 -4 -32 -1 c-40 -2 -44 -19 -5 -25 l27 -4 -27 -2 c-23 -1 -27
-5 -26 -30 1 -24 6 -31 27 -34 16 -3 10 -5 -16 -6 -24 0 -43 -5 -43 -11 0 -5
7 -10 15 -10 14 0 20 -23 16 -57 -1 -7 15 -13 36 -16 l38 -4 -39 -1 c-26 -1
-37 -6 -33 -14 2 -7 1 -23 -4 -35 -7 -20 -15 -23 -69 -23 -33 0 -60 -4 -60
-10 0 -6 42 -11 103 -12 56 -1 86 -3 66 -5 -32 -4 -36 -7 -37 -33 0 -24 4 -30
26 -33 l27 -4 -27 -2 c-31 -1 -38 -17 -10 -24 15 -4 15 -5 -2 -6 -11 -1 -16
-6 -13 -15 3 -8 -2 -16 -14 -19 -34 -9 -20 -27 24 -28 29 -2 34 -3 15 -6 -28
-4 -40 -23 -15 -23 8 0 9 -2 1 -8 -7 -4 -12 -19 -12 -34 0 -24 5 -27 37 -31
l36 -4 -37 -1 c-26 -1 -38 -7 -38 -17 0 -10 -16 -15 -62 -17 -82 -4 -77 -22 6
-26 51 -2 64 -6 60 -17 -4 -9 4 -15 28 -18 l33 -4 -31 -1 c-30 -2 -31 -4 -31
-46 l0 -45 41 -4 c34 -3 31 -4 -16 -5 -32 -1 -58 -6 -58 -12 0 -5 7 -10 15
-10 14 0 20 -23 16 -57 -1 -6 13 -14 31 -16 l33 -4 -31 -1 c-28 -2 -32 -5 -31
-29 1 -16 6 -31 12 -35 5 -4 -25 -8 -67 -8 -119 0 -96 -20 25 -22 56 -1 86 -3
66 -5 -32 -4 -36 -7 -36 -33 0 -25 5 -30 31 -33 l31 -4 -32 -1 c-30 -2 -49
-22 -20 -22 9 0 8 -3 -2 -9 -7 -5 -11 -13 -7 -19 3 -5 -4 -12 -15 -15 -33 -9
-12 -27 34 -29 37 -1 38 -2 10 -5 -36 -5 -44 -19 -15 -26 14 -4 14 -5 1 -6
-25 -2 -21 -59 5 -64 20 -4 20 -4 -1 -6 -13 0 -23 -5 -23 -11 0 -5 10 -11 23
-12 12 -1 -15 -4 -61 -7 -45 -3 -82 -10 -82 -16 0 -5 29 -11 64 -13 50 -2 64
-6 60 -17 -4 -9 4 -15 23 -18 l28 -4 -27 -2 c-31 -1 -38 -17 -10 -24 14 -4 14
-5 1 -6 -10 -1 -16 -11 -16 -30 0 -25 5 -31 26 -34 16 -3 10 -5 -16 -6 -50 -1
-58 -20 -10 -22 17 -1 25 -3 16 -6 -25 -6 -21 -61 5 -66 20 -4 20 -4 -1 -6
-13 0 -23 -5 -23 -10 0 -5 10 -12 23 -14 22 -4 22 -4 -2 -6 -16 -1 -21 -5 -17
-16 4 -11 -2 -15 -22 -16 -15 -1 -36 -3 -47 -4 -11 -1 -30 -2 -43 -3 -13 -1
-20 -6 -17 -12 3 -5 41 -11 83 -11 42 -1 69 -3 60 -6 -25 -6 -22 -21 5 -26 22
-4 22 -4 0 -6 -17 -1 -21 -7 -21 -30 1 -24 6 -31 27 -34 l26 -4 -27 -2 c-39
-2 -35 -19 5 -24 24 -3 21 -4 -15 -5 -35 -2 -48 -6 -48 -17 0 -8 9 -15 20 -15
13 0 18 -5 14 -14 -4 -11 4 -16 33 -19 l38 -4 -37 -1 c-39 -2 -51 -17 -20 -25
14 -4 14 -5 1 -6 -10 -1 -16 -11 -16 -30 0 -26 5 -31 31 -34 17 -2 -13 -5 -66
-5 -127 -2 -131 -21 -5 -23 50 -1 80 -4 66 -6 -21 -3 -26 -10 -26 -33 0 -23 5
-30 26 -33 l26 -4 -27 -2 c-34 -1 -37 -18 -5 -24 22 -4 22 -4 -2 -6 -15 -1
-21 -6 -18 -15 3 -8 -2 -16 -14 -19 -33 -9 -21 -27 19 -28 23 -1 28 -3 15 -6
-32 -6 -29 -21 5 -26 l27 -4 -26 -2 c-21 -1 -26 -6 -26 -30 0 -25 5 -31 26
-34 l26 -4 -27 -2 c-31 -1 -39 -20 -10 -23 9 -1 -18 -4 -61 -7 -42 -3 -77 -10
-77 -16 0 -11 3 -11 73 -13 33 -2 47 -6 47 -16 0 -9 13 -16 33 -19 l32 -4 -32
-1 c-18 -1 -33 -6 -33 -11 0 -6 15 -12 33 -14 l32 -4 -31 -1 c-27 -2 -31 -6
-32 -31 0 -23 4 -31 21 -34 13 -3 6 -5 -15 -6 -52 -2 -48 -21 5 -22 29 -2 34
-3 15 -6 -27 -4 -40 -23 -17 -23 8 0 7 -5 -2 -16 -10 -13 -10 -17 2 -25 10 -6
10 -9 2 -9 -19 0 -16 -18 5 -23 16 -4 16 -5 0 -6 -20 -1 -25 -20 -5 -23 6 -1
-22 -4 -63 -7 -41 -3 -75 -10 -75 -16 0 -5 30 -11 67 -13 52 -2 66 -6 62 -17
-4 -8 3 -15 18 -18 l23 -4 -22 -2 c-27 -1 -31 -21 -5 -21 16 -1 16 -1 0 -11
-21 -12 -24 -55 -5 -62 6 -3 -3 -6 -20 -6 -35 -1 -47 -21 -13 -21 20 0 22 -9
22 -90 0 -49 0 -50 -51 -50 -54 0 -81 -7 -81 -21 0 -5 30 -9 68 -9 l67 0 -3
-70 c-3 -52 -7 -70 -18 -70 -17 0 -19 -17 -2 -22 12 -4 19 -28 18 -68 -1 -67
-3 -70 -36 -70 -45 0 -94 -11 -94 -21 0 -5 33 -9 73 -9 42 0 67 -4 59 -9 -10
-6 -12 -23 -6 -70 6 -53 4 -61 -10 -61 -9 0 -16 -7 -16 -15 0 -8 6 -15 13 -15
8 0 12 -16 11 -48 -1 -83 1 -79 -64 -87 -77 -9 -78 -25 -2 -25 l59 0 -1 -70
c-1 -38 -4 -70 -7 -70 -3 0 -4 -35 -1 -79 l4 -78 -32 -7 c-18 -3 -43 -6 -56
-6 -13 0 -24 -4 -24 -10 0 -5 24 -10 53 -10 l53 0 -4 -62 c-2 -35 -5 -85 -6
-113 -5 -82 -5 -82 -15 -66 -8 12 -12 12 -25 2 -9 -8 -32 -12 -56 -9 -38 3
-51 -5 -44 -27 2 -6 30 -9 64 -7 39 3 60 0 60 -7 0 -6 -10 -12 -22 -12 -45 -2
-51 -4 -55 -16 -3 -9 8 -13 36 -13 23 0 41 -4 41 -9 0 -5 -14 -8 -31 -7 -22 1
-35 -5 -43 -19 -6 -11 -12 -22 -13 -24 -2 -2 -12 4 -24 15 -21 19 -21 19 -18
-1 2 -10 19 -29 38 -42 30 -21 36 -21 66 -9 l33 14 -3 -31 c-5 -51 -15 -75
-36 -80 -11 -3 -19 -9 -18 -14 1 -4 1 -16 0 -26 -1 -16 -3 -16 -30 4 -36 26
-51 18 -51 -26 0 -24 5 -35 19 -40 27 -8 34 -42 10 -48 -52 -14 -21 -77 38
-77 33 0 47 -23 21 -33 -7 -3 37 -6 99 -6 l112 -1 3 263 c2 144 4 1467 5 2939
3 2534 2 2677 -15 2681 -14 4 -15 5 -1 6 15 1 16 43 14 469 -1 257 -3 491 -3
520 l-2 52 -49 0 -48 0 -7 -46z m31 -630 c-3 -3 -12 -4 -19 -1 -8 3 -5 6 6 6
11 1 17 -2 13 -5z m60 -100 c-3 -3 -12 -4 -19 -1 -8 3 -5 6 6 6 11 1 17 -2 13
-5z m-222 -1293 c3 -5 1 -13 -5 -16 -15 -9 -43 3 -35 15 8 13 32 13 40 1z
m152 -247 c-3 -3 -12 -4 -19 -1 -8 3 -5 6 6 6 11 1 17 -2 13 -5z m26 -941 c-7
-2 -19 -2 -25 0 -7 3 -2 5 12 5 14 0 19 -2 13 -5z m-133 -3273 c0 -5 -7 -10
-15 -10 -8 0 -15 5 -15 10 0 6 7 10 15 10 8 0 15 -4 15 -10z m-40 -231 c0 -5
-4 -9 -10 -9 -5 0 -10 7 -10 16 0 8 5 12 10 9 6 -3 10 -10 10 -16z"/>
<path d="M657 7554 c-17 -17 -4 -24 44 -24 36 0 49 4 47 13 -5 13 -79 22 -91
11z"/>
<path d="M1240 7511 c0 -5 8 -12 18 -14 16 -4 16 -5 0 -6 -10 0 -18 -5 -18
-10 0 -5 8 -12 18 -14 15 -4 15 -5 0 -6 -21 -1 -20 -41 1 -41 11 0 10 -4 -5
-15 -19 -14 -19 -14 0 -15 20 0 20 0 0 -15 -18 -14 -17 -14 13 -15 l32 0 0 80
0 80 -29 0 c-17 0 -30 -4 -30 -9z"/>
<path d="M650 7491 c0 -11 29 -18 53 -13 30 6 18 22 -18 22 -19 0 -35 -4 -35
-9z"/>
<path d="M650 7434 c0 -12 12 -15 68 -13 76 3 102 8 102 20 0 5 -38 9 -85 9
-70 0 -85 -3 -85 -16z"/>
<path d="M668 7393 c-31 -8 -19 -23 17 -23 36 0 47 13 19 24 -9 3 -16 5 -17 5
-1 -1 -10 -3 -19 -6z"/>
<path d="M650 7330 c0 -5 23 -10 50 -10 28 0 50 5 50 10 0 6 -22 10 -50 10
-27 0 -50 -4 -50 -10z"/>
<path d="M1325 7290 c-5 -8 -23 -11 -51 -7 -38 4 -44 2 -44 -14 0 -17 8 -19
60 -19 61 0 71 8 51 39 -7 10 -10 10 -16 1z"/>
<path d="M652 7278 c5 -15 57 -18 61 -3 1 6 -13 11 -32 13 -24 3 -32 0 -29
-10z"/>
<path d="M650 7220 c0 -6 38 -10 94 -10 53 0 98 4 101 10 4 6 -30 10 -94 10
-61 0 -101 -4 -101 -10z"/>
<path d="M650 7170 c0 -5 16 -10 35 -10 19 0 35 5 35 10 0 6 -16 10 -35 10
-19 0 -35 -4 -35 -10z"/>
<path d="M660 7121 c-13 -9 -13 -11 0 -16 22 -8 80 -1 83 10 3 13 -64 18 -83
6z"/>
<path d="M673 7072 c-34 -5 -28 -22 7 -22 17 0 30 4 30 9 0 14 -11 18 -37 13z"/>
<path d="M650 7010 c0 -6 33 -10 80 -10 47 0 80 4 80 10 0 6 -33 10 -80 10
-47 0 -80 -4 -80 -10z"/>
<path d="M665 6960 c-18 -7 -18 -9 -3 -15 22 -9 54 -3 51 10 -3 13 -24 16 -48
5z"/>
<path d="M1222 6933 c2 -27 8 -39 21 -41 16 -3 18 0 12 19 l-7 22 32 -23 c36
-26 63 -19 68 17 4 25 -24 51 -40 35 -12 -12 -1 -35 13 -27 5 4 9 1 9 -4 0
-17 -14 -13 -54 14 -50 34 -58 32 -54 -12z"/>
<path d="M650 6900 c0 -5 20 -10 45 -10 25 0 45 5 45 10 0 6 -20 10 -45 10
-25 0 -45 -4 -45 -10z"/>
<path d="M650 6850 c0 -5 14 -10 30 -10 17 0 30 5 30 10 0 6 -13 10 -30 10
-16 0 -30 -4 -30 -10z"/>
<path d="M660 6800 c-10 -7 34 -10 133 -10 91 0 147 4 147 10 0 13 -260 13
-280 0z"/>
<path d="M655 6740 c3 -5 17 -10 31 -10 13 0 24 5 24 10 0 6 -14 10 -31 10
-17 0 -28 -4 -24 -10z"/>
<path d="M777 6723 c-11 -11 -8 -58 5 -71 7 -7 23 -12 37 -12 23 0 23 1 8 18
-33 36 -19 42 43 20 44 -16 63 -19 71 -11 18 18 1 33 -35 33 -19 0 -53 7 -76
15 -50 17 -45 17 -53 8z"/>
<path d="M650 6690 c0 -5 20 -10 45 -10 25 0 45 5 45 10 0 6 -20 10 -45 10
-25 0 -45 -4 -45 -10z"/>
<path d="M655 6640 c-4 -6 7 -10 24 -10 17 0 31 5 31 10 0 6 -11 10 -24 10
-14 0 -28 -4 -31 -10z"/>
<path d="M1232 6628 c-16 -16 -15 -45 1 -55 17 -12 90 -12 105 0 28 22 2 71
-28 52 -8 -5 -7 -12 2 -23 12 -15 11 -16 -4 -3 -15 11 -21 11 -33 1 -12 -10
-19 -10 -27 -2 -9 9 -8 12 6 12 10 0 16 5 14 12 -6 17 -22 20 -36 6z"/>
<path d="M650 6580 c0 -12 148 -12 156 1 3 5 -30 9 -75 9 -47 0 -81 -4 -81
-10z"/>
<path d="M650 6530 c0 -5 14 -10 30 -10 17 0 30 5 30 10 0 6 -13 10 -30 10
-16 0 -30 -4 -30 -10z"/>
<path d="M1010 6516 c0 -9 5 -16 10 -16 6 0 10 4 10 9 0 6 -4 13 -10 16 -5 3
-10 -1 -10 -9z"/>
<path d="M650 6480 c0 -5 20 -10 45 -10 25 0 45 5 45 10 0 6 -20 10 -45 10
-25 0 -45 -4 -45 -10z"/>
<path d="M1021 6424 c0 -11 3 -14 6 -6 3 7 2 16 -1 19 -3 4 -6 -2 -5 -13z"/>
<path d="M655 6420 c3 -5 15 -10 25 -10 10 0 22 5 25 10 4 6 -7 10 -25 10 -18
0 -29 -4 -25 -10z"/>
<path d="M1021 6384 c0 -11 3 -14 6 -6 3 7 2 16 -1 19 -3 4 -6 -2 -5 -13z"/>
<path d="M650 6370 c0 -6 38 -10 95 -10 57 0 95 4 95 10 0 6 -38 10 -95 10
-57 0 -95 -4 -95 -10z"/>
<path d="M1017 6243 c-3 -60 -2 -148 2 -198 7 -77 8 -62 9 108 1 108 0 197 -2
197 -2 0 -6 -48 -9 -107z"/>
<path d="M650 6320 c0 -5 14 -10 30 -10 17 0 30 5 30 10 0 6 -13 10 -30 10
-16 0 -30 -4 -30 -10z"/>
<path d="M1238 6285 c-30 -40 -23 -46 45 -43 34 2 62 8 61 13 -1 9 -72 55 -84
55 -3 -1 -13 -11 -22 -25z"/>
<path d="M668 6273 c-33 -8 -19 -23 21 -23 45 0 62 15 28 24 -12 3 -24 5 -27
5 -3 -1 -13 -3 -22 -6z"/>
<path d="M650 6210 c0 -5 14 -10 30 -10 17 0 30 5 30 10 0 6 -13 10 -30 10
-16 0 -30 -4 -30 -10z"/>
<path d="M650 6160 c0 -6 34 -10 81 -10 51 0 78 4 74 10 -3 6 -40 10 -81 10
-43 0 -74 -4 -74 -10z"/>
<path d="M650 6100 c0 -5 11 -10 24 -10 14 0 28 5 31 10 4 6 -7 10 -24 10 -17
0 -31 -4 -31 -10z"/>
<path d="M650 6050 c0 -5 20 -10 45 -10 25 0 45 5 45 10 0 6 -20 10 -45 10
-25 0 -45 -4 -45 -10z"/>
<path d="M650 6000 c0 -5 14 -10 30 -10 17 0 30 5 30 10 0 6 -13 10 -30 10
-16 0 -30 -4 -30 -10z"/>
<path d="M1225 5960 c-12 -19 4 -58 26 -65 22 -7 49 10 49 31 0 21 17 17 23
-6 8 -31 27 -24 27 10 0 17 -3 30 -7 31 -5 0 -19 2 -31 5 -18 3 -25 -1 -29
-16 -3 -13 -13 -20 -27 -19 -17 1 -18 2 -3 6 10 3 16 10 14 16 -5 16 -34 21
-42 7z"/>
<path d="M675 5949 c-16 -4 39 -7 124 -8 85 0 151 2 147 7 -9 9 -229 10 -271
1z"/>
<path d="M1024 5755 c0 -110 2 -156 3 -103 2 53 2 143 0 200 -1 57 -3 13 -3
-97z"/>
<path d="M858 5918 c-9 -7 -18 -24 -20 -38 l-3 -25 -29 28 c-35 35 -45 28 -17
-12 44 -62 152 -61 159 1 5 44 -54 74 -90 46z m70 -39 c4 -20 -37 -33 -55 -17
-10 8 -11 14 -1 25 15 18 52 13 56 -8z"/>
<path d="M650 5890 c0 -5 14 -10 30 -10 17 0 30 5 30 10 0 6 -13 10 -30 10
-16 0 -30 -4 -30 -10z"/>
<path d="M650 5840 c0 -5 20 -10 45 -10 25 0 45 5 45 10 0 6 -20 10 -45 10
-25 0 -45 -4 -45 -10z"/>
<path d="M656 5780 c7 -7 19 -7 35 -1 23 9 22 10 -10 10 -24 1 -32 -2 -25 -9z"/>
<path d="M650 5730 c0 -6 33 -10 80 -10 47 0 80 4 80 10 0 6 -33 10 -80 10
-47 0 -80 -4 -80 -10z"/>
<path d="M650 5680 c0 -5 14 -10 30 -10 17 0 30 5 30 10 0 6 -13 10 -30 10
-16 0 -30 -4 -30 -10z"/>
<path d="M655 5620 c8 -13 55 -13 75 0 11 7 2 10 -33 10 -30 0 -46 -4 -42 -10z"/>
<path d="M650 5570 c0 -5 14 -10 30 -10 17 0 30 5 30 10 0 6 -13 10 -30 10
-16 0 -30 -4 -30 -10z"/>
<path d="M650 5520 c0 -6 38 -10 95 -10 57 0 95 4 95 10 0 6 -38 10 -95 10
-57 0 -95 -4 -95 -10z"/>
<path d="M1023 5495 c0 -22 2 -30 4 -17 2 12 2 30 0 40 -3 9 -5 -1 -4 -23z"/>
<path d="M650 5460 c0 -5 14 -10 30 -10 17 0 30 5 30 10 0 6 -13 10 -30 10
-16 0 -30 -4 -30 -10z"/>
<path d="M1021 5408 c0 -31 3 -37 8 -24 7 18 3 66 -5 66 -2 0 -4 -19 -3 -42z"/>
<path d="M650 5410 c0 -5 20 -10 45 -10 25 0 45 5 45 10 0 6 -20 10 -45 10
-25 0 -45 -4 -45 -10z"/>
<path d="M650 5360 c0 -5 14 -10 30 -10 17 0 30 5 30 10 0 6 -13 10 -30 10
-16 0 -30 -4 -30 -10z"/>
<path d="M1016 5228 c2 -73 4 -245 4 -382 0 -137 2 -247 5 -245 2 3 5 90 5
194 3 386 0 565 -8 565 -5 0 -7 -60 -6 -132z"/>
<path d="M655 5301 c6 -10 143 -7 153 3 3 3 -32 6 -77 6 -49 0 -80 -4 -76 -9z"/>
<path d="M1300 5282 c0 -4 6 -14 13 -21 10 -12 8 -13 -8 -6 -11 4 -35 10 -54
13 -50 7 -35 -18 20 -33 24 -7 51 -14 59 -16 11 -3 16 6 18 34 3 34 1 37 -22
37 -14 0 -26 -4 -26 -8z"/>
<path d="M650 5250 c0 -5 14 -10 30 -10 17 0 30 5 30 10 0 6 -13 10 -30 10
-16 0 -30 -4 -30 -10z"/>
<path d="M650 5200 c0 -5 20 -10 45 -10 25 0 45 5 45 10 0 6 -20 10 -45 10
-25 0 -45 -4 -45 -10z"/>
<path d="M660 5140 c20 -13 50 -13 50 0 0 6 -15 10 -32 10 -25 0 -29 -3 -18
-10z"/>
<path d="M650 5090 c0 -6 55 -10 145 -10 90 0 145 4 145 10 0 6 -55 10 -145
10 -90 0 -145 -4 -145 -10z"/>
<path d="M650 5040 c0 -5 14 -10 30 -10 17 0 30 5 30 10 0 6 -13 10 -30 10
-16 0 -30 -4 -30 -10z"/>
<path d="M780 5002 l0 -42 45 0 c40 0 45 2 42 23 -2 18 3 22 27 22 16 0 31 -5
33 -11 2 -7 -4 -11 -13 -10 -22 1 -30 -22 -10 -30 37 -14 61 40 30 70 -31 32
-94 15 -94 -26 0 -10 -7 -18 -16 -18 -10 0 -14 6 -11 14 3 8 -3 22 -14 32 -18
17 -19 16 -19 -24z"/>
<path d="M650 4989 c0 -5 21 -9 47 -9 25 0 44 3 41 6 -10 10 -88 13 -88 3z"/>
<path d="M1231 4947 c-15 -15 -14 -42 2 -55 10 -8 70 -10 110 -3 11 2 9 49 -3
56 -19 12 -98 13 -109 2z m34 -27 c-3 -5 -10 -10 -16 -10 -5 0 -9 5 -9 10 0 6
7 10 16 10 8 0 12 -4 9 -10z m65 0 c0 -5 -5 -10 -11 -10 -5 0 -7 5 -4 10 3 6
8 10 11 10 2 0 4 -4 4 -10z"/>
<path d="M650 4930 c0 -5 14 -10 30 -10 17 0 30 5 30 10 0 6 -13 10 -30 10
-16 0 -30 -4 -30 -10z"/>
<path d="M650 4880 c0 -6 33 -10 80 -10 47 0 80 4 80 10 0 6 -33 10 -80 10
-47 0 -80 -4 -80 -10z"/>
<path d="M655 4830 c-4 -6 7 -10 27 -9 27 0 30 2 13 9 -27 12 -33 12 -40 0z"/>
<path d="M650 4770 c0 -5 20 -10 45 -10 25 0 45 5 45 10 0 6 -20 10 -45 10
-25 0 -45 -4 -45 -10z"/>
<path d="M650 4720 c0 -5 14 -10 30 -10 17 0 30 5 30 10 0 6 -13 10 -30 10
-16 0 -30 -4 -30 -10z"/>
<path d="M650 4670 c0 -6 44 -10 102 -10 56 0 99 3 95 6 -10 11 -197 14 -197
4z"/>
<path d="M1272 4618 c-7 -7 -12 -19 -12 -27 0 -11 -4 -10 -20 4 -33 30 -35 8
-2 -25 32 -31 60 -37 93 -20 37 20 18 80 -26 80 -12 0 -26 -5 -33 -12z m52
-27 c3 -5 0 -11 -8 -14 -15 -6 -26 1 -26 15 0 11 27 10 34 -1z"/>
<path d="M650 4610 c0 -5 14 -10 30 -10 17 0 30 5 30 10 0 6 -13 10 -30 10
-16 0 -30 -4 -30 -10z"/>
<path d="M650 4560 c0 -5 20 -10 45 -10 25 0 45 5 45 10 0 6 -20 10 -45 10
-25 0 -45 -4 -45 -10z"/>
<path d="M655 4510 c-4 -6 7 -10 24 -10 17 0 31 5 31 10 0 6 -11 10 -24 10
-14 0 -28 -4 -31 -10z"/>
<path d="M655 4450 c3 -5 37 -10 75 -10 38 0 72 5 75 10 4 6 -23 10 -75 10
-52 0 -79 -4 -75 -10z"/>
<path d="M650 4400 c0 -5 14 -10 30 -10 17 0 30 5 30 10 0 6 -13 10 -30 10
-16 0 -30 -4 -30 -10z"/>
<path d="M1021 4394 c0 -11 3 -14 6 -6 3 7 2 16 -1 19 -3 4 -6 -2 -5 -13z"/>
<path d="M650 4350 c0 -5 21 -10 46 -10 27 0 43 4 39 10 -3 6 -24 10 -46 10
-21 0 -39 -4 -39 -10z"/>
<path d="M655 4290 c3 -5 17 -10 31 -10 13 0 24 5 24 10 0 6 -14 10 -31 10
-17 0 -28 -4 -24 -10z"/>
<path d="M1022 4280 c0 -14 2 -19 5 -12 2 6 2 18 0 25 -3 6 -5 1 -5 -13z"/>
<path d="M1220 4231 c0 -17 4 -22 16 -17 9 3 38 6 66 6 41 0 49 3 46 17 -2 13
-16 16 -66 17 -59 1 -62 0 -62 -23z"/>
<path d="M650 4240 c0 -6 55 -10 145 -10 90 0 145 4 145 10 0 6 -55 10 -145
10 -90 0 -145 -4 -145 -10z"/>
<path d="M650 4190 c0 -5 14 -10 30 -10 17 0 30 5 30 10 0 6 -13 10 -30 10
-16 0 -30 -4 -30 -10z"/>
<path d="M838 4182 c-32 -2 -58 -7 -58 -11 0 -5 28 -22 63 -39 l62 -30 11 24
c8 19 13 21 22 12 9 -9 12 -5 12 18 0 34 5 33 -112 26z m62 -42 c0 -13 -20
-13 -40 0 -12 8 -9 10 13 10 15 0 27 -4 27 -10z"/>
<path d="M1234 4136 c-40 -30 29 -76 82 -56 54 21 36 70 -25 70 -21 0 -46 -6
-57 -14z m69 -23 c-7 -2 -21 -2 -30 0 -10 3 -4 5 12 5 17 0 24 -2 18 -5z"/>
<path d="M673 4130 c15 -5 39 -5 55 0 22 7 17 8 -28 8 -45 0 -50 -1 -27 -8z"/>
<path d="M1021 4084 c0 -11 3 -14 6 -6 3 7 2 16 -1 19 -3 4 -6 -2 -5 -13z"/>
<path d="M650 4080 c0 -5 13 -10 29 -10 17 0 33 5 36 10 4 6 -8 10 -29 10 -20
0 -36 -4 -36 -10z"/>
<path d="M650 4030 c0 -6 33 -10 80 -10 47 0 80 4 80 10 0 6 -33 10 -80 10
-47 0 -80 -4 -80 -10z"/>
<path d="M1022 4015 c0 -16 2 -22 5 -12 2 9 2 23 0 30 -3 6 -5 -1 -5 -18z"/>
<path d="M655 3980 c-4 -6 7 -10 24 -10 17 0 31 5 31 10 0 6 -11 10 -24 10
-14 0 -28 -4 -31 -10z"/>
<path d="M650 3920 c0 -5 20 -10 44 -10 25 0 48 5 51 10 4 6 -13 10 -44 10
-28 0 -51 -4 -51 -10z"/>
<path d="M1295 3919 c-16 -5 -40 -7 -52 -4 -19 4 -23 1 -23 -17 0 -22 3 -23
57 -20 64 4 77 11 67 35 -7 19 -7 19 -49 6z"/>
<path d="M650 3870 c0 -5 14 -10 30 -10 17 0 30 5 30 10 0 6 -13 10 -30 10
-16 0 -30 -4 -30 -10z"/>
<path d="M655 3820 c-4 -6 29 -10 92 -10 67 0 93 3 83 10 -20 13 -167 13 -175
0z"/>
<path d="M1320 3803 c0 -9 -17 -13 -50 -13 -44 0 -50 -2 -50 -21 0 -15 4 -19
16 -15 9 3 38 6 65 6 27 0 49 4 49 8 0 14 -29 48 -30 35z"/>
<path d="M1023 3730 c0 -30 2 -43 4 -27 2 15 2 39 0 55 -2 15 -4 2 -4 -28z"/>
<path d="M657 3759 c8 -8 19 -8 40 -1 28 10 28 10 -11 11 -29 1 -37 -2 -29
-10z"/>
<path d="M650 3710 c0 -5 20 -10 45 -10 25 0 45 5 45 10 0 6 -20 10 -45 10
-25 0 -45 -4 -45 -10z"/>
<path d="M655 3660 c-4 -6 8 -10 30 -10 22 0 34 4 30 10 -3 6 -17 10 -30 10
-13 0 -27 -4 -30 -10z"/>
<path d="M1024 3570 c0 -58 1 -81 3 -52 2 28 2 76 0 105 -2 28 -3 5 -3 -53z"/>
<path d="M665 3609 c-24 -9 -24 -9 45 -13 30 -1 66 1 80 5 24 7 24 7 -5 9 -16
1 -46 2 -65 4 -20 1 -45 -1 -55 -5z"/>
<path d="M1273 3593 c-43 -3 -53 -8 -53 -22 0 -15 8 -17 63 -13 34 2 63 5 65
7 5 4 -10 35 -17 33 -3 -1 -30 -3 -58 -5z"/>
<path d="M655 3550 c3 -5 17 -10 30 -10 13 0 27 5 30 10 4 6 -8 10 -30 10 -22
0 -34 -4 -30 -10z"/>
<path d="M650 3500 c0 -5 23 -10 51 -10 31 0 48 4 44 10 -3 6 -26 10 -51 10
-24 0 -44 -4 -44 -10z"/>
<path d="M1220 3450 c0 -34 3 -40 21 -40 16 0 19 4 13 22 l-6 21 27 -21 c38
-30 63 -28 71 4 7 28 -16 61 -35 50 -19 -12 -13 -39 7 -31 13 5 14 4 5 -6 -10
-10 -21 -6 -52 14 -22 15 -43 27 -46 27 -3 0 -5 -18 -5 -40z"/>
<path d="M655 3450 c-4 -6 8 -10 30 -10 22 0 34 4 30 10 -3 6 -17 10 -30 10
-13 0 -27 -4 -30 -10z"/>
<path d="M655 3390 c8 -12 282 -13 290 0 4 6 -48 10 -145 10 -93 0 -149 -4
-145 -10z"/>
<path d="M1024 3275 c0 -60 1 -84 3 -52 2 32 2 81 0 110 -2 29 -3 3 -3 -58z"/>
<path d="M655 3340 c3 -5 17 -10 31 -10 13 0 24 5 24 10 0 6 -14 10 -31 10
-17 0 -28 -4 -24 -10z"/>
<path d="M790 3315 c-18 -21 -4 -65 20 -65 11 0 20 7 20 15 0 8 -7 15 -15 15
-8 0 -15 5 -15 10 0 17 38 11 49 -7 9 -17 11 -17 24 1 7 10 22 17 32 15 23 -5
32 -27 9 -25 -22 1 -30 -22 -10 -30 23 -9 47 15 44 44 -4 36 -30 49 -68 35
-17 -6 -32 -7 -36 -2 -8 14 -40 11 -54 -6z"/>
<path d="M650 3290 c0 -5 23 -10 51 -10 31 0 48 4 44 10 -3 6 -26 10 -51 10
-24 0 -44 -4 -44 -10z"/>
<path d="M1320 3259 c0 -8 -17 -10 -50 -7 -46 5 -50 3 -50 -17 0 -20 4 -21 63
-17 34 2 63 5 64 6 1 1 0 12 -4 24 -6 23 -23 31 -23 11z"/>
<path d="M654 3239 c-3 -5 9 -9 25 -9 17 0 31 2 31 4 0 8 -51 13 -56 5z"/>
<path d="M655 3180 c3 -5 40 -10 81 -10 43 0 74 4 74 10 0 6 -34 10 -81 10
-51 0 -78 -4 -74 -10z"/>
<path d="M1227 3143 c-23 -23 8 -83 35 -67 7 4 27 7 44 6 25 -2 34 2 39 19 8
24 -16 56 -34 45 -17 -11 -13 -26 7 -27 11 0 12 -2 4 -6 -7 -3 -19 0 -26 7
-10 7 -16 8 -21 0 -3 -5 -14 -9 -23 -9 -15 1 -15 2 1 6 23 6 22 33 -1 33 -10
0 -22 -3 -25 -7z"/>
<path d="M655 3130 c3 -5 17 -10 30 -10 13 0 27 5 30 10 4 6 -8 10 -30 10 -22
0 -34 -4 -30 -10z"/>
<path d="M1024 3005 c0 -71 1 -99 3 -62 2 37 2 96 0 130 -2 34 -3 4 -3 -68z"/>
<path d="M655 3080 c-4 -6 13 -10 45 -10 32 0 49 4 45 10 -3 6 -24 10 -45 10
-21 0 -42 -4 -45 -10z"/>
<path d="M656 3032 c-8 -13 28 -22 45 -11 9 6 10 9 2 9 -6 0 -18 3 -26 6 -8 3
-18 1 -21 -4z"/>
<path d="M660 2970 c0 -6 36 -10 89 -10 50 0 93 5 96 10 4 6 -28 10 -89 10
-57 0 -96 -4 -96 -10z"/>
<path d="M1306 2929 c-10 -6 -33 -9 -52 -6 -29 5 -34 3 -34 -14 0 -17 7 -19
58 -19 66 0 72 3 65 31 -6 22 -11 23 -37 8z"/>
<path d="M650 2920 c0 -5 14 -10 30 -10 17 0 30 5 30 10 0 6 -13 10 -30 10
-16 0 -30 -4 -30 -10z"/>
<path d="M660 2870 c0 -5 18 -10 40 -10 22 0 40 5 40 10 0 6 -18 10 -40 10
-22 0 -40 -4 -40 -10z"/>
<path d="M1020 2500 c0 -200 3 -360 6 -357 8 8 8 707 0 714 -3 4 -6 -157 -6
-357z"/>
<path d="M660 2816 c0 -8 51 -13 56 -5 3 5 -9 9 -25 9 -17 0 -31 -2 -31 -4z"/>
<path d="M1240 2804 c0 -8 -4 -12 -10 -9 -6 3 -10 -4 -10 -18 0 -19 5 -24 23
-22 12 1 41 3 65 4 53 1 54 15 2 41 -47 24 -70 26 -70 4z"/>
<path d="M655 2760 c3 -5 40 -10 81 -10 43 0 74 4 74 10 0 6 -34 10 -81 10
-51 0 -78 -4 -74 -10z"/>
<path d="M650 2710 c0 -5 16 -10 36 -10 21 0 33 4 29 10 -3 6 -19 10 -36 10
-16 0 -29 -4 -29 -10z"/>
<path d="M655 2660 c-4 -6 13 -10 45 -10 32 0 49 4 45 10 -3 6 -24 10 -45 10
-21 0 -42 -4 -45 -10z"/>
<path d="M661 2611 c-12 -8 -9 -11 11 -16 29 -8 52 1 43 16 -8 12 -36 11 -54
0z"/>
<path d="M1320 2600 c0 -5 -22 -10 -50 -10 -43 0 -50 -3 -50 -20 0 -18 7 -20
59 -20 65 0 73 5 64 38 -5 22 -23 31 -23 12z"/>
<path d="M655 2550 c4 -6 63 -10 146 -10 86 0 139 4 139 10 0 6 -55 10 -146
10 -94 0 -143 -4 -139 -10z"/>
<path d="M660 2500 c0 -5 14 -10 31 -10 17 0 28 4 24 10 -3 6 -17 10 -31 10
-13 0 -24 -4 -24 -10z"/>
<path d="M792 2498 c-15 -15 -15 -51 0 -66 19 -19 50 -15 46 6 -2 10 -11 16
-22 14 -11 -2 -16 1 -13 10 7 20 44 11 93 -23 49 -34 58 -28 52 33 -2 25 -8
34 -25 36 -23 3 -31 -12 -13 -23 6 -3 10 -13 10 -21 0 -10 -12 -5 -42 16 -44
32 -67 37 -86 18z"/>
<path d="M1227 2483 c-12 -12 -7 -50 8 -63 20 -17 48 -9 61 18 11 23 12 23 17
3 9 -35 35 -26 34 12 -2 30 -5 32 -37 32 -28 0 -35 -4 -35 -19 0 -11 -5 -21
-11 -23 -7 -2 -10 6 -7 22 5 24 -13 35 -30 18z"/>
<path d="M656 2451 c-7 -11 36 -20 69 -13 37 7 20 22 -25 22 -21 0 -41 -4 -44
-9z"/>
<path d="M672 2402 c-12 -2 -20 -8 -17 -13 8 -12 52 -12 59 0 7 11 -13 18 -42
13z"/>
<path d="M655 2340 c3 -5 40 -10 81 -10 43 0 74 4 74 10 0 6 -34 10 -81 10
-51 0 -78 -4 -74 -10z"/>
<path d="M660 2290 c0 -5 14 -10 30 -10 17 0 30 5 30 10 0 6 -13 10 -30 10
-16 0 -30 -4 -30 -10z"/>
<path d="M1300 2269 c-13 -6 -38 -9 -55 -7 -24 2 -30 -1 -30 -17 0 -18 6 -20
65 -17 36 2 66 5 67 6 5 4 -10 46 -16 45 -3 0 -17 -5 -31 -10z"/>
<path d="M660 2241 c0 -13 17 -17 56 -13 19 2 31 8 28 13 -7 12 -84 12 -84 0z"/>
<path d="M657 2194 c-11 -12 3 -24 28 -24 13 0 26 4 29 9 10 15 -43 29 -57 15z"/>
<path d="M1228 2149 c-24 -13 -23 -56 1 -69 31 -16 49 -12 64 16 12 23 15 24
26 10 20 -24 32 -19 20 8 -18 39 -74 57 -111 35z m42 -28 c0 -14 -18 -23 -30
-16 -6 4 -8 11 -5 16 8 12 35 12 35 0z"/>
<path d="M655 2130 c3 -5 46 -10 96 -10 53 0 89 4 89 10 0 6 -39 10 -96 10
-61 0 -93 -4 -89 -10z"/>
<path d="M660 2080 c0 -5 14 -10 30 -10 17 0 30 5 30 10 0 6 -13 10 -30 10
-16 0 -30 -4 -30 -10z"/>
<path d="M660 2030 c0 -5 21 -10 46 -10 27 0 43 4 39 10 -3 6 -24 10 -46 10
-21 0 -39 -4 -39 -10z"/>
<path d="M660 1970 c0 -5 11 -10 24 -10 14 0 28 5 31 10 4 6 -7 10 -24 10 -17
0 -31 -4 -31 -10z"/>
<path d="M1300 1939 c-14 -6 -37 -9 -52 -6 -25 3 -38 -8 -38 -32 0 -6 130 -3
137 3 5 4 -10 46 -16 45 -3 0 -17 -5 -31 -10z"/>
<path d="M660 1920 c0 -6 32 -10 75 -10 43 0 75 4 75 10 0 6 -32 10 -75 10
-43 0 -75 -4 -75 -10z"/>
<path d="M660 1870 c0 -5 14 -10 30 -10 17 0 30 5 30 10 0 6 -13 10 -30 10
-16 0 -30 -4 -30 -10z"/>
<path d="M1023 1830 c0 -30 2 -43 4 -27 2 15 2 39 0 55 -2 15 -4 2 -4 -28z"/>
<path d="M1302 1833 c-10 -4 -10 -8 0 -21 11 -13 9 -14 -17 -7 -48 12 -60 11
-60 -5 0 -9 14 -17 35 -22 19 -4 47 -10 63 -14 26 -6 27 -4 27 29 0 23 -6 37
-16 41 -9 3 -16 6 -17 5 -1 0 -8 -3 -15 -6z"/>
<path d="M660 1820 c0 -5 21 -10 46 -10 27 0 43 4 39 10 -3 6 -24 10 -46 10
-21 0 -39 -4 -39 -10z"/>
<path d="M665 1760 c3 -5 15 -10 25 -10 10 0 22 5 25 10 4 6 -7 10 -25 10 -18
0 -29 -4 -25 -10z"/>
<path d="M660 1710 c0 -6 53 -10 140 -10 87 0 140 4 140 10 0 6 -53 10 -140
10 -87 0 -140 -4 -140 -10z"/>
<path d="M655 1660 c3 -5 17 -10 31 -10 13 0 24 5 24 10 0 6 -14 10 -31 10
-17 0 -28 -4 -24 -10z"/>
<path d="M937 1653 c-5 -9 -34 -13 -83 -13 -74 0 -75 -1 -68 -22 8 -30 16 -36
21 -20 3 8 25 12 63 12 38 0 60 -4 63 -12 8 -23 18 0 15 34 -2 21 -6 29 -11
21z"/>
<path d="M660 1610 c0 -5 21 -10 46 -10 27 0 43 4 39 10 -3 6 -24 10 -46 10
-21 0 -39 -4 -39 -10z"/>
<path d="M1268 1613 c-49 -3 -58 -7 -58 -23 0 -17 6 -18 68 -13 37 3 68 6 70
8 5 4 -10 35 -17 33 -3 -1 -32 -3 -63 -5z"/>
<path d="M655 1560 c-4 -6 8 -10 30 -10 22 0 34 4 30 10 -3 6 -17 10 -30 10
-13 0 -27 -4 -30 -10z"/>
<path d="M1023 1490 c0 -30 2 -43 4 -27 2 15 2 39 0 55 -2 15 -4 2 -4 -28z"/>
<path d="M660 1500 c0 -6 32 -10 75 -10 43 0 75 4 75 10 0 6 -32 10 -75 10
-43 0 -75 -4 -75 -10z"/>
<path d="M1226 1503 c-11 -11 -7 -50 7 -61 6 -6 33 -8 59 -5 36 4 49 10 54 25
3 11 1 25 -4 30 -12 12 -106 21 -116 11z m34 -28 c0 -8 -4 -15 -10 -15 -5 0
-10 7 -10 15 0 8 5 15 10 15 6 0 10 -7 10 -15z"/>
<path d="M655 1450 c3 -5 19 -10 36 -10 16 0 29 5 29 10 0 6 -16 10 -36 10
-21 0 -33 -4 -29 -10z"/>
<path d="M660 1400 c0 -5 21 -10 46 -10 27 0 43 4 39 10 -3 6 -24 10 -46 10
-21 0 -39 -4 -39 -10z"/>
<path d="M650 1350 c0 -5 16 -10 36 -10 21 0 33 4 29 10 -3 6 -19 10 -36 10
-16 0 -29 -4 -29 -10z"/>
<path d="M655 1301 c-9 -16 7 -19 98 -19 103 0 123 12 35 22 -85 8 -126 8
-133 -3z"/>
<path d="M662 1252 c-7 -2 -10 -8 -6 -13 7 -12 51 -12 58 0 6 10 -33 20 -52
13z"/>
<path d="M655 1190 c3 -5 26 -10 51 -10 24 0 44 5 44 10 0 6 -23 10 -51 10
-31 0 -48 -4 -44 -10z"/>
<path d="M660 1140 c0 -5 14 -10 30 -10 17 0 30 5 30 10 0 6 -13 10 -30 10
-16 0 -30 -4 -30 -10z"/>
<path d="M660 1090 c0 -6 32 -10 76 -10 47 0 73 4 69 10 -3 6 -37 10 -76 10
-39 0 -69 -4 -69 -10z"/>
<path d="M660 1037 c0 -9 10 -12 31 -9 22 3 27 7 18 13 -21 13 -49 11 -49 -4z"/>
<path d="M1013 880 c-2 -153 1 -163 36 -141 9 6 10 10 2 16 -7 4 -12 29 -11
58 0 29 -1 79 -4 112 -2 33 -5 70 -5 83 -1 12 -4 22 -8 22 -5 0 -9 -68 -10
-150z"/>
<path d="M660 980 c0 -5 18 -10 39 -10 22 0 43 5 46 10 4 6 -12 10 -39 10 -25
0 -46 -4 -46 -10z"/>
<path d="M660 930 c0 -5 14 -10 30 -10 17 0 30 5 30 10 0 6 -13 10 -30 10 -16
0 -30 -4 -30 -10z"/>
<path d="M660 881 c0 -10 265 -25 280 -16 6 4 8 11 5 16 -8 11 -285 12 -285 0z"/>
<path d="M1211 754 c0 -11 3 -14 6 -6 3 7 2 16 -1 19 -3 4 -6 -2 -5 -13z"/>
</g>
</svg>
