<?xml version="1.0" standalone="no"?>
<!DOCTYPE svg PUBLIC "-//W3C//DTD SVG 20010904//EN"
 "http://www.w3.org/TR/2001/REC-SVG-20010904/DTD/svg10.dtd">
<svg version="1.0" xmlns="http://www.w3.org/2000/svg"
 width="713.000000pt" height="842.000000pt" viewBox="0 0 713.000000 842.000000"
 preserveAspectRatio="xMidYMid meet">

<g transform="translate(0.000000,842.000000) scale(0.100000,-0.100000)"
fill="#000000" stroke="none">
<path d="M3490 6743 l-45 -5 50 -13 c28 -7 96 -18 152 -25 90 -11 108 -10 142
4 36 14 44 14 75 1 34 -14 36 -14 36 4 0 15 -10 20 -47 25 -70 8 -311 15 -363
9z"/>
<path d="M5487 6674 c-4 -4 -7 -14 -7 -22 0 -9 -7 -24 -17 -34 -9 -11 -11 -18
-5 -18 7 0 12 5 12 11 0 6 9 9 19 6 13 -3 21 1 24 14 5 20 -15 54 -26 43z"/>
<path d="M3525 6600 c-12 -6 13 -7 65 -3 47 3 87 7 89 9 9 8 -135 2 -154 -6z"/>
<path d="M4146 6543 c2 -80 28 -273 36 -273 10 0 10 -9 -2 130 -12 132 -19
180 -29 180 -4 0 -6 -17 -5 -37z"/>
<path d="M1538 6553 c-7 -10 -22 -23 -33 -29 -18 -10 -20 -24 -23 -125 -3
-103 9 -439 26 -725 6 -86 11 -114 25 -128 9 -10 17 -25 17 -34 0 -13 -2 -13
-15 4 -13 17 -14 -7 -10 -221 3 -132 11 -361 17 -510 l11 -270 36 -31 c20 -17
41 -32 46 -33 6 0 11 19 11 44 1 25 7 51 14 59 6 8 9 24 5 36 -5 14 -2 20 10
20 22 0 30 -27 16 -54 -22 -41 -13 -206 11 -206 7 0 8 14 4 38 -8 52 10 111
38 124 51 23 96 -38 96 -129 0 -72 -17 -98 -63 -98 -47 0 -43 -12 14 -45 42
-25 44 -29 51 -86 5 -32 12 -72 18 -88 5 -15 7 -32 4 -37 -8 -14 -40 -11 -54
5 -6 8 -24 16 -38 18 -24 3 -27 7 -27 38 0 24 5 35 14 35 24 0 23 21 -2 51
-13 16 -27 39 -31 51 -4 12 -16 25 -26 28 -11 4 -23 18 -26 33 -15 61 -99 205
-117 199 -22 -7 3 -327 29 -379 18 -34 18 -44 1 -29 -8 6 -16 9 -18 7 -2 -2
-3 -44 -2 -93 2 -48 4 -178 7 -288 4 -212 10 -266 34 -302 17 -27 5 -31 -14
-5 -11 14 -12 -27 -8 -248 3 -146 7 -443 9 -660 2 -217 7 -611 10 -875 l5
-480 98 -65 c53 -36 152 -107 220 -158 67 -51 128 -95 136 -98 7 -3 58 6 112
19 54 14 162 39 239 57 170 38 215 48 425 100 91 22 221 51 290 66 69 14 208
46 310 70 316 77 343 83 410 94 36 6 94 19 130 29 36 11 92 24 125 31 33 6 94
20 135 30 41 11 118 29 170 41 52 12 149 37 215 55 66 18 138 36 160 39 22 4
99 22 170 40 72 19 184 46 250 61 66 14 163 39 215 53 80 23 95 30 98 49 2 12
1 22 -2 22 -4 0 -193 -48 -422 -106 -229 -58 -422 -103 -429 -100 -18 6 -10
198 12 284 32 128 129 235 243 266 30 8 177 43 325 76 149 34 275 67 282 73 9
8 14 81 18 242 5 228 16 591 36 1295 6 201 12 498 14 660 2 162 7 324 10 360
3 36 1 79 -4 96 -5 17 -5 51 -1 75 6 34 14 604 10 807 0 36 -2 37 -30 20 -25
-16 -40 1 -40 47 0 27 -2 25 -25 -23 -20 -43 -30 -94 -34 -176 -1 -5 -4 -6 -8
-2 -4 3 -8 27 -10 53 -3 63 -9 75 -35 71 -16 -2 -24 -12 -29 -36 -10 -48 -24
-59 -39 -32 -9 16 -14 19 -20 10 -14 -22 8 -84 39 -110 24 -20 36 -48 66 -149
30 -104 36 -139 36 -225 1 -57 4 -92 9 -81 6 16 10 9 24 -37 21 -73 20 -89 -3
-60 -11 12 -26 22 -33 22 -13 0 -38 39 -38 59 0 7 -36 71 -93 166 -7 11 -27
39 -44 64 -18 24 -33 55 -33 69 0 21 -2 23 -16 11 -9 -8 -26 -34 -36 -59 -38
-86 -108 -285 -108 -306 0 -12 -6 -36 -14 -55 -9 -22 -11 -42 -5 -63 11 -38
12 -92 2 -82 -5 4 -13 22 -20 39 l-11 32 -1 -39 c-1 -33 -3 -37 -16 -26 -18
15 -13 71 9 105 9 14 16 34 16 45 0 11 7 32 16 45 9 14 14 31 11 39 -3 8 1 17
9 20 20 8 17 21 -8 34 l-23 11 23 0 c15 1 22 7 22 20 0 11 6 21 13 24 6 2 9 7
6 11 -4 4 -13 1 -21 -7 -7 -8 -31 -17 -53 -21 -22 -4 -45 -16 -53 -27 -7 -10
-19 -19 -27 -19 -17 0 -65 -50 -65 -68 0 -19 -31 -62 -44 -62 -11 0 -34 -75
-52 -168 l-6 -34 -20 34 c-11 18 -24 35 -29 36 -9 4 -57 76 -89 134 -35 62
-105 159 -108 150 -4 -14 92 -205 112 -221 9 -8 16 -19 16 -26 0 -6 16 -42 35
-78 19 -36 35 -69 35 -72 0 -20 -45 25 -85 86 -26 39 -49 69 -51 66 -3 -2 14
-40 37 -83 22 -44 52 -101 66 -127 20 -41 27 -47 39 -36 18 15 29 5 19 -18 -4
-10 -9 -34 -10 -53 -3 -68 -5 -76 -21 -96 -14 -18 -15 -16 -9 24 5 38 0 51
-36 113 -23 41 -50 74 -64 79 -13 5 -26 14 -30 19 -3 6 -15 11 -25 11 -10 0
-28 15 -40 35 -25 40 -27 41 -52 18 -10 -9 -21 -13 -25 -10 -4 4 2 14 13 22
10 8 14 15 8 15 -20 0 -26 122 -8 191 8 35 20 83 25 107 5 24 12 49 16 55 4 7
9 23 11 36 2 13 14 57 28 99 13 41 24 85 24 98 0 12 5 35 11 51 14 37 59 217
55 221 -10 9 -89 11 -106 2 -23 -12 -28 -53 -6 -44 17 7 25 -43 15 -94 -3 -20
-7 -30 -8 -22 -1 11 -4 11 -13 2 -10 -10 -10 -15 2 -22 8 -5 11 -12 7 -17 -16
-16 -27 24 -21 76 l7 53 -27 -17 c-14 -10 -26 -22 -26 -29 0 -6 5 -4 10 4 11
17 13 1 4 -25 -5 -13 -9 -14 -15 -4 -5 9 -10 4 -15 -14 -3 -16 -11 -26 -16
-25 -9 3 -13 30 -19 130 -1 15 -8 29 -15 32 -8 3 -11 12 -8 20 3 8 1 17 -4 20
-5 3 -16 -16 -25 -42 -10 -33 -19 -46 -31 -44 -20 4 -20 -1 -1 -37 13 -26 12
-45 -5 -172 -10 -79 -22 -160 -26 -179 -8 -34 -8 -34 -25 35 -16 67 -17 68
-18 27 0 -23 4 -86 10 -140 14 -121 14 -120 1 -274 -13 -143 -20 -180 -33
-172 -5 3 -9 -11 -9 -30 0 -52 -21 -56 -46 -10 -8 13 -9 26 -2 37 5 10 5 23 1
30 -4 6 -8 21 -9 32 -1 36 -15 108 -70 355 -30 135 -86 394 -124 575 -59 281
-115 518 -162 690 -6 22 -18 78 -27 124 -17 87 -38 118 -62 94 -9 -9 -9 -26 0
-73 7 -34 10 -64 8 -67 -8 -8 -55 27 -73 54 -15 24 -15 27 0 38 22 16 20 35
-3 35 -12 0 -21 -9 -25 -26 -6 -24 2 -43 30 -69 6 -5 25 -29 43 -53 18 -23 36
-40 41 -37 14 8 40 -92 60 -230 4 -27 13 -71 19 -96 24 -89 9 -89 -44 -2 -51
83 -77 110 -51 51 8 -18 37 -84 64 -146 l50 -114 -23 -34 c-13 -19 -29 -51
-35 -69 -6 -19 -16 -35 -22 -35 -6 0 -28 -16 -50 -36 -29 -26 -43 -33 -52 -25
-7 6 -16 8 -19 4 -4 -3 -7 -1 -7 5 0 7 7 12 15 12 8 0 16 8 16 18 1 9 3 33 5
52 6 79 26 186 44 241 20 57 17 98 -8 113 -23 14 -52 -100 -57 -223 -4 -93
-24 -179 -42 -173 -9 2 -8 23 3 119 3 33 3 78 -1 100 l-8 38 -11 -32 c-16 -46
-30 -57 -46 -39 -8 10 -10 28 -5 52 5 32 9 36 31 31 22 -4 24 -1 24 30 0 27
-4 33 -17 31 -26 -4 -28 51 -5 120 52 151 31 164 -63 37 -13 -18 -14 -18 -15
-3 0 22 -50 21 -50 -1 0 -25 62 -265 71 -277 5 -7 16 -37 24 -69 8 -31 26 -80
39 -108 13 -29 27 -65 31 -82 3 -16 13 -43 20 -60 13 -29 35 -94 35 -102 0 -2
-4 -1 -10 2 -14 9 -12 -10 4 -49 7 -18 19 -57 25 -87 6 -30 43 -148 81 -264
45 -138 71 -234 75 -280 10 -100 32 -219 71 -380 41 -168 40 -171 -61 -167
-35 2 -73 -1 -83 -7 -17 -9 -22 -6 -32 19 -7 17 -16 30 -20 30 -4 0 -11 11
-14 24 -3 14 -15 28 -26 31 -17 5 -20 12 -14 40 4 25 1 36 -13 46 -26 20 -55
106 -55 167 0 29 2 55 4 58 3 2 29 10 58 17 62 14 114 58 105 88 -5 14 -1 19
14 19 12 0 21 5 21 11 0 22 -99 4 -128 -23 -20 -20 -41 -27 -83 -30 l-55 -4
-19 38 c-16 33 -17 49 -9 130 11 119 7 323 -9 388 -6 24 -28 102 -37 130 -19
55 -23 93 -10 85 20 -12 6 113 -14 133 -11 11 -16 12 -16 4 0 -7 -4 -12 -10
-12 -5 0 -10 12 -10 26 0 15 -7 32 -16 38 -8 6 -17 27 -20 46 -3 19 -9 44 -13
55 -29 68 -41 107 -52 160 -12 57 -24 85 -38 85 -3 0 -7 -53 -9 -117 -3 -114
-11 -143 -38 -143 -7 0 -15 -4 -18 -9 -8 -12 29 -201 49 -247 21 -51 89 -271
126 -409 29 -110 37 -137 83 -275 46 -138 66 -195 90 -250 48 -111 78 -294 56
-336 -7 -12 -10 -28 -7 -36 4 -9 6 -7 6 5 1 18 54 47 85 47 48 0 65 -99 23
-138 -13 -12 -30 -22 -38 -22 -22 0 -39 -21 -38 -44 1 -17 2 -18 6 -3 8 31 21
18 32 -33 14 -66 14 -75 -4 -90 -8 -7 -15 -17 -15 -23 0 -5 8 -3 18 6 29 26
76 32 96 12 15 -16 17 -15 34 5 21 26 101 45 108 25 3 -7 4 -39 2 -71 l-3 -59
-43 -9 c-35 -7 -46 -6 -59 7 -15 15 -19 14 -45 -8 -55 -46 -108 -27 -108 39 0
27 -3 28 -67 30 -25 1 -33 -3 -33 -17 0 -16 2 -16 24 -2 13 8 31 13 40 9 21
-8 21 -40 -1 -53 -10 -6 -12 -11 -5 -11 6 0 12 -5 12 -11 0 -6 -14 -9 -33 -8
-19 2 -43 -4 -57 -14 -48 -33 -84 -13 -78 45 2 26 10 36 36 47 17 8 32 20 32
27 0 20 21 28 32 13 7 -11 8 -9 6 6 -4 27 -35 31 -43 5 -3 -11 -22 -27 -42
-35 -19 -8 -37 -23 -40 -34 -6 -24 -58 -46 -100 -42 -6 0 -17 27 -23 59 -18
88 -52 206 -62 217 -6 6 -9 5 -8 -5 1 -8 2 -24 1 -35 -2 -19 -2 -19 -12 -2
-12 20 -99 275 -99 289 0 4 7 8 15 8 19 0 19 10 -1 84 -20 72 -30 86 -39 57
-7 -22 -25 -29 -25 -11 0 6 7 24 15 40 9 17 11 30 5 30 -5 0 -10 -4 -10 -10 0
-5 -7 -10 -15 -10 -8 0 -15 7 -15 15 0 14 12 19 33 16 4 0 7 6 7 14 0 8 -9 15
-21 15 -17 0 -19 4 -12 23 12 34 6 88 -22 185 -45 164 -105 392 -130 502 -9
41 -24 86 -32 99 -9 13 -21 63 -28 110 -15 96 -30 145 -44 137 -11 -7 -21 28
-21 76 l0 37 -52 -3 c-75 -4 -78 -5 -78 -16 0 -5 18 -13 40 -16 22 -4 42 -10
45 -13 2 -4 0 -25 -5 -47 -5 -21 -14 -65 -20 -97 -6 -31 -15 -55 -20 -52 -5 3
-25 46 -46 95 -33 80 -54 111 -54 79 0 -9 56 -152 80 -204 39 -84 100 -239
100 -254 0 -9 7 -42 16 -72 9 -30 17 -61 18 -69 1 -8 9 -26 18 -41 16 -22 49
-124 94 -284 56 -201 134 -641 106 -595 -5 8 -29 67 -52 130 -47 129 -70 189
-141 370 -27 68 -49 129 -49 136 0 6 -17 46 -39 90 -64 132 -80 170 -116 277
-34 98 -38 136 -14 121 8 -4 9 -3 5 5 -4 6 -11 9 -16 6 -21 -13 -118 170 -106
200 3 8 2 15 -2 17 -4 2 -16 20 -26 41 -11 21 -23 34 -28 29 -10 -10 14 -81
42 -130 11 -18 20 -41 20 -51 0 -21 73 -219 101 -274 10 -21 19 -43 19 -50 0
-7 27 -87 61 -177 89 -244 99 -272 108 -305 5 -16 23 -70 40 -120 66 -188 163
-506 157 -512 -10 -11 -46 63 -77 157 -19 58 -42 111 -52 118 -11 8 -16 21
-12 31 7 22 -3 51 -17 51 -7 0 -8 -15 -4 -40 6 -38 5 -40 -13 -31 -12 7 -21
26 -25 53 -4 24 -13 55 -20 70 -10 18 -11 29 -3 37 7 7 7 14 0 23 -17 21 -73
127 -73 139 0 5 -9 29 -19 52 -11 24 -23 55 -26 70 -4 15 -11 30 -16 33 -5 3
-9 14 -9 25 0 10 -4 27 -9 37 -21 38 -50 108 -53 127 -2 11 -9 26 -15 33 -7 7
-13 23 -13 35 -1 12 -14 56 -30 97 -17 41 -30 80 -30 86 0 5 -9 29 -20 51 -11
23 -27 63 -35 90 -15 46 -25 71 -48 120 l-10 23 -12 -23 c-6 -12 -8 -26 -4
-32 4 -5 48 -129 97 -275 50 -146 119 -350 155 -455 93 -273 119 -357 112
-363 -20 -20 -87 138 -202 473 -19 55 -57 161 -84 235 -27 74 -61 167 -75 205
-78 212 -105 275 -116 275 -11 0 -10 -18 2 -22 5 -1 10 -21 12 -43 1 -22 10
-52 21 -66 10 -14 22 -42 27 -62 7 -33 6 -37 -12 -37 -22 0 -63 81 -54 106 3
8 1 14 -4 14 -9 0 -34 39 -46 73 -4 11 -17 17 -35 17 -17 0 -31 6 -34 13 -2 6
-11 207 -19 445 -18 493 -21 509 -80 498 -27 -5 -37 -3 -44 11 -7 12 -43 23
-123 39 -63 13 -127 23 -142 23 -18 1 -27 6 -24 14 5 16 74 14 150 -3 44 -10
61 -10 70 -1 8 8 -1 11 -37 11 -39 0 -47 3 -42 15 3 10 -2 16 -17 20 -142 31
-269 34 -289 8z m295 -482 c65 -16 119 -30 122 -32 2 -2 7 -92 10 -200 8 -207
3 -246 -36 -287 -27 -30 -55 -28 -89 6 -27 27 -28 28 -49 10 -16 -12 -32 -15
-54 -11 -66 12 -67 14 -67 128 l0 105 44 0 c45 0 56 10 56 51 0 12 -9 21 -27
25 -72 15 -75 18 -68 87 11 121 16 147 28 147 7 -1 65 -14 130 -29z m2026
-387 c-10 -23 -13 -25 -16 -11 -3 10 1 25 8 33 17 21 21 11 8 -22z m-492 4
c-3 -8 -6 -5 -6 6 -1 11 2 17 5 13 3 -3 4 -12 1 -19z m2163 -72 c0 -8 -4 -18
-10 -21 -5 -3 -10 3 -10 14 0 12 5 21 10 21 6 0 10 -6 10 -14z m-2060 -86 c0
-5 -2 -10 -4 -10 -3 0 -8 5 -11 10 -3 6 -1 10 4 10 6 0 11 -4 11 -10z m-1696
-19 c21 -9 25 -18 31 -68 3 -32 8 -75 11 -95 5 -29 2 -38 -9 -38 -16 0 -27 20
-28 53 0 21 -1 21 -10 -2 -8 -19 -12 -21 -24 -11 -8 7 -15 24 -16 39 0 14 -5
35 -10 46 -6 13 -7 1 -3 -37 5 -48 4 -58 -9 -58 -18 0 -24 23 -33 120 l-7 73
41 -6 c22 -4 52 -11 66 -16z m3746 5 c0 -18 -27 -39 -40 -31 -5 3 -10 15 -10
26 0 14 7 19 25 19 15 0 25 -6 25 -14z m-2760 -97 c0 -6 -4 -7 -10 -4 -5 3
-10 11 -10 16 0 6 5 7 10 4 6 -3 10 -11 10 -16z m966 -39 c8 -10 10 -21 4 -30
-7 -12 -10 -11 -15 5 -4 11 -10 27 -15 36 -5 9 -6 20 -2 24 4 3 8 0 11 -7 2
-7 10 -20 17 -28z m1809 30 c9 -15 -22 -60 -40 -60 -18 0 -18 0 1 38 16 33 28
40 39 22z m-1554 -123 c-8 -8 -11 -7 -11 4 0 20 13 34 18 19 3 -7 -1 -17 -7
-23z m-97 -9 c9 -18 24 -46 33 -63 19 -35 20 -66 5 -158 -6 -38 -8 -77 -4 -88
7 -17 12 -14 45 25 20 25 37 49 37 53 0 5 7 19 16 32 15 21 18 22 26 7 7 -12
2 -25 -16 -47 -14 -17 -26 -41 -26 -54 0 -24 -87 -138 -100 -130 -12 7 -23 85
-21 137 2 41 -4 111 -25 276 -6 50 6 54 30 10z m-2107 7 c49 -15 50 -16 57
-61 15 -111 0 -163 -42 -150 -23 8 -42 58 -42 112 0 23 -7 36 -25 48 -16 10
-25 26 -25 41 0 29 9 30 77 10z m2753 6 c0 -12 -20 -25 -27 -18 -7 7 6 27 18
27 5 0 9 -4 9 -9z m-1629 -224 c6 -26 9 -51 6 -54 -6 -6 -37 62 -37 81 0 7 -4
16 -9 22 -5 5 -12 20 -16 34 -6 24 -6 24 19 -5 13 -16 30 -52 37 -78z m937 6
c-4 -22 -22 -20 -26 1 -2 10 3 16 13 16 10 0 15 -7 13 -17z m-2043 -29 l48
-17 -6 -81 c-4 -45 -9 -91 -13 -103 -6 -23 -32 -30 -49 -14 -6 5 -23 11 -40
13 -27 3 -30 7 -30 38 0 29 4 36 23 38 17 3 22 10 22 32 0 15 -7 30 -15 34
-19 7 -21 76 -2 76 7 0 35 -7 62 -16z m2275 -109 c0 -36 -13 -47 -24 -19 -11
28 -6 54 9 54 10 0 15 -11 15 -35z m-1110 -56 c0 -5 -4 -9 -10 -9 -5 0 -10 7
-10 16 0 8 5 12 10 9 6 -3 10 -10 10 -16z m1046 -53 c-9 -49 9 -54 50 -15 28
27 34 30 40 16 15 -39 -22 -127 -41 -97 -4 7 -12 7 -25 0 -25 -14 -30 -13 -30
5 0 13 -4 14 -21 4 -24 -12 -25 -4 24 -142 6 -17 15 -26 23 -23 16 6 19 -10 4
-19 -11 -7 -7 -27 15 -80 9 -24 50 -124 58 -145 1 -3 -2 -7 -8 -10 -5 -3 -32
56 -58 130 -27 74 -63 172 -80 217 l-30 83 28 55 c32 64 61 76 51 21z m1020
-63 c-11 -11 -17 4 -9 23 7 18 8 18 11 1 2 -10 1 -21 -2 -24z m-3241 21 c23
-9 55 -78 61 -132 8 -80 -33 -126 -78 -85 -29 26 -36 43 -47 112 -15 94 5 127
64 105z m2715 -106 c0 -29 29 -78 45 -78 9 0 15 10 15 25 0 33 18 32 32 -2 6
-16 27 -45 47 -65 29 -32 33 -41 24 -60 l-10 -22 -19 29 c-27 43 -37 47 -56
24 l-18 -21 0 26 c0 32 -13 33 -33 2 -15 -22 -15 -36 -1 -148 9 -67 13 -140
10 -160 -5 -27 -1 -48 14 -75 11 -21 20 -45 20 -55 0 -11 17 -25 45 -37 52
-23 61 -47 15 -37 -22 4 -30 2 -30 -9 0 -17 -46 -21 -68 -6 -8 5 -15 30 -17
57 -8 141 -46 454 -65 529 -11 45 -13 109 -4 118 11 11 54 -16 54 -35z m297
-40 c-3 -8 -6 -5 -6 6 -1 11 2 17 5 13 3 -3 4 -12 1 -19z m164 -21 c-8 -8 -11
-5 -11 9 0 27 14 41 18 19 2 -9 -1 -22 -7 -28z m-2719 -157 c25 -47 68 -124
96 -172 28 -49 47 -88 44 -88 -13 0 -29 15 -41 38 -7 12 -17 20 -23 16 -7 -4
-8 -3 -4 4 4 6 -3 29 -14 52 -23 45 -35 54 -20 15 13 -33 5 -32 -13 3 -8 15
-35 65 -60 112 -44 80 -55 118 -40 133 8 9 20 -9 75 -113z m2807 74 c25 -31
26 -44 7 -44 -16 0 -46 37 -46 57 0 21 17 15 39 -13z m-652 -57 c20 -68 11
-79 -22 -29 -15 23 -31 42 -35 42 -4 0 -25 -27 -46 -60 -22 -33 -44 -58 -51
-56 -6 3 -14 -6 -17 -20 -12 -45 -26 -24 -26 37 0 44 3 60 13 57 6 -3 13 -17
15 -32 3 -26 6 -23 38 31 41 68 60 85 93 81 19 -2 27 -13 38 -51z m333 -42 c0
-8 -4 -15 -9 -15 -13 0 -22 16 -14 24 11 11 23 6 23 -9z m155 -25 c-5 -17 40
-117 129 -285 20 -39 20 -45 -3 -45 -12 0 -30 20 -52 54 -18 30 -37 52 -42 49
-6 -4 -8 1 -4 11 7 18 -37 116 -52 116 -15 0 -34 -59 -27 -85 5 -18 2 -25 -8
-25 -8 0 -22 -10 -30 -22 -13 -19 -16 -19 -16 -5 0 9 4 25 9 35 6 9 27 63 48
120 21 56 41 102 46 102 5 0 6 -9 2 -20z m-125 -23 c0 -18 -7 -42 -16 -53 -15
-18 -15 -17 -10 15 3 18 6 42 6 52 0 11 5 19 10 19 6 0 10 -15 10 -33z m-600
-15 c0 -14 -11 -21 -26 -15 -8 3 -11 9 -8 14 7 11 34 12 34 1z m70 -182 c0
-65 -3 -125 -6 -134 -14 -36 -24 -12 -24 55 0 61 -2 70 -16 65 -9 -3 -33 -9
-55 -12 -51 -8 -50 -24 1 -24 45 0 57 -23 18 -34 -41 -10 -65 -6 -83 14 -18
20 -18 20 -36 -9 -11 -18 -30 -32 -49 -36 -24 -5 -32 -13 -37 -36 -8 -40 -33
-38 -33 2 0 25 -3 30 -17 25 -9 -4 -36 -9 -58 -13 -53 -7 -75 13 -75 67 0 51
25 78 82 89 52 9 58 7 58 -23 1 -21 1 -21 12 -1 27 50 95 63 122 23 l15 -21
12 26 c17 37 62 54 97 36 15 -7 30 -15 35 -17 4 -2 7 14 7 36 0 21 3 42 6 45
18 18 24 -15 24 -123z m413 40 c26 -16 53 -30 58 -30 6 0 8 -7 5 -16 -3 -9 -6
-20 -6 -25 0 -5 -5 -9 -11 -9 -14 0 -129 90 -129 101 0 18 37 8 83 -21z
m-2930 -15 c4 -8 3 -17 -2 -19 -4 -3 -5 -27 0 -53 5 -33 4 -51 -4 -58 -7 -5
-11 -21 -9 -33 3 -19 0 -23 -15 -20 -13 3 -17 12 -16 33 1 17 6 31 10 32 4 2
7 32 6 68 -1 47 2 65 12 65 7 0 15 -7 18 -15z m737 -87 c0 -6 -7 -5 -15 2 -8
7 -15 17 -15 22 0 6 7 5 15 -2 8 -7 15 -17 15 -22z m31 -25 c13 -16 12 -17 -3
-4 -17 13 -22 21 -14 21 2 0 10 -8 17 -17z m1509 -53 c-28 -22 -40 -25 -40
-10 0 6 10 15 23 20 37 15 44 11 17 -10z m780 4 c0 -8 -5 -12 -10 -9 -6 4 -8
11 -5 16 9 14 15 11 15 -7z m-875 -39 c0 -17 6 -20 33 -17 24 2 33 -2 30 -10
-3 -8 -26 -14 -56 -16 -47 -3 -53 -1 -61 20 -7 17 -5 26 7 36 23 17 47 11 47
-13z m162 11 c-5 -15 -87 -26 -87 -11 0 19 10 24 51 23 25 0 38 -5 36 -12z
m293 -26 c0 -28 2 -29 25 -18 19 8 28 8 40 -2 23 -19 18 -37 -12 -48 -26 -10
-26 -10 -5 -11 14 -1 21 -5 16 -12 -4 -7 -21 -9 -40 -6 -19 3 -36 1 -40 -4
-10 -17 -48 -27 -66 -17 -12 6 -18 21 -18 44 0 29 6 38 34 55 19 11 36 29 39
40 8 29 27 14 27 -21z m-123 -102 c-3 -54 -3 -107 0 -118 5 -19 6 -19 25 5 11
14 26 25 34 25 19 0 18 -26 -1 -34 -10 -4 -15 -20 -15 -53 0 -53 -12 -79 -30
-68 -7 4 -13 -1 -17 -14 -6 -23 -18 -27 -28 -11 -4 6 -21 8 -39 4 -43 -8 -66
15 -66 66 0 48 25 79 70 89 29 6 35 11 35 31 0 22 -4 25 -38 25 -50 0 -70 25
-63 80 5 42 25 63 68 72 15 3 33 12 40 20 22 27 31 -15 25 -119z m-2413 62
c51 -54 57 -64 54 -97 -3 -37 -3 -37 -71 -54 -38 -9 -72 -20 -75 -24 -9 -8 19
-30 81 -61 l48 -25 -1 -92 c0 -51 2 -104 6 -119 4 -18 2 -28 -5 -28 -14 0 -18
10 -26 73 -5 34 -10 47 -20 44 -19 -8 -35 13 -35 49 0 22 -7 36 -23 47 -23 15
-23 14 -21 -24 1 -21 -2 -39 -7 -39 -13 0 -31 51 -25 72 7 30 -21 145 -48 191
-30 51 -33 69 -8 65 13 -2 18 5 20 30 4 34 26 44 34 14 9 -33 -3 -82 -20 -82
-13 0 -12 -4 5 -22 11 -13 24 -32 28 -43 8 -19 9 -18 13 5 2 14 9 31 14 38 6
7 8 32 4 61 -6 48 -1 81 14 81 4 0 33 -27 64 -60z m534 23 c-8 -10 -46 -73
-84 -140 -37 -68 -71 -123 -75 -123 -8 0 -19 92 -12 102 2 5 12 8 21 8 9 0 28
17 41 38 24 36 111 132 120 132 2 0 -3 -8 -11 -17z m1720 -30 c16 -22 12 -105
-5 -111 -9 -2 -13 8 -13 30 0 32 -2 34 -35 34 -32 0 -34 -2 -37 -38 -5 -65
-23 -42 -23 30 0 62 2 67 23 70 12 2 20 7 17 12 -10 17 60 -10 73 -27z m-1688
12 c0 -8 -4 -15 -10 -15 -5 0 -10 7 -10 15 0 8 5 15 10 15 6 0 10 -7 10 -15z
m70 -104 l23 -51 -28 -83 c-32 -94 -40 -107 -66 -107 -21 0 -23 11 -10 56 5
18 12 71 16 120 7 87 19 129 33 120 5 -3 19 -27 32 -55z m1450 -94 c0 -19 -27
-53 -36 -45 -9 10 12 58 26 58 5 0 10 -6 10 -13z m164 -13 c18 -17 21 -44 6
-44 -6 0 -19 6 -30 12 -30 19 -55 -1 -55 -43 0 -41 24 -50 54 -20 25 25 41 27
41 6 0 -49 -95 -75 -124 -34 -14 21 -14 21 -18 -7 -3 -27 -8 -30 -57 -38 -47
-8 -56 -7 -67 9 -8 10 -14 37 -14 59 l-1 41 -13 -31 c-10 -22 -25 -35 -50 -44
-58 -19 -56 -33 4 -25 47 6 52 5 48 -11 -4 -20 -71 -38 -120 -31 -15 2 -29 0
-30 -5 -2 -5 -26 -11 -53 -14 -64 -8 -77 6 -73 72 4 58 31 81 103 88 28 3 76
11 108 17 47 10 60 10 66 0 6 -10 10 -9 14 3 13 32 26 15 29 -36 3 -48 6 -53
27 -56 33 -5 51 21 51 74 0 49 16 66 29 32 6 -13 10 -17 10 -10 1 15 59 52 83
52 9 0 24 -7 32 -16z m160 -160 c15 -39 -3 -112 -25 -99 -10 7 -13 98 -2 108
11 11 20 8 27 -9z m1121 -84 c13 -40 -40 -83 -60 -49 -5 7 -11 5 -18 -5 -7 -8
-32 -18 -57 -23 -36 -7 -46 -13 -48 -32 -3 -21 -1 -22 40 -19 42 3 43 2 43
-27 0 -29 -5 -33 -72 -51 -8 -2 -13 -21 -13 -48 0 -46 -9 -56 -56 -56 l-24 0
0 135 c0 118 2 135 18 143 26 14 150 35 166 29 8 -3 20 1 26 9 18 20 48 17 55
-6z m-339 -181 c19 -62 33 -120 32 -128 -5 -23 -60 -34 -74 -15 -15 19 -63 9
-84 -17 -18 -23 -80 -37 -80 -19 0 19 80 284 88 291 10 10 65 16 75 9 4 -4 23
-58 43 -121z m-1935 78 c65 -43 80 -130 39 -224 l-22 -52 27 -36 c26 -34 28
-41 29 -157 l1 -122 -115 -23 c-63 -12 -118 -19 -122 -17 -4 3 -8 33 -9 67 -2
96 -9 112 -49 112 l-35 0 -3 -102 c-3 -97 -4 -103 -25 -108 -109 -25 -208 -41
-213 -33 -3 5 -8 152 -11 327 -5 247 -3 320 6 326 27 16 310 63 387 64 69 1
86 -2 115 -22z m1689 -17 c23 -23 26 -60 6 -98 -12 -24 -12 -30 0 -47 18 -24
19 -104 2 -110 -7 -3 -24 -6 -38 -7 -22 -3 -26 2 -35 40 -8 38 -12 43 -35 40
-22 -3 -26 -8 -30 -52 -4 -45 -8 -50 -34 -57 -16 -5 -33 -6 -38 -3 -14 9 -10
272 5 281 16 10 114 31 150 32 15 1 36 -8 47 -19z m-279 -59 c16 -16 29 -36
29 -44 0 -27 -56 -36 -90 -15 -28 18 -53 0 -64 -46 -12 -44 2 -89 28 -94 22
-5 48 18 29 25 -14 5 -18 59 -5 66 4 3 28 8 55 12 l47 7 0 -81 c0 -85 -1 -86
-50 -83 -7 0 -26 -6 -42 -14 -48 -25 -93 -18 -123 18 -25 29 -27 38 -23 104 4
81 20 112 78 152 47 32 94 29 131 -7z m-286 -58 c66 -67 32 -224 -58 -266 -82
-39 -149 -3 -162 87 -10 66 9 123 56 168 55 52 118 57 164 11z m-275 -43 c23
-23 27 -77 6 -105 -12 -17 -12 -22 0 -39 8 -11 14 -41 14 -67 0 -49 -9 -59
-55 -59 -19 0 -24 7 -30 40 -8 45 -17 54 -45 45 -16 -5 -20 -15 -20 -50 0 -48
-17 -65 -64 -65 l-26 0 0 139 c0 97 4 142 12 147 14 9 123 31 161 33 15 0 36
-8 47 -19z m-287 -41 c31 -17 37 -28 37 -77 0 -34 -21 -101 -33 -102 -1 0 -27
-9 -57 -19 -54 -18 -55 -19 -60 -62 -5 -39 -8 -44 -37 -50 -18 -3 -35 -4 -38
-1 -11 12 -5 281 7 288 13 8 112 31 141 33 10 1 28 -4 40 -10z m-235 -66 c-3
-35 -6 -38 -43 -45 -76 -15 -85 -18 -85 -34 0 -13 9 -14 55 -9 l55 7 0 -30 c0
-36 -6 -41 -62 -50 -34 -6 -43 -12 -43 -27 0 -11 5 -19 11 -18 6 1 34 5 62 9
l52 7 0 -36 c0 -35 0 -36 -57 -47 -32 -6 -77 -15 -101 -19 -34 -7 -45 -6 -49
5 -8 22 -9 271 -1 279 8 8 158 42 191 44 15 1 18 -6 15 -36z m1856 -1 c-4 -15
-10 -31 -14 -36 -8 -8 -216 -55 -248 -56 -9 0 -12 12 -10 38 3 40 0 38 93 45
22 2 50 9 61 15 12 6 24 9 27 6 3 -3 12 -2 21 3 8 4 29 9 45 10 29 2 31 0 25
-25z m-354 -31 c0 -5 8 -7 19 -4 23 6 35 -11 27 -41 -4 -16 -15 -25 -33 -28
-16 -3 -35 -7 -43 -9 -22 -6 -26 48 -4 72 18 20 34 25 34 10z m-145 -32 c6
-19 8 -19 24 -4 16 14 20 14 30 1 7 -8 11 -25 9 -38 -2 -18 -10 -24 -35 -26
-26 -3 -33 1 -34 15 0 15 -2 15 -9 -4 -6 -15 -23 -24 -61 -32 -60 -13 -75 -5
-65 32 5 21 14 26 57 32 38 5 53 12 56 26 7 25 20 24 28 -2z m-2988 -19 c10
-21 13 -22 19 -7 18 49 54 -14 51 -93 0 -19 5 -45 12 -58 6 -12 12 -35 11 -50
0 -15 0 -55 1 -89 0 -56 -2 -63 -19 -63 -31 0 -45 25 -37 68 9 52 12 173 3
179 -5 2 -8 16 -8 31 0 15 -5 34 -11 42 -8 11 -9 7 -5 -17 4 -27 2 -33 -12
-34 -16 -1 -16 -2 1 -6 18 -5 23 -51 11 -112 -5 -25 -11 -31 -28 -29 -29 4
-37 -47 -8 -56 16 -5 19 -17 20 -79 2 -82 19 -148 33 -126 4 8 6 24 3 35 -4
17 -1 22 12 21 28 -3 27 20 -3 47 -21 20 -24 26 -11 26 34 0 48 -12 48 -42 0
-27 2 -29 17 -17 15 12 16 12 10 -4 -4 -10 -7 -25 -7 -33 0 -9 -4 -12 -10 -9
-21 13 -30 -6 -15 -35 8 -16 15 -38 15 -49 0 -20 39 -56 49 -44 3 3 0 8 -6 10
-15 6 -17 79 -3 88 7 4 7 12 0 25 -5 10 -10 34 -10 52 0 19 -5 39 -12 46 -9 9
-8 12 5 12 14 0 17 9 17 48 0 26 5 53 11 59 18 18 -8 92 -37 105 -20 10 -35
38 -19 38 13 0 82 -40 94 -54 20 -24 31 -85 18 -99 -8 -8 -11 -47 -10 -109 2
-77 -1 -100 -13 -113 -13 -12 -13 -19 -4 -30 6 -8 10 -35 9 -62 -3 -46 -2 -49
34 -68 28 -15 37 -25 33 -39 -3 -10 1 -31 9 -45 7 -15 16 -43 20 -64 7 -35 6
-37 -19 -37 -30 0 -33 8 -9 25 15 11 15 17 -8 70 -25 59 -39 71 -144 129 -27
16 -56 33 -62 38 -10 8 -13 4 -13 -17 l0 -27 -25 30 c-14 17 -25 35 -25 41 0
6 -16 19 -35 28 -35 17 -46 33 -22 33 6 0 19 -5 27 -10 12 -8 16 -2 20 28 3
20 0 51 -6 67 -12 31 -17 147 -8 178 3 9 14 17 25 17 21 0 22 1 13 24 -3 8
-12 12 -21 9 -12 -5 -14 0 -9 23 9 45 10 85 1 137 -7 44 -6 49 11 45 10 -2 24
-14 31 -28z m2788 -27 c17 2 20 -4 20 -33 0 -30 -3 -35 -25 -37 -14 -1 -34 -3
-45 -5 -31 -5 -33 47 -3 71 13 11 25 15 28 11 3 -5 14 -8 25 -7z m-107 -45
c-2 -24 -7 -43 -13 -43 -5 0 -16 -4 -23 -9 -7 -4 -19 -5 -26 -3 -8 3 -23 -3
-33 -13 -26 -24 -90 -14 -85 14 3 15 0 16 -17 6 -12 -6 -21 -17 -21 -25 0 -8
-5 -15 -11 -15 -6 0 -9 19 -7 48 3 40 6 47 26 50 12 2 22 -2 22 -8 0 -7 14 -8
38 -5 20 3 46 7 57 8 11 1 25 5 32 10 6 4 18 4 27 1 11 -4 16 -1 16 10 0 9 5
16 11 16 6 0 9 -17 7 -42z m-2658 -224 c0 -8 -4 -12 -10 -9 -5 3 -10 10 -10
16 0 5 5 9 10 9 6 0 10 -7 10 -16z m69 -363 c9 -29 10 -45 3 -50 -5 -3 -11
-14 -13 -24 -2 -10 -8 -19 -14 -20 -10 -2 -25 120 -17 136 9 18 28 -2 41 -42z
m-165 -469 c-4 -18 -10 -32 -15 -32 -11 0 -12 63 -2 74 13 13 23 -11 17 -42z
m54 9 c3 -8 -1 -12 -9 -9 -7 2 -15 10 -17 17 -3 8 1 12 9 9 7 -2 15 -10 17
-17z m-8 -31 c0 -5 -2 -10 -4 -10 -3 0 -8 5 -11 10 -3 6 -1 10 4 10 6 0 11 -4
11 -10z m-60 -135 c0 -91 1 -96 24 -105 34 -12 31 -69 -4 -87 -23 -12 -26 -10
-37 15 -12 26 -16 189 -6 245 10 59 23 22 23 -68z m60 69 c0 -8 -7 -14 -15
-14 -15 0 -21 21 -9 33 10 9 24 -2 24 -19z m138 8 c15 -10 35 -22 45 -25 9 -4
17 -15 17 -26 0 -14 5 -18 20 -14 11 3 20 0 20 -6 0 -6 8 -11 17 -11 31 0 63
-41 63 -81 0 -43 -14 -58 -29 -32 -5 10 -13 15 -16 11 -4 -4 4 -21 19 -38 29
-35 35 -90 11 -110 -13 -11 -13 -15 0 -33 19 -27 19 -81 1 -96 -21 -17 -71 11
-93 52 -13 24 -18 28 -21 15 -2 -10 -10 -18 -18 -18 -12 0 -14 11 -10 50 4 42
1 54 -17 70 -23 22 -16 40 8 20 8 -7 15 -9 15 -5 0 4 -11 16 -25 27 -25 20
-33 38 -16 38 5 0 16 -6 23 -13 21 -19 68 -18 68 2 0 9 5 22 11 28 8 8 8 17 0
32 -17 31 -28 26 -27 -11 1 -45 -18 -42 -22 2 -2 25 -9 39 -24 45 -29 14 -35
35 -9 35 12 0 21 5 21 10 0 6 -7 10 -15 10 -13 0 -19 12 -16 32 0 4 -9 7 -22
5 -18 -2 -22 3 -23 26 -1 32 8 34 44 9z m-25 -126 c0 -32 -6 -63 -13 -70 -8
-8 -11 1 -9 40 1 28 -1 56 -5 62 -9 15 2 34 17 29 8 -2 11 -26 10 -61z m-138
43 c11 -17 -1 -21 -15 -4 -8 9 -8 15 -2 15 6 0 14 -5 17 -11z m10 -49 c11 -17
-5 -32 -21 -19 -8 6 -14 15 -14 20 0 12 27 11 35 -1z m172 -46 c-9 -9 -28 6
-21 18 4 6 10 6 17 -1 6 -6 8 -13 4 -17z m1037 -100 c5 -13 9 -14 21 -4 8 7
24 10 35 7 11 -3 23 -1 26 4 3 5 13 9 23 9 16 0 17 -4 7 -34 -11 -36 -21 -40
-111 -52 -16 -2 -40 -9 -52 -15 -19 -10 -26 -9 -44 7 -21 19 -21 19 -39 -4
-28 -35 -42 -28 -38 21 l3 42 73 -2 c66 -2 72 -1 72 17 0 24 15 26 24 4z
m-1088 -41 c-5 -43 -30 -35 -34 10 -3 36 -2 38 17 28 14 -8 19 -19 17 -38z
m42 -16 c2 -10 -3 -17 -11 -17 -16 0 -30 24 -19 34 10 10 27 1 30 -17z m816
-3 c23 -9 20 -51 -4 -64 -11 -6 -25 -8 -30 -5 -5 3 -18 2 -28 -4 -10 -5 -36
-12 -58 -14 -21 -2 -52 -9 -67 -16 -16 -6 -39 -11 -51 -11 -13 0 -45 -7 -72
-15 -72 -22 -74 -21 -74 30 0 39 3 45 25 51 14 3 31 4 39 1 7 -3 19 0 25 6 9
9 14 9 19 1 8 -14 66 -11 105 5 16 6 33 8 38 5 6 -3 16 0 24 6 8 7 26 10 39 6
15 -4 28 0 36 9 14 17 13 17 34 9z m-820 -83 c5 -23 6 -45 2 -48 -11 -11 -26
18 -26 50 0 22 -4 27 -25 27 -14 0 -25 4 -25 9 0 5 15 8 33 6 29 -2 33 -6 41
-44z m-39 -11 c0 -7 -6 -15 -12 -17 -8 -3 -13 4 -13 17 0 13 5 20 13 18 6 -3
12 -11 12 -18z m1123 -32 c3 -21 -2 -27 -25 -32 -20 -6 -31 -3 -40 10 -11 15
-13 15 -13 3 0 -16 -48 -44 -58 -34 -3 2 -11 0 -18 -6 -22 -18 -44 -3 -44 29
0 35 24 60 43 44 14 -12 65 -8 79 6 5 5 24 9 41 8 27 -1 33 -6 35 -28z m512
-6 c0 -22 -5 -28 -25 -30 -13 -1 -30 -3 -37 -4 -7 -2 -14 8 -16 22 -3 24 -3
25 12 5 15 -20 15 -20 16 2 0 14 8 23 23 26 12 2 23 5 25 6 1 0 2 -12 2 -27z
m-102 -19 c-2 -22 -9 -29 -30 -31 -24 -3 -28 0 -28 22 0 15 7 26 18 29 38 10
43 7 40 -20z m-638 -22 c0 -26 -4 -30 -41 -36 -22 -4 -43 -13 -46 -21 -3 -8
-10 -11 -17 -7 -6 4 -21 6 -34 4 -13 -1 -30 3 -38 9 -11 10 -14 9 -14 -4 0 -9
-4 -16 -10 -16 -5 0 -10 16 -10 36 0 28 3 35 15 31 8 -4 17 -3 19 2 3 4 21 6
40 5 20 -2 36 1 36 7 0 6 4 8 8 5 5 -3 22 -1 38 4 48 14 54 12 54 -19z m-246
-7 c17 -45 -6 -93 -39 -81 -8 4 -17 2 -21 -4 -3 -6 -16 -9 -29 -7 -12 1 -29
-3 -38 -10 -24 -20 -37 -6 -37 42 0 43 1 44 38 50 20 3 47 6 59 6 12 0 25 5
28 10 9 15 32 12 39 -6z m766 8 c0 -14 -23 -32 -40 -32 -9 0 -25 -9 -36 -21
-17 -19 -19 -19 -31 -3 -18 25 -17 31 15 48 29 16 92 21 92 8z m-136 -29 c4
-9 1 -21 -5 -27 -8 -8 -13 -7 -16 2 -4 10 -8 10 -19 1 -11 -9 -14 -7 -14 15 0
21 5 26 24 26 13 0 27 -8 30 -17z m-114 -30 c-1 -24 -2 -26 -11 -10 -5 9 -7
22 -4 27 10 17 15 11 15 -17z m-30 -4 c0 -11 -4 -17 -10 -14 -5 3 -10 13 -10
21 0 8 5 14 10 14 6 0 10 -9 10 -21z m-50 -19 c0 -11 -4 -20 -10 -20 -5 0 -10
9 -10 20 0 11 5 20 10 20 6 0 10 -9 10 -20z m-70 -15 c0 -16 -6 -25 -15 -25
-9 0 -15 9 -15 25 0 16 6 25 15 25 9 0 15 -9 15 -25z m-47 -4 c5 -22 0 -31
-20 -31 -7 0 -13 11 -13 25 0 30 25 34 33 6z m-64 -18 c8 -15 3 -20 -32 -30
-22 -7 -44 -10 -49 -7 -17 11 -7 33 20 42 40 15 50 14 61 -5z m-104 -3 c8 -12
-3 -50 -15 -50 -10 0 -21 40 -14 52 7 11 22 10 29 -2z m-55 -14 c0 -8 -3 -22
-7 -32 -6 -16 -7 -16 -14 2 -7 17 -8 17 -8 -3 -1 -13 -7 -23 -15 -23 -22 0
-13 52 10 61 28 11 34 10 34 -5z m-130 -52 c0 -15 -6 -24 -15 -24 -15 0 -21
40 -9 53 12 11 24 -3 24 -29z m50 6 c0 -11 -7 -20 -15 -20 -8 0 -15 9 -15 20
0 11 7 20 15 20 8 0 15 -9 15 -20z m-110 -12 c0 -19 -2 -20 -10 -8 -8 13 -11
12 -16 -7 -6 -20 -37 -37 -48 -25 -21 20 13 62 50 62 18 0 24 -5 24 -22z"/>
<path d="M1709 6043 c0 -10 -3 -44 -5 -75 l-5 -58 41 -6 c51 -8 62 -27 49 -85
-11 -50 -30 -69 -71 -69 l-28 0 0 -70 c0 -66 1 -71 26 -80 43 -17 63 -12 80
21 l16 32 22 -39 c18 -32 27 -39 51 -39 24 0 34 7 48 35 15 30 17 53 13 155
-3 66 -5 148 -5 182 l-1 61 -108 26 c-129 31 -122 30 -123 9z"/>
<path d="M1762 5410 c0 -14 2 -19 5 -12 2 6 2 18 0 25 -3 6 -5 1 -5 -13z"/>
<path d="M1780 5197 c0 -23 11 -47 22 -47 14 0 5 53 -9 58 -7 2 -13 -3 -13
-11z"/>
<path d="M1780 4936 c0 -13 5 -28 10 -31 6 -3 10 3 10 14 0 12 0 24 1 28 0 4
-4 9 -10 11 -6 2 -11 -8 -11 -22z"/>
<path d="M1753 4703 c-8 -21 17 -67 40 -71 24 -5 23 49 -1 71 -23 21 -31 21
-39 0z"/>
<path d="M4097 4214 c-4 -4 -4 -10 -2 -14 6 -10 55 0 55 11 0 10 -43 12 -53 3z"/>
<path d="M3955 4186 c-11 -8 -17 -18 -12 -22 4 -4 7 -2 7 4 0 7 9 12 20 12 16
0 20 -7 20 -32 0 -23 3 -29 11 -21 15 15 7 67 -11 71 -9 1 -24 -4 -35 -12z"/>
<path d="M3823 4169 c-23 -8 -40 -50 -28 -68 8 -15 48 -14 63 1 16 16 15 53 0
66 -8 6 -22 6 -35 1z m27 -39 c0 -11 -6 -20 -14 -20 -18 0 -29 16 -21 30 11
18 35 11 35 -10z"/>
<path d="M3940 4119 c0 -5 9 -9 20 -9 11 0 20 2 20 4 0 2 -9 6 -20 9 -11 3
-20 1 -20 -4z"/>
<path d="M4288 3959 c-19 -11 -24 -44 -9 -53 19 -12 41 7 41 35 0 31 -5 34
-32 18z"/>
<path d="M4140 3950 c-35 -35 -20 -77 24 -66 30 7 45 48 26 71 -17 20 -26 19
-50 -5z"/>
<path d="M4126 3734 c-17 -45 -1 -70 40 -60 20 5 24 13 24 41 0 32 -3 35 -29
35 -17 0 -31 -6 -35 -16z"/>
<path d="M1775 3900 c-9 -15 -1 -23 21 -18 15 3 16 4 1 16 -11 9 -17 10 -22 2z"/>
<path d="M3997 3933 c-3 -5 6 -8 19 -8 13 0 24 3 24 8 0 4 -9 7 -19 7 -11 0
-22 -3 -24 -7z"/>
<path d="M3678 3673 c-36 -4 -38 -6 -38 -39 0 -38 9 -43 27 -15 7 11 28 24 47
31 37 12 49 31 19 28 -10 -1 -35 -3 -55 -5z"/>
<path d="M3553 3643 c-7 -2 -13 -20 -13 -39 0 -34 1 -35 33 -32 29 3 32 6 35
41 3 33 1 37 -20 36 -13 0 -29 -3 -35 -6z"/>
<path d="M4917 3316 c-10 -26 -8 -56 3 -56 16 0 22 24 12 50 -8 20 -9 21 -15
6z"/>
<path d="M2780 3362 c-85 -15 -161 -31 -168 -35 -9 -6 -11 -70 -7 -284 2 -152
7 -278 9 -281 3 -2 38 2 78 10 l73 14 5 104 5 104 44 9 c24 5 54 6 67 3 33 -9
54 -55 54 -121 l0 -55 33 1 c17 0 55 6 82 13 l50 11 -3 95 c-4 107 -10 123
-52 145 l-29 15 35 51 c28 42 34 60 34 103 0 61 -18 92 -66 112 -44 18 -61 17
-244 -14z m140 -52 c-29 -57 -37 -43 -10 17 12 26 24 43 27 36 2 -6 -5 -30
-17 -53z m-70 26 c0 -15 -18 -31 -26 -23 -7 7 7 37 17 37 5 0 9 -6 9 -14z
m-147 -58 c25 -60 4 -73 -22 -15 -25 54 -25 57 -8 57 6 0 20 -19 30 -42z m348
-21 c-26 -26 -28 -7 -4 30 15 23 18 24 21 9 2 -10 -5 -28 -17 -39z m-241 -43
c-16 -55 -36 -72 -27 -23 3 19 11 48 17 64 18 43 25 13 10 -41z m54 -44 c-10
-28 -22 -50 -26 -50 -11 0 -11 2 14 67 12 32 23 52 26 45 2 -7 -4 -35 -14 -62z
m122 -10 c-15 -22 -31 -40 -36 -40 -12 0 1 28 33 74 31 44 33 12 3 -34z m-237
-7 c6 -20 7 -41 4 -47 -7 -11 -31 47 -32 77 -1 29 17 9 28 -30z m-80 -59 c12
-46 9 -66 -8 -48 -13 13 -31 85 -25 96 10 16 21 -1 33 -48z m155 -42 c-4 -18
-10 -32 -15 -32 -12 0 -11 14 3 45 15 32 20 27 12 -13z m104 8 c-10 -31 -25
-46 -35 -37 -6 7 28 67 39 67 4 0 2 -14 -4 -30z m112 6 c0 -20 -46 -73 -56
-64 -6 7 41 78 52 78 2 0 4 -6 4 -14z m-267 -18 c6 -21 2 -36 -7 -27 -10 11
-16 49 -8 49 5 0 12 -10 15 -22z m-79 -60 c13 -64 15 -88 6 -93 -13 -8 -18 5
-26 63 -4 36 -3 52 5 52 6 0 13 -10 15 -22z m267 -41 c-8 -8 -11 -7 -11 4 0
20 13 34 18 19 3 -7 -1 -17 -7 -23z m-251 -122 c0 -19 -4 -35 -10 -35 -5 0
-10 16 -10 35 0 19 5 35 10 35 6 0 10 -16 10 -35z"/>
<path d="M4634 3315 c-10 -25 3 -44 25 -38 26 7 45 29 36 43 -10 15 -55 12
-61 -5z"/>
<path d="M4064 3185 c-18 -44 -18 -65 2 -93 20 -29 38 -28 63 4 38 48 22 124
-25 124 -19 0 -28 -8 -40 -35z"/>
<path d="M3790 3140 c0 -19 5 -30 14 -30 30 0 46 13 46 36 0 20 -5 24 -30 24
-27 0 -30 -3 -30 -30z"/>
<path d="M3538 3119 c-10 -5 -18 -21 -18 -34 0 -20 5 -25 24 -25 28 0 49 22
44 47 -4 21 -26 27 -50 12z"/>
<path d="M5150 3100 c0 -5 4 -10 9 -10 6 0 13 5 16 10 3 6 -1 10 -9 10 -9 0
-16 -4 -16 -10z"/>
<path d="M4630 3000 c0 -5 6 -10 14 -10 8 0 18 5 21 10 3 6 -3 10 -14 10 -12
0 -21 -4 -21 -10z"/>
<path d="M1805 3010 c3 -5 8 -10 11 -10 2 0 4 5 4 10 0 6 -5 10 -11 10 -5 0
-7 -4 -4 -10z"/>
<path d="M1820 2853 c0 -5 4 -15 10 -23 11 -18 25 -7 17 15 -6 15 -27 21 -27
8z"/>
<path d="M1930 2831 c0 -11 5 -23 10 -26 6 -3 10 3 10 14 0 11 -4 23 -10 26
-5 3 -10 -3 -10 -14z"/>
<path d="M1820 2735 c0 -17 5 -25 13 -22 6 2 12 12 12 22 0 10 -6 20 -12 23
-8 2 -13 -6 -13 -23z"/>
<path d="M1920 2721 c0 -22 16 -36 24 -22 8 12 -3 41 -15 41 -5 0 -9 -9 -9
-19z"/>
<path d="M1730 2673 c0 -5 5 -15 10 -23 8 -12 10 -11 10 8 0 12 -4 22 -10 22
-5 0 -10 -3 -10 -7z"/>
<path d="M1912 2604 c2 -15 9 -29 16 -32 10 -3 13 4 10 24 -2 15 -9 29 -16 32
-10 3 -13 -4 -10 -24z"/>
<path d="M1750 2546 c0 -8 5 -18 10 -21 6 -3 10 1 10 9 0 8 -4 18 -10 21 -5 3
-10 -1 -10 -9z"/>
<path d="M1820 2506 c0 -8 5 -18 10 -21 6 -3 10 1 10 9 0 8 -4 18 -10 21 -5 3
-10 -1 -10 -9z"/>
<path d="M1680 1618 c0 -32 15 -45 24 -21 4 9 0 23 -9 32 -13 14 -15 13 -15
-11z"/>
<path d="M1981 1714 c0 -11 3 -14 6 -6 3 7 2 16 -1 19 -3 4 -6 -2 -5 -13z"/>
<path d="M1990 1580 c0 -5 9 -14 20 -20 22 -12 27 -1 8 18 -14 14 -28 16 -28
2z"/>
<path d="M1925 1553 c4 -10 7 -34 7 -53 -2 -35 -1 -35 14 -12 9 12 23 22 31
22 12 0 11 5 -3 30 -13 21 -20 26 -26 17 -6 -9 -8 -9 -8 1 0 6 -5 12 -11 12
-7 0 -8 -7 -4 -17z"/>
<path d="M1982 1448 c6 -17 36 -34 45 -24 4 4 -1 14 -11 22 -24 17 -39 18 -34
2z"/>
<path d="M2790 1344 c0 -9 5 -14 12 -12 18 6 21 28 4 28 -9 0 -16 -7 -16 -16z"/>
<path d="M3896 6493 c9 -125 113 -635 135 -657 19 -20 7 107 -43 433 -40 266
-47 295 -75 299 -22 3 -22 1 -17 -75z"/>
<path d="M3551 6488 c26 -49 88 -134 119 -163 48 -44 33 -15 -45 91 -66 88
-101 122 -74 72z"/>
<path d="M3497 6443 c-2 -4 -5 -50 -6 -100 -1 -78 1 -93 14 -93 8 0 15 4 15 9
0 5 9 11 21 14 16 4 19 11 14 26 -7 24 10 29 19 6 6 -16 26 -21 26 -6 0 6 -82
135 -95 149 -2 2 -5 0 -8 -5z"/>
<path d="M2841 6397 c-12 -15 -5 -27 16 -27 7 0 13 9 13 20 0 23 -13 26 -29 7z"/>
<path d="M3282 6395 c-23 -8 -55 -22 -70 -33 -15 -11 -37 -22 -48 -26 -30 -9
-98 -139 -89 -168 7 -20 11 -20 97 -14 l89 7 12 -31 c6 -16 15 -30 19 -30 4 0
5 6 2 14 -3 7 1 16 9 19 17 7 14 85 -6 142 -17 48 -9 75 27 94 25 14 30 32 10
37 -5 1 -28 -4 -52 -11z m-5 -141 c-3 -3 -12 -4 -19 -1 -8 3 -5 6 6 6 11 1 17
-2 13 -5z"/>
<path d="M2730 6394 c0 -17 17 -36 24 -26 3 5 -1 15 -9 22 -8 7 -15 9 -15 4z"/>
<path d="M2767 6394 c-8 -8 3 -34 14 -34 5 0 9 9 9 20 0 19 -11 26 -23 14z"/>
<path d="M2637 6380 c-9 -6 -22 -8 -27 -5 -6 3 -10 -3 -10 -14 0 -25 13 -27
34 -5 9 8 20 12 26 9 5 -3 10 -1 10 6 0 10 3 10 12 1 7 -7 21 -12 32 -12 29 0
7 18 -29 25 -17 3 -38 0 -48 -5z"/>
<path d="M2528 6363 c-14 -13 -71 -31 -115 -35 -18 -2 -16 -28 1 -28 8 0 16 6
19 13 5 15 34 16 55 3 7 -4 14 -2 17 6 3 8 15 15 28 15 12 1 23 7 25 13 3 7 8
8 16 1 9 -8 13 -6 13 4 0 8 -2 13 -5 10 -3 -2 -12 0 -22 5 -12 6 -22 4 -32 -7z"/>
<path d="M5502 6305 c-37 -31 -130 -74 -176 -82 -19 -3 -49 -1 -66 5 -17 6
-28 7 -25 2 3 -5 21 -13 40 -19 63 -17 155 16 230 83 45 40 42 49 -3 11z"/>
<path d="M2294 6294 c3 -9 6 -18 6 -20 0 -2 14 -4 30 -4 23 0 30 4 30 20 0 23
-4 24 -31 10 -13 -7 -19 -7 -19 0 0 5 -5 10 -11 10 -6 0 -8 -7 -5 -16z"/>
<path d="M2740 6294 c0 -13 22 -24 46 -24 8 0 14 9 14 20 0 15 -6 19 -30 17
-16 -1 -30 -7 -30 -13z m50 -4 c0 -5 -4 -10 -10 -10 -5 0 -10 5 -10 10 0 6 5
10 10 10 6 0 10 -4 10 -10z"/>
<path d="M2686 6291 c-3 -5 -15 -7 -25 -4 -22 6 -38 -14 -23 -29 11 -11 48 8
56 29 6 15 0 17 -8 4z"/>
<path d="M2530 6263 c-14 -2 -32 -7 -40 -10 -8 -3 -21 -5 -27 -4 -8 1 -10 -5
-6 -15 4 -12 3 -15 -5 -10 -7 4 -12 2 -12 -3 0 -18 29 -12 50 9 16 16 25 18
44 10 20 -7 24 -6 19 5 -3 8 0 15 6 15 6 0 11 -4 11 -8 0 -4 9 -8 20 -8 11 0
19 5 17 11 -4 11 -39 15 -77 8z"/>
<path d="M2380 6215 c0 -9 7 -18 15 -22 23 -8 24 0 3 20 -15 14 -18 15 -18 2z"/>
<path d="M2860 6146 c0 -2 8 -10 18 -17 15 -13 16 -12 3 4 -13 16 -21 21 -21
13z"/>
<path d="M3180 6056 c0 -9 5 -16 10 -16 6 0 10 4 10 9 0 6 -4 13 -10 16 -5 3
-10 -1 -10 -9z"/>
<path d="M2889 6020 c-1 -22 -2 -46 -3 -52 -1 -17 33 -23 47 -9 8 8 6 11 -6
11 -18 0 -20 6 -17 58 1 17 -3 32 -9 32 -6 0 -12 -18 -12 -40z"/>
<path d="M2815 6040 c-4 -6 -11 -8 -16 -5 -5 4 -9 2 -9 -2 0 -5 9 -14 20 -21
11 -7 20 -23 20 -37 0 -19 5 -25 22 -25 21 0 21 0 3 14 -16 12 -17 16 -6 30 9
11 10 16 2 16 -6 0 -11 9 -11 20 0 21 -15 27 -25 10z"/>
<path d="M3020 6035 c0 -8 5 -15 10 -15 6 0 10 7 10 15 0 8 -4 15 -10 15 -5 0
-10 -7 -10 -15z"/>
<path d="M2740 6016 c0 -31 -10 -56 -21 -56 -5 0 -9 10 -9 23 0 13 -5 28 -12
35 -18 18 -38 -5 -37 -42 2 -30 2 -30 6 -3 5 30 23 37 23 8 0 -24 20 -41 45
-37 16 2 21 12 23 49 2 28 -1 47 -7 47 -6 0 -11 -11 -11 -24z"/>
<path d="M3059 6005 c-7 -19 -19 -35 -26 -35 -15 0 -18 -26 -4 -34 17 -11 39
5 34 25 -7 24 24 26 53 4 10 -8 27 -15 36 -15 9 0 23 -6 31 -14 12 -12 14 -8
13 34 -1 34 -4 46 -13 43 -7 -3 -13 -9 -13 -14 0 -5 -9 -4 -20 3 -11 7 -18 19
-15 25 7 21 -13 15 -25 -7 -6 -11 -15 -20 -21 -20 -6 0 -8 9 -4 20 11 35 -13
21 -26 -15z"/>
<path d="M2590 6011 c-18 -11 -15 -91 2 -91 7 0 8 15 4 38 -7 46 -1 55 26 41
16 -9 19 -8 16 3 -6 16 -28 21 -48 9z"/>
<path d="M2462 5968 c-7 -10 -22 -13 -39 -10 l-26 5 22 -22 c11 -11 21 -27 21
-33 0 -10 3 -9 9 1 7 10 12 8 24 -9 12 -18 19 -20 34 -11 15 9 15 10 2 11 -11
0 -19 14 -25 42 -8 35 -11 39 -22 26z"/>
<path d="M2370 5926 c0 -41 17 -76 34 -70 14 5 14 8 1 21 -8 8 -15 25 -15 38
0 13 -4 27 -10 30 -6 3 -10 -5 -10 -19z"/>
<path d="M4249 5938 c-4 -45 16 -128 31 -128 20 0 27 109 8 128 -16 16 -38 15
-39 0z"/>
<path d="M3110 5922 c0 -5 9 -12 21 -15 18 -5 20 -11 14 -36 -6 -27 -4 -31 14
-31 12 0 21 6 21 15 0 8 5 15 10 15 6 0 10 9 10 20 0 13 -9 22 -27 26 -16 3
-36 8 -45 11 -10 2 -18 0 -18 -5z"/>
<path d="M3075 5909 c-10 -15 3 -25 16 -12 7 7 7 13 1 17 -6 3 -14 1 -17 -5z"/>
<path d="M3100 5886 c0 -2 7 -7 16 -10 8 -3 12 -2 9 4 -6 10 -25 14 -25 6z"/>
<path d="M3060 5855 c0 -8 5 -15 10 -15 6 0 10 7 10 15 0 8 -4 15 -10 15 -5 0
-10 -7 -10 -15z"/>
<path d="M3020 5845 c0 -8 5 -15 10 -15 6 0 10 7 10 15 0 8 -4 15 -10 15 -5 0
-10 -7 -10 -15z"/>
<path d="M3100 5851 c0 -6 5 -13 10 -16 6 -3 10 1 10 9 0 9 -4 16 -10 16 -5 0
-10 -4 -10 -9z"/>
<path d="M5337 5773 c-4 -3 -7 -19 -7 -35 0 -21 5 -28 20 -28 11 0 20 1 20 3
0 1 4 17 9 35 9 29 8 32 -13 32 -12 0 -26 -3 -29 -7z"/>
<path d="M3391 5754 c0 -11 3 -14 6 -6 3 7 2 16 -1 19 -3 4 -6 -2 -5 -13z"/>
<path d="M4040 5760 c0 -14 29 -143 51 -224 17 -63 20 -35 5 45 -8 41 -17 94
-21 119 -6 44 -35 93 -35 60z"/>
<path d="M2336 5512 c-7 -11 16 -54 32 -60 15 -5 16 22 2 49 -11 20 -25 25
-34 11z"/>
<path d="M4737 5503 c-4 -3 -7 -11 -7 -17 0 -6 5 -5 12 2 6 6 9 14 7 17 -3 3
-9 2 -12 -2z"/>
<path d="M3501 5486 c-9 -11 -9 -15 1 -19 10 -4 10 -8 -2 -16 -18 -13 -8 -24
14 -15 10 4 15 15 13 30 -4 31 -12 37 -26 20z"/>
<path d="M4673 5413 c-15 -5 -18 -43 -4 -43 5 0 14 7 21 15 14 17 3 35 -17 28z"/>
<path d="M3510 5384 c0 -14 4 -23 9 -19 11 6 10 45 -1 45 -4 0 -8 -12 -8 -26z"/>
<path d="M4790 5391 c-13 -26 -13 -31 5 -31 9 0 15 9 15 25 0 30 -6 32 -20 6z"/>
<path d="M4265 5381 c-3 -5 -1 -12 5 -16 5 -3 10 1 10 9 0 18 -6 21 -15 7z"/>
<path d="M4896 5322 c4 -20 -2 -34 -19 -53 -14 -14 -28 -41 -32 -60 -3 -19 -9
-42 -11 -51 -3 -10 -2 -18 3 -18 9 0 33 47 33 65 0 6 5 16 12 23 12 12 38 78
38 98 0 7 -7 14 -15 17 -11 5 -13 0 -9 -21z"/>
<path d="M3530 5310 c0 -11 4 -20 9 -20 5 0 7 9 4 20 -3 11 -7 20 -9 20 -2 0
-4 -9 -4 -20z"/>
<path d="M4718 5298 c-4 -20 0 -23 29 -25 19 -2 33 2 33 8 0 6 -9 9 -20 6 -15
-4 -20 0 -20 14 0 26 -17 24 -22 -3z"/>
<path d="M4699 5181 l-23 -18 38 -13 c44 -14 49 -11 40 24 -7 31 -23 33 -55 7z"/>
<path d="M4797 5184 c-8 -8 3 -34 14 -34 11 0 12 27 0 34 -4 3 -11 3 -14 0z"/>
<path d="M4713 5105 c-19 -51 42 -181 79 -169 16 5 19 2 14 -13 -3 -10 -2 -24
2 -30 8 -13 36 93 46 170 5 35 3 37 -25 37 -26 0 -29 -4 -29 -30 0 -16 8 -45
17 -65 15 -31 15 -37 3 -45 -8 -5 -16 -8 -17 -6 -6 6 -33 117 -33 135 0 30
-46 42 -57 16z"/>
<path d="M2637 4915 c8 -25 20 -48 26 -52 7 -4 8 0 3 13 -5 10 -12 34 -18 52
-5 17 -13 32 -18 32 -5 0 -2 -20 7 -45z"/>
<path d="M2677 4813 c-4 -6 0 -19 8 -29 11 -15 14 -16 15 -4 0 21 -16 44 -23
33z"/>
<path d="M2730 4656 c0 -9 5 -16 10 -16 6 0 10 4 10 9 0 6 -4 13 -10 16 -5 3
-10 -1 -10 -9z"/>
<path d="M2780 4470 c0 -5 9 -14 21 -20 12 -7 18 -18 15 -26 -3 -8 -1 -14 4
-14 13 0 13 12 0 44 -9 25 -40 37 -40 16z"/>
<path d="M1747 4433 c-15 -15 -7 -43 13 -43 15 0 20 -7 20 -27 0 -22 2 -25 10
-13 28 43 -10 116 -43 83z"/>
<path d="M3394 4302 c-32 -21 -77 -44 -99 -51 -54 -18 -85 -38 -85 -56 0 -19
16 -19 27 -1 11 19 77 51 146 71 51 15 87 43 87 67 0 14 -16 8 -76 -30z"/>
<path d="M3657 4204 c-4 -4 -7 -25 -7 -46 0 -30 4 -38 18 -38 32 0 54 24 50
55 -2 24 -9 31 -28 33 -14 2 -29 0 -33 -4z"/>
<path d="M3601 4064 c0 -11 3 -14 6 -6 3 7 2 16 -1 19 -3 4 -6 -2 -5 -13z"/>
<path d="M3652 3985 c0 -16 2 -22 5 -12 2 9 2 23 0 30 -3 6 -5 -1 -5 -18z"/>
<path d="M3610 3918 c0 -4 9 -8 20 -8 11 0 20 4 20 8 0 4 -9 8 -20 8 -11 0
-20 -4 -20 -8z"/>
<path d="M3858 3913 c-21 -5 -35 -50 -20 -65 5 -5 20 -8 33 -6 20 2 24 9 24
37 0 35 -7 42 -37 34z"/>
<path d="M3721 3883 c-40 -28 -14 -86 28 -63 12 6 21 15 21 20 0 6 7 10 15 10
26 0 16 25 -14 37 -24 8 -34 8 -50 -4z"/>
<path d="M3502 3823 c-12 -22 -5 -43 13 -43 17 0 38 36 30 50 -10 16 -33 12
-43 -7z"/>
<path d="M4915 1876 c-49 -12 -102 -26 -117 -29 -28 -7 -28 -8 -28 -97 0 -96
5 -104 51 -80 16 9 19 22 19 79 0 78 3 82 77 100 59 14 73 10 73 -23 0 -29
-15 -42 -57 -51 -32 -6 -50 -21 -40 -31 9 -10 132 27 145 44 18 24 16 98 -4
106 -19 7 -9 9 -119 -18z"/>
<path d="M4893 1815 c-3 -9 -3 -18 0 -21 9 -10 57 8 57 22 0 19 -49 18 -57 -1z"/>
<path d="M4924 1668 c-3 -5 -12 -7 -20 -4 -12 4 -12 2 -4 -14 12 -22 25 -26
35 -10 4 6 14 10 23 9 31 -3 42 1 42 15 0 16 -66 20 -76 4z"/>
<path d="M4793 1640 c-13 -5 -23 -17 -23 -25 0 -11 4 -13 13 -8 6 4 23 9 37 9
67 3 67 3 46 19 -22 17 -41 18 -73 5z"/>
</g>
</svg>
